%TF.GenerationSoftware,KiCad,Pcbnew,10.0.6-1.fc44app2*%
%TF.CreationDate,2026-10-06T11:56:39+02:00*%
%TF.ProjectId,goodjohn-carrier,676f6f64-6a6f-4686-9e2d-636172726965,1.0-prototype*%
%TF.SameCoordinates,Original*%
%TF.FileFunction,Copper,L2,Bot*%
%TF.FilePolarity,Positive*%
%FSLAX46Y46*%
G04 Gerber Fmt 4.6, Leading zero omitted, Abs format (unit mm)*
G04 Created by KiCad (PCBNEW 10.0.6-1.fc44app2) date 2026-10-06 11:56:39*
%MOMM*%
%LPD*%
G01*
G04 APERTURE LIST*
G04 Aperture macros list*
%AMRoundRect*
0 Rectangle with rounded corners*
0 $1 Rounding radius*
0 $2 $3 $4 $5 $6 $7 $8 $9 X,Y pos of 4 corners*
0 Add a 4 corners polygon primitive as box body*
4,1,4,$2,$3,$4,$5,$6,$7,$8,$9,$2,$3,0*
0 Add four circle primitives for the rounded corners*
1,1,$1+$1,$2,$3*
1,1,$1+$1,$4,$5*
1,1,$1+$1,$6,$7*
1,1,$1+$1,$8,$9*
0 Add four rect primitives between the rounded corners*
20,1,$1+$1,$2,$3,$4,$5,0*
20,1,$1+$1,$4,$5,$6,$7,0*
20,1,$1+$1,$6,$7,$8,$9,0*
20,1,$1+$1,$8,$9,$2,$3,0*%
%AMFreePoly0*
4,1,37,0.603843,0.796157,0.639018,0.796157,0.711114,0.766294,0.766294,0.711114,0.796157,0.639018,0.796157,0.603843,0.800000,0.600000,0.800000,-0.600000,0.796157,-0.603843,0.796157,-0.639018,0.766294,-0.711114,0.711114,-0.766294,0.639018,-0.796157,0.603843,-0.796157,0.600000,-0.800000,0.000000,-0.800000,0.000000,-0.796148,-0.078414,-0.796148,-0.232228,-0.765552,-0.377117,-0.705537,
-0.507515,-0.618408,-0.618408,-0.507515,-0.705537,-0.377117,-0.765552,-0.232228,-0.796148,-0.078414,-0.796148,0.078414,-0.765552,0.232228,-0.705537,0.377117,-0.618408,0.507515,-0.507515,0.618408,-0.377117,0.705537,-0.232228,0.765552,-0.078414,0.796148,0.000000,0.796148,0.000000,0.800000,0.600000,0.800000,0.603843,0.796157,0.603843,0.796157,$1*%
%AMFreePoly1*
4,1,37,0.000000,0.796148,0.078414,0.796148,0.232228,0.765552,0.377117,0.705537,0.507515,0.618408,0.618408,0.507515,0.705537,0.377117,0.765552,0.232228,0.796148,0.078414,0.796148,-0.078414,0.765552,-0.232228,0.705537,-0.377117,0.618408,-0.507515,0.507515,-0.618408,0.377117,-0.705537,0.232228,-0.765552,0.078414,-0.796148,0.000000,-0.796148,0.000000,-0.800000,-0.600000,-0.800000,
-0.603843,-0.796157,-0.639018,-0.796157,-0.711114,-0.766294,-0.766294,-0.711114,-0.796157,-0.639018,-0.796157,-0.603843,-0.800000,-0.600000,-0.800000,0.600000,-0.796157,0.603843,-0.796157,0.639018,-0.766294,0.711114,-0.711114,0.766294,-0.639018,0.796157,-0.603843,0.796157,-0.600000,0.800000,0.000000,0.800000,0.000000,0.796148,0.000000,0.796148,$1*%
G04 Aperture macros list end*
%TA.AperFunction,ComponentPad*%
%ADD10R,1.700000X1.700000*%
%TD*%
%TA.AperFunction,ComponentPad*%
%ADD11C,1.700000*%
%TD*%
%TA.AperFunction,ComponentPad*%
%ADD12RoundRect,0.200000X-0.600000X-0.600000X0.600000X-0.600000X0.600000X0.600000X-0.600000X0.600000X0*%
%TD*%
%TA.AperFunction,ComponentPad*%
%ADD13C,1.600000*%
%TD*%
%TA.AperFunction,ComponentPad*%
%ADD14FreePoly0,0.000000*%
%TD*%
%TA.AperFunction,ComponentPad*%
%ADD15FreePoly1,0.000000*%
%TD*%
%TA.AperFunction,ViaPad*%
%ADD16C,0.800000*%
%TD*%
%TA.AperFunction,Conductor*%
%ADD17C,0.300000*%
%TD*%
G04 APERTURE END LIST*
D10*
%TO.P,J1,1*%
%TO.N,/X9*%
X173660000Y-155880000D03*
D11*
%TO.P,J1,2*%
%TO.N,/Y10*%
X173660000Y-153340000D03*
%TO.P,J1,3*%
%TO.N,/X1*%
X173660000Y-150800000D03*
%TO.P,J1,4*%
%TO.N,/X2*%
X173660000Y-148260000D03*
%TO.P,J1,5*%
%TO.N,/X3*%
X173660000Y-145720000D03*
%TO.P,J1,6*%
%TO.N,/X4*%
X173660000Y-143180000D03*
%TO.P,J1,7*%
%TO.N,/X5*%
X173660000Y-140640000D03*
%TO.P,J1,8*%
%TO.N,/X6*%
X173660000Y-138100000D03*
%TO.P,J1,9*%
%TO.N,/X7*%
X173660000Y-135560000D03*
%TO.P,J1,10*%
%TO.N,/X8*%
X173660000Y-133020000D03*
%TO.P,J1,11*%
%TO.N,/Y9*%
X173660000Y-130480000D03*
%TO.P,J1,12*%
%TO.N,/Y8*%
X173660000Y-127940000D03*
%TO.P,J1,13*%
%TO.N,/Y7*%
X173660000Y-125400000D03*
%TO.P,J1,14*%
%TO.N,/Y6*%
X173660000Y-122860000D03*
%TO.P,J1,15*%
%TO.N,/Y5*%
X173660000Y-120320000D03*
%TO.P,J1,16*%
%TO.N,/Y4*%
X173660000Y-117780000D03*
%TO.P,J1,17*%
%TO.N,/Y3*%
X173660000Y-115240000D03*
%TO.P,J1,18*%
%TO.N,/Y2*%
X173660000Y-112700000D03*
%TO.P,J1,19*%
%TO.N,/Y1*%
X173660000Y-110160000D03*
%TD*%
D10*
%TO.P,J3,1*%
%TO.N,/X8*%
X143180000Y-115240000D03*
D11*
%TO.P,J3,2*%
%TO.N,/Y9*%
X143180000Y-117780000D03*
%TO.P,J3,3*%
%TO.N,/Y8*%
X143180000Y-120320000D03*
%TO.P,J3,4*%
%TO.N,/Y7*%
X143180000Y-122860000D03*
%TO.P,J3,5*%
%TO.N,/Y6*%
X143180000Y-125400000D03*
%TO.P,J3,6*%
%TO.N,/Y5*%
X143180000Y-127940000D03*
%TO.P,J3,7*%
%TO.N,/Y4*%
X143180000Y-130480000D03*
%TO.P,J3,8*%
%TO.N,/Y3*%
X143180000Y-133020000D03*
%TO.P,J3,9*%
%TO.N,/Y2*%
X143180000Y-135560000D03*
%TO.P,J3,10*%
%TO.N,/Y1*%
X143180000Y-138100000D03*
%TD*%
D12*
%TO.P,U1,1*%
%TO.N,unconnected-(U1-GPIO0-Pad1)*%
X110160000Y-103048000D03*
D13*
%TO.P,U1,2*%
%TO.N,unconnected-(U1-GPIO1-Pad2)*%
X110160000Y-105588000D03*
D14*
%TO.P,U1,3*%
%TO.N,/GND*%
X110160000Y-108128000D03*
D13*
%TO.P,U1,4*%
%TO.N,/Y1*%
X110160000Y-110668000D03*
%TO.P,U1,5*%
%TO.N,/Y2*%
X110160000Y-113208000D03*
%TO.P,U1,6*%
%TO.N,/Y3*%
X110160000Y-115748000D03*
%TO.P,U1,7*%
%TO.N,/Y4*%
X110160000Y-118288000D03*
D14*
%TO.P,U1,8*%
%TO.N,/GND*%
X110160000Y-120828000D03*
D13*
%TO.P,U1,9*%
%TO.N,/Y5*%
X110160000Y-123368000D03*
%TO.P,U1,10*%
%TO.N,/Y6*%
X110160000Y-125908000D03*
%TO.P,U1,11*%
%TO.N,/Y7*%
X110160000Y-128448000D03*
%TO.P,U1,12*%
%TO.N,/Y8*%
X110160000Y-130988000D03*
D14*
%TO.P,U1,13*%
%TO.N,/GND*%
X110160000Y-133528000D03*
D13*
%TO.P,U1,14*%
%TO.N,/Y9*%
X110160000Y-136068000D03*
%TO.P,U1,15*%
%TO.N,/Y10*%
X110160000Y-138608000D03*
%TO.P,U1,16*%
%TO.N,/X1*%
X110160000Y-141148000D03*
%TO.P,U1,17*%
%TO.N,/X2*%
X110160000Y-143688000D03*
D14*
%TO.P,U1,18*%
%TO.N,/GND*%
X110160000Y-146228000D03*
D13*
%TO.P,U1,19*%
%TO.N,/X3*%
X110160000Y-148768000D03*
%TO.P,U1,20*%
%TO.N,/X4*%
X110160000Y-151308000D03*
%TO.P,U1,21*%
%TO.N,/X5*%
X127940000Y-151308000D03*
%TO.P,U1,22*%
%TO.N,/X6*%
X127940000Y-148768000D03*
D15*
%TO.P,U1,23*%
%TO.N,/GND*%
X127940000Y-146228000D03*
D13*
%TO.P,U1,24*%
%TO.N,/X7*%
X127940000Y-143688000D03*
%TO.P,U1,25*%
%TO.N,/X8*%
X127940000Y-141148000D03*
%TO.P,U1,26*%
%TO.N,/X9*%
X127940000Y-138608000D03*
%TO.P,U1,27*%
%TO.N,unconnected-(U1-GPIO21-Pad27)*%
X127940000Y-136068000D03*
D15*
%TO.P,U1,28*%
%TO.N,/GND*%
X127940000Y-133528000D03*
D13*
%TO.P,U1,29*%
%TO.N,unconnected-(U1-GPIO22-Pad29)*%
X127940000Y-130988000D03*
%TO.P,U1,30*%
%TO.N,unconnected-(U1-RUN-Pad30)*%
X127940000Y-128448000D03*
%TO.P,U1,31*%
%TO.N,unconnected-(U1-GPIO26_ADC0-Pad31)*%
X127940000Y-125908000D03*
%TO.P,U1,32*%
%TO.N,unconnected-(U1-GPIO27_ADC1-Pad32)*%
X127940000Y-123368000D03*
D15*
%TO.P,U1,33*%
%TO.N,unconnected-(U1-AGND-Pad33)*%
X127940000Y-120828000D03*
D13*
%TO.P,U1,34*%
%TO.N,unconnected-(U1-GPIO28_ADC2-Pad34)*%
X127940000Y-118288000D03*
%TO.P,U1,35*%
%TO.N,unconnected-(U1-ADC_VREF-Pad35)*%
X127940000Y-115748000D03*
%TO.P,U1,36*%
%TO.N,unconnected-(U1-3V3-Pad36)*%
X127940000Y-113208000D03*
%TO.P,U1,37*%
%TO.N,unconnected-(U1-3V3_EN-Pad37)*%
X127940000Y-110668000D03*
D15*
%TO.P,U1,38*%
%TO.N,/GND*%
X127940000Y-108128000D03*
D13*
%TO.P,U1,39*%
%TO.N,unconnected-(U1-VSYS-Pad39)*%
X127940000Y-105588000D03*
%TO.P,U1,40*%
%TO.N,unconnected-(U1-VBUS-Pad40)*%
X127940000Y-103048000D03*
%TD*%
D10*
%TO.P,J2,1*%
%TO.N,/Y10*%
X151816000Y-115240000D03*
D11*
%TO.P,J2,2*%
%TO.N,/X1*%
X151816000Y-117780000D03*
%TO.P,J2,3*%
%TO.N,/X2*%
X151816000Y-120320000D03*
%TO.P,J2,4*%
%TO.N,/X3*%
X151816000Y-122860000D03*
%TO.P,J2,5*%
%TO.N,/X4*%
X151816000Y-125400000D03*
%TO.P,J2,6*%
%TO.N,/X5*%
X151816000Y-127940000D03*
%TO.P,J2,7*%
%TO.N,/X6*%
X151816000Y-130480000D03*
%TO.P,J2,8*%
%TO.N,/X7*%
X151816000Y-133020000D03*
%TO.P,J2,9*%
%TO.N,/X9*%
X151816000Y-135560000D03*
%TO.P,J2,10*%
%TO.N,unconnected-(J2-Pin_10-Pad10)*%
X151816000Y-138100000D03*
%TD*%
D16*
%TO.N,/Y10*%
X165651400Y-142848900D03*
%TO.N,/X2*%
X170802800Y-149258300D03*
%TO.N,/X3*%
X167951700Y-150033100D03*
%TO.N,/X4*%
X163837700Y-125400000D03*
%TO.N,/X7*%
X171387000Y-137076000D03*
%TO.N,/Y9*%
X157556900Y-114190200D03*
X134003300Y-115512600D03*
%TO.N,/Y7*%
X161631500Y-117144400D03*
%TO.N,/Y6*%
X148256500Y-115125600D03*
%TO.N,/Y5*%
X149164700Y-111778200D03*
%TO.N,/Y3*%
X143616600Y-113625700D03*
%TO.N,/Y2*%
X143065000Y-112551700D03*
%TO.N,/GND*%
X119000000Y-120000000D03*
%TD*%
%TO.N,/X9*%
D17*
X151816000Y-135560000D02*
X151816000Y-135952700D01*
X151816000Y-135952700D02*
X171743300Y-155880000D01*
X171743300Y-155880000D02*
X173660000Y-155880000D01*
%TO.N,/Y10*%
X156879800Y-134077300D02*
X165651400Y-142848900D01*
X151816000Y-115240000D02*
X156879800Y-120303800D01*
X165651400Y-142851000D02*
X165651400Y-142848900D01*
X173660000Y-153340000D02*
X171664400Y-151344400D01*
X171664400Y-148864000D02*
X165651400Y-142851000D01*
X156879800Y-120303800D02*
X156879800Y-134077300D01*
X171664400Y-151344400D02*
X171664400Y-148864000D01*
%TO.N,/X1*%
X172359800Y-148708500D02*
X168052300Y-144401000D01*
X111430000Y-142418000D02*
X110160000Y-141148000D01*
X149912600Y-121310400D02*
X149912600Y-124596200D01*
X162985900Y-135306600D02*
X162985900Y-123977700D01*
X149912600Y-124596200D02*
X144674700Y-129834100D01*
X144674700Y-138481000D02*
X140737700Y-142418000D01*
X151816000Y-117780000D02*
X150514300Y-119081700D01*
X172359800Y-149037800D02*
X172359800Y-148708500D01*
X162985900Y-123977700D02*
X152914500Y-113906300D01*
X150514300Y-119081700D02*
X150514300Y-120708700D01*
X173660000Y-150800000D02*
X172359800Y-149499800D01*
X172359800Y-149499800D02*
X172359800Y-149037800D01*
X150768400Y-113906300D02*
X150478400Y-114196300D01*
X144674700Y-129834100D02*
X144674700Y-138481000D01*
X168052300Y-144401000D02*
X168052300Y-140373000D01*
X150514300Y-120708700D02*
X149912600Y-121310400D01*
X152914500Y-113906300D02*
X150768400Y-113906300D01*
X168052300Y-140373000D02*
X162985900Y-135306600D01*
X150478400Y-114196300D02*
X150478400Y-116442400D01*
X140737700Y-142418000D02*
X111430000Y-142418000D01*
X150478400Y-116442400D02*
X151816000Y-117780000D01*
%TO.N,/X2*%
X145357100Y-130018100D02*
X150514300Y-124860900D01*
X155806500Y-134262000D02*
X170802800Y-149258300D01*
X150514300Y-124860900D02*
X150514300Y-121621700D01*
X151816000Y-120320000D02*
X155806500Y-124310500D01*
X111432700Y-144960700D02*
X139045900Y-144960700D01*
X139045900Y-144960700D02*
X145357100Y-138649500D01*
X110160000Y-143688000D02*
X111432700Y-144960700D01*
X145357100Y-138649500D02*
X145357100Y-130018100D01*
X155806500Y-124310500D02*
X155806500Y-134262000D01*
X150514300Y-121621700D02*
X151816000Y-120320000D01*
%TO.N,/X3*%
X152621200Y-123665200D02*
X153116200Y-123665200D01*
X151816000Y-122860000D02*
X152621200Y-123665200D01*
X153116200Y-127598600D02*
X154520800Y-129003200D01*
X154520800Y-129003200D02*
X154520800Y-136602200D01*
X153116200Y-123665200D02*
X153116200Y-127598600D01*
X154520800Y-136602200D02*
X167951700Y-150033100D01*
%TO.N,/X4*%
X173660000Y-143180000D02*
X163837700Y-133357700D01*
X163837700Y-133357700D02*
X163837700Y-125400000D01*
%TO.N,/X5*%
X127940000Y-151308000D02*
X126650200Y-150018200D01*
X146047600Y-138809900D02*
X146047600Y-133708400D01*
X127356500Y-147498000D02*
X137359500Y-147498000D01*
X126650200Y-148204300D02*
X127356500Y-147498000D01*
X137359500Y-147498000D02*
X146047600Y-138809900D01*
X126650200Y-150018200D02*
X126650200Y-148204300D01*
X146047600Y-133708400D02*
X151816000Y-127940000D01*
%TO.N,/X6*%
X148099700Y-137608700D02*
X148099700Y-134196300D01*
X136940400Y-148768000D02*
X148099700Y-137608700D01*
X127940000Y-148768000D02*
X136940400Y-148768000D01*
X148099700Y-134196300D02*
X151816000Y-130480000D01*
%TO.N,/X7*%
X172144000Y-137076000D02*
X171387000Y-137076000D01*
X173660000Y-135560000D02*
X172144000Y-137076000D01*
%TO.N,/X8*%
X174960200Y-120269200D02*
X176261800Y-118967600D01*
X173660000Y-133020000D02*
X173960200Y-132719800D01*
X173283500Y-108697900D02*
X148053900Y-108697900D01*
X140966300Y-109398400D02*
X141610000Y-109398400D01*
X127940000Y-141148000D02*
X135211400Y-133876600D01*
X176261800Y-110004900D02*
X174331400Y-108074500D01*
X144481700Y-112270100D02*
X144481700Y-115240000D01*
X174960200Y-132719800D02*
X174960200Y-120269200D01*
X141610000Y-109398400D02*
X144481700Y-112270100D01*
X135211400Y-115153300D02*
X140966300Y-109398400D01*
X143180000Y-115240000D02*
X144481700Y-115240000D01*
X173906900Y-108074500D02*
X173283500Y-108697900D01*
X148053900Y-108697900D02*
X144481700Y-112270100D01*
X174331400Y-108074500D02*
X173906900Y-108074500D01*
X173960200Y-132719800D02*
X174960200Y-132719800D01*
X135211400Y-133876600D02*
X135211400Y-115153300D01*
X176261800Y-118967600D02*
X176261800Y-110004900D01*
%TO.N,/Y9*%
X124130000Y-122098000D02*
X110160000Y-136068000D01*
X128543100Y-122098000D02*
X124130000Y-122098000D01*
X134003300Y-116637800D02*
X128543100Y-122098000D01*
X134003300Y-115512600D02*
X134003300Y-116637800D01*
X157556900Y-114376900D02*
X157556900Y-114190200D01*
X173660000Y-130480000D02*
X157556900Y-114376900D01*
%TO.N,/Y7*%
X173660000Y-125400000D02*
X165404400Y-117144400D01*
X165404400Y-117144400D02*
X161631500Y-117144400D01*
%TO.N,/Y6*%
X148256500Y-120323500D02*
X148256500Y-115125600D01*
X143180000Y-125400000D02*
X148256500Y-120323500D01*
%TO.N,/Y5*%
X149164700Y-120356500D02*
X148709200Y-120812000D01*
X148709200Y-122410800D02*
X143180000Y-127940000D01*
X148709200Y-120812000D02*
X148709200Y-122410800D01*
X149164700Y-111778200D02*
X149164700Y-120356500D01*
%TO.N,/Y4*%
X143180000Y-130477900D02*
X143180000Y-130480000D01*
X149310900Y-124347000D02*
X143180000Y-130477900D01*
X149803000Y-120569100D02*
X149310900Y-121061200D01*
X150521000Y-113302800D02*
X149803000Y-114020800D01*
X169182800Y-113302800D02*
X150521000Y-113302800D01*
X149310900Y-121061200D02*
X149310900Y-124347000D01*
X173660000Y-117780000D02*
X169182800Y-113302800D01*
X149803000Y-114020800D02*
X149803000Y-120569100D01*
%TO.N,/Y3*%
X141816400Y-114227800D02*
X142418500Y-113625700D01*
X142418500Y-113625700D02*
X143616600Y-113625700D01*
X143180000Y-133020000D02*
X141816400Y-131656400D01*
X141816400Y-131656400D02*
X141816400Y-114227800D01*
%TO.N,/Y2*%
X143065000Y-112551700D02*
X142639500Y-112551700D01*
X141214700Y-133594700D02*
X143180000Y-135560000D01*
X141214700Y-113976500D02*
X141214700Y-133594700D01*
X142639500Y-112551700D02*
X141214700Y-113976500D01*
%TO.N,/GND*%
X110160000Y-146228000D02*
X109859800Y-145927800D01*
X107474900Y-134906800D02*
X108853700Y-133528000D01*
X108909800Y-145927800D02*
X108909800Y-138844600D01*
X108909800Y-121956100D02*
X108909800Y-120828000D01*
X109859800Y-145927800D02*
X108909800Y-145927800D01*
X108853700Y-133528000D02*
X108853700Y-122012200D01*
X108853700Y-122012200D02*
X108909800Y-121956100D01*
X108909800Y-120828000D02*
X108909800Y-113444600D01*
X107474900Y-110813100D02*
X110160000Y-108128000D01*
X107474900Y-137409700D02*
X107474900Y-134906800D01*
X107474900Y-112009700D02*
X107474900Y-110813100D01*
X108909800Y-113444600D02*
X107474900Y-112009700D01*
X110160000Y-120828000D02*
X108909800Y-120828000D01*
X108853700Y-133528000D02*
X110160000Y-133528000D01*
X108909800Y-138844600D02*
X107474900Y-137409700D01*
%TD*%
%TA.AperFunction,Conductor*%
%TO.N,/GND*%
G36*
X172443039Y-100520185D02*
G01*
X172488794Y-100572989D01*
X172500000Y-100624500D01*
X172500000Y-107500000D01*
X173544934Y-107500000D01*
X173611973Y-107519685D01*
X173657728Y-107572489D01*
X173667672Y-107641647D01*
X173638647Y-107705203D01*
X173632615Y-107711681D01*
X173133216Y-108211081D01*
X173071893Y-108244566D01*
X173045535Y-108247400D01*
X147994591Y-108247400D01*
X147904225Y-108271613D01*
X147904224Y-108271612D01*
X147880015Y-108278100D01*
X147880006Y-108278104D01*
X147777292Y-108337405D01*
X147777284Y-108337411D01*
X144569380Y-111545315D01*
X144508057Y-111578800D01*
X144438365Y-111573816D01*
X144394018Y-111545315D01*
X141886616Y-109037913D01*
X141886614Y-109037911D01*
X141835250Y-109008256D01*
X141783888Y-108978601D01*
X141768630Y-108974513D01*
X141759673Y-108972113D01*
X141759670Y-108972112D01*
X141706913Y-108957976D01*
X141669309Y-108947900D01*
X140906991Y-108947900D01*
X140807670Y-108974513D01*
X140807669Y-108974513D01*
X140792416Y-108978599D01*
X140689686Y-109037909D01*
X140689684Y-109037911D01*
X134850913Y-114876683D01*
X134850909Y-114876689D01*
X134791601Y-114979412D01*
X134791600Y-114979413D01*
X134791601Y-114979414D01*
X134775968Y-115037757D01*
X134739603Y-115097417D01*
X134676756Y-115127946D01*
X134607380Y-115119651D01*
X134553502Y-115075166D01*
X134553090Y-115074553D01*
X134547412Y-115066055D01*
X134449845Y-114968488D01*
X134449841Y-114968485D01*
X134335117Y-114891828D01*
X134335104Y-114891821D01*
X134207632Y-114839021D01*
X134207622Y-114839018D01*
X134072295Y-114812100D01*
X134072293Y-114812100D01*
X133934307Y-114812100D01*
X133934305Y-114812100D01*
X133798977Y-114839018D01*
X133798967Y-114839021D01*
X133671495Y-114891821D01*
X133671482Y-114891828D01*
X133556758Y-114968485D01*
X133556754Y-114968488D01*
X133459188Y-115066054D01*
X133459185Y-115066058D01*
X133382528Y-115180782D01*
X133382521Y-115180795D01*
X133329721Y-115308267D01*
X133329718Y-115308277D01*
X133302800Y-115443604D01*
X133302800Y-115443607D01*
X133302800Y-115581593D01*
X133302800Y-115581595D01*
X133302799Y-115581595D01*
X133329718Y-115716922D01*
X133329721Y-115716932D01*
X133382521Y-115844404D01*
X133382528Y-115844417D01*
X133459184Y-115959140D01*
X133459185Y-115959141D01*
X133459186Y-115959142D01*
X133516482Y-116016438D01*
X133549966Y-116077759D01*
X133552800Y-116104118D01*
X133552800Y-116399834D01*
X133533115Y-116466873D01*
X133516481Y-116487515D01*
X129249254Y-120754741D01*
X129187931Y-120788226D01*
X129118239Y-120783242D01*
X129062306Y-120741370D01*
X129039955Y-120691250D01*
X129039631Y-120689623D01*
X129039630Y-120689608D01*
X129008887Y-120535050D01*
X128991502Y-120477739D01*
X128931196Y-120332148D01*
X128902965Y-120279331D01*
X128902961Y-120279325D01*
X128902957Y-120279318D01*
X128837378Y-120181173D01*
X128815415Y-120148303D01*
X128777422Y-120102009D01*
X128777421Y-120102008D01*
X128777417Y-120102003D01*
X128665996Y-119990582D01*
X128660160Y-119985793D01*
X128619697Y-119952585D01*
X128610396Y-119946370D01*
X128488681Y-119865042D01*
X128488674Y-119865038D01*
X128488671Y-119865036D01*
X128488669Y-119865035D01*
X128435852Y-119836804D01*
X128435845Y-119836801D01*
X128290266Y-119776499D01*
X128268108Y-119769778D01*
X128232950Y-119759113D01*
X128078392Y-119728370D01*
X128078388Y-119728369D01*
X128078380Y-119728368D01*
X128030354Y-119723638D01*
X128018793Y-119722500D01*
X127300218Y-119722500D01*
X127294103Y-119722570D01*
X127293161Y-119722581D01*
X127183309Y-119745753D01*
X127183308Y-119745754D01*
X127109843Y-119776183D01*
X127103312Y-119778977D01*
X127010688Y-119842426D01*
X126954406Y-119898709D01*
X126949492Y-119903737D01*
X126888204Y-119997796D01*
X126888202Y-119997799D01*
X126857739Y-120071345D01*
X126855130Y-120077857D01*
X126834500Y-120188219D01*
X126834500Y-121467769D01*
X126834581Y-121474838D01*
X126834581Y-121474839D01*
X126839447Y-121497907D01*
X126834023Y-121567566D01*
X126791800Y-121623234D01*
X126726183Y-121647237D01*
X126718117Y-121647500D01*
X124070691Y-121647500D01*
X124001944Y-121665920D01*
X123956112Y-121678201D01*
X123956107Y-121678204D01*
X123912695Y-121703267D01*
X123912696Y-121703268D01*
X123853389Y-121737508D01*
X123853383Y-121737513D01*
X111476681Y-134114214D01*
X111415358Y-134147699D01*
X111345666Y-134142715D01*
X111289733Y-134100843D01*
X111265316Y-134035379D01*
X111265000Y-134026533D01*
X111265000Y-132888232D01*
X111264918Y-132881173D01*
X111241785Y-132771504D01*
X111211309Y-132697927D01*
X111208580Y-132691551D01*
X111208579Y-132691551D01*
X110603670Y-133296460D01*
X110560099Y-133220993D01*
X110467007Y-133127901D01*
X110391539Y-133084329D01*
X110995575Y-132480293D01*
X110995574Y-132480291D01*
X110990010Y-132476664D01*
X110916506Y-132446219D01*
X110909961Y-132443596D01*
X110799780Y-132423000D01*
X110081209Y-132423000D01*
X110021718Y-132428858D01*
X110021714Y-132428858D01*
X109867151Y-132459601D01*
X109809927Y-132476960D01*
X109664338Y-132537266D01*
X109611612Y-132565449D01*
X109611607Y-132565452D01*
X109490503Y-132646370D01*
X109490503Y-132646371D01*
X109928461Y-133084329D01*
X109852993Y-133127901D01*
X109759901Y-133220993D01*
X109716329Y-133296461D01*
X109278371Y-132858503D01*
X109278370Y-132858503D01*
X109197452Y-132979607D01*
X109197449Y-132979612D01*
X109169266Y-133032338D01*
X109108960Y-133177927D01*
X109091601Y-133235151D01*
X109060858Y-133389714D01*
X109060858Y-133389718D01*
X109055000Y-133449208D01*
X109055000Y-133606791D01*
X109060858Y-133666281D01*
X109060858Y-133666285D01*
X109091601Y-133820848D01*
X109108960Y-133878072D01*
X109169266Y-134023661D01*
X109197449Y-134076387D01*
X109197455Y-134076397D01*
X109278371Y-134197495D01*
X109716329Y-133759538D01*
X109759901Y-133835007D01*
X109852993Y-133928099D01*
X109928460Y-133971670D01*
X109490502Y-134409628D01*
X109611602Y-134490544D01*
X109611612Y-134490550D01*
X109664338Y-134518733D01*
X109809927Y-134579039D01*
X109867151Y-134596398D01*
X110021716Y-134627141D01*
X110081209Y-134633000D01*
X110658534Y-134633000D01*
X110725573Y-134652685D01*
X110771328Y-134705489D01*
X110781272Y-134774647D01*
X110752247Y-134838203D01*
X110746228Y-134844667D01*
X110633894Y-134957002D01*
X110606230Y-134984666D01*
X110544907Y-135018150D01*
X110480232Y-135014915D01*
X110417702Y-134994598D01*
X110417698Y-134994597D01*
X110286271Y-134973781D01*
X110246611Y-134967500D01*
X110073389Y-134967500D01*
X110033728Y-134973781D01*
X109902302Y-134994597D01*
X109737552Y-135048128D01*
X109583211Y-135126768D01*
X109542544Y-135156315D01*
X109443072Y-135228586D01*
X109443070Y-135228588D01*
X109443069Y-135228588D01*
X109320588Y-135351069D01*
X109320588Y-135351070D01*
X109320586Y-135351072D01*
X109276859Y-135411256D01*
X109218768Y-135491211D01*
X109140128Y-135645552D01*
X109086597Y-135810302D01*
X109069237Y-135919912D01*
X109059500Y-135981389D01*
X109059500Y-136154611D01*
X109086598Y-136325701D01*
X109140127Y-136490445D01*
X109218768Y-136644788D01*
X109320586Y-136784928D01*
X109443072Y-136907414D01*
X109583212Y-137009232D01*
X109737555Y-137087873D01*
X109902299Y-137141402D01*
X110073389Y-137168500D01*
X110073390Y-137168500D01*
X110246610Y-137168500D01*
X110246611Y-137168500D01*
X110417701Y-137141402D01*
X110582445Y-137087873D01*
X110736788Y-137009232D01*
X110876928Y-136907414D01*
X110999414Y-136784928D01*
X111101232Y-136644788D01*
X111179873Y-136490445D01*
X111233402Y-136325701D01*
X111260500Y-136154611D01*
X111260500Y-135981389D01*
X126839500Y-135981389D01*
X126839500Y-136154611D01*
X126866598Y-136325701D01*
X126920127Y-136490445D01*
X126998768Y-136644788D01*
X127100586Y-136784928D01*
X127223072Y-136907414D01*
X127363212Y-137009232D01*
X127517555Y-137087873D01*
X127682299Y-137141402D01*
X127853389Y-137168500D01*
X127853390Y-137168500D01*
X128026610Y-137168500D01*
X128026611Y-137168500D01*
X128197701Y-137141402D01*
X128362445Y-137087873D01*
X128516788Y-137009232D01*
X128656928Y-136907414D01*
X128779414Y-136784928D01*
X128881232Y-136644788D01*
X128959873Y-136490445D01*
X129013402Y-136325701D01*
X129040500Y-136154611D01*
X129040500Y-135981389D01*
X129013402Y-135810299D01*
X128959873Y-135645555D01*
X128881232Y-135491212D01*
X128779414Y-135351072D01*
X128656928Y-135228586D01*
X128516788Y-135126768D01*
X128362445Y-135048127D01*
X128197701Y-134994598D01*
X128197699Y-134994597D01*
X128197698Y-134994597D01*
X128066271Y-134973781D01*
X128026611Y-134967500D01*
X127853389Y-134967500D01*
X127813728Y-134973781D01*
X127682302Y-134994597D01*
X127517552Y-135048128D01*
X127363211Y-135126768D01*
X127322544Y-135156315D01*
X127223072Y-135228586D01*
X127223070Y-135228588D01*
X127223069Y-135228588D01*
X127100588Y-135351069D01*
X127100588Y-135351070D01*
X127100586Y-135351072D01*
X127056859Y-135411256D01*
X126998768Y-135491211D01*
X126920128Y-135645552D01*
X126866597Y-135810302D01*
X126849237Y-135919912D01*
X126839500Y-135981389D01*
X111260500Y-135981389D01*
X111233402Y-135810299D01*
X111213082Y-135747764D01*
X111211087Y-135677927D01*
X111243331Y-135621770D01*
X113976881Y-132888220D01*
X126835000Y-132888220D01*
X126835000Y-134167767D01*
X126835081Y-134174826D01*
X126858215Y-134284497D01*
X126888651Y-134357976D01*
X126891419Y-134364447D01*
X127496329Y-133759538D01*
X127539901Y-133835007D01*
X127632993Y-133928099D01*
X127708460Y-133971670D01*
X127104423Y-134575706D01*
X127109989Y-134579334D01*
X127183525Y-134609792D01*
X127190038Y-134612403D01*
X127300220Y-134633000D01*
X128018791Y-134633000D01*
X128078281Y-134627141D01*
X128078285Y-134627141D01*
X128232848Y-134596398D01*
X128290072Y-134579039D01*
X128435661Y-134518733D01*
X128488387Y-134490550D01*
X128488397Y-134490544D01*
X128609496Y-134409628D01*
X128171538Y-133971670D01*
X128247007Y-133928099D01*
X128340099Y-133835007D01*
X128383670Y-133759538D01*
X128821628Y-134197496D01*
X128902544Y-134076397D01*
X128902550Y-134076387D01*
X128930733Y-134023661D01*
X128991039Y-133878072D01*
X129008398Y-133820848D01*
X129039141Y-133666285D01*
X129039141Y-133666281D01*
X129045000Y-133606791D01*
X129045000Y-133449208D01*
X129039141Y-133389718D01*
X129039141Y-133389714D01*
X129008398Y-133235151D01*
X128991039Y-133177927D01*
X128930733Y-133032338D01*
X128902550Y-132979612D01*
X128902544Y-132979602D01*
X128821628Y-132858502D01*
X128383670Y-133296460D01*
X128340099Y-133220993D01*
X128247007Y-133127901D01*
X128171538Y-133084329D01*
X128609495Y-132646371D01*
X128488397Y-132565455D01*
X128488387Y-132565449D01*
X128435661Y-132537266D01*
X128290072Y-132476960D01*
X128232848Y-132459601D01*
X128078283Y-132428858D01*
X128018791Y-132423000D01*
X127300232Y-132423000D01*
X127293173Y-132423081D01*
X127183500Y-132446215D01*
X127183499Y-132446216D01*
X127110044Y-132476641D01*
X127103550Y-132479419D01*
X127708461Y-133084329D01*
X127632993Y-133127901D01*
X127539901Y-133220993D01*
X127496329Y-133296460D01*
X126892293Y-132692424D01*
X126892292Y-132692424D01*
X126888663Y-132697993D01*
X126888662Y-132697995D01*
X126858219Y-132771494D01*
X126855596Y-132778038D01*
X126835000Y-132888220D01*
X113976881Y-132888220D01*
X115963712Y-130901389D01*
X126839500Y-130901389D01*
X126839500Y-131074611D01*
X126866598Y-131245701D01*
X126920127Y-131410445D01*
X126998768Y-131564788D01*
X127100586Y-131704928D01*
X127223072Y-131827414D01*
X127363212Y-131929232D01*
X127517555Y-132007873D01*
X127682299Y-132061402D01*
X127853389Y-132088500D01*
X127853390Y-132088500D01*
X128026610Y-132088500D01*
X128026611Y-132088500D01*
X128197701Y-132061402D01*
X128362445Y-132007873D01*
X128516788Y-131929232D01*
X128656928Y-131827414D01*
X128779414Y-131704928D01*
X128881232Y-131564788D01*
X128959873Y-131410445D01*
X129013402Y-131245701D01*
X129040500Y-131074611D01*
X129040500Y-130901389D01*
X129013402Y-130730299D01*
X128959873Y-130565555D01*
X128881232Y-130411212D01*
X128779414Y-130271072D01*
X128656928Y-130148586D01*
X128516788Y-130046768D01*
X128362445Y-129968127D01*
X128197701Y-129914598D01*
X128197699Y-129914597D01*
X128197698Y-129914597D01*
X128066271Y-129893781D01*
X128026611Y-129887500D01*
X127853389Y-129887500D01*
X127813728Y-129893781D01*
X127682302Y-129914597D01*
X127517552Y-129968128D01*
X127363211Y-130046768D01*
X127283256Y-130104859D01*
X127223072Y-130148586D01*
X127223070Y-130148588D01*
X127223069Y-130148588D01*
X127100588Y-130271069D01*
X127100588Y-130271070D01*
X127100586Y-130271072D01*
X127056859Y-130331256D01*
X126998768Y-130411211D01*
X126920128Y-130565552D01*
X126866597Y-130730302D01*
X126863571Y-130749409D01*
X126839500Y-130901389D01*
X115963712Y-130901389D01*
X118503713Y-128361389D01*
X126839500Y-128361389D01*
X126839500Y-128534611D01*
X126866598Y-128705701D01*
X126920127Y-128870445D01*
X126998768Y-129024788D01*
X127100586Y-129164928D01*
X127223072Y-129287414D01*
X127363212Y-129389232D01*
X127517555Y-129467873D01*
X127682299Y-129521402D01*
X127853389Y-129548500D01*
X127853390Y-129548500D01*
X128026610Y-129548500D01*
X128026611Y-129548500D01*
X128197701Y-129521402D01*
X128362445Y-129467873D01*
X128516788Y-129389232D01*
X128656928Y-129287414D01*
X128779414Y-129164928D01*
X128881232Y-129024788D01*
X128959873Y-128870445D01*
X129013402Y-128705701D01*
X129040500Y-128534611D01*
X129040500Y-128361389D01*
X129013402Y-128190299D01*
X128959873Y-128025555D01*
X128881232Y-127871212D01*
X128779414Y-127731072D01*
X128656928Y-127608586D01*
X128516788Y-127506768D01*
X128413395Y-127454087D01*
X128362447Y-127428128D01*
X128362446Y-127428127D01*
X128362445Y-127428127D01*
X128197701Y-127374598D01*
X128197699Y-127374597D01*
X128197698Y-127374597D01*
X128066271Y-127353781D01*
X128026611Y-127347500D01*
X127853389Y-127347500D01*
X127813728Y-127353781D01*
X127682302Y-127374597D01*
X127517552Y-127428128D01*
X127363211Y-127506768D01*
X127283256Y-127564859D01*
X127223072Y-127608586D01*
X127223070Y-127608588D01*
X127223069Y-127608588D01*
X127100588Y-127731069D01*
X127100588Y-127731070D01*
X127100586Y-127731072D01*
X127056859Y-127791256D01*
X126998768Y-127871211D01*
X126920128Y-128025552D01*
X126866597Y-128190302D01*
X126864672Y-128202457D01*
X126839500Y-128361389D01*
X118503713Y-128361389D01*
X121043713Y-125821389D01*
X126839500Y-125821389D01*
X126839500Y-125994611D01*
X126866598Y-126165701D01*
X126920127Y-126330445D01*
X126998768Y-126484788D01*
X127100586Y-126624928D01*
X127223072Y-126747414D01*
X127363212Y-126849232D01*
X127517555Y-126927873D01*
X127682299Y-126981402D01*
X127853389Y-127008500D01*
X127853390Y-127008500D01*
X128026610Y-127008500D01*
X128026611Y-127008500D01*
X128197701Y-126981402D01*
X128362445Y-126927873D01*
X128516788Y-126849232D01*
X128656928Y-126747414D01*
X128779414Y-126624928D01*
X128881232Y-126484788D01*
X128959873Y-126330445D01*
X129013402Y-126165701D01*
X129040500Y-125994611D01*
X129040500Y-125821389D01*
X129013402Y-125650299D01*
X128959873Y-125485555D01*
X128881232Y-125331212D01*
X128779414Y-125191072D01*
X128656928Y-125068586D01*
X128516788Y-124966768D01*
X128362445Y-124888127D01*
X128197701Y-124834598D01*
X128197699Y-124834597D01*
X128197698Y-124834597D01*
X128066271Y-124813781D01*
X128026611Y-124807500D01*
X127853389Y-124807500D01*
X127813728Y-124813781D01*
X127682302Y-124834597D01*
X127517552Y-124888128D01*
X127363211Y-124966768D01*
X127283256Y-125024859D01*
X127223072Y-125068586D01*
X127223070Y-125068588D01*
X127223069Y-125068588D01*
X127100588Y-125191069D01*
X127100588Y-125191070D01*
X127100586Y-125191072D01*
X127056859Y-125251256D01*
X126998768Y-125331211D01*
X126920128Y-125485552D01*
X126866597Y-125650302D01*
X126853687Y-125731817D01*
X126839500Y-125821389D01*
X121043713Y-125821389D01*
X124280284Y-122584819D01*
X124341607Y-122551334D01*
X124367965Y-122548500D01*
X126931745Y-122548500D01*
X126998784Y-122568185D01*
X127044539Y-122620989D01*
X127054483Y-122690147D01*
X127032063Y-122745386D01*
X126998768Y-122791211D01*
X126920128Y-122945552D01*
X126866597Y-123110302D01*
X126839500Y-123281389D01*
X126839500Y-123454610D01*
X126863460Y-123605893D01*
X126866598Y-123625701D01*
X126920127Y-123790445D01*
X126998768Y-123944788D01*
X127100586Y-124084928D01*
X127223072Y-124207414D01*
X127363212Y-124309232D01*
X127517555Y-124387873D01*
X127682299Y-124441402D01*
X127853389Y-124468500D01*
X127853390Y-124468500D01*
X128026610Y-124468500D01*
X128026611Y-124468500D01*
X128197701Y-124441402D01*
X128362445Y-124387873D01*
X128516788Y-124309232D01*
X128656928Y-124207414D01*
X128779414Y-124084928D01*
X128881232Y-123944788D01*
X128959873Y-123790445D01*
X129013402Y-123625701D01*
X129040500Y-123454611D01*
X129040500Y-123281389D01*
X129013402Y-123110299D01*
X128959873Y-122945555D01*
X128881232Y-122791212D01*
X128779414Y-122651072D01*
X128779411Y-122651069D01*
X128779409Y-122651066D01*
X128779385Y-122651038D01*
X128779379Y-122651024D01*
X128776550Y-122647131D01*
X128777368Y-122646536D01*
X128750819Y-122587275D01*
X128761261Y-122518190D01*
X128807395Y-122465717D01*
X128811626Y-122463158D01*
X128819714Y-122458489D01*
X134363789Y-116914414D01*
X134423099Y-116811687D01*
X134446433Y-116724601D01*
X134453800Y-116697109D01*
X134453800Y-116104118D01*
X134473485Y-116037079D01*
X134490119Y-116016437D01*
X134549219Y-115957337D01*
X134610542Y-115923852D01*
X134680234Y-115928836D01*
X134736167Y-115970708D01*
X134760584Y-116036172D01*
X134760900Y-116045018D01*
X134760900Y-133638634D01*
X134741215Y-133705673D01*
X134724581Y-133726315D01*
X128972756Y-139478139D01*
X128386230Y-140064665D01*
X128324907Y-140098150D01*
X128260232Y-140094915D01*
X128197702Y-140074598D01*
X128197698Y-140074597D01*
X128066271Y-140053781D01*
X128026611Y-140047500D01*
X127853389Y-140047500D01*
X127813728Y-140053781D01*
X127682302Y-140074597D01*
X127517552Y-140128128D01*
X127363211Y-140206768D01*
X127283256Y-140264859D01*
X127223072Y-140308586D01*
X127223070Y-140308588D01*
X127223069Y-140308588D01*
X127100588Y-140431069D01*
X127100588Y-140431070D01*
X127100586Y-140431072D01*
X127056859Y-140491256D01*
X126998768Y-140571211D01*
X126920128Y-140725552D01*
X126866597Y-140890302D01*
X126839500Y-141061389D01*
X126839500Y-141234610D01*
X126866597Y-141405697D01*
X126866597Y-141405699D01*
X126866598Y-141405701D01*
X126920127Y-141570445D01*
X126998768Y-141724788D01*
X127025928Y-141762171D01*
X127032063Y-141770614D01*
X127055543Y-141836420D01*
X127039718Y-141904474D01*
X126989612Y-141953169D01*
X126931745Y-141967500D01*
X111667965Y-141967500D01*
X111600926Y-141947815D01*
X111580284Y-141931181D01*
X111243333Y-141594230D01*
X111209848Y-141532907D01*
X111213083Y-141468231D01*
X111233402Y-141405701D01*
X111260500Y-141234611D01*
X111260500Y-141061389D01*
X111233402Y-140890299D01*
X111179873Y-140725555D01*
X111101232Y-140571212D01*
X110999414Y-140431072D01*
X110876928Y-140308586D01*
X110736788Y-140206768D01*
X110582445Y-140128127D01*
X110417701Y-140074598D01*
X110417699Y-140074597D01*
X110417698Y-140074597D01*
X110286271Y-140053781D01*
X110246611Y-140047500D01*
X110073389Y-140047500D01*
X110033728Y-140053781D01*
X109902302Y-140074597D01*
X109737552Y-140128128D01*
X109583211Y-140206768D01*
X109503256Y-140264859D01*
X109443072Y-140308586D01*
X109443070Y-140308588D01*
X109443069Y-140308588D01*
X109320588Y-140431069D01*
X109320588Y-140431070D01*
X109320586Y-140431072D01*
X109276859Y-140491256D01*
X109218768Y-140571211D01*
X109140128Y-140725552D01*
X109086597Y-140890302D01*
X109059500Y-141061389D01*
X109059500Y-141234610D01*
X109086597Y-141405697D01*
X109086597Y-141405699D01*
X109086598Y-141405701D01*
X109140127Y-141570445D01*
X109218768Y-141724788D01*
X109320586Y-141864928D01*
X109443072Y-141987414D01*
X109583212Y-142089232D01*
X109737555Y-142167873D01*
X109902299Y-142221402D01*
X110073389Y-142248500D01*
X110073390Y-142248500D01*
X110246610Y-142248500D01*
X110246611Y-142248500D01*
X110417701Y-142221402D01*
X110480231Y-142201083D01*
X110550070Y-142199087D01*
X110606230Y-142231333D01*
X111153386Y-142778489D01*
X111256113Y-142837799D01*
X111280321Y-142844284D01*
X111280324Y-142844286D01*
X111280325Y-142844286D01*
X111310447Y-142852357D01*
X111370691Y-142868500D01*
X126931745Y-142868500D01*
X126998784Y-142888185D01*
X127044539Y-142940989D01*
X127054483Y-143010147D01*
X127032063Y-143065386D01*
X126998768Y-143111211D01*
X126920128Y-143265552D01*
X126866597Y-143430302D01*
X126839500Y-143601389D01*
X126839500Y-143774610D01*
X126866597Y-143945697D01*
X126866597Y-143945699D01*
X126866598Y-143945701D01*
X126902941Y-144057553D01*
X126920128Y-144110447D01*
X126998770Y-144264792D01*
X127034024Y-144313314D01*
X127057505Y-144379120D01*
X127041680Y-144447174D01*
X126991575Y-144495869D01*
X126933707Y-144510200D01*
X111670666Y-144510200D01*
X111603627Y-144490515D01*
X111582985Y-144473881D01*
X111422418Y-144313314D01*
X111243332Y-144134229D01*
X111209848Y-144072907D01*
X111213083Y-144008231D01*
X111233402Y-143945701D01*
X111260500Y-143774611D01*
X111260500Y-143601389D01*
X111233402Y-143430299D01*
X111179873Y-143265555D01*
X111101232Y-143111212D01*
X110999414Y-142971072D01*
X110876928Y-142848586D01*
X110736788Y-142746768D01*
X110582445Y-142668127D01*
X110417701Y-142614598D01*
X110417699Y-142614597D01*
X110417698Y-142614597D01*
X110286271Y-142593781D01*
X110246611Y-142587500D01*
X110073389Y-142587500D01*
X110033728Y-142593781D01*
X109902302Y-142614597D01*
X109737552Y-142668128D01*
X109583211Y-142746768D01*
X109537604Y-142779904D01*
X109443072Y-142848586D01*
X109443070Y-142848588D01*
X109443069Y-142848588D01*
X109320588Y-142971069D01*
X109320588Y-142971070D01*
X109320586Y-142971072D01*
X109320540Y-142971136D01*
X109218768Y-143111211D01*
X109140128Y-143265552D01*
X109086597Y-143430302D01*
X109059500Y-143601389D01*
X109059500Y-143774610D01*
X109086597Y-143945697D01*
X109086597Y-143945699D01*
X109086598Y-143945701D01*
X109140127Y-144110445D01*
X109218768Y-144264788D01*
X109320586Y-144404928D01*
X109443072Y-144527414D01*
X109583212Y-144629232D01*
X109737555Y-144707873D01*
X109902299Y-144761402D01*
X110073389Y-144788500D01*
X110073390Y-144788500D01*
X110246610Y-144788500D01*
X110246611Y-144788500D01*
X110417701Y-144761402D01*
X110480231Y-144741083D01*
X110550070Y-144739087D01*
X110606230Y-144771333D01*
X110746216Y-144911319D01*
X110779701Y-144972642D01*
X110774717Y-145042334D01*
X110732845Y-145098267D01*
X110667381Y-145122684D01*
X110658535Y-145123000D01*
X110081209Y-145123000D01*
X110021718Y-145128858D01*
X110021714Y-145128858D01*
X109867151Y-145159601D01*
X109809927Y-145176960D01*
X109664338Y-145237266D01*
X109611612Y-145265449D01*
X109611607Y-145265452D01*
X109490503Y-145346370D01*
X109490503Y-145346371D01*
X109928461Y-145784329D01*
X109852993Y-145827901D01*
X109759901Y-145920993D01*
X109716329Y-145996461D01*
X109278371Y-145558503D01*
X109278370Y-145558503D01*
X109197452Y-145679607D01*
X109197449Y-145679612D01*
X109169266Y-145732338D01*
X109108960Y-145877927D01*
X109091601Y-145935151D01*
X109060858Y-146089714D01*
X109060858Y-146089718D01*
X109055000Y-146149208D01*
X109055000Y-146306791D01*
X109060858Y-146366281D01*
X109060858Y-146366285D01*
X109091601Y-146520848D01*
X109108960Y-146578072D01*
X109169266Y-146723661D01*
X109197449Y-146776387D01*
X109197455Y-146776397D01*
X109278371Y-146897495D01*
X109716329Y-146459538D01*
X109759901Y-146535007D01*
X109852993Y-146628099D01*
X109928460Y-146671670D01*
X109490502Y-147109628D01*
X109611602Y-147190544D01*
X109611612Y-147190550D01*
X109664338Y-147218733D01*
X109809927Y-147279039D01*
X109867151Y-147296398D01*
X110021716Y-147327141D01*
X110081209Y-147333000D01*
X110799768Y-147333000D01*
X110806826Y-147332918D01*
X110916499Y-147309784D01*
X110916500Y-147309783D01*
X110989989Y-147279343D01*
X110996448Y-147276579D01*
X110391539Y-146671670D01*
X110467007Y-146628099D01*
X110560099Y-146535007D01*
X110603670Y-146459538D01*
X111207706Y-147063574D01*
X111207708Y-147063574D01*
X111211330Y-147058016D01*
X111211337Y-147058003D01*
X111241762Y-146984549D01*
X111244403Y-146977961D01*
X111265000Y-146867779D01*
X111265000Y-145588232D01*
X111264918Y-145581173D01*
X111260620Y-145560794D01*
X111266044Y-145491135D01*
X111308266Y-145435467D01*
X111373883Y-145411463D01*
X111381950Y-145411200D01*
X126718763Y-145411200D01*
X126785802Y-145430885D01*
X126831557Y-145483689D01*
X126841501Y-145552847D01*
X126840652Y-145557985D01*
X126835000Y-145588220D01*
X126835000Y-146867767D01*
X126835081Y-146874826D01*
X126858215Y-146984497D01*
X126888651Y-147057976D01*
X126893217Y-147068649D01*
X126943373Y-147094517D01*
X126978298Y-147155032D01*
X126974961Y-147224822D01*
X126945469Y-147271927D01*
X126289713Y-147927683D01*
X126289709Y-147927689D01*
X126230401Y-148030412D01*
X126230400Y-148030417D01*
X126199700Y-148144991D01*
X126199700Y-150077508D01*
X126223912Y-150167872D01*
X126230400Y-150192085D01*
X126230400Y-150192086D01*
X126233241Y-150197006D01*
X126289711Y-150294814D01*
X126289713Y-150294816D01*
X126856665Y-150861768D01*
X126890150Y-150923091D01*
X126886915Y-150987767D01*
X126866598Y-151050294D01*
X126866598Y-151050297D01*
X126839500Y-151221389D01*
X126839500Y-151394610D01*
X126859861Y-151523169D01*
X126866598Y-151565701D01*
X126920127Y-151730445D01*
X126998768Y-151884788D01*
X127100586Y-152024928D01*
X127223072Y-152147414D01*
X127363212Y-152249232D01*
X127517555Y-152327873D01*
X127682299Y-152381402D01*
X127853389Y-152408500D01*
X127853390Y-152408500D01*
X128026610Y-152408500D01*
X128026611Y-152408500D01*
X128197701Y-152381402D01*
X128362445Y-152327873D01*
X128516788Y-152249232D01*
X128656928Y-152147414D01*
X128779414Y-152024928D01*
X128881232Y-151884788D01*
X128959873Y-151730445D01*
X129013402Y-151565701D01*
X129040500Y-151394611D01*
X129040500Y-151221389D01*
X129013402Y-151050299D01*
X128959873Y-150885555D01*
X128881232Y-150731212D01*
X128779414Y-150591072D01*
X128656928Y-150468586D01*
X128516788Y-150366768D01*
X128362445Y-150288127D01*
X128197701Y-150234598D01*
X128197699Y-150234597D01*
X128197698Y-150234597D01*
X128066271Y-150213781D01*
X128026611Y-150207500D01*
X127853389Y-150207500D01*
X127796359Y-150216532D01*
X127682297Y-150234598D01*
X127682294Y-150234598D01*
X127619767Y-150254915D01*
X127549926Y-150256910D01*
X127493768Y-150224665D01*
X127319608Y-150050505D01*
X127137019Y-149867915D01*
X127103534Y-149806592D01*
X127100700Y-149780234D01*
X127100700Y-149761869D01*
X127120385Y-149694830D01*
X127173189Y-149649075D01*
X127242347Y-149639131D01*
X127297586Y-149661552D01*
X127363207Y-149709229D01*
X127363209Y-149709230D01*
X127363212Y-149709232D01*
X127517555Y-149787873D01*
X127682299Y-149841402D01*
X127853389Y-149868500D01*
X127853390Y-149868500D01*
X128026610Y-149868500D01*
X128026611Y-149868500D01*
X128197701Y-149841402D01*
X128362445Y-149787873D01*
X128516788Y-149709232D01*
X128656928Y-149607414D01*
X128779414Y-149484928D01*
X128881232Y-149344788D01*
X128911081Y-149286204D01*
X128959053Y-149235410D01*
X129021565Y-149218500D01*
X136999707Y-149218500D01*
X136999709Y-149218500D01*
X137087774Y-149194903D01*
X137097086Y-149192408D01*
X137097087Y-149192407D01*
X137114287Y-149187799D01*
X137217014Y-149128489D01*
X148460189Y-137885314D01*
X148519498Y-137782587D01*
X148519499Y-137782586D01*
X148550200Y-137668009D01*
X148550200Y-134434264D01*
X148569885Y-134367225D01*
X148586514Y-134346588D01*
X150606586Y-132326515D01*
X150667907Y-132293032D01*
X150737599Y-132298016D01*
X150793532Y-132339888D01*
X150817949Y-132405352D01*
X150804750Y-132470493D01*
X150749789Y-132578360D01*
X150749787Y-132578363D01*
X150693829Y-132750589D01*
X150665500Y-132929448D01*
X150665500Y-133110551D01*
X150693829Y-133289410D01*
X150749787Y-133461636D01*
X150749788Y-133461639D01*
X150832006Y-133622997D01*
X150938441Y-133769494D01*
X150938445Y-133769499D01*
X151066500Y-133897554D01*
X151066505Y-133897558D01*
X151133682Y-133946364D01*
X151213006Y-134003996D01*
X151304247Y-134050486D01*
X151374360Y-134086211D01*
X151374363Y-134086212D01*
X151419394Y-134100843D01*
X151546591Y-134142171D01*
X151619639Y-134153740D01*
X151706678Y-134167527D01*
X151769813Y-134197456D01*
X151806744Y-134256768D01*
X151805746Y-134326631D01*
X151767136Y-134384863D01*
X151706678Y-134412473D01*
X151546589Y-134437829D01*
X151374363Y-134493787D01*
X151374360Y-134493788D01*
X151213002Y-134576006D01*
X151066505Y-134682441D01*
X151066500Y-134682445D01*
X150938445Y-134810500D01*
X150938441Y-134810505D01*
X150832006Y-134957002D01*
X150749788Y-135118360D01*
X150749787Y-135118363D01*
X150693829Y-135290589D01*
X150665500Y-135469448D01*
X150665500Y-135650551D01*
X150693829Y-135829410D01*
X150749787Y-136001636D01*
X150749788Y-136001639D01*
X150772346Y-136045910D01*
X150827732Y-136154610D01*
X150832006Y-136162997D01*
X150938441Y-136309494D01*
X150938445Y-136309499D01*
X151066500Y-136437554D01*
X151066505Y-136437558D01*
X151194287Y-136530396D01*
X151213006Y-136543996D01*
X151318484Y-136597740D01*
X151374360Y-136626211D01*
X151374363Y-136626212D01*
X151431536Y-136644788D01*
X151546591Y-136682171D01*
X151619639Y-136693740D01*
X151706678Y-136707527D01*
X151769813Y-136737456D01*
X151806744Y-136796768D01*
X151805746Y-136866631D01*
X151767136Y-136924863D01*
X151706678Y-136952473D01*
X151546589Y-136977829D01*
X151374363Y-137033787D01*
X151374360Y-137033788D01*
X151213002Y-137116006D01*
X151066505Y-137222441D01*
X151066500Y-137222445D01*
X150938445Y-137350500D01*
X150938441Y-137350505D01*
X150832006Y-137497002D01*
X150749788Y-137658360D01*
X150749787Y-137658363D01*
X150693829Y-137830589D01*
X150665500Y-138009448D01*
X150665500Y-138190551D01*
X150693829Y-138369410D01*
X150749787Y-138541636D01*
X150749788Y-138541639D01*
X150805664Y-138651300D01*
X150827732Y-138694610D01*
X150832006Y-138702997D01*
X150938441Y-138849494D01*
X150938445Y-138849499D01*
X151066500Y-138977554D01*
X151066505Y-138977558D01*
X151194287Y-139070396D01*
X151213006Y-139083996D01*
X151318484Y-139137740D01*
X151374360Y-139166211D01*
X151374363Y-139166212D01*
X151431536Y-139184788D01*
X151546591Y-139222171D01*
X151629429Y-139235291D01*
X151725449Y-139250500D01*
X151725454Y-139250500D01*
X151906551Y-139250500D01*
X151993259Y-139236765D01*
X152085409Y-139222171D01*
X152257639Y-139166211D01*
X152418994Y-139083996D01*
X152565501Y-138977553D01*
X152693553Y-138849501D01*
X152799996Y-138702994D01*
X152882211Y-138541639D01*
X152938171Y-138369409D01*
X152953308Y-138273835D01*
X152966500Y-138190551D01*
X152966500Y-138039665D01*
X152986185Y-137972626D01*
X153038989Y-137926871D01*
X153108147Y-137916927D01*
X153171703Y-137945952D01*
X153178181Y-137951984D01*
X171466686Y-156240489D01*
X171569413Y-156299799D01*
X171593621Y-156306284D01*
X171593624Y-156306286D01*
X171593625Y-156306286D01*
X171623747Y-156314357D01*
X171683991Y-156330500D01*
X172385501Y-156330500D01*
X172452540Y-156350185D01*
X172498295Y-156402989D01*
X172509501Y-156454500D01*
X172509501Y-156774856D01*
X172509502Y-156774882D01*
X172512413Y-156799987D01*
X172512415Y-156799991D01*
X172557793Y-156902764D01*
X172557794Y-156902765D01*
X172637235Y-156982206D01*
X172740009Y-157027585D01*
X172765135Y-157030500D01*
X174554864Y-157030499D01*
X174554879Y-157030497D01*
X174554882Y-157030497D01*
X174579987Y-157027586D01*
X174579988Y-157027585D01*
X174579991Y-157027585D01*
X174682765Y-156982206D01*
X174762206Y-156902765D01*
X174807585Y-156799991D01*
X174810500Y-156774865D01*
X174810499Y-154985136D01*
X174810497Y-154985117D01*
X174807586Y-154960012D01*
X174807585Y-154960010D01*
X174807585Y-154960009D01*
X174762206Y-154857235D01*
X174682765Y-154777794D01*
X174682763Y-154777793D01*
X174579992Y-154732415D01*
X174554868Y-154729500D01*
X173817128Y-154729500D01*
X173750089Y-154709815D01*
X173704334Y-154657011D01*
X173694390Y-154587853D01*
X173723415Y-154524297D01*
X173782193Y-154486523D01*
X173797730Y-154483027D01*
X173821014Y-154479338D01*
X173929409Y-154462171D01*
X174101639Y-154406211D01*
X174262994Y-154323996D01*
X174409501Y-154217553D01*
X174537553Y-154089501D01*
X174643996Y-153942994D01*
X174726211Y-153781639D01*
X174782171Y-153609409D01*
X174796765Y-153517259D01*
X174810500Y-153430551D01*
X174810500Y-153249448D01*
X174794019Y-153145397D01*
X174782171Y-153070591D01*
X174726211Y-152898361D01*
X174726211Y-152898360D01*
X174697740Y-152842484D01*
X174643996Y-152737006D01*
X174630396Y-152718287D01*
X174537558Y-152590505D01*
X174537554Y-152590500D01*
X174409499Y-152462445D01*
X174409494Y-152462441D01*
X174262997Y-152356006D01*
X174262996Y-152356005D01*
X174262994Y-152356004D01*
X174207780Y-152327871D01*
X174101639Y-152273788D01*
X174101636Y-152273787D01*
X173929410Y-152217829D01*
X173769321Y-152192473D01*
X173706186Y-152162544D01*
X173669255Y-152103232D01*
X173670253Y-152033370D01*
X173708863Y-151975137D01*
X173769321Y-151947527D01*
X173839425Y-151936422D01*
X173929409Y-151922171D01*
X174101639Y-151866211D01*
X174262994Y-151783996D01*
X174409501Y-151677553D01*
X174537553Y-151549501D01*
X174643996Y-151402994D01*
X174726211Y-151241639D01*
X174782171Y-151069409D01*
X174796765Y-150977259D01*
X174810500Y-150890551D01*
X174810500Y-150709448D01*
X174789555Y-150577211D01*
X174782171Y-150530591D01*
X174752764Y-150440084D01*
X174726212Y-150358363D01*
X174726211Y-150358360D01*
X174685467Y-150278397D01*
X174643996Y-150197006D01*
X174576194Y-150103684D01*
X174537558Y-150050505D01*
X174537554Y-150050500D01*
X174409499Y-149922445D01*
X174409494Y-149922441D01*
X174262997Y-149816006D01*
X174262996Y-149816005D01*
X174262994Y-149816004D01*
X174192792Y-149780234D01*
X174101639Y-149733788D01*
X174101636Y-149733787D01*
X173929410Y-149677829D01*
X173769321Y-149652473D01*
X173706186Y-149622544D01*
X173669255Y-149563232D01*
X173670253Y-149493370D01*
X173708863Y-149435137D01*
X173769321Y-149407527D01*
X173839425Y-149396422D01*
X173929409Y-149382171D01*
X174101639Y-149326211D01*
X174262994Y-149243996D01*
X174409501Y-149137553D01*
X174537553Y-149009501D01*
X174643996Y-148862994D01*
X174726211Y-148701639D01*
X174782171Y-148529409D01*
X174796765Y-148437259D01*
X174810500Y-148350551D01*
X174810500Y-148169448D01*
X174791750Y-148051069D01*
X174782171Y-147990591D01*
X174726211Y-147818361D01*
X174726211Y-147818360D01*
X174663150Y-147694598D01*
X174643996Y-147657006D01*
X174630396Y-147638287D01*
X174537558Y-147510505D01*
X174537554Y-147510500D01*
X174409499Y-147382445D01*
X174409494Y-147382441D01*
X174262997Y-147276006D01*
X174262996Y-147276005D01*
X174262994Y-147276004D01*
X174211300Y-147249664D01*
X174101639Y-147193788D01*
X174101636Y-147193787D01*
X173929410Y-147137829D01*
X173769321Y-147112473D01*
X173706186Y-147082544D01*
X173669255Y-147023232D01*
X173670253Y-146953370D01*
X173708863Y-146895137D01*
X173769321Y-146867527D01*
X173850878Y-146854609D01*
X173929409Y-146842171D01*
X174101639Y-146786211D01*
X174262994Y-146703996D01*
X174409501Y-146597553D01*
X174537553Y-146469501D01*
X174643996Y-146322994D01*
X174726211Y-146161639D01*
X174782171Y-145989409D01*
X174799828Y-145877927D01*
X174810500Y-145810551D01*
X174810500Y-145629448D01*
X174794019Y-145525397D01*
X174782171Y-145450591D01*
X174726211Y-145278361D01*
X174726211Y-145278360D01*
X174665699Y-145159601D01*
X174643996Y-145117006D01*
X174589744Y-145042334D01*
X174537558Y-144970505D01*
X174537554Y-144970500D01*
X174409499Y-144842445D01*
X174409494Y-144842441D01*
X174262997Y-144736006D01*
X174262996Y-144736005D01*
X174262994Y-144736004D01*
X174207780Y-144707871D01*
X174101639Y-144653788D01*
X174101636Y-144653787D01*
X173929410Y-144597829D01*
X173769321Y-144572473D01*
X173706186Y-144542544D01*
X173669255Y-144483232D01*
X173670253Y-144413370D01*
X173708863Y-144355137D01*
X173769321Y-144327527D01*
X173839425Y-144316422D01*
X173929409Y-144302171D01*
X174101639Y-144246211D01*
X174262994Y-144163996D01*
X174409501Y-144057553D01*
X174537553Y-143929501D01*
X174643996Y-143782994D01*
X174726211Y-143621639D01*
X174782171Y-143449409D01*
X174796765Y-143357259D01*
X174810500Y-143270551D01*
X174810500Y-143089448D01*
X174788526Y-142950716D01*
X174782171Y-142910591D01*
X174752764Y-142820084D01*
X174726212Y-142738363D01*
X174726211Y-142738360D01*
X174690425Y-142668127D01*
X174643996Y-142577006D01*
X174630396Y-142558287D01*
X174537558Y-142430505D01*
X174537554Y-142430500D01*
X174409499Y-142302445D01*
X174409494Y-142302441D01*
X174262997Y-142196006D01*
X174262996Y-142196005D01*
X174262994Y-142196004D01*
X174207780Y-142167871D01*
X174101639Y-142113788D01*
X174101636Y-142113787D01*
X173929410Y-142057829D01*
X173769321Y-142032473D01*
X173706186Y-142002544D01*
X173669255Y-141943232D01*
X173670253Y-141873370D01*
X173708863Y-141815137D01*
X173769321Y-141787527D01*
X173839425Y-141776422D01*
X173929409Y-141762171D01*
X174101639Y-141706211D01*
X174262994Y-141623996D01*
X174409501Y-141517553D01*
X174537553Y-141389501D01*
X174643996Y-141242994D01*
X174726211Y-141081639D01*
X174782171Y-140909409D01*
X174796765Y-140817259D01*
X174810500Y-140730551D01*
X174810500Y-140549448D01*
X174791750Y-140431069D01*
X174782171Y-140370591D01*
X174726211Y-140198361D01*
X174726211Y-140198360D01*
X174685467Y-140118397D01*
X174643996Y-140037006D01*
X174630396Y-140018287D01*
X174537558Y-139890505D01*
X174537554Y-139890500D01*
X174409499Y-139762445D01*
X174409494Y-139762441D01*
X174262997Y-139656006D01*
X174262996Y-139656005D01*
X174262994Y-139656004D01*
X174207780Y-139627871D01*
X174101639Y-139573788D01*
X174101636Y-139573787D01*
X173929410Y-139517829D01*
X173769321Y-139492473D01*
X173706186Y-139462544D01*
X173669255Y-139403232D01*
X173670253Y-139333370D01*
X173708863Y-139275137D01*
X173769321Y-139247527D01*
X173839425Y-139236422D01*
X173929409Y-139222171D01*
X174101639Y-139166211D01*
X174262994Y-139083996D01*
X174409501Y-138977553D01*
X174537553Y-138849501D01*
X174643996Y-138702994D01*
X174726211Y-138541639D01*
X174782171Y-138369409D01*
X174797308Y-138273835D01*
X174810500Y-138190551D01*
X174810500Y-138009448D01*
X174790838Y-137885313D01*
X174782171Y-137830591D01*
X174729346Y-137668009D01*
X174726212Y-137658363D01*
X174726211Y-137658360D01*
X174690425Y-137588127D01*
X174643996Y-137497006D01*
X174579197Y-137407817D01*
X174537558Y-137350505D01*
X174537554Y-137350500D01*
X174409499Y-137222445D01*
X174409494Y-137222441D01*
X174262997Y-137116006D01*
X174262996Y-137116005D01*
X174262994Y-137116004D01*
X174183242Y-137075368D01*
X174101639Y-137033788D01*
X174101636Y-137033787D01*
X173929410Y-136977829D01*
X173769321Y-136952473D01*
X173706186Y-136922544D01*
X173669255Y-136863232D01*
X173670253Y-136793370D01*
X173708863Y-136735137D01*
X173769321Y-136707527D01*
X173839425Y-136696422D01*
X173929409Y-136682171D01*
X174101639Y-136626211D01*
X174262994Y-136543996D01*
X174409501Y-136437553D01*
X174537553Y-136309501D01*
X174643996Y-136162994D01*
X174726211Y-136001639D01*
X174782171Y-135829409D01*
X174796765Y-135737259D01*
X174810500Y-135650551D01*
X174810500Y-135469448D01*
X174791750Y-135351069D01*
X174782171Y-135290591D01*
X174738543Y-135156315D01*
X174726212Y-135118363D01*
X174726211Y-135118360D01*
X174685467Y-135038397D01*
X174643996Y-134957006D01*
X174630396Y-134938287D01*
X174537558Y-134810505D01*
X174537554Y-134810500D01*
X174409499Y-134682445D01*
X174409494Y-134682441D01*
X174262997Y-134576006D01*
X174262996Y-134576005D01*
X174262994Y-134576004D01*
X174211300Y-134549664D01*
X174101639Y-134493788D01*
X174101636Y-134493787D01*
X173929410Y-134437829D01*
X173769321Y-134412473D01*
X173706186Y-134382544D01*
X173669255Y-134323232D01*
X173670253Y-134253370D01*
X173708863Y-134195137D01*
X173769321Y-134167527D01*
X173839425Y-134156422D01*
X173929409Y-134142171D01*
X174101639Y-134086211D01*
X174262994Y-134003996D01*
X174409501Y-133897553D01*
X174537553Y-133769501D01*
X174643996Y-133622994D01*
X174726211Y-133461639D01*
X174782171Y-133289409D01*
X174784469Y-133274901D01*
X174814399Y-133211767D01*
X174873711Y-133174836D01*
X174906942Y-133170300D01*
X175019506Y-133170300D01*
X175019509Y-133170300D01*
X175134086Y-133139599D01*
X175236813Y-133080289D01*
X175320689Y-132996413D01*
X175379999Y-132893686D01*
X175410700Y-132779109D01*
X175410700Y-120507165D01*
X175430385Y-120440126D01*
X175447019Y-120419484D01*
X176029702Y-119836801D01*
X176622289Y-119244214D01*
X176681598Y-119141487D01*
X176681599Y-119141486D01*
X176712300Y-119026909D01*
X176712300Y-109945591D01*
X176681599Y-109831014D01*
X176681599Y-109831013D01*
X176622289Y-109728286D01*
X174608014Y-107714011D01*
X174605684Y-107711681D01*
X174572199Y-107650358D01*
X174577183Y-107580666D01*
X174619055Y-107524733D01*
X174684519Y-107500316D01*
X174693365Y-107500000D01*
X179375500Y-107500000D01*
X179442539Y-107519685D01*
X179488294Y-107572489D01*
X179499500Y-107624000D01*
X179499500Y-158376000D01*
X179479815Y-158443039D01*
X179427011Y-158488794D01*
X179375500Y-158500000D01*
X172500000Y-158500000D01*
X172500000Y-165375500D01*
X172480315Y-165442539D01*
X172427511Y-165488294D01*
X172376000Y-165499500D01*
X107624000Y-165499500D01*
X107556961Y-165479815D01*
X107511206Y-165427011D01*
X107500000Y-165375500D01*
X107500000Y-158500000D01*
X100624500Y-158500000D01*
X100557461Y-158480315D01*
X100511706Y-158427511D01*
X100500500Y-158376000D01*
X100500500Y-151221389D01*
X109059500Y-151221389D01*
X109059500Y-151394610D01*
X109079861Y-151523169D01*
X109086598Y-151565701D01*
X109140127Y-151730445D01*
X109218768Y-151884788D01*
X109320586Y-152024928D01*
X109443072Y-152147414D01*
X109583212Y-152249232D01*
X109737555Y-152327873D01*
X109902299Y-152381402D01*
X110073389Y-152408500D01*
X110073390Y-152408500D01*
X110246610Y-152408500D01*
X110246611Y-152408500D01*
X110417701Y-152381402D01*
X110582445Y-152327873D01*
X110736788Y-152249232D01*
X110876928Y-152147414D01*
X110999414Y-152024928D01*
X111101232Y-151884788D01*
X111179873Y-151730445D01*
X111233402Y-151565701D01*
X111260500Y-151394611D01*
X111260500Y-151221389D01*
X111233402Y-151050299D01*
X111179873Y-150885555D01*
X111101232Y-150731212D01*
X110999414Y-150591072D01*
X110876928Y-150468586D01*
X110736788Y-150366768D01*
X110582445Y-150288127D01*
X110417701Y-150234598D01*
X110417699Y-150234597D01*
X110417698Y-150234597D01*
X110286271Y-150213781D01*
X110246611Y-150207500D01*
X110073389Y-150207500D01*
X110033728Y-150213781D01*
X109902302Y-150234597D01*
X109737552Y-150288128D01*
X109583211Y-150366768D01*
X109503256Y-150424859D01*
X109443072Y-150468586D01*
X109443070Y-150468588D01*
X109443069Y-150468588D01*
X109320588Y-150591069D01*
X109320588Y-150591070D01*
X109320586Y-150591072D01*
X109276859Y-150651256D01*
X109218768Y-150731211D01*
X109140128Y-150885552D01*
X109086597Y-151050302D01*
X109059500Y-151221389D01*
X100500500Y-151221389D01*
X100500500Y-148681389D01*
X109059500Y-148681389D01*
X109059500Y-148854611D01*
X109086598Y-149025701D01*
X109139267Y-149187799D01*
X109140128Y-149190447D01*
X109163038Y-149235410D01*
X109218768Y-149344788D01*
X109320586Y-149484928D01*
X109443072Y-149607414D01*
X109583212Y-149709232D01*
X109737555Y-149787873D01*
X109902299Y-149841402D01*
X110073389Y-149868500D01*
X110073390Y-149868500D01*
X110246610Y-149868500D01*
X110246611Y-149868500D01*
X110417701Y-149841402D01*
X110582445Y-149787873D01*
X110736788Y-149709232D01*
X110876928Y-149607414D01*
X110999414Y-149484928D01*
X111101232Y-149344788D01*
X111179873Y-149190445D01*
X111233402Y-149025701D01*
X111260500Y-148854611D01*
X111260500Y-148681389D01*
X111233402Y-148510299D01*
X111179873Y-148345555D01*
X111101232Y-148191212D01*
X110999414Y-148051072D01*
X110876928Y-147928586D01*
X110736788Y-147826768D01*
X110582445Y-147748127D01*
X110417701Y-147694598D01*
X110417699Y-147694597D01*
X110417698Y-147694597D01*
X110286271Y-147673781D01*
X110246611Y-147667500D01*
X110073389Y-147667500D01*
X110033728Y-147673781D01*
X109902302Y-147694597D01*
X109737552Y-147748128D01*
X109583211Y-147826768D01*
X109503256Y-147884859D01*
X109443072Y-147928586D01*
X109443070Y-147928588D01*
X109443069Y-147928588D01*
X109320588Y-148051069D01*
X109320588Y-148051070D01*
X109320586Y-148051072D01*
X109309403Y-148066464D01*
X109218768Y-148191211D01*
X109140128Y-148345552D01*
X109086597Y-148510302D01*
X109083571Y-148529409D01*
X109059500Y-148681389D01*
X100500500Y-148681389D01*
X100500500Y-138521389D01*
X109059500Y-138521389D01*
X109059500Y-138694611D01*
X109086598Y-138865701D01*
X109140127Y-139030445D01*
X109218768Y-139184788D01*
X109320586Y-139324928D01*
X109443072Y-139447414D01*
X109583212Y-139549232D01*
X109737555Y-139627873D01*
X109902299Y-139681402D01*
X110073389Y-139708500D01*
X110073390Y-139708500D01*
X110246610Y-139708500D01*
X110246611Y-139708500D01*
X110417701Y-139681402D01*
X110582445Y-139627873D01*
X110736788Y-139549232D01*
X110876928Y-139447414D01*
X110999414Y-139324928D01*
X111101232Y-139184788D01*
X111179873Y-139030445D01*
X111233402Y-138865701D01*
X111260500Y-138694611D01*
X111260500Y-138521389D01*
X126839500Y-138521389D01*
X126839500Y-138694611D01*
X126866598Y-138865701D01*
X126920127Y-139030445D01*
X126998768Y-139184788D01*
X127100586Y-139324928D01*
X127223072Y-139447414D01*
X127363212Y-139549232D01*
X127517555Y-139627873D01*
X127682299Y-139681402D01*
X127853389Y-139708500D01*
X127853390Y-139708500D01*
X128026610Y-139708500D01*
X128026611Y-139708500D01*
X128197701Y-139681402D01*
X128362445Y-139627873D01*
X128516788Y-139549232D01*
X128656928Y-139447414D01*
X128779414Y-139324928D01*
X128881232Y-139184788D01*
X128959873Y-139030445D01*
X129013402Y-138865701D01*
X129040500Y-138694611D01*
X129040500Y-138521389D01*
X129013402Y-138350299D01*
X128959873Y-138185555D01*
X128881232Y-138031212D01*
X128779414Y-137891072D01*
X128656928Y-137768586D01*
X128516788Y-137666768D01*
X128362445Y-137588127D01*
X128197701Y-137534598D01*
X128197699Y-137534597D01*
X128197698Y-137534597D01*
X128066271Y-137513781D01*
X128026611Y-137507500D01*
X127853389Y-137507500D01*
X127813728Y-137513781D01*
X127682302Y-137534597D01*
X127517552Y-137588128D01*
X127363211Y-137666768D01*
X127283256Y-137724859D01*
X127223072Y-137768586D01*
X127223070Y-137768588D01*
X127223069Y-137768588D01*
X127100588Y-137891069D01*
X127100588Y-137891070D01*
X127100586Y-137891072D01*
X127060713Y-137945952D01*
X126998768Y-138031211D01*
X126920128Y-138185552D01*
X126866597Y-138350302D01*
X126864821Y-138361516D01*
X126839500Y-138521389D01*
X111260500Y-138521389D01*
X111233402Y-138350299D01*
X111179873Y-138185555D01*
X111101232Y-138031212D01*
X110999414Y-137891072D01*
X110876928Y-137768586D01*
X110736788Y-137666768D01*
X110582445Y-137588127D01*
X110417701Y-137534598D01*
X110417699Y-137534597D01*
X110417698Y-137534597D01*
X110286271Y-137513781D01*
X110246611Y-137507500D01*
X110073389Y-137507500D01*
X110033728Y-137513781D01*
X109902302Y-137534597D01*
X109737552Y-137588128D01*
X109583211Y-137666768D01*
X109503256Y-137724859D01*
X109443072Y-137768586D01*
X109443070Y-137768588D01*
X109443069Y-137768588D01*
X109320588Y-137891069D01*
X109320588Y-137891070D01*
X109320586Y-137891072D01*
X109280713Y-137945952D01*
X109218768Y-138031211D01*
X109140128Y-138185552D01*
X109086597Y-138350302D01*
X109084821Y-138361516D01*
X109059500Y-138521389D01*
X100500500Y-138521389D01*
X100500500Y-130901389D01*
X109059500Y-130901389D01*
X109059500Y-131074611D01*
X109086598Y-131245701D01*
X109140127Y-131410445D01*
X109218768Y-131564788D01*
X109320586Y-131704928D01*
X109443072Y-131827414D01*
X109583212Y-131929232D01*
X109737555Y-132007873D01*
X109902299Y-132061402D01*
X110073389Y-132088500D01*
X110073390Y-132088500D01*
X110246610Y-132088500D01*
X110246611Y-132088500D01*
X110417701Y-132061402D01*
X110582445Y-132007873D01*
X110736788Y-131929232D01*
X110876928Y-131827414D01*
X110999414Y-131704928D01*
X111101232Y-131564788D01*
X111179873Y-131410445D01*
X111233402Y-131245701D01*
X111260500Y-131074611D01*
X111260500Y-130901389D01*
X111233402Y-130730299D01*
X111179873Y-130565555D01*
X111101232Y-130411212D01*
X110999414Y-130271072D01*
X110876928Y-130148586D01*
X110736788Y-130046768D01*
X110582445Y-129968127D01*
X110417701Y-129914598D01*
X110417699Y-129914597D01*
X110417698Y-129914597D01*
X110286271Y-129893781D01*
X110246611Y-129887500D01*
X110073389Y-129887500D01*
X110033728Y-129893781D01*
X109902302Y-129914597D01*
X109737552Y-129968128D01*
X109583211Y-130046768D01*
X109503256Y-130104859D01*
X109443072Y-130148586D01*
X109443070Y-130148588D01*
X109443069Y-130148588D01*
X109320588Y-130271069D01*
X109320588Y-130271070D01*
X109320586Y-130271072D01*
X109276859Y-130331256D01*
X109218768Y-130411211D01*
X109140128Y-130565552D01*
X109086597Y-130730302D01*
X109083571Y-130749409D01*
X109059500Y-130901389D01*
X100500500Y-130901389D01*
X100500500Y-128361389D01*
X109059500Y-128361389D01*
X109059500Y-128534611D01*
X109086598Y-128705701D01*
X109140127Y-128870445D01*
X109218768Y-129024788D01*
X109320586Y-129164928D01*
X109443072Y-129287414D01*
X109583212Y-129389232D01*
X109737555Y-129467873D01*
X109902299Y-129521402D01*
X110073389Y-129548500D01*
X110073390Y-129548500D01*
X110246610Y-129548500D01*
X110246611Y-129548500D01*
X110417701Y-129521402D01*
X110582445Y-129467873D01*
X110736788Y-129389232D01*
X110876928Y-129287414D01*
X110999414Y-129164928D01*
X111101232Y-129024788D01*
X111179873Y-128870445D01*
X111233402Y-128705701D01*
X111260500Y-128534611D01*
X111260500Y-128361389D01*
X111233402Y-128190299D01*
X111179873Y-128025555D01*
X111101232Y-127871212D01*
X110999414Y-127731072D01*
X110876928Y-127608586D01*
X110736788Y-127506768D01*
X110633395Y-127454087D01*
X110582447Y-127428128D01*
X110582446Y-127428127D01*
X110582445Y-127428127D01*
X110417701Y-127374598D01*
X110417699Y-127374597D01*
X110417698Y-127374597D01*
X110286271Y-127353781D01*
X110246611Y-127347500D01*
X110073389Y-127347500D01*
X110033728Y-127353781D01*
X109902302Y-127374597D01*
X109737552Y-127428128D01*
X109583211Y-127506768D01*
X109503256Y-127564859D01*
X109443072Y-127608586D01*
X109443070Y-127608588D01*
X109443069Y-127608588D01*
X109320588Y-127731069D01*
X109320588Y-127731070D01*
X109320586Y-127731072D01*
X109276859Y-127791256D01*
X109218768Y-127871211D01*
X109140128Y-128025552D01*
X109086597Y-128190302D01*
X109084672Y-128202457D01*
X109059500Y-128361389D01*
X100500500Y-128361389D01*
X100500500Y-125821389D01*
X109059500Y-125821389D01*
X109059500Y-125994611D01*
X109086598Y-126165701D01*
X109140127Y-126330445D01*
X109218768Y-126484788D01*
X109320586Y-126624928D01*
X109443072Y-126747414D01*
X109583212Y-126849232D01*
X109737555Y-126927873D01*
X109902299Y-126981402D01*
X110073389Y-127008500D01*
X110073390Y-127008500D01*
X110246610Y-127008500D01*
X110246611Y-127008500D01*
X110417701Y-126981402D01*
X110582445Y-126927873D01*
X110736788Y-126849232D01*
X110876928Y-126747414D01*
X110999414Y-126624928D01*
X111101232Y-126484788D01*
X111179873Y-126330445D01*
X111233402Y-126165701D01*
X111260500Y-125994611D01*
X111260500Y-125821389D01*
X111233402Y-125650299D01*
X111179873Y-125485555D01*
X111101232Y-125331212D01*
X110999414Y-125191072D01*
X110876928Y-125068586D01*
X110736788Y-124966768D01*
X110582445Y-124888127D01*
X110417701Y-124834598D01*
X110417699Y-124834597D01*
X110417698Y-124834597D01*
X110286271Y-124813781D01*
X110246611Y-124807500D01*
X110073389Y-124807500D01*
X110033728Y-124813781D01*
X109902302Y-124834597D01*
X109737552Y-124888128D01*
X109583211Y-124966768D01*
X109503256Y-125024859D01*
X109443072Y-125068586D01*
X109443070Y-125068588D01*
X109443069Y-125068588D01*
X109320588Y-125191069D01*
X109320588Y-125191070D01*
X109320586Y-125191072D01*
X109276859Y-125251256D01*
X109218768Y-125331211D01*
X109140128Y-125485552D01*
X109086597Y-125650302D01*
X109073687Y-125731817D01*
X109059500Y-125821389D01*
X100500500Y-125821389D01*
X100500500Y-123281389D01*
X109059500Y-123281389D01*
X109059500Y-123454610D01*
X109083460Y-123605893D01*
X109086598Y-123625701D01*
X109140127Y-123790445D01*
X109218768Y-123944788D01*
X109320586Y-124084928D01*
X109443072Y-124207414D01*
X109583212Y-124309232D01*
X109737555Y-124387873D01*
X109902299Y-124441402D01*
X110073389Y-124468500D01*
X110073390Y-124468500D01*
X110246610Y-124468500D01*
X110246611Y-124468500D01*
X110417701Y-124441402D01*
X110582445Y-124387873D01*
X110736788Y-124309232D01*
X110876928Y-124207414D01*
X110999414Y-124084928D01*
X111101232Y-123944788D01*
X111179873Y-123790445D01*
X111233402Y-123625701D01*
X111260500Y-123454611D01*
X111260500Y-123281389D01*
X111233402Y-123110299D01*
X111179873Y-122945555D01*
X111101232Y-122791212D01*
X110999414Y-122651072D01*
X110876928Y-122528586D01*
X110736788Y-122426768D01*
X110582445Y-122348127D01*
X110417701Y-122294598D01*
X110417699Y-122294597D01*
X110417698Y-122294597D01*
X110286271Y-122273781D01*
X110246611Y-122267500D01*
X110073389Y-122267500D01*
X110033728Y-122273781D01*
X109902302Y-122294597D01*
X109737552Y-122348128D01*
X109583211Y-122426768D01*
X109529603Y-122465717D01*
X109443072Y-122528586D01*
X109443070Y-122528588D01*
X109443069Y-122528588D01*
X109320588Y-122651069D01*
X109320588Y-122651070D01*
X109320586Y-122651072D01*
X109292196Y-122690147D01*
X109218768Y-122791211D01*
X109140128Y-122945552D01*
X109086597Y-123110302D01*
X109059500Y-123281389D01*
X100500500Y-123281389D01*
X100500500Y-120749208D01*
X109055000Y-120749208D01*
X109055000Y-120906791D01*
X109060858Y-120966281D01*
X109060858Y-120966285D01*
X109091601Y-121120848D01*
X109108960Y-121178072D01*
X109169266Y-121323661D01*
X109197449Y-121376387D01*
X109197455Y-121376397D01*
X109278371Y-121497495D01*
X109716329Y-121059538D01*
X109759901Y-121135007D01*
X109852993Y-121228099D01*
X109928460Y-121271670D01*
X109490502Y-121709628D01*
X109611602Y-121790544D01*
X109611612Y-121790550D01*
X109664338Y-121818733D01*
X109809927Y-121879039D01*
X109867151Y-121896398D01*
X110021716Y-121927141D01*
X110081209Y-121933000D01*
X110799768Y-121933000D01*
X110806826Y-121932918D01*
X110916499Y-121909784D01*
X110916500Y-121909783D01*
X110989989Y-121879343D01*
X110996448Y-121876579D01*
X110391539Y-121271670D01*
X110467007Y-121228099D01*
X110560099Y-121135007D01*
X110603670Y-121059538D01*
X111207706Y-121663574D01*
X111207708Y-121663574D01*
X111211330Y-121658016D01*
X111211337Y-121658003D01*
X111241762Y-121584549D01*
X111244403Y-121577961D01*
X111265000Y-121467779D01*
X111265000Y-120188232D01*
X111264918Y-120181173D01*
X111241785Y-120071504D01*
X111211309Y-119997927D01*
X111208580Y-119991551D01*
X111208579Y-119991551D01*
X110603670Y-120596460D01*
X110560099Y-120520993D01*
X110467007Y-120427901D01*
X110391539Y-120384329D01*
X110995575Y-119780293D01*
X110995574Y-119780291D01*
X110990010Y-119776664D01*
X110916506Y-119746219D01*
X110909961Y-119743596D01*
X110799780Y-119723000D01*
X110081209Y-119723000D01*
X110021718Y-119728858D01*
X110021714Y-119728858D01*
X109867151Y-119759601D01*
X109809927Y-119776960D01*
X109664338Y-119837266D01*
X109611612Y-119865449D01*
X109611607Y-119865452D01*
X109490503Y-119946370D01*
X109490503Y-119946371D01*
X109928461Y-120384329D01*
X109852993Y-120427901D01*
X109759901Y-120520993D01*
X109716329Y-120596461D01*
X109278371Y-120158503D01*
X109278370Y-120158503D01*
X109197452Y-120279607D01*
X109197449Y-120279612D01*
X109169266Y-120332338D01*
X109108960Y-120477927D01*
X109091601Y-120535151D01*
X109060858Y-120689714D01*
X109060858Y-120689718D01*
X109055000Y-120749208D01*
X100500500Y-120749208D01*
X100500500Y-118201389D01*
X109059500Y-118201389D01*
X109059500Y-118374610D01*
X109083667Y-118527199D01*
X109086598Y-118545701D01*
X109140127Y-118710445D01*
X109218768Y-118864788D01*
X109320586Y-119004928D01*
X109443072Y-119127414D01*
X109583212Y-119229232D01*
X109737555Y-119307873D01*
X109902299Y-119361402D01*
X110073389Y-119388500D01*
X110073390Y-119388500D01*
X110246610Y-119388500D01*
X110246611Y-119388500D01*
X110417701Y-119361402D01*
X110582445Y-119307873D01*
X110736788Y-119229232D01*
X110876928Y-119127414D01*
X110999414Y-119004928D01*
X111101232Y-118864788D01*
X111179873Y-118710445D01*
X111233402Y-118545701D01*
X111260500Y-118374611D01*
X111260500Y-118201389D01*
X126839500Y-118201389D01*
X126839500Y-118374610D01*
X126863667Y-118527199D01*
X126866598Y-118545701D01*
X126920127Y-118710445D01*
X126998768Y-118864788D01*
X127100586Y-119004928D01*
X127223072Y-119127414D01*
X127363212Y-119229232D01*
X127517555Y-119307873D01*
X127682299Y-119361402D01*
X127853389Y-119388500D01*
X127853390Y-119388500D01*
X128026610Y-119388500D01*
X128026611Y-119388500D01*
X128197701Y-119361402D01*
X128362445Y-119307873D01*
X128516788Y-119229232D01*
X128656928Y-119127414D01*
X128779414Y-119004928D01*
X128881232Y-118864788D01*
X128959873Y-118710445D01*
X129013402Y-118545701D01*
X129040500Y-118374611D01*
X129040500Y-118201389D01*
X129013402Y-118030299D01*
X128959873Y-117865555D01*
X128881232Y-117711212D01*
X128779414Y-117571072D01*
X128656928Y-117448586D01*
X128516788Y-117346768D01*
X128362445Y-117268127D01*
X128197701Y-117214598D01*
X128197699Y-117214597D01*
X128197698Y-117214597D01*
X128066271Y-117193781D01*
X128026611Y-117187500D01*
X127853389Y-117187500D01*
X127813728Y-117193781D01*
X127682302Y-117214597D01*
X127517552Y-117268128D01*
X127363211Y-117346768D01*
X127283256Y-117404859D01*
X127223072Y-117448586D01*
X127223070Y-117448588D01*
X127223069Y-117448588D01*
X127100588Y-117571069D01*
X127100588Y-117571070D01*
X127100586Y-117571072D01*
X127083274Y-117594900D01*
X126998768Y-117711211D01*
X126920128Y-117865552D01*
X126866597Y-118030302D01*
X126839500Y-118201389D01*
X111260500Y-118201389D01*
X111233402Y-118030299D01*
X111179873Y-117865555D01*
X111101232Y-117711212D01*
X110999414Y-117571072D01*
X110876928Y-117448586D01*
X110736788Y-117346768D01*
X110582445Y-117268127D01*
X110417701Y-117214598D01*
X110417699Y-117214597D01*
X110417698Y-117214597D01*
X110286271Y-117193781D01*
X110246611Y-117187500D01*
X110073389Y-117187500D01*
X110033728Y-117193781D01*
X109902302Y-117214597D01*
X109737552Y-117268128D01*
X109583211Y-117346768D01*
X109503256Y-117404859D01*
X109443072Y-117448586D01*
X109443070Y-117448588D01*
X109443069Y-117448588D01*
X109320588Y-117571069D01*
X109320588Y-117571070D01*
X109320586Y-117571072D01*
X109303274Y-117594900D01*
X109218768Y-117711211D01*
X109140128Y-117865552D01*
X109086597Y-118030302D01*
X109059500Y-118201389D01*
X100500500Y-118201389D01*
X100500500Y-115661389D01*
X109059500Y-115661389D01*
X109059500Y-115834610D01*
X109081055Y-115970708D01*
X109086598Y-116005701D01*
X109140127Y-116170445D01*
X109218768Y-116324788D01*
X109320586Y-116464928D01*
X109443072Y-116587414D01*
X109583212Y-116689232D01*
X109737555Y-116767873D01*
X109902299Y-116821402D01*
X110073389Y-116848500D01*
X110073390Y-116848500D01*
X110246610Y-116848500D01*
X110246611Y-116848500D01*
X110417701Y-116821402D01*
X110582445Y-116767873D01*
X110736788Y-116689232D01*
X110876928Y-116587414D01*
X110999414Y-116464928D01*
X111101232Y-116324788D01*
X111179873Y-116170445D01*
X111233402Y-116005701D01*
X111260500Y-115834611D01*
X111260500Y-115661389D01*
X126839500Y-115661389D01*
X126839500Y-115834610D01*
X126861055Y-115970708D01*
X126866598Y-116005701D01*
X126920127Y-116170445D01*
X126998768Y-116324788D01*
X127100586Y-116464928D01*
X127223072Y-116587414D01*
X127363212Y-116689232D01*
X127517555Y-116767873D01*
X127682299Y-116821402D01*
X127853389Y-116848500D01*
X127853390Y-116848500D01*
X128026610Y-116848500D01*
X128026611Y-116848500D01*
X128197701Y-116821402D01*
X128362445Y-116767873D01*
X128516788Y-116689232D01*
X128656928Y-116587414D01*
X128779414Y-116464928D01*
X128881232Y-116324788D01*
X128959873Y-116170445D01*
X129013402Y-116005701D01*
X129040500Y-115834611D01*
X129040500Y-115661389D01*
X129013402Y-115490299D01*
X128959873Y-115325555D01*
X128881232Y-115171212D01*
X128779414Y-115031072D01*
X128656928Y-114908586D01*
X128516788Y-114806768D01*
X128362445Y-114728127D01*
X128197701Y-114674598D01*
X128197699Y-114674597D01*
X128197698Y-114674597D01*
X128066271Y-114653781D01*
X128026611Y-114647500D01*
X127853389Y-114647500D01*
X127813728Y-114653781D01*
X127682302Y-114674597D01*
X127517552Y-114728128D01*
X127363211Y-114806768D01*
X127284745Y-114863778D01*
X127223072Y-114908586D01*
X127223070Y-114908588D01*
X127223069Y-114908588D01*
X127100588Y-115031069D01*
X127100588Y-115031070D01*
X127100586Y-115031072D01*
X127075167Y-115066058D01*
X126998768Y-115171211D01*
X126920128Y-115325552D01*
X126866597Y-115490302D01*
X126839500Y-115661389D01*
X111260500Y-115661389D01*
X111233402Y-115490299D01*
X111179873Y-115325555D01*
X111101232Y-115171212D01*
X110999414Y-115031072D01*
X110876928Y-114908586D01*
X110736788Y-114806768D01*
X110582445Y-114728127D01*
X110417701Y-114674598D01*
X110417699Y-114674597D01*
X110417698Y-114674597D01*
X110286271Y-114653781D01*
X110246611Y-114647500D01*
X110073389Y-114647500D01*
X110033728Y-114653781D01*
X109902302Y-114674597D01*
X109737552Y-114728128D01*
X109583211Y-114806768D01*
X109504745Y-114863778D01*
X109443072Y-114908586D01*
X109443070Y-114908588D01*
X109443069Y-114908588D01*
X109320588Y-115031069D01*
X109320588Y-115031070D01*
X109320586Y-115031072D01*
X109295167Y-115066058D01*
X109218768Y-115171211D01*
X109140128Y-115325552D01*
X109086597Y-115490302D01*
X109059500Y-115661389D01*
X100500500Y-115661389D01*
X100500500Y-113121389D01*
X109059500Y-113121389D01*
X109059500Y-113294610D01*
X109074341Y-113388317D01*
X109086598Y-113465701D01*
X109140127Y-113630445D01*
X109218768Y-113784788D01*
X109320586Y-113924928D01*
X109443072Y-114047414D01*
X109583212Y-114149232D01*
X109737555Y-114227873D01*
X109902299Y-114281402D01*
X110073389Y-114308500D01*
X110073390Y-114308500D01*
X110246610Y-114308500D01*
X110246611Y-114308500D01*
X110417701Y-114281402D01*
X110582445Y-114227873D01*
X110736788Y-114149232D01*
X110876928Y-114047414D01*
X110999414Y-113924928D01*
X111101232Y-113784788D01*
X111179873Y-113630445D01*
X111233402Y-113465701D01*
X111260500Y-113294611D01*
X111260500Y-113121389D01*
X126839500Y-113121389D01*
X126839500Y-113294610D01*
X126854341Y-113388317D01*
X126866598Y-113465701D01*
X126920127Y-113630445D01*
X126998768Y-113784788D01*
X127100586Y-113924928D01*
X127223072Y-114047414D01*
X127363212Y-114149232D01*
X127517555Y-114227873D01*
X127682299Y-114281402D01*
X127853389Y-114308500D01*
X127853390Y-114308500D01*
X128026610Y-114308500D01*
X128026611Y-114308500D01*
X128197701Y-114281402D01*
X128362445Y-114227873D01*
X128516788Y-114149232D01*
X128656928Y-114047414D01*
X128779414Y-113924928D01*
X128881232Y-113784788D01*
X128959873Y-113630445D01*
X129013402Y-113465701D01*
X129040500Y-113294611D01*
X129040500Y-113121389D01*
X129013402Y-112950299D01*
X128959873Y-112785555D01*
X128881232Y-112631212D01*
X128779414Y-112491072D01*
X128656928Y-112368586D01*
X128516788Y-112266768D01*
X128362445Y-112188127D01*
X128197701Y-112134598D01*
X128197699Y-112134597D01*
X128197698Y-112134597D01*
X128066271Y-112113781D01*
X128026611Y-112107500D01*
X127853389Y-112107500D01*
X127813728Y-112113781D01*
X127682302Y-112134597D01*
X127517552Y-112188128D01*
X127363211Y-112266768D01*
X127342197Y-112282036D01*
X127223072Y-112368586D01*
X127223070Y-112368588D01*
X127223069Y-112368588D01*
X127100588Y-112491069D01*
X127100588Y-112491070D01*
X127100586Y-112491072D01*
X127088240Y-112508065D01*
X126998768Y-112631211D01*
X126920128Y-112785552D01*
X126866597Y-112950302D01*
X126839500Y-113121389D01*
X111260500Y-113121389D01*
X111233402Y-112950299D01*
X111179873Y-112785555D01*
X111101232Y-112631212D01*
X110999414Y-112491072D01*
X110876928Y-112368586D01*
X110736788Y-112266768D01*
X110582445Y-112188127D01*
X110417701Y-112134598D01*
X110417699Y-112134597D01*
X110417698Y-112134597D01*
X110286271Y-112113781D01*
X110246611Y-112107500D01*
X110073389Y-112107500D01*
X110033728Y-112113781D01*
X109902302Y-112134597D01*
X109737552Y-112188128D01*
X109583211Y-112266768D01*
X109562197Y-112282036D01*
X109443072Y-112368586D01*
X109443070Y-112368588D01*
X109443069Y-112368588D01*
X109320588Y-112491069D01*
X109320588Y-112491070D01*
X109320586Y-112491072D01*
X109308240Y-112508065D01*
X109218768Y-112631211D01*
X109140128Y-112785552D01*
X109086597Y-112950302D01*
X109059500Y-113121389D01*
X100500500Y-113121389D01*
X100500500Y-110581389D01*
X109059500Y-110581389D01*
X109059500Y-110754611D01*
X109086598Y-110925701D01*
X109140127Y-111090445D01*
X109218768Y-111244788D01*
X109320586Y-111384928D01*
X109443072Y-111507414D01*
X109583212Y-111609232D01*
X109737555Y-111687873D01*
X109902299Y-111741402D01*
X110073389Y-111768500D01*
X110073390Y-111768500D01*
X110246610Y-111768500D01*
X110246611Y-111768500D01*
X110417701Y-111741402D01*
X110582445Y-111687873D01*
X110736788Y-111609232D01*
X110876928Y-111507414D01*
X110999414Y-111384928D01*
X111101232Y-111244788D01*
X111179873Y-111090445D01*
X111233402Y-110925701D01*
X111260500Y-110754611D01*
X111260500Y-110581389D01*
X126839500Y-110581389D01*
X126839500Y-110754611D01*
X126866598Y-110925701D01*
X126920127Y-111090445D01*
X126998768Y-111244788D01*
X127100586Y-111384928D01*
X127223072Y-111507414D01*
X127363212Y-111609232D01*
X127517555Y-111687873D01*
X127682299Y-111741402D01*
X127853389Y-111768500D01*
X127853390Y-111768500D01*
X128026610Y-111768500D01*
X128026611Y-111768500D01*
X128197701Y-111741402D01*
X128362445Y-111687873D01*
X128516788Y-111609232D01*
X128656928Y-111507414D01*
X128779414Y-111384928D01*
X128881232Y-111244788D01*
X128959873Y-111090445D01*
X129013402Y-110925701D01*
X129040500Y-110754611D01*
X129040500Y-110581389D01*
X129013402Y-110410299D01*
X128959873Y-110245555D01*
X128881232Y-110091212D01*
X128779414Y-109951072D01*
X128656928Y-109828586D01*
X128516788Y-109726768D01*
X128362445Y-109648127D01*
X128197701Y-109594598D01*
X128197699Y-109594597D01*
X128197698Y-109594597D01*
X128066271Y-109573781D01*
X128026611Y-109567500D01*
X127853389Y-109567500D01*
X127813728Y-109573781D01*
X127682302Y-109594597D01*
X127517552Y-109648128D01*
X127363211Y-109726768D01*
X127283256Y-109784859D01*
X127223072Y-109828586D01*
X127223070Y-109828588D01*
X127223069Y-109828588D01*
X127100588Y-109951069D01*
X127100588Y-109951070D01*
X127100586Y-109951072D01*
X127056859Y-110011256D01*
X126998768Y-110091211D01*
X126920128Y-110245552D01*
X126866597Y-110410302D01*
X126863571Y-110429409D01*
X126839500Y-110581389D01*
X111260500Y-110581389D01*
X111233402Y-110410299D01*
X111179873Y-110245555D01*
X111101232Y-110091212D01*
X110999414Y-109951072D01*
X110876928Y-109828586D01*
X110736788Y-109726768D01*
X110582445Y-109648127D01*
X110417701Y-109594598D01*
X110417699Y-109594597D01*
X110417698Y-109594597D01*
X110286271Y-109573781D01*
X110246611Y-109567500D01*
X110073389Y-109567500D01*
X110033728Y-109573781D01*
X109902302Y-109594597D01*
X109737552Y-109648128D01*
X109583211Y-109726768D01*
X109503256Y-109784859D01*
X109443072Y-109828586D01*
X109443070Y-109828588D01*
X109443069Y-109828588D01*
X109320588Y-109951069D01*
X109320588Y-109951070D01*
X109320586Y-109951072D01*
X109276859Y-110011256D01*
X109218768Y-110091211D01*
X109140128Y-110245552D01*
X109086597Y-110410302D01*
X109083571Y-110429409D01*
X109059500Y-110581389D01*
X100500500Y-110581389D01*
X100500500Y-108049208D01*
X109055000Y-108049208D01*
X109055000Y-108206791D01*
X109060858Y-108266281D01*
X109060858Y-108266285D01*
X109091601Y-108420848D01*
X109108960Y-108478072D01*
X109169266Y-108623661D01*
X109197449Y-108676387D01*
X109197455Y-108676397D01*
X109278371Y-108797495D01*
X109716329Y-108359538D01*
X109759901Y-108435007D01*
X109852993Y-108528099D01*
X109928460Y-108571670D01*
X109490502Y-109009628D01*
X109611602Y-109090544D01*
X109611612Y-109090550D01*
X109664338Y-109118733D01*
X109809927Y-109179039D01*
X109867151Y-109196398D01*
X110021716Y-109227141D01*
X110081209Y-109233000D01*
X110799768Y-109233000D01*
X110806826Y-109232918D01*
X110916499Y-109209784D01*
X110916500Y-109209783D01*
X110989989Y-109179343D01*
X110996448Y-109176579D01*
X110391539Y-108571670D01*
X110467007Y-108528099D01*
X110560099Y-108435007D01*
X110603670Y-108359538D01*
X111207706Y-108963574D01*
X111207708Y-108963574D01*
X111211330Y-108958016D01*
X111211337Y-108958003D01*
X111241762Y-108884549D01*
X111244403Y-108877961D01*
X111265000Y-108767779D01*
X111265000Y-107488245D01*
X111265000Y-107488220D01*
X126835000Y-107488220D01*
X126835000Y-108767767D01*
X126835081Y-108774826D01*
X126858215Y-108884497D01*
X126888651Y-108957976D01*
X126891419Y-108964447D01*
X127496329Y-108359538D01*
X127539901Y-108435007D01*
X127632993Y-108528099D01*
X127708460Y-108571670D01*
X127104423Y-109175706D01*
X127109989Y-109179334D01*
X127183525Y-109209792D01*
X127190038Y-109212403D01*
X127300220Y-109233000D01*
X128018791Y-109233000D01*
X128078281Y-109227141D01*
X128078285Y-109227141D01*
X128232848Y-109196398D01*
X128290072Y-109179039D01*
X128435661Y-109118733D01*
X128488387Y-109090550D01*
X128488397Y-109090544D01*
X128609496Y-109009628D01*
X128171538Y-108571670D01*
X128247007Y-108528099D01*
X128340099Y-108435007D01*
X128383670Y-108359538D01*
X128821628Y-108797496D01*
X128902544Y-108676397D01*
X128902550Y-108676387D01*
X128930733Y-108623661D01*
X128991039Y-108478072D01*
X129008398Y-108420848D01*
X129039141Y-108266285D01*
X129039141Y-108266281D01*
X129045000Y-108206791D01*
X129045000Y-108049208D01*
X129039141Y-107989718D01*
X129039141Y-107989714D01*
X129008398Y-107835151D01*
X128991039Y-107777927D01*
X128930733Y-107632338D01*
X128902550Y-107579612D01*
X128902544Y-107579602D01*
X128821628Y-107458502D01*
X128383670Y-107896460D01*
X128340099Y-107820993D01*
X128247007Y-107727901D01*
X128171538Y-107684329D01*
X128609495Y-107246371D01*
X128488397Y-107165455D01*
X128488387Y-107165449D01*
X128435661Y-107137266D01*
X128290072Y-107076960D01*
X128232848Y-107059601D01*
X128078283Y-107028858D01*
X128018791Y-107023000D01*
X127300232Y-107023000D01*
X127293173Y-107023081D01*
X127183500Y-107046215D01*
X127183499Y-107046216D01*
X127110044Y-107076641D01*
X127103550Y-107079419D01*
X127708461Y-107684329D01*
X127632993Y-107727901D01*
X127539901Y-107820993D01*
X127496329Y-107896460D01*
X126892293Y-107292424D01*
X126892292Y-107292424D01*
X126888663Y-107297993D01*
X126888662Y-107297995D01*
X126858219Y-107371494D01*
X126855596Y-107378038D01*
X126835000Y-107488220D01*
X111265000Y-107488220D01*
X111264950Y-107483918D01*
X111264951Y-107483911D01*
X111264950Y-107483903D01*
X111264918Y-107481172D01*
X111241785Y-107371504D01*
X111211309Y-107297927D01*
X111208580Y-107291551D01*
X111208579Y-107291551D01*
X110603670Y-107896460D01*
X110560099Y-107820993D01*
X110467007Y-107727901D01*
X110391539Y-107684329D01*
X110995575Y-107080293D01*
X110995574Y-107080291D01*
X110990010Y-107076664D01*
X110916506Y-107046219D01*
X110909961Y-107043596D01*
X110799780Y-107023000D01*
X110081209Y-107023000D01*
X110021718Y-107028858D01*
X110021714Y-107028858D01*
X109867151Y-107059601D01*
X109809927Y-107076960D01*
X109664338Y-107137266D01*
X109611612Y-107165449D01*
X109611607Y-107165452D01*
X109490503Y-107246370D01*
X109490503Y-107246371D01*
X109928461Y-107684329D01*
X109852993Y-107727901D01*
X109759901Y-107820993D01*
X109716329Y-107896461D01*
X109278371Y-107458503D01*
X109278370Y-107458503D01*
X109197452Y-107579607D01*
X109197449Y-107579612D01*
X109169266Y-107632338D01*
X109108960Y-107777927D01*
X109091601Y-107835151D01*
X109060858Y-107989714D01*
X109060858Y-107989718D01*
X109055000Y-108049208D01*
X100500500Y-108049208D01*
X100500500Y-107624000D01*
X100520185Y-107556961D01*
X100572989Y-107511206D01*
X100624500Y-107500000D01*
X107500000Y-107500000D01*
X107500000Y-105501389D01*
X109059500Y-105501389D01*
X109059500Y-105674611D01*
X109086598Y-105845701D01*
X109140127Y-106010445D01*
X109218768Y-106164788D01*
X109320586Y-106304928D01*
X109443072Y-106427414D01*
X109583212Y-106529232D01*
X109737555Y-106607873D01*
X109902299Y-106661402D01*
X110073389Y-106688500D01*
X110073390Y-106688500D01*
X110246610Y-106688500D01*
X110246611Y-106688500D01*
X110417701Y-106661402D01*
X110582445Y-106607873D01*
X110736788Y-106529232D01*
X110876928Y-106427414D01*
X110999414Y-106304928D01*
X111101232Y-106164788D01*
X111179873Y-106010445D01*
X111233402Y-105845701D01*
X111260500Y-105674611D01*
X111260500Y-105501389D01*
X126839500Y-105501389D01*
X126839500Y-105674611D01*
X126866598Y-105845701D01*
X126920127Y-106010445D01*
X126998768Y-106164788D01*
X127100586Y-106304928D01*
X127223072Y-106427414D01*
X127363212Y-106529232D01*
X127517555Y-106607873D01*
X127682299Y-106661402D01*
X127853389Y-106688500D01*
X127853390Y-106688500D01*
X128026610Y-106688500D01*
X128026611Y-106688500D01*
X128197701Y-106661402D01*
X128362445Y-106607873D01*
X128516788Y-106529232D01*
X128656928Y-106427414D01*
X128779414Y-106304928D01*
X128881232Y-106164788D01*
X128959873Y-106010445D01*
X129013402Y-105845701D01*
X129040500Y-105674611D01*
X129040500Y-105501389D01*
X129013402Y-105330299D01*
X128959873Y-105165555D01*
X128881232Y-105011212D01*
X128779414Y-104871072D01*
X128656928Y-104748586D01*
X128516788Y-104646768D01*
X128362445Y-104568127D01*
X128197701Y-104514598D01*
X128197699Y-104514597D01*
X128197698Y-104514597D01*
X128066271Y-104493781D01*
X128026611Y-104487500D01*
X127853389Y-104487500D01*
X127813728Y-104493781D01*
X127682302Y-104514597D01*
X127517552Y-104568128D01*
X127363211Y-104646768D01*
X127283256Y-104704859D01*
X127223072Y-104748586D01*
X127223070Y-104748588D01*
X127223069Y-104748588D01*
X127100588Y-104871069D01*
X127100588Y-104871070D01*
X127100586Y-104871072D01*
X127056859Y-104931256D01*
X126998768Y-105011211D01*
X126920128Y-105165552D01*
X126866597Y-105330302D01*
X126839500Y-105501389D01*
X111260500Y-105501389D01*
X111233402Y-105330299D01*
X111179873Y-105165555D01*
X111101232Y-105011212D01*
X110999414Y-104871072D01*
X110876928Y-104748586D01*
X110736788Y-104646768D01*
X110582445Y-104568127D01*
X110417701Y-104514598D01*
X110417699Y-104514597D01*
X110417698Y-104514597D01*
X110286271Y-104493781D01*
X110246611Y-104487500D01*
X110073389Y-104487500D01*
X110033728Y-104493781D01*
X109902302Y-104514597D01*
X109737552Y-104568128D01*
X109583211Y-104646768D01*
X109503256Y-104704859D01*
X109443072Y-104748586D01*
X109443070Y-104748588D01*
X109443069Y-104748588D01*
X109320588Y-104871069D01*
X109320588Y-104871070D01*
X109320586Y-104871072D01*
X109276859Y-104931256D01*
X109218768Y-105011211D01*
X109140128Y-105165552D01*
X109086597Y-105330302D01*
X109059500Y-105501389D01*
X107500000Y-105501389D01*
X107500000Y-102400135D01*
X109059500Y-102400135D01*
X109059500Y-103695870D01*
X109059501Y-103695876D01*
X109065908Y-103755483D01*
X109116202Y-103890328D01*
X109116206Y-103890335D01*
X109202452Y-104005544D01*
X109202455Y-104005547D01*
X109317664Y-104091793D01*
X109317671Y-104091797D01*
X109452517Y-104142091D01*
X109452516Y-104142091D01*
X109459444Y-104142835D01*
X109512127Y-104148500D01*
X110807872Y-104148499D01*
X110867483Y-104142091D01*
X111002331Y-104091796D01*
X111117546Y-104005546D01*
X111203796Y-103890331D01*
X111254091Y-103755483D01*
X111260500Y-103695873D01*
X111260499Y-102961389D01*
X126839500Y-102961389D01*
X126839500Y-103134611D01*
X126866598Y-103305701D01*
X126920127Y-103470445D01*
X126998768Y-103624788D01*
X127100586Y-103764928D01*
X127223072Y-103887414D01*
X127363212Y-103989232D01*
X127517555Y-104067873D01*
X127682299Y-104121402D01*
X127853389Y-104148500D01*
X127853390Y-104148500D01*
X128026610Y-104148500D01*
X128026611Y-104148500D01*
X128197701Y-104121402D01*
X128362445Y-104067873D01*
X128516788Y-103989232D01*
X128656928Y-103887414D01*
X128779414Y-103764928D01*
X128881232Y-103624788D01*
X128959873Y-103470445D01*
X129013402Y-103305701D01*
X129040500Y-103134611D01*
X129040500Y-102961389D01*
X129013402Y-102790299D01*
X128959873Y-102625555D01*
X128881232Y-102471212D01*
X128779414Y-102331072D01*
X128656928Y-102208586D01*
X128516788Y-102106768D01*
X128362445Y-102028127D01*
X128197701Y-101974598D01*
X128197699Y-101974597D01*
X128197698Y-101974597D01*
X128066271Y-101953781D01*
X128026611Y-101947500D01*
X127853389Y-101947500D01*
X127813728Y-101953781D01*
X127682302Y-101974597D01*
X127517552Y-102028128D01*
X127363211Y-102106768D01*
X127283256Y-102164859D01*
X127223072Y-102208586D01*
X127223070Y-102208588D01*
X127223069Y-102208588D01*
X127100588Y-102331069D01*
X127100588Y-102331070D01*
X127100586Y-102331072D01*
X127093725Y-102340516D01*
X126998768Y-102471211D01*
X126920128Y-102625552D01*
X126866597Y-102790302D01*
X126839500Y-102961389D01*
X111260499Y-102961389D01*
X111260499Y-102400128D01*
X111254091Y-102340517D01*
X111250568Y-102331072D01*
X111203797Y-102205671D01*
X111203793Y-102205664D01*
X111117547Y-102090455D01*
X111117544Y-102090452D01*
X111002335Y-102004206D01*
X111002328Y-102004202D01*
X110867482Y-101953908D01*
X110867483Y-101953908D01*
X110807883Y-101947501D01*
X110807881Y-101947500D01*
X110807873Y-101947500D01*
X110807864Y-101947500D01*
X109512129Y-101947500D01*
X109512123Y-101947501D01*
X109452516Y-101953908D01*
X109317671Y-102004202D01*
X109317664Y-102004206D01*
X109202455Y-102090452D01*
X109202452Y-102090455D01*
X109116206Y-102205664D01*
X109116202Y-102205671D01*
X109065908Y-102340517D01*
X109059501Y-102400116D01*
X109059501Y-102400123D01*
X109059500Y-102400135D01*
X107500000Y-102400135D01*
X107500000Y-100624500D01*
X107519685Y-100557461D01*
X107572489Y-100511706D01*
X107624000Y-100500500D01*
X172376000Y-100500500D01*
X172443039Y-100520185D01*
G37*
%TD.AperFunction*%
%TA.AperFunction,Conductor*%
G36*
X127539901Y-146535007D02*
G01*
X127632993Y-146628099D01*
X127708461Y-146671670D01*
X127367769Y-147012362D01*
X127306446Y-147045847D01*
X127297609Y-147047387D01*
X127213052Y-147070044D01*
X127143202Y-147068381D01*
X127085340Y-147029218D01*
X127057837Y-146964989D01*
X127069424Y-146896087D01*
X127093279Y-146862588D01*
X127496329Y-146459538D01*
X127539901Y-146535007D01*
G37*
%TD.AperFunction*%
%TD*%
M02*
