%TF.GenerationSoftware,KiCad,Pcbnew,10.0.6-1.fc44app2*%
%TF.CreationDate,2026-10-06T11:56:39+02:00*%
%TF.ProjectId,goodjohn-carrier,676f6f64-6a6f-4686-9e2d-636172726965,1.0-prototype*%
%TF.SameCoordinates,Original*%
%TF.FileFunction,Legend,Top*%
%TF.FilePolarity,Positive*%
%FSLAX46Y46*%
G04 Gerber Fmt 4.6, Leading zero omitted, Abs format (unit mm)*
G04 Created by KiCad (PCBNEW 10.0.6-1.fc44app2) date 2026-10-06 11:56:39*
%MOMM*%
%LPD*%
G01*
G04 APERTURE LIST*
G04 Aperture macros list*
%AMRoundRect*
0 Rectangle with rounded corners*
0 $1 Rounding radius*
0 $2 $3 $4 $5 $6 $7 $8 $9 X,Y pos of 4 corners*
0 Add a 4 corners polygon primitive as box body*
4,1,4,$2,$3,$4,$5,$6,$7,$8,$9,$2,$3,0*
0 Add four circle primitives for the rounded corners*
1,1,$1+$1,$2,$3*
1,1,$1+$1,$4,$5*
1,1,$1+$1,$6,$7*
1,1,$1+$1,$8,$9*
0 Add four rect primitives between the rounded corners*
20,1,$1+$1,$2,$3,$4,$5,0*
20,1,$1+$1,$4,$5,$6,$7,0*
20,1,$1+$1,$6,$7,$8,$9,0*
20,1,$1+$1,$8,$9,$2,$3,0*%
%AMFreePoly0*
4,1,37,0.603843,0.796157,0.639018,0.796157,0.711114,0.766294,0.766294,0.711114,0.796157,0.639018,0.796157,0.603843,0.800000,0.600000,0.800000,-0.600000,0.796157,-0.603843,0.796157,-0.639018,0.766294,-0.711114,0.711114,-0.766294,0.639018,-0.796157,0.603843,-0.796157,0.600000,-0.800000,0.000000,-0.800000,0.000000,-0.796148,-0.078414,-0.796148,-0.232228,-0.765552,-0.377117,-0.705537,
-0.507515,-0.618408,-0.618408,-0.507515,-0.705537,-0.377117,-0.765552,-0.232228,-0.796148,-0.078414,-0.796148,0.078414,-0.765552,0.232228,-0.705537,0.377117,-0.618408,0.507515,-0.507515,0.618408,-0.377117,0.705537,-0.232228,0.765552,-0.078414,0.796148,0.000000,0.796148,0.000000,0.800000,0.600000,0.800000,0.603843,0.796157,0.603843,0.796157,$1*%
%AMFreePoly1*
4,1,37,0.000000,0.796148,0.078414,0.796148,0.232228,0.765552,0.377117,0.705537,0.507515,0.618408,0.618408,0.507515,0.705537,0.377117,0.765552,0.232228,0.796148,0.078414,0.796148,-0.078414,0.765552,-0.232228,0.705537,-0.377117,0.618408,-0.507515,0.507515,-0.618408,0.377117,-0.705537,0.232228,-0.765552,0.078414,-0.796148,0.000000,-0.796148,0.000000,-0.800000,-0.600000,-0.800000,
-0.603843,-0.796157,-0.639018,-0.796157,-0.711114,-0.766294,-0.766294,-0.711114,-0.796157,-0.639018,-0.796157,-0.603843,-0.800000,-0.600000,-0.800000,0.600000,-0.796157,0.603843,-0.796157,0.639018,-0.766294,0.711114,-0.711114,0.766294,-0.639018,0.796157,-0.603843,0.796157,-0.600000,0.800000,0.000000,0.800000,0.000000,0.796148,0.000000,0.796148,$1*%
G04 Aperture macros list end*
%ADD10C,0.150000*%
%ADD11C,0.120000*%
%ADD12R,1.700000X1.700000*%
%ADD13C,1.700000*%
%ADD14C,3.200000*%
%ADD15RoundRect,0.200000X-0.600000X-0.600000X0.600000X-0.600000X0.600000X0.600000X-0.600000X0.600000X0*%
%ADD16C,1.600000*%
%ADD17FreePoly0,0.000000*%
%ADD18FreePoly1,0.000000*%
G04 APERTURE END LIST*
D10*
X139508333Y-141940189D02*
X139629761Y-141980665D01*
X139629761Y-141980665D02*
X139670238Y-142021141D01*
X139670238Y-142021141D02*
X139710714Y-142102093D01*
X139710714Y-142102093D02*
X139710714Y-142223522D01*
X139710714Y-142223522D02*
X139670238Y-142304474D01*
X139670238Y-142304474D02*
X139629761Y-142344951D01*
X139629761Y-142344951D02*
X139548809Y-142385427D01*
X139548809Y-142385427D02*
X139224999Y-142385427D01*
X139224999Y-142385427D02*
X139224999Y-141535427D01*
X139224999Y-141535427D02*
X139508333Y-141535427D01*
X139508333Y-141535427D02*
X139589285Y-141575903D01*
X139589285Y-141575903D02*
X139629761Y-141616379D01*
X139629761Y-141616379D02*
X139670238Y-141697331D01*
X139670238Y-141697331D02*
X139670238Y-141778284D01*
X139670238Y-141778284D02*
X139629761Y-141859236D01*
X139629761Y-141859236D02*
X139589285Y-141899712D01*
X139589285Y-141899712D02*
X139508333Y-141940189D01*
X139508333Y-141940189D02*
X139224999Y-141940189D01*
X140722618Y-141940189D02*
X141370238Y-141940189D01*
X141370238Y-142183046D02*
X140722618Y-142183046D01*
X142422618Y-141940189D02*
X142705952Y-141940189D01*
X142827380Y-142385427D02*
X142422618Y-142385427D01*
X142422618Y-142385427D02*
X142422618Y-141535427D01*
X142422618Y-141535427D02*
X142827380Y-141535427D01*
X143070238Y-141535427D02*
X143353571Y-142385427D01*
X143353571Y-142385427D02*
X143636905Y-141535427D01*
X143920237Y-141940189D02*
X144203571Y-141940189D01*
X144324999Y-142385427D02*
X143920237Y-142385427D01*
X143920237Y-142385427D02*
X143920237Y-141535427D01*
X143920237Y-141535427D02*
X144324999Y-141535427D01*
X144689285Y-142385427D02*
X144689285Y-141535427D01*
X144689285Y-141535427D02*
X145175000Y-142385427D01*
X145175000Y-142385427D02*
X145175000Y-141535427D01*
X150328571Y-142142570D02*
X150733333Y-142142570D01*
X150247619Y-142385427D02*
X150530952Y-141535427D01*
X150530952Y-141535427D02*
X150814286Y-142385427D01*
X151745237Y-141940189D02*
X152392857Y-141940189D01*
X152392857Y-142183046D02*
X151745237Y-142183046D01*
X153607142Y-141535427D02*
X153769047Y-141535427D01*
X153769047Y-141535427D02*
X153849999Y-141575903D01*
X153849999Y-141575903D02*
X153930952Y-141656855D01*
X153930952Y-141656855D02*
X153971428Y-141818760D01*
X153971428Y-141818760D02*
X153971428Y-142102093D01*
X153971428Y-142102093D02*
X153930952Y-142263998D01*
X153930952Y-142263998D02*
X153849999Y-142344951D01*
X153849999Y-142344951D02*
X153769047Y-142385427D01*
X153769047Y-142385427D02*
X153607142Y-142385427D01*
X153607142Y-142385427D02*
X153526190Y-142344951D01*
X153526190Y-142344951D02*
X153445237Y-142263998D01*
X153445237Y-142263998D02*
X153404761Y-142102093D01*
X153404761Y-142102093D02*
X153404761Y-141818760D01*
X153404761Y-141818760D02*
X153445237Y-141656855D01*
X153445237Y-141656855D02*
X153526190Y-141575903D01*
X153526190Y-141575903D02*
X153607142Y-141535427D01*
X154335713Y-142385427D02*
X154335713Y-141535427D01*
X154335713Y-141535427D02*
X154538094Y-141535427D01*
X154538094Y-141535427D02*
X154659523Y-141575903D01*
X154659523Y-141575903D02*
X154740475Y-141656855D01*
X154740475Y-141656855D02*
X154780952Y-141737808D01*
X154780952Y-141737808D02*
X154821428Y-141899712D01*
X154821428Y-141899712D02*
X154821428Y-142021141D01*
X154821428Y-142021141D02*
X154780952Y-142183046D01*
X154780952Y-142183046D02*
X154740475Y-142263998D01*
X154740475Y-142263998D02*
X154659523Y-142344951D01*
X154659523Y-142344951D02*
X154538094Y-142385427D01*
X154538094Y-142385427D02*
X154335713Y-142385427D01*
X155185713Y-142385427D02*
X155185713Y-141535427D01*
X155185713Y-141535427D02*
X155388094Y-141535427D01*
X155388094Y-141535427D02*
X155509523Y-141575903D01*
X155509523Y-141575903D02*
X155590475Y-141656855D01*
X155590475Y-141656855D02*
X155630952Y-141737808D01*
X155630952Y-141737808D02*
X155671428Y-141899712D01*
X155671428Y-141899712D02*
X155671428Y-142021141D01*
X155671428Y-142021141D02*
X155630952Y-142183046D01*
X155630952Y-142183046D02*
X155590475Y-142263998D01*
X155590475Y-142263998D02*
X155509523Y-142344951D01*
X155509523Y-142344951D02*
X155388094Y-142385427D01*
X155388094Y-142385427D02*
X155185713Y-142385427D01*
X154964286Y-138508557D02*
X154450000Y-138508557D01*
X154707143Y-138508557D02*
X154707143Y-137608557D01*
X154707143Y-137608557D02*
X154621429Y-137737128D01*
X154621429Y-137737128D02*
X154535714Y-137822842D01*
X154535714Y-137822842D02*
X154450000Y-137865700D01*
X155521429Y-137608557D02*
X155607143Y-137608557D01*
X155607143Y-137608557D02*
X155692857Y-137651414D01*
X155692857Y-137651414D02*
X155735715Y-137694271D01*
X155735715Y-137694271D02*
X155778572Y-137779985D01*
X155778572Y-137779985D02*
X155821429Y-137951414D01*
X155821429Y-137951414D02*
X155821429Y-138165700D01*
X155821429Y-138165700D02*
X155778572Y-138337128D01*
X155778572Y-138337128D02*
X155735715Y-138422842D01*
X155735715Y-138422842D02*
X155692857Y-138465700D01*
X155692857Y-138465700D02*
X155607143Y-138508557D01*
X155607143Y-138508557D02*
X155521429Y-138508557D01*
X155521429Y-138508557D02*
X155435715Y-138465700D01*
X155435715Y-138465700D02*
X155392857Y-138422842D01*
X155392857Y-138422842D02*
X155350000Y-138337128D01*
X155350000Y-138337128D02*
X155307143Y-138165700D01*
X155307143Y-138165700D02*
X155307143Y-137951414D01*
X155307143Y-137951414D02*
X155350000Y-137779985D01*
X155350000Y-137779985D02*
X155392857Y-137694271D01*
X155392857Y-137694271D02*
X155435715Y-137651414D01*
X155435715Y-137651414D02*
X155521429Y-137608557D01*
X156892857Y-138508557D02*
X156892857Y-137608557D01*
X156892857Y-137608557D02*
X157407143Y-138508557D01*
X157407143Y-138508557D02*
X157407143Y-137608557D01*
X158350000Y-138422842D02*
X158307143Y-138465700D01*
X158307143Y-138465700D02*
X158178571Y-138508557D01*
X158178571Y-138508557D02*
X158092857Y-138508557D01*
X158092857Y-138508557D02*
X157964286Y-138465700D01*
X157964286Y-138465700D02*
X157878571Y-138379985D01*
X157878571Y-138379985D02*
X157835714Y-138294271D01*
X157835714Y-138294271D02*
X157792857Y-138122842D01*
X157792857Y-138122842D02*
X157792857Y-137994271D01*
X157792857Y-137994271D02*
X157835714Y-137822842D01*
X157835714Y-137822842D02*
X157878571Y-137737128D01*
X157878571Y-137737128D02*
X157964286Y-137651414D01*
X157964286Y-137651414D02*
X158092857Y-137608557D01*
X158092857Y-137608557D02*
X158178571Y-137608557D01*
X158178571Y-137608557D02*
X158307143Y-137651414D01*
X158307143Y-137651414D02*
X158350000Y-137694271D01*
X106338095Y-150850057D02*
X106385714Y-150802438D01*
X106385714Y-150802438D02*
X106480952Y-150754819D01*
X106480952Y-150754819D02*
X106719047Y-150754819D01*
X106719047Y-150754819D02*
X106814285Y-150802438D01*
X106814285Y-150802438D02*
X106861904Y-150850057D01*
X106861904Y-150850057D02*
X106909523Y-150945295D01*
X106909523Y-150945295D02*
X106909523Y-151040533D01*
X106909523Y-151040533D02*
X106861904Y-151183390D01*
X106861904Y-151183390D02*
X106290476Y-151754819D01*
X106290476Y-151754819D02*
X106909523Y-151754819D01*
X107528571Y-150754819D02*
X107623809Y-150754819D01*
X107623809Y-150754819D02*
X107719047Y-150802438D01*
X107719047Y-150802438D02*
X107766666Y-150850057D01*
X107766666Y-150850057D02*
X107814285Y-150945295D01*
X107814285Y-150945295D02*
X107861904Y-151135771D01*
X107861904Y-151135771D02*
X107861904Y-151373866D01*
X107861904Y-151373866D02*
X107814285Y-151564342D01*
X107814285Y-151564342D02*
X107766666Y-151659580D01*
X107766666Y-151659580D02*
X107719047Y-151707200D01*
X107719047Y-151707200D02*
X107623809Y-151754819D01*
X107623809Y-151754819D02*
X107528571Y-151754819D01*
X107528571Y-151754819D02*
X107433333Y-151707200D01*
X107433333Y-151707200D02*
X107385714Y-151659580D01*
X107385714Y-151659580D02*
X107338095Y-151564342D01*
X107338095Y-151564342D02*
X107290476Y-151373866D01*
X107290476Y-151373866D02*
X107290476Y-151135771D01*
X107290476Y-151135771D02*
X107338095Y-150945295D01*
X107338095Y-150945295D02*
X107385714Y-150850057D01*
X107385714Y-150850057D02*
X107433333Y-150802438D01*
X107433333Y-150802438D02*
X107528571Y-150754819D01*
X107585714Y-103504819D02*
X107014286Y-103504819D01*
X107300000Y-103504819D02*
X107300000Y-102504819D01*
X107300000Y-102504819D02*
X107204762Y-102647676D01*
X107204762Y-102647676D02*
X107109524Y-102742914D01*
X107109524Y-102742914D02*
X107014286Y-102790533D01*
X115071428Y-107954819D02*
X115071428Y-108764342D01*
X115071428Y-108764342D02*
X115119047Y-108859580D01*
X115119047Y-108859580D02*
X115166666Y-108907200D01*
X115166666Y-108907200D02*
X115261904Y-108954819D01*
X115261904Y-108954819D02*
X115452380Y-108954819D01*
X115452380Y-108954819D02*
X115547618Y-108907200D01*
X115547618Y-108907200D02*
X115595237Y-108859580D01*
X115595237Y-108859580D02*
X115642856Y-108764342D01*
X115642856Y-108764342D02*
X115642856Y-107954819D01*
X116071428Y-108907200D02*
X116214285Y-108954819D01*
X116214285Y-108954819D02*
X116452380Y-108954819D01*
X116452380Y-108954819D02*
X116547618Y-108907200D01*
X116547618Y-108907200D02*
X116595237Y-108859580D01*
X116595237Y-108859580D02*
X116642856Y-108764342D01*
X116642856Y-108764342D02*
X116642856Y-108669104D01*
X116642856Y-108669104D02*
X116595237Y-108573866D01*
X116595237Y-108573866D02*
X116547618Y-108526247D01*
X116547618Y-108526247D02*
X116452380Y-108478628D01*
X116452380Y-108478628D02*
X116261904Y-108431009D01*
X116261904Y-108431009D02*
X116166666Y-108383390D01*
X116166666Y-108383390D02*
X116119047Y-108335771D01*
X116119047Y-108335771D02*
X116071428Y-108240533D01*
X116071428Y-108240533D02*
X116071428Y-108145295D01*
X116071428Y-108145295D02*
X116119047Y-108050057D01*
X116119047Y-108050057D02*
X116166666Y-108002438D01*
X116166666Y-108002438D02*
X116261904Y-107954819D01*
X116261904Y-107954819D02*
X116499999Y-107954819D01*
X116499999Y-107954819D02*
X116642856Y-108002438D01*
X117404761Y-108431009D02*
X117547618Y-108478628D01*
X117547618Y-108478628D02*
X117595237Y-108526247D01*
X117595237Y-108526247D02*
X117642856Y-108621485D01*
X117642856Y-108621485D02*
X117642856Y-108764342D01*
X117642856Y-108764342D02*
X117595237Y-108859580D01*
X117595237Y-108859580D02*
X117547618Y-108907200D01*
X117547618Y-108907200D02*
X117452380Y-108954819D01*
X117452380Y-108954819D02*
X117071428Y-108954819D01*
X117071428Y-108954819D02*
X117071428Y-107954819D01*
X117071428Y-107954819D02*
X117404761Y-107954819D01*
X117404761Y-107954819D02*
X117499999Y-108002438D01*
X117499999Y-108002438D02*
X117547618Y-108050057D01*
X117547618Y-108050057D02*
X117595237Y-108145295D01*
X117595237Y-108145295D02*
X117595237Y-108240533D01*
X117595237Y-108240533D02*
X117547618Y-108335771D01*
X117547618Y-108335771D02*
X117499999Y-108383390D01*
X117499999Y-108383390D02*
X117404761Y-108431009D01*
X117404761Y-108431009D02*
X117071428Y-108431009D01*
X118690476Y-107954819D02*
X119261904Y-107954819D01*
X118976190Y-108954819D02*
X118976190Y-107954819D01*
X119785714Y-107954819D02*
X119976190Y-107954819D01*
X119976190Y-107954819D02*
X120071428Y-108002438D01*
X120071428Y-108002438D02*
X120166666Y-108097676D01*
X120166666Y-108097676D02*
X120214285Y-108288152D01*
X120214285Y-108288152D02*
X120214285Y-108621485D01*
X120214285Y-108621485D02*
X120166666Y-108811961D01*
X120166666Y-108811961D02*
X120071428Y-108907200D01*
X120071428Y-108907200D02*
X119976190Y-108954819D01*
X119976190Y-108954819D02*
X119785714Y-108954819D01*
X119785714Y-108954819D02*
X119690476Y-108907200D01*
X119690476Y-108907200D02*
X119595238Y-108811961D01*
X119595238Y-108811961D02*
X119547619Y-108621485D01*
X119547619Y-108621485D02*
X119547619Y-108288152D01*
X119547619Y-108288152D02*
X119595238Y-108097676D01*
X119595238Y-108097676D02*
X119690476Y-108002438D01*
X119690476Y-108002438D02*
X119785714Y-107954819D01*
X121404762Y-108954819D02*
X121404762Y-107954819D01*
X121404762Y-107954819D02*
X121785714Y-107954819D01*
X121785714Y-107954819D02*
X121880952Y-108002438D01*
X121880952Y-108002438D02*
X121928571Y-108050057D01*
X121928571Y-108050057D02*
X121976190Y-108145295D01*
X121976190Y-108145295D02*
X121976190Y-108288152D01*
X121976190Y-108288152D02*
X121928571Y-108383390D01*
X121928571Y-108383390D02*
X121880952Y-108431009D01*
X121880952Y-108431009D02*
X121785714Y-108478628D01*
X121785714Y-108478628D02*
X121404762Y-108478628D01*
X122976190Y-108859580D02*
X122928571Y-108907200D01*
X122928571Y-108907200D02*
X122785714Y-108954819D01*
X122785714Y-108954819D02*
X122690476Y-108954819D01*
X122690476Y-108954819D02*
X122547619Y-108907200D01*
X122547619Y-108907200D02*
X122452381Y-108811961D01*
X122452381Y-108811961D02*
X122404762Y-108716723D01*
X122404762Y-108716723D02*
X122357143Y-108526247D01*
X122357143Y-108526247D02*
X122357143Y-108383390D01*
X122357143Y-108383390D02*
X122404762Y-108192914D01*
X122404762Y-108192914D02*
X122452381Y-108097676D01*
X122452381Y-108097676D02*
X122547619Y-108002438D01*
X122547619Y-108002438D02*
X122690476Y-107954819D01*
X122690476Y-107954819D02*
X122785714Y-107954819D01*
X122785714Y-107954819D02*
X122928571Y-108002438D01*
X122928571Y-108002438D02*
X122976190Y-108050057D01*
X115764286Y-153254819D02*
X115764286Y-154064342D01*
X115764286Y-154064342D02*
X115811905Y-154159580D01*
X115811905Y-154159580D02*
X115859524Y-154207200D01*
X115859524Y-154207200D02*
X115954762Y-154254819D01*
X115954762Y-154254819D02*
X116145238Y-154254819D01*
X116145238Y-154254819D02*
X116240476Y-154207200D01*
X116240476Y-154207200D02*
X116288095Y-154159580D01*
X116288095Y-154159580D02*
X116335714Y-154064342D01*
X116335714Y-154064342D02*
X116335714Y-153254819D01*
X117335714Y-154254819D02*
X116764286Y-154254819D01*
X117050000Y-154254819D02*
X117050000Y-153254819D01*
X117050000Y-153254819D02*
X116954762Y-153397676D01*
X116954762Y-153397676D02*
X116859524Y-153492914D01*
X116859524Y-153492914D02*
X116764286Y-153540533D01*
X119288096Y-154254819D02*
X119288096Y-153254819D01*
X119288096Y-153254819D02*
X119669048Y-153254819D01*
X119669048Y-153254819D02*
X119764286Y-153302438D01*
X119764286Y-153302438D02*
X119811905Y-153350057D01*
X119811905Y-153350057D02*
X119859524Y-153445295D01*
X119859524Y-153445295D02*
X119859524Y-153588152D01*
X119859524Y-153588152D02*
X119811905Y-153683390D01*
X119811905Y-153683390D02*
X119764286Y-153731009D01*
X119764286Y-153731009D02*
X119669048Y-153778628D01*
X119669048Y-153778628D02*
X119288096Y-153778628D01*
X120288096Y-154254819D02*
X120288096Y-153254819D01*
X121335714Y-154159580D02*
X121288095Y-154207200D01*
X121288095Y-154207200D02*
X121145238Y-154254819D01*
X121145238Y-154254819D02*
X121050000Y-154254819D01*
X121050000Y-154254819D02*
X120907143Y-154207200D01*
X120907143Y-154207200D02*
X120811905Y-154111961D01*
X120811905Y-154111961D02*
X120764286Y-154016723D01*
X120764286Y-154016723D02*
X120716667Y-153826247D01*
X120716667Y-153826247D02*
X120716667Y-153683390D01*
X120716667Y-153683390D02*
X120764286Y-153492914D01*
X120764286Y-153492914D02*
X120811905Y-153397676D01*
X120811905Y-153397676D02*
X120907143Y-153302438D01*
X120907143Y-153302438D02*
X121050000Y-153254819D01*
X121050000Y-153254819D02*
X121145238Y-153254819D01*
X121145238Y-153254819D02*
X121288095Y-153302438D01*
X121288095Y-153302438D02*
X121335714Y-153350057D01*
X121954762Y-153254819D02*
X122145238Y-153254819D01*
X122145238Y-153254819D02*
X122240476Y-153302438D01*
X122240476Y-153302438D02*
X122335714Y-153397676D01*
X122335714Y-153397676D02*
X122383333Y-153588152D01*
X122383333Y-153588152D02*
X122383333Y-153921485D01*
X122383333Y-153921485D02*
X122335714Y-154111961D01*
X122335714Y-154111961D02*
X122240476Y-154207200D01*
X122240476Y-154207200D02*
X122145238Y-154254819D01*
X122145238Y-154254819D02*
X121954762Y-154254819D01*
X121954762Y-154254819D02*
X121859524Y-154207200D01*
X121859524Y-154207200D02*
X121764286Y-154111961D01*
X121764286Y-154111961D02*
X121716667Y-153921485D01*
X121716667Y-153921485D02*
X121716667Y-153588152D01*
X121716667Y-153588152D02*
X121764286Y-153397676D01*
X121764286Y-153397676D02*
X121859524Y-153302438D01*
X121859524Y-153302438D02*
X121954762Y-153254819D01*
X130714285Y-102838152D02*
X130714285Y-103504819D01*
X130476190Y-102457200D02*
X130238095Y-103171485D01*
X130238095Y-103171485D02*
X130857142Y-103171485D01*
X131428571Y-102504819D02*
X131523809Y-102504819D01*
X131523809Y-102504819D02*
X131619047Y-102552438D01*
X131619047Y-102552438D02*
X131666666Y-102600057D01*
X131666666Y-102600057D02*
X131714285Y-102695295D01*
X131714285Y-102695295D02*
X131761904Y-102885771D01*
X131761904Y-102885771D02*
X131761904Y-103123866D01*
X131761904Y-103123866D02*
X131714285Y-103314342D01*
X131714285Y-103314342D02*
X131666666Y-103409580D01*
X131666666Y-103409580D02*
X131619047Y-103457200D01*
X131619047Y-103457200D02*
X131523809Y-103504819D01*
X131523809Y-103504819D02*
X131428571Y-103504819D01*
X131428571Y-103504819D02*
X131333333Y-103457200D01*
X131333333Y-103457200D02*
X131285714Y-103409580D01*
X131285714Y-103409580D02*
X131238095Y-103314342D01*
X131238095Y-103314342D02*
X131190476Y-103123866D01*
X131190476Y-103123866D02*
X131190476Y-102885771D01*
X131190476Y-102885771D02*
X131238095Y-102695295D01*
X131238095Y-102695295D02*
X131285714Y-102600057D01*
X131285714Y-102600057D02*
X131333333Y-102552438D01*
X131333333Y-102552438D02*
X131428571Y-102504819D01*
X130238095Y-150850057D02*
X130285714Y-150802438D01*
X130285714Y-150802438D02*
X130380952Y-150754819D01*
X130380952Y-150754819D02*
X130619047Y-150754819D01*
X130619047Y-150754819D02*
X130714285Y-150802438D01*
X130714285Y-150802438D02*
X130761904Y-150850057D01*
X130761904Y-150850057D02*
X130809523Y-150945295D01*
X130809523Y-150945295D02*
X130809523Y-151040533D01*
X130809523Y-151040533D02*
X130761904Y-151183390D01*
X130761904Y-151183390D02*
X130190476Y-151754819D01*
X130190476Y-151754819D02*
X130809523Y-151754819D01*
X131761904Y-151754819D02*
X131190476Y-151754819D01*
X131476190Y-151754819D02*
X131476190Y-150754819D01*
X131476190Y-150754819D02*
X131380952Y-150897676D01*
X131380952Y-150897676D02*
X131285714Y-150992914D01*
X131285714Y-150992914D02*
X131190476Y-151040533D01*
X139609523Y-138554819D02*
X139038095Y-138554819D01*
X139323809Y-138554819D02*
X139323809Y-137554819D01*
X139323809Y-137554819D02*
X139228571Y-137697676D01*
X139228571Y-137697676D02*
X139133333Y-137792914D01*
X139133333Y-137792914D02*
X139038095Y-137840533D01*
X140228571Y-137554819D02*
X140323809Y-137554819D01*
X140323809Y-137554819D02*
X140419047Y-137602438D01*
X140419047Y-137602438D02*
X140466666Y-137650057D01*
X140466666Y-137650057D02*
X140514285Y-137745295D01*
X140514285Y-137745295D02*
X140561904Y-137935771D01*
X140561904Y-137935771D02*
X140561904Y-138173866D01*
X140561904Y-138173866D02*
X140514285Y-138364342D01*
X140514285Y-138364342D02*
X140466666Y-138459580D01*
X140466666Y-138459580D02*
X140419047Y-138507200D01*
X140419047Y-138507200D02*
X140323809Y-138554819D01*
X140323809Y-138554819D02*
X140228571Y-138554819D01*
X140228571Y-138554819D02*
X140133333Y-138507200D01*
X140133333Y-138507200D02*
X140085714Y-138459580D01*
X140085714Y-138459580D02*
X140038095Y-138364342D01*
X140038095Y-138364342D02*
X139990476Y-138173866D01*
X139990476Y-138173866D02*
X139990476Y-137935771D01*
X139990476Y-137935771D02*
X140038095Y-137745295D01*
X140038095Y-137745295D02*
X140085714Y-137650057D01*
X140085714Y-137650057D02*
X140133333Y-137602438D01*
X140133333Y-137602438D02*
X140228571Y-137554819D01*
X139280952Y-111254819D02*
X139280952Y-111969104D01*
X139280952Y-111969104D02*
X139233333Y-112111961D01*
X139233333Y-112111961D02*
X139138095Y-112207200D01*
X139138095Y-112207200D02*
X138995238Y-112254819D01*
X138995238Y-112254819D02*
X138900000Y-112254819D01*
X139661905Y-111254819D02*
X140280952Y-111254819D01*
X140280952Y-111254819D02*
X139947619Y-111635771D01*
X139947619Y-111635771D02*
X140090476Y-111635771D01*
X140090476Y-111635771D02*
X140185714Y-111683390D01*
X140185714Y-111683390D02*
X140233333Y-111731009D01*
X140233333Y-111731009D02*
X140280952Y-111826247D01*
X140280952Y-111826247D02*
X140280952Y-112064342D01*
X140280952Y-112064342D02*
X140233333Y-112159580D01*
X140233333Y-112159580D02*
X140185714Y-112207200D01*
X140185714Y-112207200D02*
X140090476Y-112254819D01*
X140090476Y-112254819D02*
X139804762Y-112254819D01*
X139804762Y-112254819D02*
X139709524Y-112207200D01*
X139709524Y-112207200D02*
X139661905Y-112159580D01*
X142185714Y-111207200D02*
X141328572Y-112492914D01*
X143614286Y-111731009D02*
X143757143Y-111778628D01*
X143757143Y-111778628D02*
X143804762Y-111826247D01*
X143804762Y-111826247D02*
X143852381Y-111921485D01*
X143852381Y-111921485D02*
X143852381Y-112064342D01*
X143852381Y-112064342D02*
X143804762Y-112159580D01*
X143804762Y-112159580D02*
X143757143Y-112207200D01*
X143757143Y-112207200D02*
X143661905Y-112254819D01*
X143661905Y-112254819D02*
X143280953Y-112254819D01*
X143280953Y-112254819D02*
X143280953Y-111254819D01*
X143280953Y-111254819D02*
X143614286Y-111254819D01*
X143614286Y-111254819D02*
X143709524Y-111302438D01*
X143709524Y-111302438D02*
X143757143Y-111350057D01*
X143757143Y-111350057D02*
X143804762Y-111445295D01*
X143804762Y-111445295D02*
X143804762Y-111540533D01*
X143804762Y-111540533D02*
X143757143Y-111635771D01*
X143757143Y-111635771D02*
X143709524Y-111683390D01*
X143709524Y-111683390D02*
X143614286Y-111731009D01*
X143614286Y-111731009D02*
X143280953Y-111731009D01*
X147085714Y-115694819D02*
X146514286Y-115694819D01*
X146800000Y-115694819D02*
X146800000Y-114694819D01*
X146800000Y-114694819D02*
X146704762Y-114837676D01*
X146704762Y-114837676D02*
X146609524Y-114932914D01*
X146609524Y-114932914D02*
X146514286Y-114980533D01*
X149952380Y-111254819D02*
X149952380Y-111969104D01*
X149952380Y-111969104D02*
X149904761Y-112111961D01*
X149904761Y-112111961D02*
X149809523Y-112207200D01*
X149809523Y-112207200D02*
X149666666Y-112254819D01*
X149666666Y-112254819D02*
X149571428Y-112254819D01*
X150380952Y-111350057D02*
X150428571Y-111302438D01*
X150428571Y-111302438D02*
X150523809Y-111254819D01*
X150523809Y-111254819D02*
X150761904Y-111254819D01*
X150761904Y-111254819D02*
X150857142Y-111302438D01*
X150857142Y-111302438D02*
X150904761Y-111350057D01*
X150904761Y-111350057D02*
X150952380Y-111445295D01*
X150952380Y-111445295D02*
X150952380Y-111540533D01*
X150952380Y-111540533D02*
X150904761Y-111683390D01*
X150904761Y-111683390D02*
X150333333Y-112254819D01*
X150333333Y-112254819D02*
X150952380Y-112254819D01*
X152857142Y-111207200D02*
X152000000Y-112492914D01*
X153904762Y-111969104D02*
X154380952Y-111969104D01*
X153809524Y-112254819D02*
X154142857Y-111254819D01*
X154142857Y-111254819D02*
X154476190Y-112254819D01*
X146142856Y-107859580D02*
X146095237Y-107907200D01*
X146095237Y-107907200D02*
X145952380Y-107954819D01*
X145952380Y-107954819D02*
X145857142Y-107954819D01*
X145857142Y-107954819D02*
X145714285Y-107907200D01*
X145714285Y-107907200D02*
X145619047Y-107811961D01*
X145619047Y-107811961D02*
X145571428Y-107716723D01*
X145571428Y-107716723D02*
X145523809Y-107526247D01*
X145523809Y-107526247D02*
X145523809Y-107383390D01*
X145523809Y-107383390D02*
X145571428Y-107192914D01*
X145571428Y-107192914D02*
X145619047Y-107097676D01*
X145619047Y-107097676D02*
X145714285Y-107002438D01*
X145714285Y-107002438D02*
X145857142Y-106954819D01*
X145857142Y-106954819D02*
X145952380Y-106954819D01*
X145952380Y-106954819D02*
X146095237Y-107002438D01*
X146095237Y-107002438D02*
X146142856Y-107050057D01*
X146571428Y-107954819D02*
X146571428Y-106954819D01*
X146571428Y-106954819D02*
X146952380Y-106954819D01*
X146952380Y-106954819D02*
X147047618Y-107002438D01*
X147047618Y-107002438D02*
X147095237Y-107050057D01*
X147095237Y-107050057D02*
X147142856Y-107145295D01*
X147142856Y-107145295D02*
X147142856Y-107288152D01*
X147142856Y-107288152D02*
X147095237Y-107383390D01*
X147095237Y-107383390D02*
X147047618Y-107431009D01*
X147047618Y-107431009D02*
X146952380Y-107478628D01*
X146952380Y-107478628D02*
X146571428Y-107478628D01*
X148142856Y-107859580D02*
X148095237Y-107907200D01*
X148095237Y-107907200D02*
X147952380Y-107954819D01*
X147952380Y-107954819D02*
X147857142Y-107954819D01*
X147857142Y-107954819D02*
X147714285Y-107907200D01*
X147714285Y-107907200D02*
X147619047Y-107811961D01*
X147619047Y-107811961D02*
X147571428Y-107716723D01*
X147571428Y-107716723D02*
X147523809Y-107526247D01*
X147523809Y-107526247D02*
X147523809Y-107383390D01*
X147523809Y-107383390D02*
X147571428Y-107192914D01*
X147571428Y-107192914D02*
X147619047Y-107097676D01*
X147619047Y-107097676D02*
X147714285Y-107002438D01*
X147714285Y-107002438D02*
X147857142Y-106954819D01*
X147857142Y-106954819D02*
X147952380Y-106954819D01*
X147952380Y-106954819D02*
X148095237Y-107002438D01*
X148095237Y-107002438D02*
X148142856Y-107050057D01*
X148999999Y-107288152D02*
X148999999Y-107954819D01*
X148761904Y-106907200D02*
X148523809Y-107621485D01*
X148523809Y-107621485D02*
X149142856Y-107621485D01*
X149952380Y-106954819D02*
X149761904Y-106954819D01*
X149761904Y-106954819D02*
X149666666Y-107002438D01*
X149666666Y-107002438D02*
X149619047Y-107050057D01*
X149619047Y-107050057D02*
X149523809Y-107192914D01*
X149523809Y-107192914D02*
X149476190Y-107383390D01*
X149476190Y-107383390D02*
X149476190Y-107764342D01*
X149476190Y-107764342D02*
X149523809Y-107859580D01*
X149523809Y-107859580D02*
X149571428Y-107907200D01*
X149571428Y-107907200D02*
X149666666Y-107954819D01*
X149666666Y-107954819D02*
X149857142Y-107954819D01*
X149857142Y-107954819D02*
X149952380Y-107907200D01*
X149952380Y-107907200D02*
X149999999Y-107859580D01*
X149999999Y-107859580D02*
X150047618Y-107764342D01*
X150047618Y-107764342D02*
X150047618Y-107526247D01*
X150047618Y-107526247D02*
X149999999Y-107431009D01*
X149999999Y-107431009D02*
X149952380Y-107383390D01*
X149952380Y-107383390D02*
X149857142Y-107335771D01*
X149857142Y-107335771D02*
X149666666Y-107335771D01*
X149666666Y-107335771D02*
X149571428Y-107383390D01*
X149571428Y-107383390D02*
X149523809Y-107431009D01*
X149523809Y-107431009D02*
X149476190Y-107526247D01*
X150904761Y-107288152D02*
X150904761Y-107954819D01*
X150666666Y-106907200D02*
X150428571Y-107621485D01*
X150428571Y-107621485D02*
X151047618Y-107621485D01*
X152190476Y-106954819D02*
X152190476Y-107764342D01*
X152190476Y-107764342D02*
X152238095Y-107859580D01*
X152238095Y-107859580D02*
X152285714Y-107907200D01*
X152285714Y-107907200D02*
X152380952Y-107954819D01*
X152380952Y-107954819D02*
X152571428Y-107954819D01*
X152571428Y-107954819D02*
X152666666Y-107907200D01*
X152666666Y-107907200D02*
X152714285Y-107859580D01*
X152714285Y-107859580D02*
X152761904Y-107764342D01*
X152761904Y-107764342D02*
X152761904Y-106954819D01*
X153190476Y-107907200D02*
X153333333Y-107954819D01*
X153333333Y-107954819D02*
X153571428Y-107954819D01*
X153571428Y-107954819D02*
X153666666Y-107907200D01*
X153666666Y-107907200D02*
X153714285Y-107859580D01*
X153714285Y-107859580D02*
X153761904Y-107764342D01*
X153761904Y-107764342D02*
X153761904Y-107669104D01*
X153761904Y-107669104D02*
X153714285Y-107573866D01*
X153714285Y-107573866D02*
X153666666Y-107526247D01*
X153666666Y-107526247D02*
X153571428Y-107478628D01*
X153571428Y-107478628D02*
X153380952Y-107431009D01*
X153380952Y-107431009D02*
X153285714Y-107383390D01*
X153285714Y-107383390D02*
X153238095Y-107335771D01*
X153238095Y-107335771D02*
X153190476Y-107240533D01*
X153190476Y-107240533D02*
X153190476Y-107145295D01*
X153190476Y-107145295D02*
X153238095Y-107050057D01*
X153238095Y-107050057D02*
X153285714Y-107002438D01*
X153285714Y-107002438D02*
X153380952Y-106954819D01*
X153380952Y-106954819D02*
X153619047Y-106954819D01*
X153619047Y-106954819D02*
X153761904Y-107002438D01*
X154523809Y-107431009D02*
X154666666Y-107478628D01*
X154666666Y-107478628D02*
X154714285Y-107526247D01*
X154714285Y-107526247D02*
X154761904Y-107621485D01*
X154761904Y-107621485D02*
X154761904Y-107764342D01*
X154761904Y-107764342D02*
X154714285Y-107859580D01*
X154714285Y-107859580D02*
X154666666Y-107907200D01*
X154666666Y-107907200D02*
X154571428Y-107954819D01*
X154571428Y-107954819D02*
X154190476Y-107954819D01*
X154190476Y-107954819D02*
X154190476Y-106954819D01*
X154190476Y-106954819D02*
X154523809Y-106954819D01*
X154523809Y-106954819D02*
X154619047Y-107002438D01*
X154619047Y-107002438D02*
X154666666Y-107050057D01*
X154666666Y-107050057D02*
X154714285Y-107145295D01*
X154714285Y-107145295D02*
X154714285Y-107240533D01*
X154714285Y-107240533D02*
X154666666Y-107335771D01*
X154666666Y-107335771D02*
X154619047Y-107383390D01*
X154619047Y-107383390D02*
X154523809Y-107431009D01*
X154523809Y-107431009D02*
X154190476Y-107431009D01*
X156666666Y-106907200D02*
X155809524Y-108192914D01*
X157666667Y-107288152D02*
X157904762Y-107954819D01*
X157904762Y-107954819D02*
X158142857Y-107288152D01*
X159047619Y-107954819D02*
X158476191Y-107954819D01*
X158761905Y-107954819D02*
X158761905Y-106954819D01*
X158761905Y-106954819D02*
X158666667Y-107097676D01*
X158666667Y-107097676D02*
X158571429Y-107192914D01*
X158571429Y-107192914D02*
X158476191Y-107240533D01*
X159476191Y-107859580D02*
X159523810Y-107907200D01*
X159523810Y-107907200D02*
X159476191Y-107954819D01*
X159476191Y-107954819D02*
X159428572Y-107907200D01*
X159428572Y-107907200D02*
X159476191Y-107859580D01*
X159476191Y-107859580D02*
X159476191Y-107954819D01*
X160142857Y-106954819D02*
X160238095Y-106954819D01*
X160238095Y-106954819D02*
X160333333Y-107002438D01*
X160333333Y-107002438D02*
X160380952Y-107050057D01*
X160380952Y-107050057D02*
X160428571Y-107145295D01*
X160428571Y-107145295D02*
X160476190Y-107335771D01*
X160476190Y-107335771D02*
X160476190Y-107573866D01*
X160476190Y-107573866D02*
X160428571Y-107764342D01*
X160428571Y-107764342D02*
X160380952Y-107859580D01*
X160380952Y-107859580D02*
X160333333Y-107907200D01*
X160333333Y-107907200D02*
X160238095Y-107954819D01*
X160238095Y-107954819D02*
X160142857Y-107954819D01*
X160142857Y-107954819D02*
X160047619Y-107907200D01*
X160047619Y-107907200D02*
X160000000Y-107859580D01*
X160000000Y-107859580D02*
X159952381Y-107764342D01*
X159952381Y-107764342D02*
X159904762Y-107573866D01*
X159904762Y-107573866D02*
X159904762Y-107335771D01*
X159904762Y-107335771D02*
X159952381Y-107145295D01*
X159952381Y-107145295D02*
X160000000Y-107050057D01*
X160000000Y-107050057D02*
X160047619Y-107002438D01*
X160047619Y-107002438D02*
X160142857Y-106954819D01*
X155385714Y-115694819D02*
X154814286Y-115694819D01*
X155100000Y-115694819D02*
X155100000Y-114694819D01*
X155100000Y-114694819D02*
X155004762Y-114837676D01*
X155004762Y-114837676D02*
X154909524Y-114932914D01*
X154909524Y-114932914D02*
X154814286Y-114980533D01*
X176809523Y-110614819D02*
X176238095Y-110614819D01*
X176523809Y-110614819D02*
X176523809Y-109614819D01*
X176523809Y-109614819D02*
X176428571Y-109757676D01*
X176428571Y-109757676D02*
X176333333Y-109852914D01*
X176333333Y-109852914D02*
X176238095Y-109900533D01*
X177285714Y-110614819D02*
X177476190Y-110614819D01*
X177476190Y-110614819D02*
X177571428Y-110567200D01*
X177571428Y-110567200D02*
X177619047Y-110519580D01*
X177619047Y-110519580D02*
X177714285Y-110376723D01*
X177714285Y-110376723D02*
X177761904Y-110186247D01*
X177761904Y-110186247D02*
X177761904Y-109805295D01*
X177761904Y-109805295D02*
X177714285Y-109710057D01*
X177714285Y-109710057D02*
X177666666Y-109662438D01*
X177666666Y-109662438D02*
X177571428Y-109614819D01*
X177571428Y-109614819D02*
X177380952Y-109614819D01*
X177380952Y-109614819D02*
X177285714Y-109662438D01*
X177285714Y-109662438D02*
X177238095Y-109710057D01*
X177238095Y-109710057D02*
X177190476Y-109805295D01*
X177190476Y-109805295D02*
X177190476Y-110043390D01*
X177190476Y-110043390D02*
X177238095Y-110138628D01*
X177238095Y-110138628D02*
X177285714Y-110186247D01*
X177285714Y-110186247D02*
X177380952Y-110233866D01*
X177380952Y-110233866D02*
X177571428Y-110233866D01*
X177571428Y-110233866D02*
X177666666Y-110186247D01*
X177666666Y-110186247D02*
X177714285Y-110138628D01*
X177714285Y-110138628D02*
X177761904Y-110043390D01*
X142300000Y-147427950D02*
X142300000Y-148277950D01*
X142300000Y-148277950D02*
X142350000Y-148377950D01*
X142350000Y-148377950D02*
X142400000Y-148427950D01*
X142400000Y-148427950D02*
X142500000Y-148477950D01*
X142500000Y-148477950D02*
X142700000Y-148477950D01*
X142700000Y-148477950D02*
X142800000Y-148427950D01*
X142800000Y-148427950D02*
X142850000Y-148377950D01*
X142850000Y-148377950D02*
X142900000Y-148277950D01*
X142900000Y-148277950D02*
X142900000Y-147427950D01*
X143350000Y-148427950D02*
X143500000Y-148477950D01*
X143500000Y-148477950D02*
X143750000Y-148477950D01*
X143750000Y-148477950D02*
X143850000Y-148427950D01*
X143850000Y-148427950D02*
X143900000Y-148377950D01*
X143900000Y-148377950D02*
X143950000Y-148277950D01*
X143950000Y-148277950D02*
X143950000Y-148177950D01*
X143950000Y-148177950D02*
X143900000Y-148077950D01*
X143900000Y-148077950D02*
X143850000Y-148027950D01*
X143850000Y-148027950D02*
X143750000Y-147977950D01*
X143750000Y-147977950D02*
X143550000Y-147927950D01*
X143550000Y-147927950D02*
X143450000Y-147877950D01*
X143450000Y-147877950D02*
X143400000Y-147827950D01*
X143400000Y-147827950D02*
X143350000Y-147727950D01*
X143350000Y-147727950D02*
X143350000Y-147627950D01*
X143350000Y-147627950D02*
X143400000Y-147527950D01*
X143400000Y-147527950D02*
X143450000Y-147477950D01*
X143450000Y-147477950D02*
X143550000Y-147427950D01*
X143550000Y-147427950D02*
X143800000Y-147427950D01*
X143800000Y-147427950D02*
X143950000Y-147477950D01*
X144400000Y-147927950D02*
X144750000Y-147927950D01*
X144900000Y-148477950D02*
X144400000Y-148477950D01*
X144400000Y-148477950D02*
X144400000Y-147427950D01*
X144400000Y-147427950D02*
X144900000Y-147427950D01*
X146450000Y-147427950D02*
X146450000Y-148177950D01*
X146450000Y-148177950D02*
X146400000Y-148327950D01*
X146400000Y-148327950D02*
X146300000Y-148427950D01*
X146300000Y-148427950D02*
X146150000Y-148477950D01*
X146150000Y-148477950D02*
X146050000Y-148477950D01*
X147500000Y-148477950D02*
X146900000Y-148477950D01*
X147200000Y-148477950D02*
X147200000Y-147427950D01*
X147200000Y-147427950D02*
X147100000Y-147577950D01*
X147100000Y-147577950D02*
X147000000Y-147677950D01*
X147000000Y-147677950D02*
X146900000Y-147727950D01*
X148950000Y-147427950D02*
X149150000Y-147427950D01*
X149150000Y-147427950D02*
X149250000Y-147477950D01*
X149250000Y-147477950D02*
X149350000Y-147577950D01*
X149350000Y-147577950D02*
X149400000Y-147777950D01*
X149400000Y-147777950D02*
X149400000Y-148127950D01*
X149400000Y-148127950D02*
X149350000Y-148327950D01*
X149350000Y-148327950D02*
X149250000Y-148427950D01*
X149250000Y-148427950D02*
X149150000Y-148477950D01*
X149150000Y-148477950D02*
X148950000Y-148477950D01*
X148950000Y-148477950D02*
X148850000Y-148427950D01*
X148850000Y-148427950D02*
X148750000Y-148327950D01*
X148750000Y-148327950D02*
X148700000Y-148127950D01*
X148700000Y-148127950D02*
X148700000Y-147777950D01*
X148700000Y-147777950D02*
X148750000Y-147577950D01*
X148750000Y-147577950D02*
X148850000Y-147477950D01*
X148850000Y-147477950D02*
X148950000Y-147427950D01*
X150450000Y-148477950D02*
X150100000Y-147977950D01*
X149850000Y-148477950D02*
X149850000Y-147427950D01*
X149850000Y-147427950D02*
X150250000Y-147427950D01*
X150250000Y-147427950D02*
X150350000Y-147477950D01*
X150350000Y-147477950D02*
X150400000Y-147527950D01*
X150400000Y-147527950D02*
X150450000Y-147627950D01*
X150450000Y-147627950D02*
X150450000Y-147777950D01*
X150450000Y-147777950D02*
X150400000Y-147877950D01*
X150400000Y-147877950D02*
X150350000Y-147927950D01*
X150350000Y-147927950D02*
X150250000Y-147977950D01*
X150250000Y-147977950D02*
X149850000Y-147977950D01*
X152000000Y-147427950D02*
X152000000Y-148177950D01*
X152000000Y-148177950D02*
X151950000Y-148327950D01*
X151950000Y-148327950D02*
X151850000Y-148427950D01*
X151850000Y-148427950D02*
X151700000Y-148477950D01*
X151700000Y-148477950D02*
X151600000Y-148477950D01*
X152450000Y-147527950D02*
X152500000Y-147477950D01*
X152500000Y-147477950D02*
X152600000Y-147427950D01*
X152600000Y-147427950D02*
X152850000Y-147427950D01*
X152850000Y-147427950D02*
X152950000Y-147477950D01*
X152950000Y-147477950D02*
X153000000Y-147527950D01*
X153000000Y-147527950D02*
X153050000Y-147627950D01*
X153050000Y-147627950D02*
X153050000Y-147727950D01*
X153050000Y-147727950D02*
X153000000Y-147877950D01*
X153000000Y-147877950D02*
X152400000Y-148477950D01*
X152400000Y-148477950D02*
X153050000Y-148477950D01*
X154300000Y-148077950D02*
X155100000Y-148077950D01*
X154700000Y-148477950D02*
X154700000Y-147677950D01*
X156700000Y-147427950D02*
X156700000Y-148177950D01*
X156700000Y-148177950D02*
X156650000Y-148327950D01*
X156650000Y-148327950D02*
X156550000Y-148427950D01*
X156550000Y-148427950D02*
X156400000Y-148477950D01*
X156400000Y-148477950D02*
X156300000Y-148477950D01*
X157100000Y-147427950D02*
X157750000Y-147427950D01*
X157750000Y-147427950D02*
X157400000Y-147827950D01*
X157400000Y-147827950D02*
X157550000Y-147827950D01*
X157550000Y-147827950D02*
X157650000Y-147877950D01*
X157650000Y-147877950D02*
X157700000Y-147927950D01*
X157700000Y-147927950D02*
X157750000Y-148027950D01*
X157750000Y-148027950D02*
X157750000Y-148277950D01*
X157750000Y-148277950D02*
X157700000Y-148377950D01*
X157700000Y-148377950D02*
X157650000Y-148427950D01*
X157650000Y-148427950D02*
X157550000Y-148477950D01*
X157550000Y-148477950D02*
X157250000Y-148477950D01*
X157250000Y-148477950D02*
X157150000Y-148427950D01*
X157150000Y-148427950D02*
X157100000Y-148377950D01*
X142075000Y-150427950D02*
X142275000Y-150427950D01*
X142275000Y-150427950D02*
X142375000Y-150477950D01*
X142375000Y-150477950D02*
X142475000Y-150577950D01*
X142475000Y-150577950D02*
X142525000Y-150777950D01*
X142525000Y-150777950D02*
X142525000Y-151127950D01*
X142525000Y-151127950D02*
X142475000Y-151327950D01*
X142475000Y-151327950D02*
X142375000Y-151427950D01*
X142375000Y-151427950D02*
X142275000Y-151477950D01*
X142275000Y-151477950D02*
X142075000Y-151477950D01*
X142075000Y-151477950D02*
X141975000Y-151427950D01*
X141975000Y-151427950D02*
X141875000Y-151327950D01*
X141875000Y-151327950D02*
X141825000Y-151127950D01*
X141825000Y-151127950D02*
X141825000Y-150777950D01*
X141825000Y-150777950D02*
X141875000Y-150577950D01*
X141875000Y-150577950D02*
X141975000Y-150477950D01*
X141975000Y-150477950D02*
X142075000Y-150427950D01*
X142975000Y-151477950D02*
X142975000Y-150427950D01*
X142975000Y-150427950D02*
X143575000Y-151477950D01*
X143575000Y-151477950D02*
X143575000Y-150427950D01*
X144075000Y-150927950D02*
X144425000Y-150927950D01*
X144575000Y-151477950D02*
X144075000Y-151477950D01*
X144075000Y-151477950D02*
X144075000Y-150427950D01*
X144075000Y-150427950D02*
X144575000Y-150427950D01*
X145825000Y-151477950D02*
X145825000Y-150427950D01*
X146425000Y-151477950D02*
X145975000Y-150877950D01*
X146425000Y-150427950D02*
X145825000Y-151027950D01*
X146875000Y-150927950D02*
X147225000Y-150927950D01*
X147375000Y-151477950D02*
X146875000Y-151477950D01*
X146875000Y-151477950D02*
X146875000Y-150427950D01*
X146875000Y-150427950D02*
X147375000Y-150427950D01*
X148025000Y-150977950D02*
X148025000Y-151477950D01*
X147675000Y-150427950D02*
X148025000Y-150977950D01*
X148025000Y-150977950D02*
X148375000Y-150427950D01*
X149075000Y-150927950D02*
X149225000Y-150977950D01*
X149225000Y-150977950D02*
X149275000Y-151027950D01*
X149275000Y-151027950D02*
X149325000Y-151127950D01*
X149325000Y-151127950D02*
X149325000Y-151277950D01*
X149325000Y-151277950D02*
X149275000Y-151377950D01*
X149275000Y-151377950D02*
X149225000Y-151427950D01*
X149225000Y-151427950D02*
X149125000Y-151477950D01*
X149125000Y-151477950D02*
X148725000Y-151477950D01*
X148725000Y-151477950D02*
X148725000Y-150427950D01*
X148725000Y-150427950D02*
X149075000Y-150427950D01*
X149075000Y-150427950D02*
X149175000Y-150477950D01*
X149175000Y-150477950D02*
X149225000Y-150527950D01*
X149225000Y-150527950D02*
X149275000Y-150627950D01*
X149275000Y-150627950D02*
X149275000Y-150727950D01*
X149275000Y-150727950D02*
X149225000Y-150827950D01*
X149225000Y-150827950D02*
X149175000Y-150877950D01*
X149175000Y-150877950D02*
X149075000Y-150927950D01*
X149075000Y-150927950D02*
X148725000Y-150927950D01*
X149975000Y-150427950D02*
X150175000Y-150427950D01*
X150175000Y-150427950D02*
X150275000Y-150477950D01*
X150275000Y-150477950D02*
X150375000Y-150577950D01*
X150375000Y-150577950D02*
X150425000Y-150777950D01*
X150425000Y-150777950D02*
X150425000Y-151127950D01*
X150425000Y-151127950D02*
X150375000Y-151327950D01*
X150375000Y-151327950D02*
X150275000Y-151427950D01*
X150275000Y-151427950D02*
X150175000Y-151477950D01*
X150175000Y-151477950D02*
X149975000Y-151477950D01*
X149975000Y-151477950D02*
X149875000Y-151427950D01*
X149875000Y-151427950D02*
X149775000Y-151327950D01*
X149775000Y-151327950D02*
X149725000Y-151127950D01*
X149725000Y-151127950D02*
X149725000Y-150777950D01*
X149725000Y-150777950D02*
X149775000Y-150577950D01*
X149775000Y-150577950D02*
X149875000Y-150477950D01*
X149875000Y-150477950D02*
X149975000Y-150427950D01*
X150825000Y-151177950D02*
X151325000Y-151177950D01*
X150725000Y-151477950D02*
X151075000Y-150427950D01*
X151075000Y-150427950D02*
X151425000Y-151477950D01*
X152375000Y-151477950D02*
X152025000Y-150977950D01*
X151775000Y-151477950D02*
X151775000Y-150427950D01*
X151775000Y-150427950D02*
X152175000Y-150427950D01*
X152175000Y-150427950D02*
X152275000Y-150477950D01*
X152275000Y-150477950D02*
X152325000Y-150527950D01*
X152325000Y-150527950D02*
X152375000Y-150627950D01*
X152375000Y-150627950D02*
X152375000Y-150777950D01*
X152375000Y-150777950D02*
X152325000Y-150877950D01*
X152325000Y-150877950D02*
X152275000Y-150927950D01*
X152275000Y-150927950D02*
X152175000Y-150977950D01*
X152175000Y-150977950D02*
X151775000Y-150977950D01*
X152825000Y-151477950D02*
X152825000Y-150427950D01*
X152825000Y-150427950D02*
X153075000Y-150427950D01*
X153075000Y-150427950D02*
X153225000Y-150477950D01*
X153225000Y-150477950D02*
X153325000Y-150577950D01*
X153325000Y-150577950D02*
X153375000Y-150677950D01*
X153375000Y-150677950D02*
X153425000Y-150877950D01*
X153425000Y-150877950D02*
X153425000Y-151027950D01*
X153425000Y-151027950D02*
X153375000Y-151227950D01*
X153375000Y-151227950D02*
X153325000Y-151327950D01*
X153325000Y-151327950D02*
X153225000Y-151427950D01*
X153225000Y-151427950D02*
X153075000Y-151477950D01*
X153075000Y-151477950D02*
X152825000Y-151477950D01*
X154875000Y-150427950D02*
X155075000Y-150427950D01*
X155075000Y-150427950D02*
X155175000Y-150477950D01*
X155175000Y-150477950D02*
X155275000Y-150577950D01*
X155275000Y-150577950D02*
X155325000Y-150777950D01*
X155325000Y-150777950D02*
X155325000Y-151127950D01*
X155325000Y-151127950D02*
X155275000Y-151327950D01*
X155275000Y-151327950D02*
X155175000Y-151427950D01*
X155175000Y-151427950D02*
X155075000Y-151477950D01*
X155075000Y-151477950D02*
X154875000Y-151477950D01*
X154875000Y-151477950D02*
X154775000Y-151427950D01*
X154775000Y-151427950D02*
X154675000Y-151327950D01*
X154675000Y-151327950D02*
X154625000Y-151127950D01*
X154625000Y-151127950D02*
X154625000Y-150777950D01*
X154625000Y-150777950D02*
X154675000Y-150577950D01*
X154675000Y-150577950D02*
X154775000Y-150477950D01*
X154775000Y-150477950D02*
X154875000Y-150427950D01*
X155775000Y-151477950D02*
X155775000Y-150427950D01*
X155775000Y-150427950D02*
X156375000Y-151477950D01*
X156375000Y-151477950D02*
X156375000Y-150427950D01*
X157375000Y-151477950D02*
X156875000Y-151477950D01*
X156875000Y-151477950D02*
X156875000Y-150427950D01*
X157925000Y-150977950D02*
X157925000Y-151477950D01*
X157575000Y-150427950D02*
X157925000Y-150977950D01*
X157925000Y-150977950D02*
X158275000Y-150427950D01*
X124747619Y-163001080D02*
X124747619Y-161901080D01*
X124747619Y-161901080D02*
X125009524Y-161901080D01*
X125009524Y-161901080D02*
X125166667Y-161953461D01*
X125166667Y-161953461D02*
X125271429Y-162058223D01*
X125271429Y-162058223D02*
X125323810Y-162162985D01*
X125323810Y-162162985D02*
X125376191Y-162372509D01*
X125376191Y-162372509D02*
X125376191Y-162529652D01*
X125376191Y-162529652D02*
X125323810Y-162739176D01*
X125323810Y-162739176D02*
X125271429Y-162843938D01*
X125271429Y-162843938D02*
X125166667Y-162948700D01*
X125166667Y-162948700D02*
X125009524Y-163001080D01*
X125009524Y-163001080D02*
X124747619Y-163001080D01*
X125847619Y-163001080D02*
X125847619Y-161901080D01*
X126319048Y-162948700D02*
X126476191Y-163001080D01*
X126476191Y-163001080D02*
X126738096Y-163001080D01*
X126738096Y-163001080D02*
X126842858Y-162948700D01*
X126842858Y-162948700D02*
X126895239Y-162896319D01*
X126895239Y-162896319D02*
X126947620Y-162791557D01*
X126947620Y-162791557D02*
X126947620Y-162686795D01*
X126947620Y-162686795D02*
X126895239Y-162582033D01*
X126895239Y-162582033D02*
X126842858Y-162529652D01*
X126842858Y-162529652D02*
X126738096Y-162477271D01*
X126738096Y-162477271D02*
X126528572Y-162424890D01*
X126528572Y-162424890D02*
X126423810Y-162372509D01*
X126423810Y-162372509D02*
X126371429Y-162320128D01*
X126371429Y-162320128D02*
X126319048Y-162215366D01*
X126319048Y-162215366D02*
X126319048Y-162110604D01*
X126319048Y-162110604D02*
X126371429Y-162005842D01*
X126371429Y-162005842D02*
X126423810Y-161953461D01*
X126423810Y-161953461D02*
X126528572Y-161901080D01*
X126528572Y-161901080D02*
X126790477Y-161901080D01*
X126790477Y-161901080D02*
X126947620Y-161953461D01*
X128047620Y-162896319D02*
X127995239Y-162948700D01*
X127995239Y-162948700D02*
X127838096Y-163001080D01*
X127838096Y-163001080D02*
X127733334Y-163001080D01*
X127733334Y-163001080D02*
X127576191Y-162948700D01*
X127576191Y-162948700D02*
X127471429Y-162843938D01*
X127471429Y-162843938D02*
X127419048Y-162739176D01*
X127419048Y-162739176D02*
X127366667Y-162529652D01*
X127366667Y-162529652D02*
X127366667Y-162372509D01*
X127366667Y-162372509D02*
X127419048Y-162162985D01*
X127419048Y-162162985D02*
X127471429Y-162058223D01*
X127471429Y-162058223D02*
X127576191Y-161953461D01*
X127576191Y-161953461D02*
X127733334Y-161901080D01*
X127733334Y-161901080D02*
X127838096Y-161901080D01*
X127838096Y-161901080D02*
X127995239Y-161953461D01*
X127995239Y-161953461D02*
X128047620Y-162005842D01*
X128728572Y-161901080D02*
X128938096Y-161901080D01*
X128938096Y-161901080D02*
X129042858Y-161953461D01*
X129042858Y-161953461D02*
X129147620Y-162058223D01*
X129147620Y-162058223D02*
X129200001Y-162267747D01*
X129200001Y-162267747D02*
X129200001Y-162634414D01*
X129200001Y-162634414D02*
X129147620Y-162843938D01*
X129147620Y-162843938D02*
X129042858Y-162948700D01*
X129042858Y-162948700D02*
X128938096Y-163001080D01*
X128938096Y-163001080D02*
X128728572Y-163001080D01*
X128728572Y-163001080D02*
X128623810Y-162948700D01*
X128623810Y-162948700D02*
X128519048Y-162843938D01*
X128519048Y-162843938D02*
X128466667Y-162634414D01*
X128466667Y-162634414D02*
X128466667Y-162267747D01*
X128466667Y-162267747D02*
X128519048Y-162058223D01*
X128519048Y-162058223D02*
X128623810Y-161953461D01*
X128623810Y-161953461D02*
X128728572Y-161901080D01*
X129671429Y-163001080D02*
X129671429Y-161901080D01*
X129671429Y-161901080D02*
X130300001Y-163001080D01*
X130300001Y-163001080D02*
X130300001Y-161901080D01*
X130823810Y-163001080D02*
X130823810Y-161901080D01*
X130823810Y-161901080D02*
X131452382Y-163001080D01*
X131452382Y-163001080D02*
X131452382Y-161901080D01*
X131976191Y-162424890D02*
X132342858Y-162424890D01*
X132500001Y-163001080D02*
X131976191Y-163001080D01*
X131976191Y-163001080D02*
X131976191Y-161901080D01*
X131976191Y-161901080D02*
X132500001Y-161901080D01*
X133600001Y-162896319D02*
X133547620Y-162948700D01*
X133547620Y-162948700D02*
X133390477Y-163001080D01*
X133390477Y-163001080D02*
X133285715Y-163001080D01*
X133285715Y-163001080D02*
X133128572Y-162948700D01*
X133128572Y-162948700D02*
X133023810Y-162843938D01*
X133023810Y-162843938D02*
X132971429Y-162739176D01*
X132971429Y-162739176D02*
X132919048Y-162529652D01*
X132919048Y-162529652D02*
X132919048Y-162372509D01*
X132919048Y-162372509D02*
X132971429Y-162162985D01*
X132971429Y-162162985D02*
X133023810Y-162058223D01*
X133023810Y-162058223D02*
X133128572Y-161953461D01*
X133128572Y-161953461D02*
X133285715Y-161901080D01*
X133285715Y-161901080D02*
X133390477Y-161901080D01*
X133390477Y-161901080D02*
X133547620Y-161953461D01*
X133547620Y-161953461D02*
X133600001Y-162005842D01*
X133914286Y-161901080D02*
X134542858Y-161901080D01*
X134228572Y-163001080D02*
X134228572Y-161901080D01*
X136376191Y-162896319D02*
X136323810Y-162948700D01*
X136323810Y-162948700D02*
X136166667Y-163001080D01*
X136166667Y-163001080D02*
X136061905Y-163001080D01*
X136061905Y-163001080D02*
X135904762Y-162948700D01*
X135904762Y-162948700D02*
X135800000Y-162843938D01*
X135800000Y-162843938D02*
X135747619Y-162739176D01*
X135747619Y-162739176D02*
X135695238Y-162529652D01*
X135695238Y-162529652D02*
X135695238Y-162372509D01*
X135695238Y-162372509D02*
X135747619Y-162162985D01*
X135747619Y-162162985D02*
X135800000Y-162058223D01*
X135800000Y-162058223D02*
X135904762Y-161953461D01*
X135904762Y-161953461D02*
X136061905Y-161901080D01*
X136061905Y-161901080D02*
X136166667Y-161901080D01*
X136166667Y-161901080D02*
X136323810Y-161953461D01*
X136323810Y-161953461D02*
X136376191Y-162005842D01*
X136847619Y-163001080D02*
X136847619Y-161901080D01*
X136847619Y-161901080D02*
X137266667Y-161901080D01*
X137266667Y-161901080D02*
X137371429Y-161953461D01*
X137371429Y-161953461D02*
X137423810Y-162005842D01*
X137423810Y-162005842D02*
X137476191Y-162110604D01*
X137476191Y-162110604D02*
X137476191Y-162267747D01*
X137476191Y-162267747D02*
X137423810Y-162372509D01*
X137423810Y-162372509D02*
X137371429Y-162424890D01*
X137371429Y-162424890D02*
X137266667Y-162477271D01*
X137266667Y-162477271D02*
X136847619Y-162477271D01*
X138576191Y-162896319D02*
X138523810Y-162948700D01*
X138523810Y-162948700D02*
X138366667Y-163001080D01*
X138366667Y-163001080D02*
X138261905Y-163001080D01*
X138261905Y-163001080D02*
X138104762Y-162948700D01*
X138104762Y-162948700D02*
X138000000Y-162843938D01*
X138000000Y-162843938D02*
X137947619Y-162739176D01*
X137947619Y-162739176D02*
X137895238Y-162529652D01*
X137895238Y-162529652D02*
X137895238Y-162372509D01*
X137895238Y-162372509D02*
X137947619Y-162162985D01*
X137947619Y-162162985D02*
X138000000Y-162058223D01*
X138000000Y-162058223D02*
X138104762Y-161953461D01*
X138104762Y-161953461D02*
X138261905Y-161901080D01*
X138261905Y-161901080D02*
X138366667Y-161901080D01*
X138366667Y-161901080D02*
X138523810Y-161953461D01*
X138523810Y-161953461D02*
X138576191Y-162005842D01*
X139885714Y-163001080D02*
X139885714Y-161901080D01*
X139885714Y-161901080D02*
X140252381Y-162686795D01*
X140252381Y-162686795D02*
X140619048Y-161901080D01*
X140619048Y-161901080D02*
X140619048Y-163001080D01*
X141352381Y-161901080D02*
X141561905Y-161901080D01*
X141561905Y-161901080D02*
X141666667Y-161953461D01*
X141666667Y-161953461D02*
X141771429Y-162058223D01*
X141771429Y-162058223D02*
X141823810Y-162267747D01*
X141823810Y-162267747D02*
X141823810Y-162634414D01*
X141823810Y-162634414D02*
X141771429Y-162843938D01*
X141771429Y-162843938D02*
X141666667Y-162948700D01*
X141666667Y-162948700D02*
X141561905Y-163001080D01*
X141561905Y-163001080D02*
X141352381Y-163001080D01*
X141352381Y-163001080D02*
X141247619Y-162948700D01*
X141247619Y-162948700D02*
X141142857Y-162843938D01*
X141142857Y-162843938D02*
X141090476Y-162634414D01*
X141090476Y-162634414D02*
X141090476Y-162267747D01*
X141090476Y-162267747D02*
X141142857Y-162058223D01*
X141142857Y-162058223D02*
X141247619Y-161953461D01*
X141247619Y-161953461D02*
X141352381Y-161901080D01*
X142138095Y-161901080D02*
X142766667Y-161901080D01*
X142452381Y-163001080D02*
X142452381Y-161901080D01*
X143133333Y-163001080D02*
X143133333Y-161901080D01*
X143133333Y-162424890D02*
X143761905Y-162424890D01*
X143761905Y-163001080D02*
X143761905Y-161901080D01*
X144285714Y-162424890D02*
X144652381Y-162424890D01*
X144809524Y-163001080D02*
X144285714Y-163001080D01*
X144285714Y-163001080D02*
X144285714Y-161901080D01*
X144285714Y-161901080D02*
X144809524Y-161901080D01*
X145909524Y-163001080D02*
X145542857Y-162477271D01*
X145280952Y-163001080D02*
X145280952Y-161901080D01*
X145280952Y-161901080D02*
X145700000Y-161901080D01*
X145700000Y-161901080D02*
X145804762Y-161953461D01*
X145804762Y-161953461D02*
X145857143Y-162005842D01*
X145857143Y-162005842D02*
X145909524Y-162110604D01*
X145909524Y-162110604D02*
X145909524Y-162267747D01*
X145909524Y-162267747D02*
X145857143Y-162372509D01*
X145857143Y-162372509D02*
X145804762Y-162424890D01*
X145804762Y-162424890D02*
X145700000Y-162477271D01*
X145700000Y-162477271D02*
X145280952Y-162477271D01*
X146747619Y-162424890D02*
X146904762Y-162477271D01*
X146904762Y-162477271D02*
X146957143Y-162529652D01*
X146957143Y-162529652D02*
X147009524Y-162634414D01*
X147009524Y-162634414D02*
X147009524Y-162791557D01*
X147009524Y-162791557D02*
X146957143Y-162896319D01*
X146957143Y-162896319D02*
X146904762Y-162948700D01*
X146904762Y-162948700D02*
X146800000Y-163001080D01*
X146800000Y-163001080D02*
X146380952Y-163001080D01*
X146380952Y-163001080D02*
X146380952Y-161901080D01*
X146380952Y-161901080D02*
X146747619Y-161901080D01*
X146747619Y-161901080D02*
X146852381Y-161953461D01*
X146852381Y-161953461D02*
X146904762Y-162005842D01*
X146904762Y-162005842D02*
X146957143Y-162110604D01*
X146957143Y-162110604D02*
X146957143Y-162215366D01*
X146957143Y-162215366D02*
X146904762Y-162320128D01*
X146904762Y-162320128D02*
X146852381Y-162372509D01*
X146852381Y-162372509D02*
X146747619Y-162424890D01*
X146747619Y-162424890D02*
X146380952Y-162424890D01*
X147690476Y-161901080D02*
X147900000Y-161901080D01*
X147900000Y-161901080D02*
X148004762Y-161953461D01*
X148004762Y-161953461D02*
X148109524Y-162058223D01*
X148109524Y-162058223D02*
X148161905Y-162267747D01*
X148161905Y-162267747D02*
X148161905Y-162634414D01*
X148161905Y-162634414D02*
X148109524Y-162843938D01*
X148109524Y-162843938D02*
X148004762Y-162948700D01*
X148004762Y-162948700D02*
X147900000Y-163001080D01*
X147900000Y-163001080D02*
X147690476Y-163001080D01*
X147690476Y-163001080D02*
X147585714Y-162948700D01*
X147585714Y-162948700D02*
X147480952Y-162843938D01*
X147480952Y-162843938D02*
X147428571Y-162634414D01*
X147428571Y-162634414D02*
X147428571Y-162267747D01*
X147428571Y-162267747D02*
X147480952Y-162058223D01*
X147480952Y-162058223D02*
X147585714Y-161953461D01*
X147585714Y-161953461D02*
X147690476Y-161901080D01*
X148580952Y-162686795D02*
X149104762Y-162686795D01*
X148476190Y-163001080D02*
X148842857Y-161901080D01*
X148842857Y-161901080D02*
X149209524Y-163001080D01*
X150204762Y-163001080D02*
X149838095Y-162477271D01*
X149576190Y-163001080D02*
X149576190Y-161901080D01*
X149576190Y-161901080D02*
X149995238Y-161901080D01*
X149995238Y-161901080D02*
X150100000Y-161953461D01*
X150100000Y-161953461D02*
X150152381Y-162005842D01*
X150152381Y-162005842D02*
X150204762Y-162110604D01*
X150204762Y-162110604D02*
X150204762Y-162267747D01*
X150204762Y-162267747D02*
X150152381Y-162372509D01*
X150152381Y-162372509D02*
X150100000Y-162424890D01*
X150100000Y-162424890D02*
X149995238Y-162477271D01*
X149995238Y-162477271D02*
X149576190Y-162477271D01*
X150676190Y-163001080D02*
X150676190Y-161901080D01*
X150676190Y-161901080D02*
X150938095Y-161901080D01*
X150938095Y-161901080D02*
X151095238Y-161953461D01*
X151095238Y-161953461D02*
X151200000Y-162058223D01*
X151200000Y-162058223D02*
X151252381Y-162162985D01*
X151252381Y-162162985D02*
X151304762Y-162372509D01*
X151304762Y-162372509D02*
X151304762Y-162529652D01*
X151304762Y-162529652D02*
X151252381Y-162739176D01*
X151252381Y-162739176D02*
X151200000Y-162843938D01*
X151200000Y-162843938D02*
X151095238Y-162948700D01*
X151095238Y-162948700D02*
X150938095Y-163001080D01*
X150938095Y-163001080D02*
X150676190Y-163001080D01*
X169201080Y-138090475D02*
X169986795Y-138090475D01*
X169986795Y-138090475D02*
X170143938Y-138142856D01*
X170143938Y-138142856D02*
X170248700Y-138247618D01*
X170248700Y-138247618D02*
X170301080Y-138404761D01*
X170301080Y-138404761D02*
X170301080Y-138509523D01*
X170301080Y-136990475D02*
X170301080Y-137619047D01*
X170301080Y-137304761D02*
X169201080Y-137304761D01*
X169201080Y-137304761D02*
X169358223Y-137409523D01*
X169358223Y-137409523D02*
X169462985Y-137514285D01*
X169462985Y-137514285D02*
X169515366Y-137619047D01*
X170301080Y-134842857D02*
X169201080Y-134842857D01*
X170301080Y-134319047D02*
X169201080Y-134319047D01*
X169201080Y-134319047D02*
X170301080Y-133690475D01*
X170301080Y-133690475D02*
X169201080Y-133690475D01*
X170301080Y-132642856D02*
X170301080Y-133166666D01*
X170301080Y-133166666D02*
X169201080Y-133166666D01*
X170301080Y-132276190D02*
X169201080Y-132276190D01*
X170301080Y-131752380D02*
X169201080Y-131752380D01*
X169201080Y-131752380D02*
X170301080Y-131123808D01*
X170301080Y-131123808D02*
X169201080Y-131123808D01*
X169724890Y-130599999D02*
X169724890Y-130233332D01*
X170301080Y-130076189D02*
X170301080Y-130599999D01*
X170301080Y-130599999D02*
X169201080Y-130599999D01*
X169201080Y-130599999D02*
X169201080Y-130076189D01*
X170301080Y-128190475D02*
X170301080Y-128819047D01*
X170301080Y-128504761D02*
X169201080Y-128504761D01*
X169201080Y-128504761D02*
X169358223Y-128609523D01*
X169358223Y-128609523D02*
X169462985Y-128714285D01*
X169462985Y-128714285D02*
X169515366Y-128819047D01*
X170301080Y-127666666D02*
X170301080Y-127457142D01*
X170301080Y-127457142D02*
X170248700Y-127352380D01*
X170248700Y-127352380D02*
X170196319Y-127299999D01*
X170196319Y-127299999D02*
X170039176Y-127195237D01*
X170039176Y-127195237D02*
X169829652Y-127142856D01*
X169829652Y-127142856D02*
X169410604Y-127142856D01*
X169410604Y-127142856D02*
X169305842Y-127195237D01*
X169305842Y-127195237D02*
X169253461Y-127247618D01*
X169253461Y-127247618D02*
X169201080Y-127352380D01*
X169201080Y-127352380D02*
X169201080Y-127561904D01*
X169201080Y-127561904D02*
X169253461Y-127666666D01*
X169253461Y-127666666D02*
X169305842Y-127719047D01*
X169305842Y-127719047D02*
X169410604Y-127771428D01*
X169410604Y-127771428D02*
X169672509Y-127771428D01*
X169672509Y-127771428D02*
X169777271Y-127719047D01*
X169777271Y-127719047D02*
X169829652Y-127666666D01*
X169829652Y-127666666D02*
X169882033Y-127561904D01*
X169882033Y-127561904D02*
X169882033Y-127352380D01*
X169882033Y-127352380D02*
X169829652Y-127247618D01*
X169829652Y-127247618D02*
X169777271Y-127195237D01*
X169777271Y-127195237D02*
X169672509Y-127142856D01*
X177342857Y-156427342D02*
X176657143Y-156427342D01*
X177000000Y-156427342D02*
X177000000Y-155227342D01*
X177000000Y-155227342D02*
X176885714Y-155398771D01*
X176885714Y-155398771D02*
X176771429Y-155513057D01*
X176771429Y-155513057D02*
X176657143Y-155570200D01*
X127166666Y-158239866D02*
X127166666Y-159373200D01*
X127166666Y-159373200D02*
X127233333Y-159506533D01*
X127233333Y-159506533D02*
X127299999Y-159573200D01*
X127299999Y-159573200D02*
X127433333Y-159639866D01*
X127433333Y-159639866D02*
X127699999Y-159639866D01*
X127699999Y-159639866D02*
X127833333Y-159573200D01*
X127833333Y-159573200D02*
X127899999Y-159506533D01*
X127899999Y-159506533D02*
X127966666Y-159373200D01*
X127966666Y-159373200D02*
X127966666Y-158239866D01*
X128566666Y-159573200D02*
X128766666Y-159639866D01*
X128766666Y-159639866D02*
X129100000Y-159639866D01*
X129100000Y-159639866D02*
X129233333Y-159573200D01*
X129233333Y-159573200D02*
X129300000Y-159506533D01*
X129300000Y-159506533D02*
X129366666Y-159373200D01*
X129366666Y-159373200D02*
X129366666Y-159239866D01*
X129366666Y-159239866D02*
X129300000Y-159106533D01*
X129300000Y-159106533D02*
X129233333Y-159039866D01*
X129233333Y-159039866D02*
X129100000Y-158973200D01*
X129100000Y-158973200D02*
X128833333Y-158906533D01*
X128833333Y-158906533D02*
X128700000Y-158839866D01*
X128700000Y-158839866D02*
X128633333Y-158773200D01*
X128633333Y-158773200D02*
X128566666Y-158639866D01*
X128566666Y-158639866D02*
X128566666Y-158506533D01*
X128566666Y-158506533D02*
X128633333Y-158373200D01*
X128633333Y-158373200D02*
X128700000Y-158306533D01*
X128700000Y-158306533D02*
X128833333Y-158239866D01*
X128833333Y-158239866D02*
X129166666Y-158239866D01*
X129166666Y-158239866D02*
X129366666Y-158306533D01*
X130433333Y-158906533D02*
X130633333Y-158973200D01*
X130633333Y-158973200D02*
X130699999Y-159039866D01*
X130699999Y-159039866D02*
X130766666Y-159173200D01*
X130766666Y-159173200D02*
X130766666Y-159373200D01*
X130766666Y-159373200D02*
X130699999Y-159506533D01*
X130699999Y-159506533D02*
X130633333Y-159573200D01*
X130633333Y-159573200D02*
X130499999Y-159639866D01*
X130499999Y-159639866D02*
X129966666Y-159639866D01*
X129966666Y-159639866D02*
X129966666Y-158239866D01*
X129966666Y-158239866D02*
X130433333Y-158239866D01*
X130433333Y-158239866D02*
X130566666Y-158306533D01*
X130566666Y-158306533D02*
X130633333Y-158373200D01*
X130633333Y-158373200D02*
X130699999Y-158506533D01*
X130699999Y-158506533D02*
X130699999Y-158639866D01*
X130699999Y-158639866D02*
X130633333Y-158773200D01*
X130633333Y-158773200D02*
X130566666Y-158839866D01*
X130566666Y-158839866D02*
X130433333Y-158906533D01*
X130433333Y-158906533D02*
X129966666Y-158906533D01*
X132433333Y-159639866D02*
X132433333Y-158239866D01*
X133233333Y-159639866D02*
X132633333Y-158839866D01*
X133233333Y-158239866D02*
X132433333Y-159039866D01*
X133833333Y-158906533D02*
X134300000Y-158906533D01*
X134500000Y-159639866D02*
X133833333Y-159639866D01*
X133833333Y-159639866D02*
X133833333Y-158239866D01*
X133833333Y-158239866D02*
X134500000Y-158239866D01*
X135366667Y-158973200D02*
X135366667Y-159639866D01*
X134900000Y-158239866D02*
X135366667Y-158973200D01*
X135366667Y-158973200D02*
X135833333Y-158239866D01*
X136766667Y-158906533D02*
X136966667Y-158973200D01*
X136966667Y-158973200D02*
X137033333Y-159039866D01*
X137033333Y-159039866D02*
X137100000Y-159173200D01*
X137100000Y-159173200D02*
X137100000Y-159373200D01*
X137100000Y-159373200D02*
X137033333Y-159506533D01*
X137033333Y-159506533D02*
X136966667Y-159573200D01*
X136966667Y-159573200D02*
X136833333Y-159639866D01*
X136833333Y-159639866D02*
X136300000Y-159639866D01*
X136300000Y-159639866D02*
X136300000Y-158239866D01*
X136300000Y-158239866D02*
X136766667Y-158239866D01*
X136766667Y-158239866D02*
X136900000Y-158306533D01*
X136900000Y-158306533D02*
X136966667Y-158373200D01*
X136966667Y-158373200D02*
X137033333Y-158506533D01*
X137033333Y-158506533D02*
X137033333Y-158639866D01*
X137033333Y-158639866D02*
X136966667Y-158773200D01*
X136966667Y-158773200D02*
X136900000Y-158839866D01*
X136900000Y-158839866D02*
X136766667Y-158906533D01*
X136766667Y-158906533D02*
X136300000Y-158906533D01*
X137966667Y-158239866D02*
X138233333Y-158239866D01*
X138233333Y-158239866D02*
X138366667Y-158306533D01*
X138366667Y-158306533D02*
X138500000Y-158439866D01*
X138500000Y-158439866D02*
X138566667Y-158706533D01*
X138566667Y-158706533D02*
X138566667Y-159173200D01*
X138566667Y-159173200D02*
X138500000Y-159439866D01*
X138500000Y-159439866D02*
X138366667Y-159573200D01*
X138366667Y-159573200D02*
X138233333Y-159639866D01*
X138233333Y-159639866D02*
X137966667Y-159639866D01*
X137966667Y-159639866D02*
X137833333Y-159573200D01*
X137833333Y-159573200D02*
X137700000Y-159439866D01*
X137700000Y-159439866D02*
X137633333Y-159173200D01*
X137633333Y-159173200D02*
X137633333Y-158706533D01*
X137633333Y-158706533D02*
X137700000Y-158439866D01*
X137700000Y-158439866D02*
X137833333Y-158306533D01*
X137833333Y-158306533D02*
X137966667Y-158239866D01*
X139100000Y-159239866D02*
X139766667Y-159239866D01*
X138966667Y-159639866D02*
X139433334Y-158239866D01*
X139433334Y-158239866D02*
X139900000Y-159639866D01*
X141166667Y-159639866D02*
X140700000Y-158973200D01*
X140366667Y-159639866D02*
X140366667Y-158239866D01*
X140366667Y-158239866D02*
X140900000Y-158239866D01*
X140900000Y-158239866D02*
X141033334Y-158306533D01*
X141033334Y-158306533D02*
X141100000Y-158373200D01*
X141100000Y-158373200D02*
X141166667Y-158506533D01*
X141166667Y-158506533D02*
X141166667Y-158706533D01*
X141166667Y-158706533D02*
X141100000Y-158839866D01*
X141100000Y-158839866D02*
X141033334Y-158906533D01*
X141033334Y-158906533D02*
X140900000Y-158973200D01*
X140900000Y-158973200D02*
X140366667Y-158973200D01*
X141766667Y-159639866D02*
X141766667Y-158239866D01*
X141766667Y-158239866D02*
X142100000Y-158239866D01*
X142100000Y-158239866D02*
X142300000Y-158306533D01*
X142300000Y-158306533D02*
X142433334Y-158439866D01*
X142433334Y-158439866D02*
X142500000Y-158573200D01*
X142500000Y-158573200D02*
X142566667Y-158839866D01*
X142566667Y-158839866D02*
X142566667Y-159039866D01*
X142566667Y-159039866D02*
X142500000Y-159306533D01*
X142500000Y-159306533D02*
X142433334Y-159439866D01*
X142433334Y-159439866D02*
X142300000Y-159573200D01*
X142300000Y-159573200D02*
X142100000Y-159639866D01*
X142100000Y-159639866D02*
X141766667Y-159639866D01*
X144500001Y-158239866D02*
X144766667Y-158239866D01*
X144766667Y-158239866D02*
X144900001Y-158306533D01*
X144900001Y-158306533D02*
X145033334Y-158439866D01*
X145033334Y-158439866D02*
X145100001Y-158706533D01*
X145100001Y-158706533D02*
X145100001Y-159173200D01*
X145100001Y-159173200D02*
X145033334Y-159439866D01*
X145033334Y-159439866D02*
X144900001Y-159573200D01*
X144900001Y-159573200D02*
X144766667Y-159639866D01*
X144766667Y-159639866D02*
X144500001Y-159639866D01*
X144500001Y-159639866D02*
X144366667Y-159573200D01*
X144366667Y-159573200D02*
X144233334Y-159439866D01*
X144233334Y-159439866D02*
X144166667Y-159173200D01*
X144166667Y-159173200D02*
X144166667Y-158706533D01*
X144166667Y-158706533D02*
X144233334Y-158439866D01*
X144233334Y-158439866D02*
X144366667Y-158306533D01*
X144366667Y-158306533D02*
X144500001Y-158239866D01*
X145700001Y-159639866D02*
X145700001Y-158239866D01*
X145700001Y-158239866D02*
X146500001Y-159639866D01*
X146500001Y-159639866D02*
X146500001Y-158239866D01*
X147833335Y-159639866D02*
X147166668Y-159639866D01*
X147166668Y-159639866D02*
X147166668Y-158239866D01*
X148566668Y-158973200D02*
X148566668Y-159639866D01*
X148100001Y-158239866D02*
X148566668Y-158973200D01*
X148566668Y-158973200D02*
X149033334Y-158239866D01*
X146523809Y-103012676D02*
X146333333Y-102917438D01*
X146333333Y-102917438D02*
X146047619Y-102917438D01*
X146047619Y-102917438D02*
X145761904Y-103012676D01*
X145761904Y-103012676D02*
X145571428Y-103203152D01*
X145571428Y-103203152D02*
X145476190Y-103393628D01*
X145476190Y-103393628D02*
X145380952Y-103774580D01*
X145380952Y-103774580D02*
X145380952Y-104060295D01*
X145380952Y-104060295D02*
X145476190Y-104441247D01*
X145476190Y-104441247D02*
X145571428Y-104631723D01*
X145571428Y-104631723D02*
X145761904Y-104822200D01*
X145761904Y-104822200D02*
X146047619Y-104917438D01*
X146047619Y-104917438D02*
X146238095Y-104917438D01*
X146238095Y-104917438D02*
X146523809Y-104822200D01*
X146523809Y-104822200D02*
X146619047Y-104726961D01*
X146619047Y-104726961D02*
X146619047Y-104060295D01*
X146619047Y-104060295D02*
X146238095Y-104060295D01*
X147857142Y-102917438D02*
X148238095Y-102917438D01*
X148238095Y-102917438D02*
X148428571Y-103012676D01*
X148428571Y-103012676D02*
X148619047Y-103203152D01*
X148619047Y-103203152D02*
X148714285Y-103584104D01*
X148714285Y-103584104D02*
X148714285Y-104250771D01*
X148714285Y-104250771D02*
X148619047Y-104631723D01*
X148619047Y-104631723D02*
X148428571Y-104822200D01*
X148428571Y-104822200D02*
X148238095Y-104917438D01*
X148238095Y-104917438D02*
X147857142Y-104917438D01*
X147857142Y-104917438D02*
X147666666Y-104822200D01*
X147666666Y-104822200D02*
X147476190Y-104631723D01*
X147476190Y-104631723D02*
X147380952Y-104250771D01*
X147380952Y-104250771D02*
X147380952Y-103584104D01*
X147380952Y-103584104D02*
X147476190Y-103203152D01*
X147476190Y-103203152D02*
X147666666Y-103012676D01*
X147666666Y-103012676D02*
X147857142Y-102917438D01*
X149952380Y-102917438D02*
X150333333Y-102917438D01*
X150333333Y-102917438D02*
X150523809Y-103012676D01*
X150523809Y-103012676D02*
X150714285Y-103203152D01*
X150714285Y-103203152D02*
X150809523Y-103584104D01*
X150809523Y-103584104D02*
X150809523Y-104250771D01*
X150809523Y-104250771D02*
X150714285Y-104631723D01*
X150714285Y-104631723D02*
X150523809Y-104822200D01*
X150523809Y-104822200D02*
X150333333Y-104917438D01*
X150333333Y-104917438D02*
X149952380Y-104917438D01*
X149952380Y-104917438D02*
X149761904Y-104822200D01*
X149761904Y-104822200D02*
X149571428Y-104631723D01*
X149571428Y-104631723D02*
X149476190Y-104250771D01*
X149476190Y-104250771D02*
X149476190Y-103584104D01*
X149476190Y-103584104D02*
X149571428Y-103203152D01*
X149571428Y-103203152D02*
X149761904Y-103012676D01*
X149761904Y-103012676D02*
X149952380Y-102917438D01*
X151666666Y-104917438D02*
X151666666Y-102917438D01*
X151666666Y-102917438D02*
X152142856Y-102917438D01*
X152142856Y-102917438D02*
X152428571Y-103012676D01*
X152428571Y-103012676D02*
X152619047Y-103203152D01*
X152619047Y-103203152D02*
X152714285Y-103393628D01*
X152714285Y-103393628D02*
X152809523Y-103774580D01*
X152809523Y-103774580D02*
X152809523Y-104060295D01*
X152809523Y-104060295D02*
X152714285Y-104441247D01*
X152714285Y-104441247D02*
X152619047Y-104631723D01*
X152619047Y-104631723D02*
X152428571Y-104822200D01*
X152428571Y-104822200D02*
X152142856Y-104917438D01*
X152142856Y-104917438D02*
X151666666Y-104917438D01*
X154238095Y-102917438D02*
X154238095Y-104346009D01*
X154238095Y-104346009D02*
X154142856Y-104631723D01*
X154142856Y-104631723D02*
X153952380Y-104822200D01*
X153952380Y-104822200D02*
X153666666Y-104917438D01*
X153666666Y-104917438D02*
X153476190Y-104917438D01*
X155571428Y-102917438D02*
X155952381Y-102917438D01*
X155952381Y-102917438D02*
X156142857Y-103012676D01*
X156142857Y-103012676D02*
X156333333Y-103203152D01*
X156333333Y-103203152D02*
X156428571Y-103584104D01*
X156428571Y-103584104D02*
X156428571Y-104250771D01*
X156428571Y-104250771D02*
X156333333Y-104631723D01*
X156333333Y-104631723D02*
X156142857Y-104822200D01*
X156142857Y-104822200D02*
X155952381Y-104917438D01*
X155952381Y-104917438D02*
X155571428Y-104917438D01*
X155571428Y-104917438D02*
X155380952Y-104822200D01*
X155380952Y-104822200D02*
X155190476Y-104631723D01*
X155190476Y-104631723D02*
X155095238Y-104250771D01*
X155095238Y-104250771D02*
X155095238Y-103584104D01*
X155095238Y-103584104D02*
X155190476Y-103203152D01*
X155190476Y-103203152D02*
X155380952Y-103012676D01*
X155380952Y-103012676D02*
X155571428Y-102917438D01*
X157285714Y-104917438D02*
X157285714Y-102917438D01*
X157285714Y-103869819D02*
X158428571Y-103869819D01*
X158428571Y-104917438D02*
X158428571Y-102917438D01*
X159380952Y-104917438D02*
X159380952Y-102917438D01*
X159380952Y-102917438D02*
X160523809Y-104917438D01*
X160523809Y-104917438D02*
X160523809Y-102917438D01*
%TO.C,J1*%
D11*
X172280000Y-154610000D02*
X172280000Y-108780000D01*
X175040000Y-108780000D02*
X172280000Y-108780000D01*
X175040000Y-154610000D02*
X172280000Y-154610000D01*
X175040000Y-154610000D02*
X175040000Y-108780000D01*
X175040000Y-155880000D02*
X175040000Y-157260000D01*
X175040000Y-157260000D02*
X173660000Y-157260000D01*
%TO.C,J3*%
X141800000Y-113860000D02*
X143180000Y-113860000D01*
X141800000Y-115240000D02*
X141800000Y-113860000D01*
X141800000Y-116510000D02*
X141800000Y-139480000D01*
X141800000Y-116510000D02*
X144560000Y-116510000D01*
X141800000Y-139480000D02*
X144560000Y-139480000D01*
X144560000Y-116510000D02*
X144560000Y-139480000D01*
%TO.C,U1*%
X108120000Y-103848000D02*
X108120000Y-102248000D01*
X108440000Y-102178000D02*
X108440000Y-152178000D01*
X108780000Y-101631000D02*
X108780000Y-152725000D01*
X109050000Y-101568000D02*
X111540000Y-101568000D01*
X109050000Y-152788000D02*
X112887939Y-152788000D01*
X111540000Y-101568000D02*
X111540000Y-102481520D01*
X111540000Y-101568000D02*
X112887940Y-101568000D01*
X111540000Y-104874480D02*
X111540000Y-149481520D01*
X111540000Y-151874480D02*
X111540000Y-152788000D01*
X113812061Y-101568000D02*
X114815000Y-101568000D01*
X114815000Y-101568000D02*
X123285000Y-101568000D01*
X114940000Y-100268000D02*
X114940000Y-101088000D01*
X114940000Y-100268000D02*
X123160000Y-100268000D01*
X114940000Y-101088000D02*
X115150000Y-101088000D01*
X115150000Y-101088000D02*
X115150000Y-102484000D01*
X115150000Y-104872000D02*
X115150000Y-106088000D01*
X115450000Y-152788000D02*
X113812061Y-152788000D01*
X122650000Y-152788000D02*
X115450000Y-152788000D01*
X122950000Y-101088000D02*
X122950000Y-102484000D01*
X122950000Y-104872000D02*
X122950000Y-106088000D01*
X122950000Y-106088000D02*
X115150000Y-106088000D01*
X123160000Y-100268000D02*
X123160000Y-101088000D01*
X123160000Y-101088000D02*
X122950000Y-101088000D01*
X123285000Y-101568000D02*
X124287939Y-101568000D01*
X124287939Y-152788000D02*
X122650000Y-152788000D01*
X125212061Y-101568000D02*
X126560000Y-101568000D01*
X125212061Y-152788000D02*
X129050000Y-152788000D01*
X126560000Y-101568000D02*
X126560000Y-102481520D01*
X126560000Y-104874480D02*
X126560000Y-149481520D01*
X126560000Y-151874480D02*
X126560000Y-152788000D01*
X129050000Y-101568000D02*
X126560000Y-101568000D01*
X129320000Y-152725000D02*
X129320000Y-101631000D01*
X129660000Y-102178000D02*
X129660000Y-152178000D01*
X108440000Y-102178000D02*
G75*
G02*
X109050000Y-101568000I610000J0D01*
G01*
X109050000Y-152788000D02*
G75*
G02*
X108440000Y-152178000I-99J609901D01*
G01*
X129050000Y-101568000D02*
G75*
G02*
X129660000Y-102178000I0J-610000D01*
G01*
X129660000Y-152178000D02*
G75*
G02*
X129050000Y-152788000I-610000J0D01*
G01*
%TO.C,J2*%
X150436000Y-113860000D02*
X151816000Y-113860000D01*
X150436000Y-115240000D02*
X150436000Y-113860000D01*
X150436000Y-116510000D02*
X150436000Y-139480000D01*
X150436000Y-116510000D02*
X153196000Y-116510000D01*
X150436000Y-139480000D02*
X153196000Y-139480000D01*
X153196000Y-116510000D02*
X153196000Y-139480000D01*
%TD*%
%LPC*%
D12*
%TO.C,J1*%
X173660000Y-155880000D03*
D13*
X173660000Y-153340000D03*
X173660000Y-150800000D03*
X173660000Y-148260000D03*
X173660000Y-145720000D03*
X173660000Y-143180000D03*
X173660000Y-140640000D03*
X173660000Y-138100000D03*
X173660000Y-135560000D03*
X173660000Y-133020000D03*
X173660000Y-130480000D03*
X173660000Y-127940000D03*
X173660000Y-125400000D03*
X173660000Y-122860000D03*
X173660000Y-120320000D03*
X173660000Y-117780000D03*
X173660000Y-115240000D03*
X173660000Y-112700000D03*
X173660000Y-110160000D03*
%TD*%
D14*
%TO.C,H1*%
X104000000Y-104000000D03*
%TD*%
%TO.C,H3*%
X104000000Y-162000000D03*
%TD*%
D12*
%TO.C,J3*%
X143180000Y-115240000D03*
D13*
X143180000Y-117780000D03*
X143180000Y-120320000D03*
X143180000Y-122860000D03*
X143180000Y-125400000D03*
X143180000Y-127940000D03*
X143180000Y-130480000D03*
X143180000Y-133020000D03*
X143180000Y-135560000D03*
X143180000Y-138100000D03*
%TD*%
D14*
%TO.C,H2*%
X176000000Y-104000000D03*
%TD*%
D15*
%TO.C,U1*%
X110160000Y-103048000D03*
D16*
X110160000Y-105588000D03*
D17*
X110160000Y-108128000D03*
D16*
X110160000Y-110668000D03*
X110160000Y-113208000D03*
X110160000Y-115748000D03*
X110160000Y-118288000D03*
D17*
X110160000Y-120828000D03*
D16*
X110160000Y-123368000D03*
X110160000Y-125908000D03*
X110160000Y-128448000D03*
X110160000Y-130988000D03*
D17*
X110160000Y-133528000D03*
D16*
X110160000Y-136068000D03*
X110160000Y-138608000D03*
X110160000Y-141148000D03*
X110160000Y-143688000D03*
D17*
X110160000Y-146228000D03*
D16*
X110160000Y-148768000D03*
X110160000Y-151308000D03*
X127940000Y-151308000D03*
X127940000Y-148768000D03*
D18*
X127940000Y-146228000D03*
D16*
X127940000Y-143688000D03*
X127940000Y-141148000D03*
X127940000Y-138608000D03*
X127940000Y-136068000D03*
D18*
X127940000Y-133528000D03*
D16*
X127940000Y-130988000D03*
X127940000Y-128448000D03*
X127940000Y-125908000D03*
X127940000Y-123368000D03*
D18*
X127940000Y-120828000D03*
D16*
X127940000Y-118288000D03*
X127940000Y-115748000D03*
X127940000Y-113208000D03*
X127940000Y-110668000D03*
D18*
X127940000Y-108128000D03*
D16*
X127940000Y-105588000D03*
X127940000Y-103048000D03*
%TD*%
D12*
%TO.C,J2*%
X151816000Y-115240000D03*
D13*
X151816000Y-117780000D03*
X151816000Y-120320000D03*
X151816000Y-122860000D03*
X151816000Y-125400000D03*
X151816000Y-127940000D03*
X151816000Y-130480000D03*
X151816000Y-133020000D03*
X151816000Y-135560000D03*
X151816000Y-138100000D03*
%TD*%
D14*
%TO.C,H4*%
X176000000Y-162000000D03*
%TD*%
%LPD*%
M02*
