%TF.GenerationSoftware,KiCad,Pcbnew,10.0.6-1.fc44app2*%
%TF.CreationDate,2026-10-06T11:56:39+02:00*%
%TF.ProjectId,goodjohn-carrier,676f6f64-6a6f-4686-9e2d-636172726965,1.0-prototype*%
%TF.SameCoordinates,Original*%
%TF.FileFunction,Legend,Bot*%
%TF.FilePolarity,Positive*%
%FSLAX46Y46*%
G04 Gerber Fmt 4.6, Leading zero omitted, Abs format (unit mm)*
G04 Created by KiCad (PCBNEW 10.0.6-1.fc44app2) date 2026-10-06 11:56:39*
%MOMM*%
%LPD*%
G01*
G04 APERTURE LIST*
G04 Aperture macros list*
%AMRoundRect*
0 Rectangle with rounded corners*
0 $1 Rounding radius*
0 $2 $3 $4 $5 $6 $7 $8 $9 X,Y pos of 4 corners*
0 Add a 4 corners polygon primitive as box body*
4,1,4,$2,$3,$4,$5,$6,$7,$8,$9,$2,$3,0*
0 Add four circle primitives for the rounded corners*
1,1,$1+$1,$2,$3*
1,1,$1+$1,$4,$5*
1,1,$1+$1,$6,$7*
1,1,$1+$1,$8,$9*
0 Add four rect primitives between the rounded corners*
20,1,$1+$1,$2,$3,$4,$5,0*
20,1,$1+$1,$4,$5,$6,$7,0*
20,1,$1+$1,$6,$7,$8,$9,0*
20,1,$1+$1,$8,$9,$2,$3,0*%
%AMFreePoly0*
4,1,37,0.603843,0.796157,0.639018,0.796157,0.711114,0.766294,0.766294,0.711114,0.796157,0.639018,0.796157,0.603843,0.800000,0.600000,0.800000,-0.600000,0.796157,-0.603843,0.796157,-0.639018,0.766294,-0.711114,0.711114,-0.766294,0.639018,-0.796157,0.603843,-0.796157,0.600000,-0.800000,0.000000,-0.800000,0.000000,-0.796148,-0.078414,-0.796148,-0.232228,-0.765552,-0.377117,-0.705537,
-0.507515,-0.618408,-0.618408,-0.507515,-0.705537,-0.377117,-0.765552,-0.232228,-0.796148,-0.078414,-0.796148,0.078414,-0.765552,0.232228,-0.705537,0.377117,-0.618408,0.507515,-0.507515,0.618408,-0.377117,0.705537,-0.232228,0.765552,-0.078414,0.796148,0.000000,0.796148,0.000000,0.800000,0.600000,0.800000,0.603843,0.796157,0.603843,0.796157,$1*%
%AMFreePoly1*
4,1,37,0.000000,0.796148,0.078414,0.796148,0.232228,0.765552,0.377117,0.705537,0.507515,0.618408,0.618408,0.507515,0.705537,0.377117,0.765552,0.232228,0.796148,0.078414,0.796148,-0.078414,0.765552,-0.232228,0.705537,-0.377117,0.618408,-0.507515,0.507515,-0.618408,0.377117,-0.705537,0.232228,-0.765552,0.078414,-0.796148,0.000000,-0.796148,0.000000,-0.800000,-0.600000,-0.800000,
-0.603843,-0.796157,-0.639018,-0.796157,-0.711114,-0.766294,-0.766294,-0.711114,-0.796157,-0.639018,-0.796157,-0.603843,-0.800000,-0.600000,-0.800000,0.600000,-0.796157,0.603843,-0.796157,0.639018,-0.766294,0.711114,-0.711114,0.766294,-0.639018,0.796157,-0.603843,0.796157,-0.600000,0.800000,0.000000,0.800000,0.000000,0.796148,0.000000,0.796148,$1*%
G04 Aperture macros list end*
%ADD10C,0.150000*%
%ADD11R,1.700000X1.700000*%
%ADD12C,1.700000*%
%ADD13C,3.200000*%
%ADD14RoundRect,0.200000X-0.600000X-0.600000X0.600000X-0.600000X0.600000X0.600000X-0.600000X0.600000X0*%
%ADD15C,1.600000*%
%ADD16FreePoly0,0.000000*%
%ADD17FreePoly1,0.000000*%
G04 APERTURE END LIST*
D10*
X162733332Y-149797054D02*
X162838094Y-149744673D01*
X162838094Y-149744673D02*
X162995237Y-149744673D01*
X162995237Y-149744673D02*
X163152380Y-149797054D01*
X163152380Y-149797054D02*
X163257142Y-149901816D01*
X163257142Y-149901816D02*
X163309523Y-150006578D01*
X163309523Y-150006578D02*
X163361904Y-150216102D01*
X163361904Y-150216102D02*
X163361904Y-150373245D01*
X163361904Y-150373245D02*
X163309523Y-150582769D01*
X163309523Y-150582769D02*
X163257142Y-150687531D01*
X163257142Y-150687531D02*
X163152380Y-150792293D01*
X163152380Y-150792293D02*
X162995237Y-150844673D01*
X162995237Y-150844673D02*
X162890475Y-150844673D01*
X162890475Y-150844673D02*
X162733332Y-150792293D01*
X162733332Y-150792293D02*
X162680951Y-150739912D01*
X162680951Y-150739912D02*
X162680951Y-150373245D01*
X162680951Y-150373245D02*
X162890475Y-150373245D01*
X161999999Y-149744673D02*
X161790475Y-149744673D01*
X161790475Y-149744673D02*
X161685713Y-149797054D01*
X161685713Y-149797054D02*
X161580951Y-149901816D01*
X161580951Y-149901816D02*
X161528570Y-150111340D01*
X161528570Y-150111340D02*
X161528570Y-150478007D01*
X161528570Y-150478007D02*
X161580951Y-150687531D01*
X161580951Y-150687531D02*
X161685713Y-150792293D01*
X161685713Y-150792293D02*
X161790475Y-150844673D01*
X161790475Y-150844673D02*
X161999999Y-150844673D01*
X161999999Y-150844673D02*
X162104761Y-150792293D01*
X162104761Y-150792293D02*
X162209523Y-150687531D01*
X162209523Y-150687531D02*
X162261904Y-150478007D01*
X162261904Y-150478007D02*
X162261904Y-150111340D01*
X162261904Y-150111340D02*
X162209523Y-149901816D01*
X162209523Y-149901816D02*
X162104761Y-149797054D01*
X162104761Y-149797054D02*
X161999999Y-149744673D01*
X160847618Y-149744673D02*
X160638094Y-149744673D01*
X160638094Y-149744673D02*
X160533332Y-149797054D01*
X160533332Y-149797054D02*
X160428570Y-149901816D01*
X160428570Y-149901816D02*
X160376189Y-150111340D01*
X160376189Y-150111340D02*
X160376189Y-150478007D01*
X160376189Y-150478007D02*
X160428570Y-150687531D01*
X160428570Y-150687531D02*
X160533332Y-150792293D01*
X160533332Y-150792293D02*
X160638094Y-150844673D01*
X160638094Y-150844673D02*
X160847618Y-150844673D01*
X160847618Y-150844673D02*
X160952380Y-150792293D01*
X160952380Y-150792293D02*
X161057142Y-150687531D01*
X161057142Y-150687531D02*
X161109523Y-150478007D01*
X161109523Y-150478007D02*
X161109523Y-150111340D01*
X161109523Y-150111340D02*
X161057142Y-149901816D01*
X161057142Y-149901816D02*
X160952380Y-149797054D01*
X160952380Y-149797054D02*
X160847618Y-149744673D01*
X159904761Y-150844673D02*
X159904761Y-149744673D01*
X159904761Y-149744673D02*
X159642856Y-149744673D01*
X159642856Y-149744673D02*
X159485713Y-149797054D01*
X159485713Y-149797054D02*
X159380951Y-149901816D01*
X159380951Y-149901816D02*
X159328570Y-150006578D01*
X159328570Y-150006578D02*
X159276189Y-150216102D01*
X159276189Y-150216102D02*
X159276189Y-150373245D01*
X159276189Y-150373245D02*
X159328570Y-150582769D01*
X159328570Y-150582769D02*
X159380951Y-150687531D01*
X159380951Y-150687531D02*
X159485713Y-150792293D01*
X159485713Y-150792293D02*
X159642856Y-150844673D01*
X159642856Y-150844673D02*
X159904761Y-150844673D01*
X158490475Y-149744673D02*
X158490475Y-150530388D01*
X158490475Y-150530388D02*
X158542856Y-150687531D01*
X158542856Y-150687531D02*
X158647618Y-150792293D01*
X158647618Y-150792293D02*
X158804761Y-150844673D01*
X158804761Y-150844673D02*
X158909523Y-150844673D01*
X157757142Y-149744673D02*
X157547618Y-149744673D01*
X157547618Y-149744673D02*
X157442856Y-149797054D01*
X157442856Y-149797054D02*
X157338094Y-149901816D01*
X157338094Y-149901816D02*
X157285713Y-150111340D01*
X157285713Y-150111340D02*
X157285713Y-150478007D01*
X157285713Y-150478007D02*
X157338094Y-150687531D01*
X157338094Y-150687531D02*
X157442856Y-150792293D01*
X157442856Y-150792293D02*
X157547618Y-150844673D01*
X157547618Y-150844673D02*
X157757142Y-150844673D01*
X157757142Y-150844673D02*
X157861904Y-150792293D01*
X157861904Y-150792293D02*
X157966666Y-150687531D01*
X157966666Y-150687531D02*
X158019047Y-150478007D01*
X158019047Y-150478007D02*
X158019047Y-150111340D01*
X158019047Y-150111340D02*
X157966666Y-149901816D01*
X157966666Y-149901816D02*
X157861904Y-149797054D01*
X157861904Y-149797054D02*
X157757142Y-149744673D01*
X156814285Y-150844673D02*
X156814285Y-149744673D01*
X156814285Y-150268483D02*
X156185713Y-150268483D01*
X156185713Y-150844673D02*
X156185713Y-149744673D01*
X155661904Y-150844673D02*
X155661904Y-149744673D01*
X155661904Y-149744673D02*
X155033332Y-150844673D01*
X155033332Y-150844673D02*
X155033332Y-149744673D01*
X153776190Y-150111340D02*
X153514285Y-150844673D01*
X153514285Y-150844673D02*
X153252380Y-150111340D01*
X152257142Y-150844673D02*
X152885714Y-150844673D01*
X152571428Y-150844673D02*
X152571428Y-149744673D01*
X152571428Y-149744673D02*
X152676190Y-149901816D01*
X152676190Y-149901816D02*
X152780952Y-150006578D01*
X152780952Y-150006578D02*
X152885714Y-150058959D01*
X151785714Y-150739912D02*
X151733333Y-150792293D01*
X151733333Y-150792293D02*
X151785714Y-150844673D01*
X151785714Y-150844673D02*
X151838095Y-150792293D01*
X151838095Y-150792293D02*
X151785714Y-150739912D01*
X151785714Y-150739912D02*
X151785714Y-150844673D01*
X151052380Y-149744673D02*
X150947618Y-149744673D01*
X150947618Y-149744673D02*
X150842856Y-149797054D01*
X150842856Y-149797054D02*
X150790475Y-149849435D01*
X150790475Y-149849435D02*
X150738094Y-149954197D01*
X150738094Y-149954197D02*
X150685713Y-150163721D01*
X150685713Y-150163721D02*
X150685713Y-150425626D01*
X150685713Y-150425626D02*
X150738094Y-150635150D01*
X150738094Y-150635150D02*
X150790475Y-150739912D01*
X150790475Y-150739912D02*
X150842856Y-150792293D01*
X150842856Y-150792293D02*
X150947618Y-150844673D01*
X150947618Y-150844673D02*
X151052380Y-150844673D01*
X151052380Y-150844673D02*
X151157142Y-150792293D01*
X151157142Y-150792293D02*
X151209523Y-150739912D01*
X151209523Y-150739912D02*
X151261904Y-150635150D01*
X151261904Y-150635150D02*
X151314285Y-150425626D01*
X151314285Y-150425626D02*
X151314285Y-150163721D01*
X151314285Y-150163721D02*
X151261904Y-149954197D01*
X151261904Y-149954197D02*
X151209523Y-149849435D01*
X151209523Y-149849435D02*
X151157142Y-149797054D01*
X151157142Y-149797054D02*
X151052380Y-149744673D01*
X148590475Y-149692293D02*
X149533333Y-151106578D01*
X147385714Y-150844673D02*
X147385714Y-149744673D01*
X147385714Y-149744673D02*
X146966666Y-149744673D01*
X146966666Y-149744673D02*
X146861904Y-149797054D01*
X146861904Y-149797054D02*
X146809523Y-149849435D01*
X146809523Y-149849435D02*
X146757142Y-149954197D01*
X146757142Y-149954197D02*
X146757142Y-150111340D01*
X146757142Y-150111340D02*
X146809523Y-150216102D01*
X146809523Y-150216102D02*
X146861904Y-150268483D01*
X146861904Y-150268483D02*
X146966666Y-150320864D01*
X146966666Y-150320864D02*
X147385714Y-150320864D01*
X145657142Y-150844673D02*
X146023809Y-150320864D01*
X146285714Y-150844673D02*
X146285714Y-149744673D01*
X146285714Y-149744673D02*
X145866666Y-149744673D01*
X145866666Y-149744673D02*
X145761904Y-149797054D01*
X145761904Y-149797054D02*
X145709523Y-149849435D01*
X145709523Y-149849435D02*
X145657142Y-149954197D01*
X145657142Y-149954197D02*
X145657142Y-150111340D01*
X145657142Y-150111340D02*
X145709523Y-150216102D01*
X145709523Y-150216102D02*
X145761904Y-150268483D01*
X145761904Y-150268483D02*
X145866666Y-150320864D01*
X145866666Y-150320864D02*
X146285714Y-150320864D01*
X144976190Y-149744673D02*
X144766666Y-149744673D01*
X144766666Y-149744673D02*
X144661904Y-149797054D01*
X144661904Y-149797054D02*
X144557142Y-149901816D01*
X144557142Y-149901816D02*
X144504761Y-150111340D01*
X144504761Y-150111340D02*
X144504761Y-150478007D01*
X144504761Y-150478007D02*
X144557142Y-150687531D01*
X144557142Y-150687531D02*
X144661904Y-150792293D01*
X144661904Y-150792293D02*
X144766666Y-150844673D01*
X144766666Y-150844673D02*
X144976190Y-150844673D01*
X144976190Y-150844673D02*
X145080952Y-150792293D01*
X145080952Y-150792293D02*
X145185714Y-150687531D01*
X145185714Y-150687531D02*
X145238095Y-150478007D01*
X145238095Y-150478007D02*
X145238095Y-150111340D01*
X145238095Y-150111340D02*
X145185714Y-149901816D01*
X145185714Y-149901816D02*
X145080952Y-149797054D01*
X145080952Y-149797054D02*
X144976190Y-149744673D01*
X144190476Y-149744673D02*
X143561904Y-149744673D01*
X143876190Y-150844673D02*
X143876190Y-149744673D01*
X142985714Y-149744673D02*
X142776190Y-149744673D01*
X142776190Y-149744673D02*
X142671428Y-149797054D01*
X142671428Y-149797054D02*
X142566666Y-149901816D01*
X142566666Y-149901816D02*
X142514285Y-150111340D01*
X142514285Y-150111340D02*
X142514285Y-150478007D01*
X142514285Y-150478007D02*
X142566666Y-150687531D01*
X142566666Y-150687531D02*
X142671428Y-150792293D01*
X142671428Y-150792293D02*
X142776190Y-150844673D01*
X142776190Y-150844673D02*
X142985714Y-150844673D01*
X142985714Y-150844673D02*
X143090476Y-150792293D01*
X143090476Y-150792293D02*
X143195238Y-150687531D01*
X143195238Y-150687531D02*
X143247619Y-150478007D01*
X143247619Y-150478007D02*
X143247619Y-150111340D01*
X143247619Y-150111340D02*
X143195238Y-149901816D01*
X143195238Y-149901816D02*
X143090476Y-149797054D01*
X143090476Y-149797054D02*
X142985714Y-149744673D01*
X142200000Y-149744673D02*
X141571428Y-149744673D01*
X141885714Y-150844673D02*
X141885714Y-149744673D01*
X140995238Y-150320864D02*
X140995238Y-150844673D01*
X141361905Y-149744673D02*
X140995238Y-150320864D01*
X140995238Y-150320864D02*
X140628571Y-149744673D01*
X140261905Y-150844673D02*
X140261905Y-149744673D01*
X140261905Y-149744673D02*
X139842857Y-149744673D01*
X139842857Y-149744673D02*
X139738095Y-149797054D01*
X139738095Y-149797054D02*
X139685714Y-149849435D01*
X139685714Y-149849435D02*
X139633333Y-149954197D01*
X139633333Y-149954197D02*
X139633333Y-150111340D01*
X139633333Y-150111340D02*
X139685714Y-150216102D01*
X139685714Y-150216102D02*
X139738095Y-150268483D01*
X139738095Y-150268483D02*
X139842857Y-150320864D01*
X139842857Y-150320864D02*
X140261905Y-150320864D01*
X139161905Y-150268483D02*
X138795238Y-150268483D01*
X138638095Y-150844673D02*
X139161905Y-150844673D01*
X139161905Y-150844673D02*
X139161905Y-149744673D01*
X139161905Y-149744673D02*
X138638095Y-149744673D01*
X162654761Y-151987040D02*
X162759523Y-151934659D01*
X162759523Y-151934659D02*
X162811904Y-151882278D01*
X162811904Y-151882278D02*
X162864285Y-151777516D01*
X162864285Y-151777516D02*
X162864285Y-151725135D01*
X162864285Y-151725135D02*
X162811904Y-151620373D01*
X162811904Y-151620373D02*
X162759523Y-151567992D01*
X162759523Y-151567992D02*
X162654761Y-151515611D01*
X162654761Y-151515611D02*
X162445237Y-151515611D01*
X162445237Y-151515611D02*
X162340475Y-151567992D01*
X162340475Y-151567992D02*
X162288094Y-151620373D01*
X162288094Y-151620373D02*
X162235713Y-151725135D01*
X162235713Y-151725135D02*
X162235713Y-151777516D01*
X162235713Y-151777516D02*
X162288094Y-151882278D01*
X162288094Y-151882278D02*
X162340475Y-151934659D01*
X162340475Y-151934659D02*
X162445237Y-151987040D01*
X162445237Y-151987040D02*
X162654761Y-151987040D01*
X162654761Y-151987040D02*
X162759523Y-152039421D01*
X162759523Y-152039421D02*
X162811904Y-152091802D01*
X162811904Y-152091802D02*
X162864285Y-152196564D01*
X162864285Y-152196564D02*
X162864285Y-152406088D01*
X162864285Y-152406088D02*
X162811904Y-152510850D01*
X162811904Y-152510850D02*
X162759523Y-152563231D01*
X162759523Y-152563231D02*
X162654761Y-152615611D01*
X162654761Y-152615611D02*
X162445237Y-152615611D01*
X162445237Y-152615611D02*
X162340475Y-152563231D01*
X162340475Y-152563231D02*
X162288094Y-152510850D01*
X162288094Y-152510850D02*
X162235713Y-152406088D01*
X162235713Y-152406088D02*
X162235713Y-152196564D01*
X162235713Y-152196564D02*
X162288094Y-152091802D01*
X162288094Y-152091802D02*
X162340475Y-152039421D01*
X162340475Y-152039421D02*
X162445237Y-151987040D01*
X161554761Y-151515611D02*
X161449999Y-151515611D01*
X161449999Y-151515611D02*
X161345237Y-151567992D01*
X161345237Y-151567992D02*
X161292856Y-151620373D01*
X161292856Y-151620373D02*
X161240475Y-151725135D01*
X161240475Y-151725135D02*
X161188094Y-151934659D01*
X161188094Y-151934659D02*
X161188094Y-152196564D01*
X161188094Y-152196564D02*
X161240475Y-152406088D01*
X161240475Y-152406088D02*
X161292856Y-152510850D01*
X161292856Y-152510850D02*
X161345237Y-152563231D01*
X161345237Y-152563231D02*
X161449999Y-152615611D01*
X161449999Y-152615611D02*
X161554761Y-152615611D01*
X161554761Y-152615611D02*
X161659523Y-152563231D01*
X161659523Y-152563231D02*
X161711904Y-152510850D01*
X161711904Y-152510850D02*
X161764285Y-152406088D01*
X161764285Y-152406088D02*
X161816666Y-152196564D01*
X161816666Y-152196564D02*
X161816666Y-151934659D01*
X161816666Y-151934659D02*
X161764285Y-151725135D01*
X161764285Y-151725135D02*
X161711904Y-151620373D01*
X161711904Y-151620373D02*
X161659523Y-151567992D01*
X161659523Y-151567992D02*
X161554761Y-151515611D01*
X159983333Y-152615611D02*
X159407142Y-151882278D01*
X159983333Y-151882278D02*
X159407142Y-152615611D01*
X157678571Y-151515611D02*
X157888095Y-151515611D01*
X157888095Y-151515611D02*
X157992857Y-151567992D01*
X157992857Y-151567992D02*
X158045238Y-151620373D01*
X158045238Y-151620373D02*
X158150000Y-151777516D01*
X158150000Y-151777516D02*
X158202381Y-151987040D01*
X158202381Y-151987040D02*
X158202381Y-152406088D01*
X158202381Y-152406088D02*
X158150000Y-152510850D01*
X158150000Y-152510850D02*
X158097619Y-152563231D01*
X158097619Y-152563231D02*
X157992857Y-152615611D01*
X157992857Y-152615611D02*
X157783333Y-152615611D01*
X157783333Y-152615611D02*
X157678571Y-152563231D01*
X157678571Y-152563231D02*
X157626190Y-152510850D01*
X157626190Y-152510850D02*
X157573809Y-152406088D01*
X157573809Y-152406088D02*
X157573809Y-152144183D01*
X157573809Y-152144183D02*
X157626190Y-152039421D01*
X157626190Y-152039421D02*
X157678571Y-151987040D01*
X157678571Y-151987040D02*
X157783333Y-151934659D01*
X157783333Y-151934659D02*
X157992857Y-151934659D01*
X157992857Y-151934659D02*
X158097619Y-151987040D01*
X158097619Y-151987040D02*
X158150000Y-152039421D01*
X158150000Y-152039421D02*
X158202381Y-152144183D01*
X156630952Y-151515611D02*
X156840476Y-151515611D01*
X156840476Y-151515611D02*
X156945238Y-151567992D01*
X156945238Y-151567992D02*
X156997619Y-151620373D01*
X156997619Y-151620373D02*
X157102381Y-151777516D01*
X157102381Y-151777516D02*
X157154762Y-151987040D01*
X157154762Y-151987040D02*
X157154762Y-152406088D01*
X157154762Y-152406088D02*
X157102381Y-152510850D01*
X157102381Y-152510850D02*
X157050000Y-152563231D01*
X157050000Y-152563231D02*
X156945238Y-152615611D01*
X156945238Y-152615611D02*
X156735714Y-152615611D01*
X156735714Y-152615611D02*
X156630952Y-152563231D01*
X156630952Y-152563231D02*
X156578571Y-152510850D01*
X156578571Y-152510850D02*
X156526190Y-152406088D01*
X156526190Y-152406088D02*
X156526190Y-152144183D01*
X156526190Y-152144183D02*
X156578571Y-152039421D01*
X156578571Y-152039421D02*
X156630952Y-151987040D01*
X156630952Y-151987040D02*
X156735714Y-151934659D01*
X156735714Y-151934659D02*
X156945238Y-151934659D01*
X156945238Y-151934659D02*
X157050000Y-151987040D01*
X157050000Y-151987040D02*
X157102381Y-152039421D01*
X157102381Y-152039421D02*
X157154762Y-152144183D01*
X155216667Y-152615611D02*
X155216667Y-151882278D01*
X155216667Y-151987040D02*
X155164286Y-151934659D01*
X155164286Y-151934659D02*
X155059524Y-151882278D01*
X155059524Y-151882278D02*
X154902381Y-151882278D01*
X154902381Y-151882278D02*
X154797619Y-151934659D01*
X154797619Y-151934659D02*
X154745238Y-152039421D01*
X154745238Y-152039421D02*
X154745238Y-152615611D01*
X154745238Y-152039421D02*
X154692857Y-151934659D01*
X154692857Y-151934659D02*
X154588095Y-151882278D01*
X154588095Y-151882278D02*
X154430952Y-151882278D01*
X154430952Y-151882278D02*
X154326191Y-151934659D01*
X154326191Y-151934659D02*
X154273810Y-152039421D01*
X154273810Y-152039421D02*
X154273810Y-152615611D01*
X153750000Y-152615611D02*
X153750000Y-151882278D01*
X153750000Y-151987040D02*
X153697619Y-151934659D01*
X153697619Y-151934659D02*
X153592857Y-151882278D01*
X153592857Y-151882278D02*
X153435714Y-151882278D01*
X153435714Y-151882278D02*
X153330952Y-151934659D01*
X153330952Y-151934659D02*
X153278571Y-152039421D01*
X153278571Y-152039421D02*
X153278571Y-152615611D01*
X153278571Y-152039421D02*
X153226190Y-151934659D01*
X153226190Y-151934659D02*
X153121428Y-151882278D01*
X153121428Y-151882278D02*
X152964285Y-151882278D01*
X152964285Y-151882278D02*
X152859524Y-151934659D01*
X152859524Y-151934659D02*
X152807143Y-152039421D01*
X152807143Y-152039421D02*
X152807143Y-152615611D01*
X150659523Y-151463231D02*
X151602381Y-152877516D01*
X148826190Y-152615611D02*
X149192857Y-152091802D01*
X149454762Y-152615611D02*
X149454762Y-151515611D01*
X149454762Y-151515611D02*
X149035714Y-151515611D01*
X149035714Y-151515611D02*
X148930952Y-151567992D01*
X148930952Y-151567992D02*
X148878571Y-151620373D01*
X148878571Y-151620373D02*
X148826190Y-151725135D01*
X148826190Y-151725135D02*
X148826190Y-151882278D01*
X148826190Y-151882278D02*
X148878571Y-151987040D01*
X148878571Y-151987040D02*
X148930952Y-152039421D01*
X148930952Y-152039421D02*
X149035714Y-152091802D01*
X149035714Y-152091802D02*
X149454762Y-152091802D01*
X148354762Y-152615611D02*
X148354762Y-151515611D01*
X148354762Y-151515611D02*
X147935714Y-151515611D01*
X147935714Y-151515611D02*
X147830952Y-151567992D01*
X147830952Y-151567992D02*
X147778571Y-151620373D01*
X147778571Y-151620373D02*
X147726190Y-151725135D01*
X147726190Y-151725135D02*
X147726190Y-151882278D01*
X147726190Y-151882278D02*
X147778571Y-151987040D01*
X147778571Y-151987040D02*
X147830952Y-152039421D01*
X147830952Y-152039421D02*
X147935714Y-152091802D01*
X147935714Y-152091802D02*
X148354762Y-152091802D01*
X147307143Y-151620373D02*
X147254762Y-151567992D01*
X147254762Y-151567992D02*
X147150000Y-151515611D01*
X147150000Y-151515611D02*
X146888095Y-151515611D01*
X146888095Y-151515611D02*
X146783333Y-151567992D01*
X146783333Y-151567992D02*
X146730952Y-151620373D01*
X146730952Y-151620373D02*
X146678571Y-151725135D01*
X146678571Y-151725135D02*
X146678571Y-151829897D01*
X146678571Y-151829897D02*
X146730952Y-151987040D01*
X146730952Y-151987040D02*
X147359524Y-152615611D01*
X147359524Y-152615611D02*
X146678571Y-152615611D01*
X145997619Y-151515611D02*
X145892857Y-151515611D01*
X145892857Y-151515611D02*
X145788095Y-151567992D01*
X145788095Y-151567992D02*
X145735714Y-151620373D01*
X145735714Y-151620373D02*
X145683333Y-151725135D01*
X145683333Y-151725135D02*
X145630952Y-151934659D01*
X145630952Y-151934659D02*
X145630952Y-152196564D01*
X145630952Y-152196564D02*
X145683333Y-152406088D01*
X145683333Y-152406088D02*
X145735714Y-152510850D01*
X145735714Y-152510850D02*
X145788095Y-152563231D01*
X145788095Y-152563231D02*
X145892857Y-152615611D01*
X145892857Y-152615611D02*
X145997619Y-152615611D01*
X145997619Y-152615611D02*
X146102381Y-152563231D01*
X146102381Y-152563231D02*
X146154762Y-152510850D01*
X146154762Y-152510850D02*
X146207143Y-152406088D01*
X146207143Y-152406088D02*
X146259524Y-152196564D01*
X146259524Y-152196564D02*
X146259524Y-151934659D01*
X146259524Y-151934659D02*
X146207143Y-151725135D01*
X146207143Y-151725135D02*
X146154762Y-151620373D01*
X146154762Y-151620373D02*
X146102381Y-151567992D01*
X146102381Y-151567992D02*
X145997619Y-151515611D01*
X144688095Y-151882278D02*
X144688095Y-152615611D01*
X144950000Y-151463231D02*
X145211905Y-152248945D01*
X145211905Y-152248945D02*
X144530952Y-152248945D01*
X143902381Y-151515611D02*
X143797619Y-151515611D01*
X143797619Y-151515611D02*
X143692857Y-151567992D01*
X143692857Y-151567992D02*
X143640476Y-151620373D01*
X143640476Y-151620373D02*
X143588095Y-151725135D01*
X143588095Y-151725135D02*
X143535714Y-151934659D01*
X143535714Y-151934659D02*
X143535714Y-152196564D01*
X143535714Y-152196564D02*
X143588095Y-152406088D01*
X143588095Y-152406088D02*
X143640476Y-152510850D01*
X143640476Y-152510850D02*
X143692857Y-152563231D01*
X143692857Y-152563231D02*
X143797619Y-152615611D01*
X143797619Y-152615611D02*
X143902381Y-152615611D01*
X143902381Y-152615611D02*
X144007143Y-152563231D01*
X144007143Y-152563231D02*
X144059524Y-152510850D01*
X144059524Y-152510850D02*
X144111905Y-152406088D01*
X144111905Y-152406088D02*
X144164286Y-152196564D01*
X144164286Y-152196564D02*
X144164286Y-151934659D01*
X144164286Y-151934659D02*
X144111905Y-151725135D01*
X144111905Y-151725135D02*
X144059524Y-151620373D01*
X144059524Y-151620373D02*
X144007143Y-151567992D01*
X144007143Y-151567992D02*
X143902381Y-151515611D01*
X142226191Y-152615611D02*
X142226191Y-151515611D01*
X142226191Y-151515611D02*
X141807143Y-151515611D01*
X141807143Y-151515611D02*
X141702381Y-151567992D01*
X141702381Y-151567992D02*
X141650000Y-151620373D01*
X141650000Y-151620373D02*
X141597619Y-151725135D01*
X141597619Y-151725135D02*
X141597619Y-151882278D01*
X141597619Y-151882278D02*
X141650000Y-151987040D01*
X141650000Y-151987040D02*
X141702381Y-152039421D01*
X141702381Y-152039421D02*
X141807143Y-152091802D01*
X141807143Y-152091802D02*
X142226191Y-152091802D01*
X141126191Y-152615611D02*
X141126191Y-151882278D01*
X141126191Y-151515611D02*
X141178572Y-151567992D01*
X141178572Y-151567992D02*
X141126191Y-151620373D01*
X141126191Y-151620373D02*
X141073810Y-151567992D01*
X141073810Y-151567992D02*
X141126191Y-151515611D01*
X141126191Y-151515611D02*
X141126191Y-151620373D01*
X140130952Y-152563231D02*
X140235714Y-152615611D01*
X140235714Y-152615611D02*
X140445238Y-152615611D01*
X140445238Y-152615611D02*
X140550000Y-152563231D01*
X140550000Y-152563231D02*
X140602381Y-152510850D01*
X140602381Y-152510850D02*
X140654762Y-152406088D01*
X140654762Y-152406088D02*
X140654762Y-152091802D01*
X140654762Y-152091802D02*
X140602381Y-151987040D01*
X140602381Y-151987040D02*
X140550000Y-151934659D01*
X140550000Y-151934659D02*
X140445238Y-151882278D01*
X140445238Y-151882278D02*
X140235714Y-151882278D01*
X140235714Y-151882278D02*
X140130952Y-151934659D01*
X139502381Y-152615611D02*
X139607143Y-152563231D01*
X139607143Y-152563231D02*
X139659524Y-152510850D01*
X139659524Y-152510850D02*
X139711905Y-152406088D01*
X139711905Y-152406088D02*
X139711905Y-152091802D01*
X139711905Y-152091802D02*
X139659524Y-151987040D01*
X139659524Y-151987040D02*
X139607143Y-151934659D01*
X139607143Y-151934659D02*
X139502381Y-151882278D01*
X139502381Y-151882278D02*
X139345238Y-151882278D01*
X139345238Y-151882278D02*
X139240476Y-151934659D01*
X139240476Y-151934659D02*
X139188095Y-151987040D01*
X139188095Y-151987040D02*
X139135714Y-152091802D01*
X139135714Y-152091802D02*
X139135714Y-152406088D01*
X139135714Y-152406088D02*
X139188095Y-152510850D01*
X139188095Y-152510850D02*
X139240476Y-152563231D01*
X139240476Y-152563231D02*
X139345238Y-152615611D01*
X139345238Y-152615611D02*
X139502381Y-152615611D01*
X160009522Y-154386549D02*
X160009522Y-153286549D01*
X160009522Y-153286549D02*
X159380950Y-154386549D01*
X159380950Y-154386549D02*
X159380950Y-153286549D01*
X158699998Y-154386549D02*
X158804760Y-154334169D01*
X158804760Y-154334169D02*
X158857141Y-154281788D01*
X158857141Y-154281788D02*
X158909522Y-154177026D01*
X158909522Y-154177026D02*
X158909522Y-153862740D01*
X158909522Y-153862740D02*
X158857141Y-153757978D01*
X158857141Y-153757978D02*
X158804760Y-153705597D01*
X158804760Y-153705597D02*
X158699998Y-153653216D01*
X158699998Y-153653216D02*
X158542855Y-153653216D01*
X158542855Y-153653216D02*
X158438093Y-153705597D01*
X158438093Y-153705597D02*
X158385712Y-153757978D01*
X158385712Y-153757978D02*
X158333331Y-153862740D01*
X158333331Y-153862740D02*
X158333331Y-154177026D01*
X158333331Y-154177026D02*
X158385712Y-154281788D01*
X158385712Y-154281788D02*
X158438093Y-154334169D01*
X158438093Y-154334169D02*
X158542855Y-154386549D01*
X158542855Y-154386549D02*
X158699998Y-154386549D01*
X156395236Y-154281788D02*
X156447617Y-154334169D01*
X156447617Y-154334169D02*
X156604760Y-154386549D01*
X156604760Y-154386549D02*
X156709522Y-154386549D01*
X156709522Y-154386549D02*
X156866665Y-154334169D01*
X156866665Y-154334169D02*
X156971427Y-154229407D01*
X156971427Y-154229407D02*
X157023808Y-154124645D01*
X157023808Y-154124645D02*
X157076189Y-153915121D01*
X157076189Y-153915121D02*
X157076189Y-153757978D01*
X157076189Y-153757978D02*
X157023808Y-153548454D01*
X157023808Y-153548454D02*
X156971427Y-153443692D01*
X156971427Y-153443692D02*
X156866665Y-153338930D01*
X156866665Y-153338930D02*
X156709522Y-153286549D01*
X156709522Y-153286549D02*
X156604760Y-153286549D01*
X156604760Y-153286549D02*
X156447617Y-153338930D01*
X156447617Y-153338930D02*
X156395236Y-153391311D01*
X155923808Y-154386549D02*
X155923808Y-153286549D01*
X155923808Y-153286549D02*
X155504760Y-153286549D01*
X155504760Y-153286549D02*
X155399998Y-153338930D01*
X155399998Y-153338930D02*
X155347617Y-153391311D01*
X155347617Y-153391311D02*
X155295236Y-153496073D01*
X155295236Y-153496073D02*
X155295236Y-153653216D01*
X155295236Y-153653216D02*
X155347617Y-153757978D01*
X155347617Y-153757978D02*
X155399998Y-153810359D01*
X155399998Y-153810359D02*
X155504760Y-153862740D01*
X155504760Y-153862740D02*
X155923808Y-153862740D01*
X154195236Y-154281788D02*
X154247617Y-154334169D01*
X154247617Y-154334169D02*
X154404760Y-154386549D01*
X154404760Y-154386549D02*
X154509522Y-154386549D01*
X154509522Y-154386549D02*
X154666665Y-154334169D01*
X154666665Y-154334169D02*
X154771427Y-154229407D01*
X154771427Y-154229407D02*
X154823808Y-154124645D01*
X154823808Y-154124645D02*
X154876189Y-153915121D01*
X154876189Y-153915121D02*
X154876189Y-153757978D01*
X154876189Y-153757978D02*
X154823808Y-153548454D01*
X154823808Y-153548454D02*
X154771427Y-153443692D01*
X154771427Y-153443692D02*
X154666665Y-153338930D01*
X154666665Y-153338930D02*
X154509522Y-153286549D01*
X154509522Y-153286549D02*
X154404760Y-153286549D01*
X154404760Y-153286549D02*
X154247617Y-153338930D01*
X154247617Y-153338930D02*
X154195236Y-153391311D01*
X152885713Y-153653216D02*
X152885713Y-154753216D01*
X152885713Y-153705597D02*
X152780951Y-153653216D01*
X152780951Y-153653216D02*
X152571427Y-153653216D01*
X152571427Y-153653216D02*
X152466665Y-153705597D01*
X152466665Y-153705597D02*
X152414284Y-153757978D01*
X152414284Y-153757978D02*
X152361903Y-153862740D01*
X152361903Y-153862740D02*
X152361903Y-154177026D01*
X152361903Y-154177026D02*
X152414284Y-154281788D01*
X152414284Y-154281788D02*
X152466665Y-154334169D01*
X152466665Y-154334169D02*
X152571427Y-154386549D01*
X152571427Y-154386549D02*
X152780951Y-154386549D01*
X152780951Y-154386549D02*
X152885713Y-154334169D01*
X151419046Y-154386549D02*
X151419046Y-153810359D01*
X151419046Y-153810359D02*
X151471427Y-153705597D01*
X151471427Y-153705597D02*
X151576189Y-153653216D01*
X151576189Y-153653216D02*
X151785713Y-153653216D01*
X151785713Y-153653216D02*
X151890475Y-153705597D01*
X151419046Y-154334169D02*
X151523808Y-154386549D01*
X151523808Y-154386549D02*
X151785713Y-154386549D01*
X151785713Y-154386549D02*
X151890475Y-154334169D01*
X151890475Y-154334169D02*
X151942856Y-154229407D01*
X151942856Y-154229407D02*
X151942856Y-154124645D01*
X151942856Y-154124645D02*
X151890475Y-154019883D01*
X151890475Y-154019883D02*
X151785713Y-153967502D01*
X151785713Y-153967502D02*
X151523808Y-153967502D01*
X151523808Y-153967502D02*
X151419046Y-153915121D01*
X150947618Y-154334169D02*
X150842856Y-154386549D01*
X150842856Y-154386549D02*
X150633332Y-154386549D01*
X150633332Y-154386549D02*
X150528570Y-154334169D01*
X150528570Y-154334169D02*
X150476189Y-154229407D01*
X150476189Y-154229407D02*
X150476189Y-154177026D01*
X150476189Y-154177026D02*
X150528570Y-154072264D01*
X150528570Y-154072264D02*
X150633332Y-154019883D01*
X150633332Y-154019883D02*
X150790475Y-154019883D01*
X150790475Y-154019883D02*
X150895237Y-153967502D01*
X150895237Y-153967502D02*
X150947618Y-153862740D01*
X150947618Y-153862740D02*
X150947618Y-153810359D01*
X150947618Y-153810359D02*
X150895237Y-153705597D01*
X150895237Y-153705597D02*
X150790475Y-153653216D01*
X150790475Y-153653216D02*
X150633332Y-153653216D01*
X150633332Y-153653216D02*
X150528570Y-153705597D01*
X150057142Y-154334169D02*
X149952380Y-154386549D01*
X149952380Y-154386549D02*
X149742856Y-154386549D01*
X149742856Y-154386549D02*
X149638094Y-154334169D01*
X149638094Y-154334169D02*
X149585713Y-154229407D01*
X149585713Y-154229407D02*
X149585713Y-154177026D01*
X149585713Y-154177026D02*
X149638094Y-154072264D01*
X149638094Y-154072264D02*
X149742856Y-154019883D01*
X149742856Y-154019883D02*
X149899999Y-154019883D01*
X149899999Y-154019883D02*
X150004761Y-153967502D01*
X150004761Y-153967502D02*
X150057142Y-153862740D01*
X150057142Y-153862740D02*
X150057142Y-153810359D01*
X150057142Y-153810359D02*
X150004761Y-153705597D01*
X150004761Y-153705597D02*
X149899999Y-153653216D01*
X149899999Y-153653216D02*
X149742856Y-153653216D01*
X149742856Y-153653216D02*
X149638094Y-153705597D01*
X149114285Y-153967502D02*
X148276190Y-153967502D01*
X147909523Y-153653216D02*
X147490475Y-153653216D01*
X147752380Y-153286549D02*
X147752380Y-154229407D01*
X147752380Y-154229407D02*
X147699999Y-154334169D01*
X147699999Y-154334169D02*
X147595237Y-154386549D01*
X147595237Y-154386549D02*
X147490475Y-154386549D01*
X147123809Y-154386549D02*
X147123809Y-153286549D01*
X146652380Y-154386549D02*
X146652380Y-153810359D01*
X146652380Y-153810359D02*
X146704761Y-153705597D01*
X146704761Y-153705597D02*
X146809523Y-153653216D01*
X146809523Y-153653216D02*
X146966666Y-153653216D01*
X146966666Y-153653216D02*
X147071428Y-153705597D01*
X147071428Y-153705597D02*
X147123809Y-153757978D01*
X146128571Y-154386549D02*
X146128571Y-153653216D01*
X146128571Y-153862740D02*
X146076190Y-153757978D01*
X146076190Y-153757978D02*
X146023809Y-153705597D01*
X146023809Y-153705597D02*
X145919047Y-153653216D01*
X145919047Y-153653216D02*
X145814285Y-153653216D01*
X145290476Y-154386549D02*
X145395238Y-154334169D01*
X145395238Y-154334169D02*
X145447619Y-154281788D01*
X145447619Y-154281788D02*
X145500000Y-154177026D01*
X145500000Y-154177026D02*
X145500000Y-153862740D01*
X145500000Y-153862740D02*
X145447619Y-153757978D01*
X145447619Y-153757978D02*
X145395238Y-153705597D01*
X145395238Y-153705597D02*
X145290476Y-153653216D01*
X145290476Y-153653216D02*
X145133333Y-153653216D01*
X145133333Y-153653216D02*
X145028571Y-153705597D01*
X145028571Y-153705597D02*
X144976190Y-153757978D01*
X144976190Y-153757978D02*
X144923809Y-153862740D01*
X144923809Y-153862740D02*
X144923809Y-154177026D01*
X144923809Y-154177026D02*
X144976190Y-154281788D01*
X144976190Y-154281788D02*
X145028571Y-154334169D01*
X145028571Y-154334169D02*
X145133333Y-154386549D01*
X145133333Y-154386549D02*
X145290476Y-154386549D01*
X143980952Y-153653216D02*
X143980952Y-154386549D01*
X144452381Y-153653216D02*
X144452381Y-154229407D01*
X144452381Y-154229407D02*
X144400000Y-154334169D01*
X144400000Y-154334169D02*
X144295238Y-154386549D01*
X144295238Y-154386549D02*
X144138095Y-154386549D01*
X144138095Y-154386549D02*
X144033333Y-154334169D01*
X144033333Y-154334169D02*
X143980952Y-154281788D01*
X142985714Y-153653216D02*
X142985714Y-154543692D01*
X142985714Y-154543692D02*
X143038095Y-154648454D01*
X143038095Y-154648454D02*
X143090476Y-154700835D01*
X143090476Y-154700835D02*
X143195238Y-154753216D01*
X143195238Y-154753216D02*
X143352381Y-154753216D01*
X143352381Y-154753216D02*
X143457143Y-154700835D01*
X142985714Y-154334169D02*
X143090476Y-154386549D01*
X143090476Y-154386549D02*
X143300000Y-154386549D01*
X143300000Y-154386549D02*
X143404762Y-154334169D01*
X143404762Y-154334169D02*
X143457143Y-154281788D01*
X143457143Y-154281788D02*
X143509524Y-154177026D01*
X143509524Y-154177026D02*
X143509524Y-153862740D01*
X143509524Y-153862740D02*
X143457143Y-153757978D01*
X143457143Y-153757978D02*
X143404762Y-153705597D01*
X143404762Y-153705597D02*
X143300000Y-153653216D01*
X143300000Y-153653216D02*
X143090476Y-153653216D01*
X143090476Y-153653216D02*
X142985714Y-153705597D01*
X142461905Y-154386549D02*
X142461905Y-153286549D01*
X141990476Y-154386549D02*
X141990476Y-153810359D01*
X141990476Y-153810359D02*
X142042857Y-153705597D01*
X142042857Y-153705597D02*
X142147619Y-153653216D01*
X142147619Y-153653216D02*
X142304762Y-153653216D01*
X142304762Y-153653216D02*
X142409524Y-153705597D01*
X142409524Y-153705597D02*
X142461905Y-153757978D01*
X163571426Y-156157487D02*
X163571426Y-155057487D01*
X163571426Y-155057487D02*
X163309521Y-155057487D01*
X163309521Y-155057487D02*
X163152378Y-155109868D01*
X163152378Y-155109868D02*
X163047616Y-155214630D01*
X163047616Y-155214630D02*
X162995235Y-155319392D01*
X162995235Y-155319392D02*
X162942854Y-155528916D01*
X162942854Y-155528916D02*
X162942854Y-155686059D01*
X162942854Y-155686059D02*
X162995235Y-155895583D01*
X162995235Y-155895583D02*
X163047616Y-156000345D01*
X163047616Y-156000345D02*
X163152378Y-156105107D01*
X163152378Y-156105107D02*
X163309521Y-156157487D01*
X163309521Y-156157487D02*
X163571426Y-156157487D01*
X162471426Y-156157487D02*
X162471426Y-155424154D01*
X162471426Y-155057487D02*
X162523807Y-155109868D01*
X162523807Y-155109868D02*
X162471426Y-155162249D01*
X162471426Y-155162249D02*
X162419045Y-155109868D01*
X162419045Y-155109868D02*
X162471426Y-155057487D01*
X162471426Y-155057487D02*
X162471426Y-155162249D01*
X161999997Y-156105107D02*
X161895235Y-156157487D01*
X161895235Y-156157487D02*
X161685711Y-156157487D01*
X161685711Y-156157487D02*
X161580949Y-156105107D01*
X161580949Y-156105107D02*
X161528568Y-156000345D01*
X161528568Y-156000345D02*
X161528568Y-155947964D01*
X161528568Y-155947964D02*
X161580949Y-155843202D01*
X161580949Y-155843202D02*
X161685711Y-155790821D01*
X161685711Y-155790821D02*
X161842854Y-155790821D01*
X161842854Y-155790821D02*
X161947616Y-155738440D01*
X161947616Y-155738440D02*
X161999997Y-155633678D01*
X161999997Y-155633678D02*
X161999997Y-155581297D01*
X161999997Y-155581297D02*
X161947616Y-155476535D01*
X161947616Y-155476535D02*
X161842854Y-155424154D01*
X161842854Y-155424154D02*
X161685711Y-155424154D01*
X161685711Y-155424154D02*
X161580949Y-155476535D01*
X160585711Y-156105107D02*
X160690473Y-156157487D01*
X160690473Y-156157487D02*
X160899997Y-156157487D01*
X160899997Y-156157487D02*
X161004759Y-156105107D01*
X161004759Y-156105107D02*
X161057140Y-156052726D01*
X161057140Y-156052726D02*
X161109521Y-155947964D01*
X161109521Y-155947964D02*
X161109521Y-155633678D01*
X161109521Y-155633678D02*
X161057140Y-155528916D01*
X161057140Y-155528916D02*
X161004759Y-155476535D01*
X161004759Y-155476535D02*
X160899997Y-155424154D01*
X160899997Y-155424154D02*
X160690473Y-155424154D01*
X160690473Y-155424154D02*
X160585711Y-155476535D01*
X159957140Y-156157487D02*
X160061902Y-156105107D01*
X160061902Y-156105107D02*
X160114283Y-156052726D01*
X160114283Y-156052726D02*
X160166664Y-155947964D01*
X160166664Y-155947964D02*
X160166664Y-155633678D01*
X160166664Y-155633678D02*
X160114283Y-155528916D01*
X160114283Y-155528916D02*
X160061902Y-155476535D01*
X160061902Y-155476535D02*
X159957140Y-155424154D01*
X159957140Y-155424154D02*
X159799997Y-155424154D01*
X159799997Y-155424154D02*
X159695235Y-155476535D01*
X159695235Y-155476535D02*
X159642854Y-155528916D01*
X159642854Y-155528916D02*
X159590473Y-155633678D01*
X159590473Y-155633678D02*
X159590473Y-155947964D01*
X159590473Y-155947964D02*
X159642854Y-156052726D01*
X159642854Y-156052726D02*
X159695235Y-156105107D01*
X159695235Y-156105107D02*
X159799997Y-156157487D01*
X159799997Y-156157487D02*
X159957140Y-156157487D01*
X159119045Y-155424154D02*
X159119045Y-156157487D01*
X159119045Y-155528916D02*
X159066664Y-155476535D01*
X159066664Y-155476535D02*
X158961902Y-155424154D01*
X158961902Y-155424154D02*
X158804759Y-155424154D01*
X158804759Y-155424154D02*
X158699997Y-155476535D01*
X158699997Y-155476535D02*
X158647616Y-155581297D01*
X158647616Y-155581297D02*
X158647616Y-156157487D01*
X158123807Y-155424154D02*
X158123807Y-156157487D01*
X158123807Y-155528916D02*
X158071426Y-155476535D01*
X158071426Y-155476535D02*
X157966664Y-155424154D01*
X157966664Y-155424154D02*
X157809521Y-155424154D01*
X157809521Y-155424154D02*
X157704759Y-155476535D01*
X157704759Y-155476535D02*
X157652378Y-155581297D01*
X157652378Y-155581297D02*
X157652378Y-156157487D01*
X156709521Y-156105107D02*
X156814283Y-156157487D01*
X156814283Y-156157487D02*
X157023807Y-156157487D01*
X157023807Y-156157487D02*
X157128569Y-156105107D01*
X157128569Y-156105107D02*
X157180950Y-156000345D01*
X157180950Y-156000345D02*
X157180950Y-155581297D01*
X157180950Y-155581297D02*
X157128569Y-155476535D01*
X157128569Y-155476535D02*
X157023807Y-155424154D01*
X157023807Y-155424154D02*
X156814283Y-155424154D01*
X156814283Y-155424154D02*
X156709521Y-155476535D01*
X156709521Y-155476535D02*
X156657140Y-155581297D01*
X156657140Y-155581297D02*
X156657140Y-155686059D01*
X156657140Y-155686059D02*
X157180950Y-155790821D01*
X155714283Y-156105107D02*
X155819045Y-156157487D01*
X155819045Y-156157487D02*
X156028569Y-156157487D01*
X156028569Y-156157487D02*
X156133331Y-156105107D01*
X156133331Y-156105107D02*
X156185712Y-156052726D01*
X156185712Y-156052726D02*
X156238093Y-155947964D01*
X156238093Y-155947964D02*
X156238093Y-155633678D01*
X156238093Y-155633678D02*
X156185712Y-155528916D01*
X156185712Y-155528916D02*
X156133331Y-155476535D01*
X156133331Y-155476535D02*
X156028569Y-155424154D01*
X156028569Y-155424154D02*
X155819045Y-155424154D01*
X155819045Y-155424154D02*
X155714283Y-155476535D01*
X155399998Y-155424154D02*
X154980950Y-155424154D01*
X155242855Y-155057487D02*
X155242855Y-156000345D01*
X155242855Y-156000345D02*
X155190474Y-156105107D01*
X155190474Y-156105107D02*
X155085712Y-156157487D01*
X155085712Y-156157487D02*
X154980950Y-156157487D01*
X153147617Y-156052726D02*
X153199998Y-156105107D01*
X153199998Y-156105107D02*
X153357141Y-156157487D01*
X153357141Y-156157487D02*
X153461903Y-156157487D01*
X153461903Y-156157487D02*
X153619046Y-156105107D01*
X153619046Y-156105107D02*
X153723808Y-156000345D01*
X153723808Y-156000345D02*
X153776189Y-155895583D01*
X153776189Y-155895583D02*
X153828570Y-155686059D01*
X153828570Y-155686059D02*
X153828570Y-155528916D01*
X153828570Y-155528916D02*
X153776189Y-155319392D01*
X153776189Y-155319392D02*
X153723808Y-155214630D01*
X153723808Y-155214630D02*
X153619046Y-155109868D01*
X153619046Y-155109868D02*
X153461903Y-155057487D01*
X153461903Y-155057487D02*
X153357141Y-155057487D01*
X153357141Y-155057487D02*
X153199998Y-155109868D01*
X153199998Y-155109868D02*
X153147617Y-155162249D01*
X152676189Y-156157487D02*
X152676189Y-155057487D01*
X152676189Y-155057487D02*
X152257141Y-155057487D01*
X152257141Y-155057487D02*
X152152379Y-155109868D01*
X152152379Y-155109868D02*
X152099998Y-155162249D01*
X152099998Y-155162249D02*
X152047617Y-155267011D01*
X152047617Y-155267011D02*
X152047617Y-155424154D01*
X152047617Y-155424154D02*
X152099998Y-155528916D01*
X152099998Y-155528916D02*
X152152379Y-155581297D01*
X152152379Y-155581297D02*
X152257141Y-155633678D01*
X152257141Y-155633678D02*
X152676189Y-155633678D01*
X150947617Y-156052726D02*
X150999998Y-156105107D01*
X150999998Y-156105107D02*
X151157141Y-156157487D01*
X151157141Y-156157487D02*
X151261903Y-156157487D01*
X151261903Y-156157487D02*
X151419046Y-156105107D01*
X151419046Y-156105107D02*
X151523808Y-156000345D01*
X151523808Y-156000345D02*
X151576189Y-155895583D01*
X151576189Y-155895583D02*
X151628570Y-155686059D01*
X151628570Y-155686059D02*
X151628570Y-155528916D01*
X151628570Y-155528916D02*
X151576189Y-155319392D01*
X151576189Y-155319392D02*
X151523808Y-155214630D01*
X151523808Y-155214630D02*
X151419046Y-155109868D01*
X151419046Y-155109868D02*
X151261903Y-155057487D01*
X151261903Y-155057487D02*
X151157141Y-155057487D01*
X151157141Y-155057487D02*
X150999998Y-155109868D01*
X150999998Y-155109868D02*
X150947617Y-155162249D01*
X149219046Y-156105107D02*
X149323808Y-156157487D01*
X149323808Y-156157487D02*
X149533332Y-156157487D01*
X149533332Y-156157487D02*
X149638094Y-156105107D01*
X149638094Y-156105107D02*
X149690475Y-156000345D01*
X149690475Y-156000345D02*
X149690475Y-155581297D01*
X149690475Y-155581297D02*
X149638094Y-155476535D01*
X149638094Y-155476535D02*
X149533332Y-155424154D01*
X149533332Y-155424154D02*
X149323808Y-155424154D01*
X149323808Y-155424154D02*
X149219046Y-155476535D01*
X149219046Y-155476535D02*
X149166665Y-155581297D01*
X149166665Y-155581297D02*
X149166665Y-155686059D01*
X149166665Y-155686059D02*
X149690475Y-155790821D01*
X148799999Y-155424154D02*
X148538094Y-156157487D01*
X148538094Y-156157487D02*
X148276189Y-155424154D01*
X147438094Y-156105107D02*
X147542856Y-156157487D01*
X147542856Y-156157487D02*
X147752380Y-156157487D01*
X147752380Y-156157487D02*
X147857142Y-156105107D01*
X147857142Y-156105107D02*
X147909523Y-156000345D01*
X147909523Y-156000345D02*
X147909523Y-155581297D01*
X147909523Y-155581297D02*
X147857142Y-155476535D01*
X147857142Y-155476535D02*
X147752380Y-155424154D01*
X147752380Y-155424154D02*
X147542856Y-155424154D01*
X147542856Y-155424154D02*
X147438094Y-155476535D01*
X147438094Y-155476535D02*
X147385713Y-155581297D01*
X147385713Y-155581297D02*
X147385713Y-155686059D01*
X147385713Y-155686059D02*
X147909523Y-155790821D01*
X146914285Y-155424154D02*
X146914285Y-156157487D01*
X146914285Y-155528916D02*
X146861904Y-155476535D01*
X146861904Y-155476535D02*
X146757142Y-155424154D01*
X146757142Y-155424154D02*
X146599999Y-155424154D01*
X146599999Y-155424154D02*
X146495237Y-155476535D01*
X146495237Y-155476535D02*
X146442856Y-155581297D01*
X146442856Y-155581297D02*
X146442856Y-156157487D01*
X145185714Y-155424154D02*
X144976190Y-156157487D01*
X144976190Y-156157487D02*
X144766666Y-155633678D01*
X144766666Y-155633678D02*
X144557142Y-156157487D01*
X144557142Y-156157487D02*
X144347618Y-155424154D01*
X143928571Y-156157487D02*
X143928571Y-155057487D01*
X143457142Y-156157487D02*
X143457142Y-155581297D01*
X143457142Y-155581297D02*
X143509523Y-155476535D01*
X143509523Y-155476535D02*
X143614285Y-155424154D01*
X143614285Y-155424154D02*
X143771428Y-155424154D01*
X143771428Y-155424154D02*
X143876190Y-155476535D01*
X143876190Y-155476535D02*
X143928571Y-155528916D01*
X142514285Y-156105107D02*
X142619047Y-156157487D01*
X142619047Y-156157487D02*
X142828571Y-156157487D01*
X142828571Y-156157487D02*
X142933333Y-156105107D01*
X142933333Y-156105107D02*
X142985714Y-156000345D01*
X142985714Y-156000345D02*
X142985714Y-155581297D01*
X142985714Y-155581297D02*
X142933333Y-155476535D01*
X142933333Y-155476535D02*
X142828571Y-155424154D01*
X142828571Y-155424154D02*
X142619047Y-155424154D01*
X142619047Y-155424154D02*
X142514285Y-155476535D01*
X142514285Y-155476535D02*
X142461904Y-155581297D01*
X142461904Y-155581297D02*
X142461904Y-155686059D01*
X142461904Y-155686059D02*
X142985714Y-155790821D01*
X141990476Y-155424154D02*
X141990476Y-156157487D01*
X141990476Y-155528916D02*
X141938095Y-155476535D01*
X141938095Y-155476535D02*
X141833333Y-155424154D01*
X141833333Y-155424154D02*
X141676190Y-155424154D01*
X141676190Y-155424154D02*
X141571428Y-155476535D01*
X141571428Y-155476535D02*
X141519047Y-155581297D01*
X141519047Y-155581297D02*
X141519047Y-156157487D01*
X140000000Y-156157487D02*
X140104762Y-156105107D01*
X140104762Y-156105107D02*
X140157143Y-156052726D01*
X140157143Y-156052726D02*
X140209524Y-155947964D01*
X140209524Y-155947964D02*
X140209524Y-155633678D01*
X140209524Y-155633678D02*
X140157143Y-155528916D01*
X140157143Y-155528916D02*
X140104762Y-155476535D01*
X140104762Y-155476535D02*
X140000000Y-155424154D01*
X140000000Y-155424154D02*
X139842857Y-155424154D01*
X139842857Y-155424154D02*
X139738095Y-155476535D01*
X139738095Y-155476535D02*
X139685714Y-155528916D01*
X139685714Y-155528916D02*
X139633333Y-155633678D01*
X139633333Y-155633678D02*
X139633333Y-155947964D01*
X139633333Y-155947964D02*
X139685714Y-156052726D01*
X139685714Y-156052726D02*
X139738095Y-156105107D01*
X139738095Y-156105107D02*
X139842857Y-156157487D01*
X139842857Y-156157487D02*
X140000000Y-156157487D01*
X139319048Y-155424154D02*
X138900000Y-155424154D01*
X139161905Y-156157487D02*
X139161905Y-155214630D01*
X139161905Y-155214630D02*
X139109524Y-155109868D01*
X139109524Y-155109868D02*
X139004762Y-155057487D01*
X139004762Y-155057487D02*
X138900000Y-155057487D01*
X138690477Y-155424154D02*
X138271429Y-155424154D01*
X138533334Y-156157487D02*
X138533334Y-155214630D01*
X138533334Y-155214630D02*
X138480953Y-155109868D01*
X138480953Y-155109868D02*
X138376191Y-155057487D01*
X138376191Y-155057487D02*
X138271429Y-155057487D01*
%LPC*%
D11*
%TO.C,J1*%
X173660000Y-155880000D03*
D12*
X173660000Y-153340000D03*
X173660000Y-150800000D03*
X173660000Y-148260000D03*
X173660000Y-145720000D03*
X173660000Y-143180000D03*
X173660000Y-140640000D03*
X173660000Y-138100000D03*
X173660000Y-135560000D03*
X173660000Y-133020000D03*
X173660000Y-130480000D03*
X173660000Y-127940000D03*
X173660000Y-125400000D03*
X173660000Y-122860000D03*
X173660000Y-120320000D03*
X173660000Y-117780000D03*
X173660000Y-115240000D03*
X173660000Y-112700000D03*
X173660000Y-110160000D03*
%TD*%
D13*
%TO.C,H1*%
X104000000Y-104000000D03*
%TD*%
%TO.C,H3*%
X104000000Y-162000000D03*
%TD*%
D11*
%TO.C,J3*%
X143180000Y-115240000D03*
D12*
X143180000Y-117780000D03*
X143180000Y-120320000D03*
X143180000Y-122860000D03*
X143180000Y-125400000D03*
X143180000Y-127940000D03*
X143180000Y-130480000D03*
X143180000Y-133020000D03*
X143180000Y-135560000D03*
X143180000Y-138100000D03*
%TD*%
D13*
%TO.C,H2*%
X176000000Y-104000000D03*
%TD*%
D14*
%TO.C,U1*%
X110160000Y-103048000D03*
D15*
X110160000Y-105588000D03*
D16*
X110160000Y-108128000D03*
D15*
X110160000Y-110668000D03*
X110160000Y-113208000D03*
X110160000Y-115748000D03*
X110160000Y-118288000D03*
D16*
X110160000Y-120828000D03*
D15*
X110160000Y-123368000D03*
X110160000Y-125908000D03*
X110160000Y-128448000D03*
X110160000Y-130988000D03*
D16*
X110160000Y-133528000D03*
D15*
X110160000Y-136068000D03*
X110160000Y-138608000D03*
X110160000Y-141148000D03*
X110160000Y-143688000D03*
D16*
X110160000Y-146228000D03*
D15*
X110160000Y-148768000D03*
X110160000Y-151308000D03*
X127940000Y-151308000D03*
X127940000Y-148768000D03*
D17*
X127940000Y-146228000D03*
D15*
X127940000Y-143688000D03*
X127940000Y-141148000D03*
X127940000Y-138608000D03*
X127940000Y-136068000D03*
D17*
X127940000Y-133528000D03*
D15*
X127940000Y-130988000D03*
X127940000Y-128448000D03*
X127940000Y-125908000D03*
X127940000Y-123368000D03*
D17*
X127940000Y-120828000D03*
D15*
X127940000Y-118288000D03*
X127940000Y-115748000D03*
X127940000Y-113208000D03*
X127940000Y-110668000D03*
D17*
X127940000Y-108128000D03*
D15*
X127940000Y-105588000D03*
X127940000Y-103048000D03*
%TD*%
D11*
%TO.C,J2*%
X151816000Y-115240000D03*
D12*
X151816000Y-117780000D03*
X151816000Y-120320000D03*
X151816000Y-122860000D03*
X151816000Y-125400000D03*
X151816000Y-127940000D03*
X151816000Y-130480000D03*
X151816000Y-133020000D03*
X151816000Y-135560000D03*
X151816000Y-138100000D03*
%TD*%
D13*
%TO.C,H4*%
X176000000Y-162000000D03*
%TD*%
%LPD*%
M02*
