%TF.GenerationSoftware,KiCad,Pcbnew,10.0.6-1.fc44app2*%
%TF.CreationDate,2026-10-06T11:56:39+02:00*%
%TF.ProjectId,goodjohn-carrier,676f6f64-6a6f-4686-9e2d-636172726965,1.0-prototype*%
%TF.SameCoordinates,Original*%
%TF.FileFunction,Copper,L1,Top*%
%TF.FilePolarity,Positive*%
%FSLAX46Y46*%
G04 Gerber Fmt 4.6, Leading zero omitted, Abs format (unit mm)*
G04 Created by KiCad (PCBNEW 10.0.6-1.fc44app2) date 2026-10-06 11:56:39*
%MOMM*%
%LPD*%
G01*
G04 APERTURE LIST*
G04 Aperture macros list*
%AMRoundRect*
0 Rectangle with rounded corners*
0 $1 Rounding radius*
0 $2 $3 $4 $5 $6 $7 $8 $9 X,Y pos of 4 corners*
0 Add a 4 corners polygon primitive as box body*
4,1,4,$2,$3,$4,$5,$6,$7,$8,$9,$2,$3,0*
0 Add four circle primitives for the rounded corners*
1,1,$1+$1,$2,$3*
1,1,$1+$1,$4,$5*
1,1,$1+$1,$6,$7*
1,1,$1+$1,$8,$9*
0 Add four rect primitives between the rounded corners*
20,1,$1+$1,$2,$3,$4,$5,0*
20,1,$1+$1,$4,$5,$6,$7,0*
20,1,$1+$1,$6,$7,$8,$9,0*
20,1,$1+$1,$8,$9,$2,$3,0*%
%AMFreePoly0*
4,1,37,0.603843,0.796157,0.639018,0.796157,0.711114,0.766294,0.766294,0.711114,0.796157,0.639018,0.796157,0.603843,0.800000,0.600000,0.800000,-0.600000,0.796157,-0.603843,0.796157,-0.639018,0.766294,-0.711114,0.711114,-0.766294,0.639018,-0.796157,0.603843,-0.796157,0.600000,-0.800000,0.000000,-0.800000,0.000000,-0.796148,-0.078414,-0.796148,-0.232228,-0.765552,-0.377117,-0.705537,
-0.507515,-0.618408,-0.618408,-0.507515,-0.705537,-0.377117,-0.765552,-0.232228,-0.796148,-0.078414,-0.796148,0.078414,-0.765552,0.232228,-0.705537,0.377117,-0.618408,0.507515,-0.507515,0.618408,-0.377117,0.705537,-0.232228,0.765552,-0.078414,0.796148,0.000000,0.796148,0.000000,0.800000,0.600000,0.800000,0.603843,0.796157,0.603843,0.796157,$1*%
%AMFreePoly1*
4,1,37,0.000000,0.796148,0.078414,0.796148,0.232228,0.765552,0.377117,0.705537,0.507515,0.618408,0.618408,0.507515,0.705537,0.377117,0.765552,0.232228,0.796148,0.078414,0.796148,-0.078414,0.765552,-0.232228,0.705537,-0.377117,0.618408,-0.507515,0.507515,-0.618408,0.377117,-0.705537,0.232228,-0.765552,0.078414,-0.796148,0.000000,-0.796148,0.000000,-0.800000,-0.600000,-0.800000,
-0.603843,-0.796157,-0.639018,-0.796157,-0.711114,-0.766294,-0.766294,-0.711114,-0.796157,-0.639018,-0.796157,-0.603843,-0.800000,-0.600000,-0.800000,0.600000,-0.796157,0.603843,-0.796157,0.639018,-0.766294,0.711114,-0.711114,0.766294,-0.639018,0.796157,-0.603843,0.796157,-0.600000,0.800000,0.000000,0.800000,0.000000,0.796148,0.000000,0.796148,$1*%
G04 Aperture macros list end*
%TA.AperFunction,ComponentPad*%
%ADD10R,1.700000X1.700000*%
%TD*%
%TA.AperFunction,ComponentPad*%
%ADD11C,1.700000*%
%TD*%
%TA.AperFunction,ComponentPad*%
%ADD12RoundRect,0.200000X-0.600000X-0.600000X0.600000X-0.600000X0.600000X0.600000X-0.600000X0.600000X0*%
%TD*%
%TA.AperFunction,ComponentPad*%
%ADD13C,1.600000*%
%TD*%
%TA.AperFunction,ComponentPad*%
%ADD14FreePoly0,0.000000*%
%TD*%
%TA.AperFunction,ComponentPad*%
%ADD15FreePoly1,0.000000*%
%TD*%
%TA.AperFunction,ViaPad*%
%ADD16C,0.800000*%
%TD*%
%TA.AperFunction,Conductor*%
%ADD17C,0.300000*%
%TD*%
G04 APERTURE END LIST*
D10*
%TO.P,J1,1*%
%TO.N,/X9*%
X173660000Y-155880000D03*
D11*
%TO.P,J1,2*%
%TO.N,/Y10*%
X173660000Y-153340000D03*
%TO.P,J1,3*%
%TO.N,/X1*%
X173660000Y-150800000D03*
%TO.P,J1,4*%
%TO.N,/X2*%
X173660000Y-148260000D03*
%TO.P,J1,5*%
%TO.N,/X3*%
X173660000Y-145720000D03*
%TO.P,J1,6*%
%TO.N,/X4*%
X173660000Y-143180000D03*
%TO.P,J1,7*%
%TO.N,/X5*%
X173660000Y-140640000D03*
%TO.P,J1,8*%
%TO.N,/X6*%
X173660000Y-138100000D03*
%TO.P,J1,9*%
%TO.N,/X7*%
X173660000Y-135560000D03*
%TO.P,J1,10*%
%TO.N,/X8*%
X173660000Y-133020000D03*
%TO.P,J1,11*%
%TO.N,/Y9*%
X173660000Y-130480000D03*
%TO.P,J1,12*%
%TO.N,/Y8*%
X173660000Y-127940000D03*
%TO.P,J1,13*%
%TO.N,/Y7*%
X173660000Y-125400000D03*
%TO.P,J1,14*%
%TO.N,/Y6*%
X173660000Y-122860000D03*
%TO.P,J1,15*%
%TO.N,/Y5*%
X173660000Y-120320000D03*
%TO.P,J1,16*%
%TO.N,/Y4*%
X173660000Y-117780000D03*
%TO.P,J1,17*%
%TO.N,/Y3*%
X173660000Y-115240000D03*
%TO.P,J1,18*%
%TO.N,/Y2*%
X173660000Y-112700000D03*
%TO.P,J1,19*%
%TO.N,/Y1*%
X173660000Y-110160000D03*
%TD*%
D10*
%TO.P,J3,1*%
%TO.N,/X8*%
X143180000Y-115240000D03*
D11*
%TO.P,J3,2*%
%TO.N,/Y9*%
X143180000Y-117780000D03*
%TO.P,J3,3*%
%TO.N,/Y8*%
X143180000Y-120320000D03*
%TO.P,J3,4*%
%TO.N,/Y7*%
X143180000Y-122860000D03*
%TO.P,J3,5*%
%TO.N,/Y6*%
X143180000Y-125400000D03*
%TO.P,J3,6*%
%TO.N,/Y5*%
X143180000Y-127940000D03*
%TO.P,J3,7*%
%TO.N,/Y4*%
X143180000Y-130480000D03*
%TO.P,J3,8*%
%TO.N,/Y3*%
X143180000Y-133020000D03*
%TO.P,J3,9*%
%TO.N,/Y2*%
X143180000Y-135560000D03*
%TO.P,J3,10*%
%TO.N,/Y1*%
X143180000Y-138100000D03*
%TD*%
D12*
%TO.P,U1,1*%
%TO.N,unconnected-(U1-GPIO0-Pad1)*%
X110160000Y-103048000D03*
D13*
%TO.P,U1,2*%
%TO.N,unconnected-(U1-GPIO1-Pad2)*%
X110160000Y-105588000D03*
D14*
%TO.P,U1,3*%
%TO.N,/GND*%
X110160000Y-108128000D03*
D13*
%TO.P,U1,4*%
%TO.N,/Y1*%
X110160000Y-110668000D03*
%TO.P,U1,5*%
%TO.N,/Y2*%
X110160000Y-113208000D03*
%TO.P,U1,6*%
%TO.N,/Y3*%
X110160000Y-115748000D03*
%TO.P,U1,7*%
%TO.N,/Y4*%
X110160000Y-118288000D03*
D14*
%TO.P,U1,8*%
%TO.N,/GND*%
X110160000Y-120828000D03*
D13*
%TO.P,U1,9*%
%TO.N,/Y5*%
X110160000Y-123368000D03*
%TO.P,U1,10*%
%TO.N,/Y6*%
X110160000Y-125908000D03*
%TO.P,U1,11*%
%TO.N,/Y7*%
X110160000Y-128448000D03*
%TO.P,U1,12*%
%TO.N,/Y8*%
X110160000Y-130988000D03*
D14*
%TO.P,U1,13*%
%TO.N,/GND*%
X110160000Y-133528000D03*
D13*
%TO.P,U1,14*%
%TO.N,/Y9*%
X110160000Y-136068000D03*
%TO.P,U1,15*%
%TO.N,/Y10*%
X110160000Y-138608000D03*
%TO.P,U1,16*%
%TO.N,/X1*%
X110160000Y-141148000D03*
%TO.P,U1,17*%
%TO.N,/X2*%
X110160000Y-143688000D03*
D14*
%TO.P,U1,18*%
%TO.N,/GND*%
X110160000Y-146228000D03*
D13*
%TO.P,U1,19*%
%TO.N,/X3*%
X110160000Y-148768000D03*
%TO.P,U1,20*%
%TO.N,/X4*%
X110160000Y-151308000D03*
%TO.P,U1,21*%
%TO.N,/X5*%
X127940000Y-151308000D03*
%TO.P,U1,22*%
%TO.N,/X6*%
X127940000Y-148768000D03*
D15*
%TO.P,U1,23*%
%TO.N,/GND*%
X127940000Y-146228000D03*
D13*
%TO.P,U1,24*%
%TO.N,/X7*%
X127940000Y-143688000D03*
%TO.P,U1,25*%
%TO.N,/X8*%
X127940000Y-141148000D03*
%TO.P,U1,26*%
%TO.N,/X9*%
X127940000Y-138608000D03*
%TO.P,U1,27*%
%TO.N,unconnected-(U1-GPIO21-Pad27)*%
X127940000Y-136068000D03*
D15*
%TO.P,U1,28*%
%TO.N,/GND*%
X127940000Y-133528000D03*
D13*
%TO.P,U1,29*%
%TO.N,unconnected-(U1-GPIO22-Pad29)*%
X127940000Y-130988000D03*
%TO.P,U1,30*%
%TO.N,unconnected-(U1-RUN-Pad30)*%
X127940000Y-128448000D03*
%TO.P,U1,31*%
%TO.N,unconnected-(U1-GPIO26_ADC0-Pad31)*%
X127940000Y-125908000D03*
%TO.P,U1,32*%
%TO.N,unconnected-(U1-GPIO27_ADC1-Pad32)*%
X127940000Y-123368000D03*
D15*
%TO.P,U1,33*%
%TO.N,unconnected-(U1-AGND-Pad33)*%
X127940000Y-120828000D03*
D13*
%TO.P,U1,34*%
%TO.N,unconnected-(U1-GPIO28_ADC2-Pad34)*%
X127940000Y-118288000D03*
%TO.P,U1,35*%
%TO.N,unconnected-(U1-ADC_VREF-Pad35)*%
X127940000Y-115748000D03*
%TO.P,U1,36*%
%TO.N,unconnected-(U1-3V3-Pad36)*%
X127940000Y-113208000D03*
%TO.P,U1,37*%
%TO.N,unconnected-(U1-3V3_EN-Pad37)*%
X127940000Y-110668000D03*
D15*
%TO.P,U1,38*%
%TO.N,/GND*%
X127940000Y-108128000D03*
D13*
%TO.P,U1,39*%
%TO.N,unconnected-(U1-VSYS-Pad39)*%
X127940000Y-105588000D03*
%TO.P,U1,40*%
%TO.N,unconnected-(U1-VBUS-Pad40)*%
X127940000Y-103048000D03*
%TD*%
D10*
%TO.P,J2,1*%
%TO.N,/Y10*%
X151816000Y-115240000D03*
D11*
%TO.P,J2,2*%
%TO.N,/X1*%
X151816000Y-117780000D03*
%TO.P,J2,3*%
%TO.N,/X2*%
X151816000Y-120320000D03*
%TO.P,J2,4*%
%TO.N,/X3*%
X151816000Y-122860000D03*
%TO.P,J2,5*%
%TO.N,/X4*%
X151816000Y-125400000D03*
%TO.P,J2,6*%
%TO.N,/X5*%
X151816000Y-127940000D03*
%TO.P,J2,7*%
%TO.N,/X6*%
X151816000Y-130480000D03*
%TO.P,J2,8*%
%TO.N,/X7*%
X151816000Y-133020000D03*
%TO.P,J2,9*%
%TO.N,/X9*%
X151816000Y-135560000D03*
%TO.P,J2,10*%
%TO.N,unconnected-(J2-Pin_10-Pad10)*%
X151816000Y-138100000D03*
%TD*%
D16*
%TO.N,/Y10*%
X165651400Y-142848900D03*
%TO.N,/X2*%
X170802800Y-149258300D03*
%TO.N,/X3*%
X167951700Y-150033100D03*
%TO.N,/X4*%
X163837700Y-125400000D03*
%TO.N,/X7*%
X171387000Y-137076000D03*
%TO.N,/Y9*%
X157556900Y-114190200D03*
X134003300Y-115512600D03*
%TO.N,/Y7*%
X161631500Y-117144400D03*
%TO.N,/Y6*%
X148256500Y-115125600D03*
%TO.N,/Y5*%
X149164700Y-111778200D03*
%TO.N,/Y3*%
X143616600Y-113625700D03*
%TO.N,/Y2*%
X143065000Y-112551700D03*
%TO.N,/GND*%
X119000000Y-120000000D03*
%TD*%
%TO.N,/X9*%
D17*
X147960300Y-139415700D02*
X128747700Y-139415700D01*
X151816000Y-135560000D02*
X147960300Y-139415700D01*
X128747700Y-139415700D02*
X127940000Y-138608000D01*
%TO.N,/Y10*%
X162236500Y-144958000D02*
X164345600Y-142848900D01*
X164345600Y-142848900D02*
X165651400Y-142848900D01*
X110160000Y-138608000D02*
X116510000Y-144958000D01*
X116510000Y-144958000D02*
X162236500Y-144958000D01*
%TO.N,/X2*%
X171801100Y-148260000D02*
X173660000Y-148260000D01*
X170802800Y-149258300D02*
X171801100Y-148260000D01*
%TO.N,/X3*%
X108898200Y-152558200D02*
X110237300Y-152558200D01*
X110897600Y-153218500D02*
X110245300Y-152566200D01*
X108898200Y-150029800D02*
X108898200Y-152558200D01*
X167951700Y-150033100D02*
X164766300Y-153218500D01*
X172264800Y-145720000D02*
X167951700Y-150033100D01*
X110160000Y-148768000D02*
X108898200Y-150029800D01*
X173660000Y-145720000D02*
X172264800Y-145720000D01*
X164766300Y-153218500D02*
X110897600Y-153218500D01*
X110237300Y-152558200D02*
X110245300Y-152566200D01*
%TO.N,/X4*%
X151816000Y-125400000D02*
X163837700Y-125400000D01*
X111426500Y-152574500D02*
X110160000Y-151308000D01*
X164205900Y-152574500D02*
X111426500Y-152574500D01*
X173660000Y-143180000D02*
X173600400Y-143180000D01*
X173600400Y-143180000D02*
X164205900Y-152574500D01*
%TO.N,/X5*%
X162992000Y-151308000D02*
X127940000Y-151308000D01*
X173660000Y-140640000D02*
X162992000Y-151308000D01*
%TO.N,/X6*%
X166040000Y-130480000D02*
X151816000Y-130480000D01*
X173660000Y-138100000D02*
X166040000Y-130480000D01*
%TO.N,/X7*%
X153160500Y-137076000D02*
X171387000Y-137076000D01*
X152339200Y-139415500D02*
X152639800Y-139114900D01*
X152639800Y-139114900D02*
X152816000Y-139114900D01*
X153160500Y-138770400D02*
X153160500Y-137076000D01*
X152816000Y-139114900D02*
X153160500Y-138770400D01*
X148066700Y-143688000D02*
X152339200Y-139415500D01*
X127940000Y-143688000D02*
X148066700Y-143688000D01*
X153160500Y-134364500D02*
X151816000Y-133020000D01*
X153160500Y-137076000D02*
X153160500Y-134364500D01*
%TO.N,/Y9*%
X150041900Y-112105600D02*
X155472300Y-112105600D01*
X143180000Y-117780000D02*
X144367500Y-117780000D01*
X143180000Y-117780000D02*
X140912600Y-115512600D01*
X155472300Y-112105600D02*
X157556900Y-114190200D01*
X144367500Y-117780000D02*
X150041900Y-112105600D01*
X140912600Y-115512600D02*
X134003300Y-115512600D01*
%TO.N,/Y8*%
X109656300Y-117018000D02*
X139878000Y-117018000D01*
X110160000Y-130988000D02*
X110023000Y-130988000D01*
X149789800Y-114908300D02*
X149789800Y-114059500D01*
X150540300Y-113309000D02*
X153770100Y-113309000D01*
X107037800Y-128002800D02*
X107037800Y-119636500D01*
X107037800Y-119636500D02*
X109656300Y-117018000D01*
X110023000Y-130988000D02*
X107037800Y-128002800D01*
X144378200Y-120319900D02*
X149789800Y-114908300D01*
X143180000Y-120320000D02*
X144378200Y-120320000D01*
X139878000Y-117018000D02*
X143180000Y-120320000D01*
X162012300Y-116292300D02*
X173660000Y-127940000D01*
X149789800Y-114059500D02*
X150540300Y-113309000D01*
X156753400Y-116292300D02*
X162012300Y-116292300D01*
X144378200Y-120320000D02*
X144378200Y-120319900D01*
X153770100Y-113309000D02*
X156753400Y-116292300D01*
%TO.N,/Y7*%
X110160000Y-128448000D02*
X109957400Y-128448000D01*
X153520900Y-113910700D02*
X156754600Y-117144400D01*
X150391500Y-115157500D02*
X150391500Y-114733000D01*
X156754600Y-117144400D02*
X161631500Y-117144400D01*
X109957400Y-128448000D02*
X108242700Y-126733300D01*
X147660300Y-117888700D02*
X150391500Y-115157500D01*
X150391500Y-114733000D02*
X150391500Y-114308700D01*
X109604400Y-122098000D02*
X143180000Y-122098000D01*
X150789500Y-113910700D02*
X153520900Y-113910700D01*
X147660300Y-117888700D02*
X147660300Y-118011400D01*
X108242700Y-126733300D02*
X108242700Y-123459700D01*
X147660300Y-118011400D02*
X143573700Y-122098000D01*
X150391500Y-114308700D02*
X150789500Y-113910700D01*
X143573700Y-122098000D02*
X143180000Y-122098000D01*
X143180000Y-122098000D02*
X143180000Y-122860000D01*
X108242700Y-123459700D02*
X109604400Y-122098000D01*
%TO.N,/Y6*%
X142418000Y-124638000D02*
X143180000Y-125400000D01*
X156950200Y-115390600D02*
X166190600Y-115390600D01*
X110160000Y-125908000D02*
X111430000Y-124638000D01*
X148256500Y-114741900D02*
X150291100Y-112707300D01*
X166190600Y-115390600D02*
X173660000Y-122860000D01*
X111430000Y-124638000D02*
X142418000Y-124638000D01*
X148256500Y-115125600D02*
X148256500Y-114741900D01*
X154266900Y-112707300D02*
X156950200Y-115390600D01*
X150291100Y-112707300D02*
X154266900Y-112707300D01*
%TO.N,/Y5*%
X109550700Y-127176500D02*
X108866000Y-126491800D01*
X108866000Y-124662000D02*
X110160000Y-123368000D01*
X164843900Y-111503900D02*
X173660000Y-120320000D01*
X149164700Y-111778200D02*
X149439000Y-111503900D01*
X149439000Y-111503900D02*
X164843900Y-111503900D01*
X143180000Y-127940000D02*
X142416500Y-127176500D01*
X108866000Y-126491800D02*
X108866000Y-124662000D01*
X142416500Y-127176500D02*
X109550700Y-127176500D01*
%TO.N,/Y4*%
X143180000Y-130480000D02*
X142416500Y-129716500D01*
X107641000Y-120807000D02*
X110160000Y-118288000D01*
X142416500Y-129716500D02*
X109622200Y-129716500D01*
X109622200Y-129716500D02*
X107641000Y-127735300D01*
X107641000Y-127735300D02*
X107641000Y-120807000D01*
%TO.N,/Y3*%
X128013500Y-114478000D02*
X128033300Y-114497800D01*
X128632200Y-114497800D02*
X129504300Y-113625700D01*
X169322200Y-110902200D02*
X173660000Y-115240000D01*
X143616600Y-113625700D02*
X146340100Y-110902200D01*
X128033300Y-114497800D02*
X128632200Y-114497800D01*
X110160000Y-115748000D02*
X111430000Y-114478000D01*
X129504300Y-113625700D02*
X143616600Y-113625700D01*
X111430000Y-114478000D02*
X128013500Y-114478000D01*
X146340100Y-110902200D02*
X169322200Y-110902200D01*
%TO.N,/Y2*%
X110160000Y-113208000D02*
X111430000Y-111938000D01*
X145317700Y-110299000D02*
X171259000Y-110299000D01*
X143065000Y-112551700D02*
X145317700Y-110299000D01*
X171259000Y-110299000D02*
X173660000Y-112700000D01*
X142451300Y-111938000D02*
X143065000Y-112551700D01*
X111430000Y-111938000D02*
X142451300Y-111938000D01*
%TO.N,/Y1*%
X128887500Y-109260000D02*
X172760000Y-109260000D01*
X172760000Y-109260000D02*
X173660000Y-110160000D01*
X110160000Y-110668000D02*
X111432700Y-109395300D01*
X128435200Y-109395300D02*
X128570500Y-109260000D01*
X110160000Y-110668000D02*
X106391700Y-114436300D01*
X109611500Y-132260700D02*
X137340700Y-132260700D01*
X137340700Y-132260700D02*
X143180000Y-138100000D01*
X111432700Y-109395300D02*
X128435200Y-109395300D01*
X106391700Y-129040900D02*
X109611500Y-132260700D01*
X106391700Y-114436300D02*
X106391700Y-129040900D01*
X128570500Y-109260000D02*
X128887500Y-109260000D01*
%TO.N,/GND*%
X127940000Y-146228000D02*
X110160000Y-146228000D01*
X127940000Y-133528000D02*
X110160000Y-133528000D01*
X127940000Y-108128000D02*
X110160000Y-108128000D01*
%TD*%
%TA.AperFunction,Conductor*%
%TO.N,/GND*%
G36*
X109227743Y-119959873D02*
G01*
X109283676Y-120001745D01*
X109308093Y-120067209D01*
X109293241Y-120135482D01*
X109286546Y-120145953D01*
X109286692Y-120146051D01*
X109197455Y-120279602D01*
X109197449Y-120279612D01*
X109169266Y-120332338D01*
X109108960Y-120477927D01*
X109091601Y-120535151D01*
X109060858Y-120689714D01*
X109060858Y-120689718D01*
X109055000Y-120749208D01*
X109055000Y-120906791D01*
X109060858Y-120966281D01*
X109060858Y-120966285D01*
X109091601Y-121120848D01*
X109108960Y-121178072D01*
X109169266Y-121323661D01*
X109197449Y-121376387D01*
X109197455Y-121376397D01*
X109270341Y-121485478D01*
X109315370Y-121460495D01*
X109716328Y-121059537D01*
X109759901Y-121135007D01*
X109852993Y-121228099D01*
X109928460Y-121271670D01*
X109578886Y-121621245D01*
X109523299Y-121653339D01*
X109437568Y-121676310D01*
X109437564Y-121676311D01*
X109430514Y-121678201D01*
X109340686Y-121730061D01*
X109340591Y-121730115D01*
X109327789Y-121737507D01*
X109327784Y-121737511D01*
X108303181Y-122762115D01*
X108241858Y-122795600D01*
X108172166Y-122790616D01*
X108116233Y-122748744D01*
X108091816Y-122683280D01*
X108091500Y-122674434D01*
X108091500Y-121044964D01*
X108111185Y-120977925D01*
X108127814Y-120957288D01*
X109096728Y-119988373D01*
X109158051Y-119954889D01*
X109227743Y-119959873D01*
G37*
%TD.AperFunction*%
%TA.AperFunction,Conductor*%
G36*
X126998784Y-117488185D02*
G01*
X127044539Y-117540989D01*
X127054483Y-117610147D01*
X127032063Y-117665386D01*
X126998768Y-117711211D01*
X126920128Y-117865552D01*
X126866597Y-118030302D01*
X126849145Y-118140490D01*
X126839500Y-118201389D01*
X126839500Y-118374611D01*
X126866598Y-118545701D01*
X126920127Y-118710445D01*
X126998768Y-118864788D01*
X127100586Y-119004928D01*
X127223072Y-119127414D01*
X127363212Y-119229232D01*
X127517555Y-119307873D01*
X127682299Y-119361402D01*
X127853389Y-119388500D01*
X127853390Y-119388500D01*
X128026610Y-119388500D01*
X128026611Y-119388500D01*
X128197701Y-119361402D01*
X128362445Y-119307873D01*
X128516788Y-119229232D01*
X128656928Y-119127414D01*
X128779414Y-119004928D01*
X128881232Y-118864788D01*
X128959873Y-118710445D01*
X129013402Y-118545701D01*
X129040500Y-118374611D01*
X129040500Y-118201389D01*
X129013402Y-118030299D01*
X128959873Y-117865555D01*
X128881232Y-117711212D01*
X128847936Y-117665385D01*
X128824457Y-117599580D01*
X128840282Y-117531526D01*
X128890388Y-117482831D01*
X128948255Y-117468500D01*
X139640035Y-117468500D01*
X139707074Y-117488185D01*
X139727716Y-117504819D01*
X142056984Y-119834087D01*
X142090469Y-119895410D01*
X142087235Y-119960084D01*
X142057828Y-120050592D01*
X142029500Y-120229448D01*
X142029500Y-120410551D01*
X142057829Y-120589410D01*
X142113787Y-120761636D01*
X142113788Y-120761639D01*
X142196006Y-120922997D01*
X142302441Y-121069494D01*
X142302445Y-121069499D01*
X142430500Y-121197554D01*
X142430505Y-121197558D01*
X142472542Y-121228099D01*
X142577006Y-121303996D01*
X142682484Y-121357740D01*
X142738360Y-121386211D01*
X142738366Y-121386213D01*
X142797938Y-121405569D01*
X142855614Y-121445006D01*
X142882813Y-121509364D01*
X142870899Y-121578211D01*
X142823655Y-121629687D01*
X142759621Y-121647500D01*
X128953990Y-121647500D01*
X128886951Y-121627815D01*
X128841196Y-121575011D01*
X128831252Y-121505853D01*
X128850888Y-121454609D01*
X128902957Y-121376681D01*
X128902957Y-121376680D01*
X128902965Y-121376669D01*
X128931196Y-121323852D01*
X128991502Y-121178261D01*
X129008887Y-121120950D01*
X129039630Y-120966392D01*
X129045500Y-120906793D01*
X129045500Y-120749207D01*
X129039630Y-120689608D01*
X129008887Y-120535050D01*
X128991502Y-120477739D01*
X128931196Y-120332148D01*
X128902965Y-120279331D01*
X128902961Y-120279325D01*
X128902957Y-120279318D01*
X128815420Y-120148311D01*
X128815415Y-120148303D01*
X128777422Y-120102009D01*
X128777421Y-120102008D01*
X128777417Y-120102003D01*
X128665996Y-119990582D01*
X128622264Y-119954692D01*
X128619697Y-119952585D01*
X128617961Y-119951425D01*
X128488681Y-119865042D01*
X128488674Y-119865038D01*
X128488671Y-119865036D01*
X128488669Y-119865035D01*
X128435852Y-119836804D01*
X128435845Y-119836801D01*
X128290266Y-119776499D01*
X128268108Y-119769778D01*
X128232950Y-119759113D01*
X128078392Y-119728370D01*
X128078388Y-119728369D01*
X128078380Y-119728368D01*
X128030354Y-119723638D01*
X128018793Y-119722500D01*
X127300218Y-119722500D01*
X127294103Y-119722570D01*
X127293161Y-119722581D01*
X127183309Y-119745753D01*
X127183308Y-119745754D01*
X127109843Y-119776183D01*
X127103312Y-119778977D01*
X127010688Y-119842426D01*
X126954406Y-119898709D01*
X126949492Y-119903737D01*
X126888204Y-119997796D01*
X126888202Y-119997799D01*
X126857739Y-120071345D01*
X126855130Y-120077857D01*
X126834500Y-120188219D01*
X126834500Y-121467769D01*
X126834581Y-121474838D01*
X126834581Y-121474839D01*
X126839447Y-121497907D01*
X126834023Y-121567566D01*
X126791800Y-121623234D01*
X126726183Y-121647237D01*
X126718117Y-121647500D01*
X111380732Y-121647500D01*
X111313693Y-121627815D01*
X111267938Y-121575011D01*
X111257994Y-121505853D01*
X111258844Y-121500714D01*
X111264999Y-121467786D01*
X111265000Y-121467781D01*
X111265000Y-120188232D01*
X111264918Y-120181173D01*
X111241785Y-120071504D01*
X111211309Y-119997927D01*
X111208580Y-119991551D01*
X111208579Y-119991551D01*
X110603670Y-120596460D01*
X110560099Y-120520993D01*
X110467007Y-120427901D01*
X110391538Y-120384329D01*
X110995575Y-119780293D01*
X110995574Y-119780291D01*
X110990010Y-119776664D01*
X110916506Y-119746219D01*
X110909961Y-119743596D01*
X110799780Y-119723000D01*
X110081209Y-119723000D01*
X110021718Y-119728858D01*
X110021714Y-119728858D01*
X109867151Y-119759601D01*
X109809927Y-119776960D01*
X109664338Y-119837266D01*
X109611612Y-119865449D01*
X109611602Y-119865455D01*
X109478051Y-119954692D01*
X109477386Y-119953698D01*
X109416257Y-119976137D01*
X109348062Y-119960931D01*
X109298914Y-119911269D01*
X109284418Y-119842920D01*
X109309175Y-119777583D01*
X109320364Y-119764737D01*
X109713770Y-119371331D01*
X109775091Y-119337848D01*
X109839764Y-119341082D01*
X109902299Y-119361402D01*
X110073389Y-119388500D01*
X110073390Y-119388500D01*
X110246610Y-119388500D01*
X110246611Y-119388500D01*
X110417701Y-119361402D01*
X110582445Y-119307873D01*
X110736788Y-119229232D01*
X110876928Y-119127414D01*
X110999414Y-119004928D01*
X111101232Y-118864788D01*
X111179873Y-118710445D01*
X111233402Y-118545701D01*
X111260500Y-118374611D01*
X111260500Y-118201389D01*
X111233402Y-118030299D01*
X111179873Y-117865555D01*
X111101232Y-117711212D01*
X111067936Y-117665385D01*
X111044457Y-117599580D01*
X111060282Y-117531526D01*
X111110388Y-117482831D01*
X111168255Y-117468500D01*
X126931745Y-117468500D01*
X126998784Y-117488185D01*
G37*
%TD.AperFunction*%
%TA.AperFunction,Conductor*%
G36*
X172443039Y-100520185D02*
G01*
X172488794Y-100572989D01*
X172500000Y-100624500D01*
X172500000Y-107500000D01*
X179375500Y-107500000D01*
X179442539Y-107519685D01*
X179488294Y-107572489D01*
X179499500Y-107624000D01*
X179499500Y-158376000D01*
X179479815Y-158443039D01*
X179427011Y-158488794D01*
X179375500Y-158500000D01*
X172500000Y-158500000D01*
X172500000Y-165375500D01*
X172480315Y-165442539D01*
X172427511Y-165488294D01*
X172376000Y-165499500D01*
X107624000Y-165499500D01*
X107556961Y-165479815D01*
X107511206Y-165427011D01*
X107500000Y-165375500D01*
X107500000Y-158500000D01*
X100624500Y-158500000D01*
X100557461Y-158480315D01*
X100511706Y-158427511D01*
X100500500Y-158376000D01*
X100500500Y-146149208D01*
X109055000Y-146149208D01*
X109055000Y-146306791D01*
X109060858Y-146366281D01*
X109060858Y-146366285D01*
X109091601Y-146520848D01*
X109108960Y-146578072D01*
X109169266Y-146723661D01*
X109197449Y-146776387D01*
X109197455Y-146776397D01*
X109278371Y-146897495D01*
X109716329Y-146459538D01*
X109759901Y-146535007D01*
X109852993Y-146628099D01*
X109928460Y-146671670D01*
X109490502Y-147109628D01*
X109611602Y-147190544D01*
X109611612Y-147190550D01*
X109664338Y-147218733D01*
X109809927Y-147279039D01*
X109867151Y-147296398D01*
X110021716Y-147327141D01*
X110081209Y-147333000D01*
X110799768Y-147333000D01*
X110806826Y-147332918D01*
X110916499Y-147309784D01*
X110916500Y-147309783D01*
X110989989Y-147279343D01*
X110996448Y-147276579D01*
X110391539Y-146671670D01*
X110467007Y-146628099D01*
X110560099Y-146535007D01*
X110603670Y-146459538D01*
X111207706Y-147063574D01*
X111207708Y-147063574D01*
X111211330Y-147058016D01*
X111211337Y-147058003D01*
X111241762Y-146984549D01*
X111244403Y-146977961D01*
X111265000Y-146867779D01*
X111265000Y-145588232D01*
X111264918Y-145581173D01*
X111241785Y-145471504D01*
X111211309Y-145397927D01*
X111208580Y-145391551D01*
X111208579Y-145391551D01*
X110603670Y-145996460D01*
X110560099Y-145920993D01*
X110467007Y-145827901D01*
X110391539Y-145784329D01*
X110995575Y-145180293D01*
X110995574Y-145180291D01*
X110990010Y-145176664D01*
X110916506Y-145146219D01*
X110909961Y-145143596D01*
X110799780Y-145123000D01*
X110081209Y-145123000D01*
X110021718Y-145128858D01*
X110021714Y-145128858D01*
X109867151Y-145159601D01*
X109809927Y-145176960D01*
X109664338Y-145237266D01*
X109611612Y-145265449D01*
X109611607Y-145265452D01*
X109490503Y-145346370D01*
X109490503Y-145346371D01*
X109928461Y-145784329D01*
X109852993Y-145827901D01*
X109759901Y-145920993D01*
X109716329Y-145996461D01*
X109278371Y-145558503D01*
X109278370Y-145558503D01*
X109197452Y-145679607D01*
X109197449Y-145679612D01*
X109169266Y-145732338D01*
X109108960Y-145877927D01*
X109091601Y-145935151D01*
X109060858Y-146089714D01*
X109060858Y-146089718D01*
X109055000Y-146149208D01*
X100500500Y-146149208D01*
X100500500Y-143601389D01*
X109059500Y-143601389D01*
X109059500Y-143774611D01*
X109086598Y-143945701D01*
X109140127Y-144110445D01*
X109218768Y-144264788D01*
X109320586Y-144404928D01*
X109443072Y-144527414D01*
X109583212Y-144629232D01*
X109737555Y-144707873D01*
X109902299Y-144761402D01*
X110073389Y-144788500D01*
X110073390Y-144788500D01*
X110246610Y-144788500D01*
X110246611Y-144788500D01*
X110417701Y-144761402D01*
X110582445Y-144707873D01*
X110736788Y-144629232D01*
X110876928Y-144527414D01*
X110999414Y-144404928D01*
X111101232Y-144264788D01*
X111179873Y-144110445D01*
X111233402Y-143945701D01*
X111260500Y-143774611D01*
X111260500Y-143601389D01*
X111233402Y-143430299D01*
X111179873Y-143265555D01*
X111101232Y-143111212D01*
X110999414Y-142971072D01*
X110876928Y-142848586D01*
X110736788Y-142746768D01*
X110582445Y-142668127D01*
X110417701Y-142614598D01*
X110417699Y-142614597D01*
X110417698Y-142614597D01*
X110286271Y-142593781D01*
X110246611Y-142587500D01*
X110073389Y-142587500D01*
X110033728Y-142593781D01*
X109902302Y-142614597D01*
X109737552Y-142668128D01*
X109583211Y-142746768D01*
X109537604Y-142779904D01*
X109443072Y-142848586D01*
X109443070Y-142848588D01*
X109443069Y-142848588D01*
X109320588Y-142971069D01*
X109320588Y-142971070D01*
X109320586Y-142971072D01*
X109276859Y-143031256D01*
X109218768Y-143111211D01*
X109140128Y-143265552D01*
X109086597Y-143430302D01*
X109071998Y-143522478D01*
X109059500Y-143601389D01*
X100500500Y-143601389D01*
X100500500Y-141061389D01*
X109059500Y-141061389D01*
X109059500Y-141234611D01*
X109086598Y-141405701D01*
X109140127Y-141570445D01*
X109218768Y-141724788D01*
X109320586Y-141864928D01*
X109443072Y-141987414D01*
X109583212Y-142089232D01*
X109737555Y-142167873D01*
X109902299Y-142221402D01*
X110073389Y-142248500D01*
X110073390Y-142248500D01*
X110246610Y-142248500D01*
X110246611Y-142248500D01*
X110417701Y-142221402D01*
X110582445Y-142167873D01*
X110736788Y-142089232D01*
X110876928Y-141987414D01*
X110999414Y-141864928D01*
X111101232Y-141724788D01*
X111179873Y-141570445D01*
X111233402Y-141405701D01*
X111260500Y-141234611D01*
X111260500Y-141061389D01*
X111233402Y-140890299D01*
X111179873Y-140725555D01*
X111101232Y-140571212D01*
X110999414Y-140431072D01*
X110876928Y-140308586D01*
X110736788Y-140206768D01*
X110582445Y-140128127D01*
X110417701Y-140074598D01*
X110417699Y-140074597D01*
X110417698Y-140074597D01*
X110286271Y-140053781D01*
X110246611Y-140047500D01*
X110073389Y-140047500D01*
X110033728Y-140053781D01*
X109902302Y-140074597D01*
X109737552Y-140128128D01*
X109583211Y-140206768D01*
X109503256Y-140264859D01*
X109443072Y-140308586D01*
X109443070Y-140308588D01*
X109443069Y-140308588D01*
X109320588Y-140431069D01*
X109320588Y-140431070D01*
X109320586Y-140431072D01*
X109309512Y-140446314D01*
X109218768Y-140571211D01*
X109140128Y-140725552D01*
X109086597Y-140890302D01*
X109083571Y-140909409D01*
X109059500Y-141061389D01*
X100500500Y-141061389D01*
X100500500Y-135981389D01*
X109059500Y-135981389D01*
X109059500Y-136154610D01*
X109080446Y-136286863D01*
X109086598Y-136325701D01*
X109140127Y-136490445D01*
X109218768Y-136644788D01*
X109320586Y-136784928D01*
X109443072Y-136907414D01*
X109583212Y-137009232D01*
X109737555Y-137087873D01*
X109902299Y-137141402D01*
X110073389Y-137168500D01*
X110073390Y-137168500D01*
X110246610Y-137168500D01*
X110246611Y-137168500D01*
X110417701Y-137141402D01*
X110582445Y-137087873D01*
X110736788Y-137009232D01*
X110876928Y-136907414D01*
X110999414Y-136784928D01*
X111101232Y-136644788D01*
X111179873Y-136490445D01*
X111233402Y-136325701D01*
X111260500Y-136154611D01*
X111260500Y-135981389D01*
X126839500Y-135981389D01*
X126839500Y-136154610D01*
X126860446Y-136286863D01*
X126866598Y-136325701D01*
X126920127Y-136490445D01*
X126998768Y-136644788D01*
X127100586Y-136784928D01*
X127223072Y-136907414D01*
X127363212Y-137009232D01*
X127517555Y-137087873D01*
X127682299Y-137141402D01*
X127853389Y-137168500D01*
X127853390Y-137168500D01*
X128026610Y-137168500D01*
X128026611Y-137168500D01*
X128197701Y-137141402D01*
X128362445Y-137087873D01*
X128516788Y-137009232D01*
X128656928Y-136907414D01*
X128779414Y-136784928D01*
X128881232Y-136644788D01*
X128959873Y-136490445D01*
X129013402Y-136325701D01*
X129040500Y-136154611D01*
X129040500Y-135981389D01*
X129013402Y-135810299D01*
X128959873Y-135645555D01*
X128881232Y-135491212D01*
X128779414Y-135351072D01*
X128656928Y-135228586D01*
X128516788Y-135126768D01*
X128362445Y-135048127D01*
X128197701Y-134994598D01*
X128197699Y-134994597D01*
X128197698Y-134994597D01*
X128066271Y-134973781D01*
X128026611Y-134967500D01*
X127853389Y-134967500D01*
X127813728Y-134973781D01*
X127682302Y-134994597D01*
X127517552Y-135048128D01*
X127363211Y-135126768D01*
X127283256Y-135184859D01*
X127223072Y-135228586D01*
X127223070Y-135228588D01*
X127223069Y-135228588D01*
X127100588Y-135351069D01*
X127100588Y-135351070D01*
X127100586Y-135351072D01*
X127056859Y-135411256D01*
X126998768Y-135491211D01*
X126920128Y-135645552D01*
X126866597Y-135810302D01*
X126839500Y-135981389D01*
X111260500Y-135981389D01*
X111233402Y-135810299D01*
X111179873Y-135645555D01*
X111101232Y-135491212D01*
X110999414Y-135351072D01*
X110876928Y-135228586D01*
X110736788Y-135126768D01*
X110582445Y-135048127D01*
X110417701Y-134994598D01*
X110417699Y-134994597D01*
X110417698Y-134994597D01*
X110286271Y-134973781D01*
X110246611Y-134967500D01*
X110073389Y-134967500D01*
X110033728Y-134973781D01*
X109902302Y-134994597D01*
X109737552Y-135048128D01*
X109583211Y-135126768D01*
X109503256Y-135184859D01*
X109443072Y-135228586D01*
X109443070Y-135228588D01*
X109443069Y-135228588D01*
X109320588Y-135351069D01*
X109320588Y-135351070D01*
X109320586Y-135351072D01*
X109276859Y-135411256D01*
X109218768Y-135491211D01*
X109140128Y-135645552D01*
X109086597Y-135810302D01*
X109059500Y-135981389D01*
X100500500Y-135981389D01*
X100500500Y-114376991D01*
X105941200Y-114376991D01*
X105941200Y-129100209D01*
X105956523Y-129157394D01*
X105971901Y-129214787D01*
X106031211Y-129317514D01*
X109334886Y-132621190D01*
X109437613Y-132680499D01*
X109461821Y-132686984D01*
X109461824Y-132686986D01*
X109461825Y-132686986D01*
X109494875Y-132695841D01*
X109524389Y-132703750D01*
X109579976Y-132735844D01*
X109928461Y-133084329D01*
X109852993Y-133127901D01*
X109759901Y-133220993D01*
X109716329Y-133296461D01*
X109314634Y-132894766D01*
X109270735Y-132869930D01*
X109197452Y-132979607D01*
X109197449Y-132979612D01*
X109169266Y-133032338D01*
X109108960Y-133177927D01*
X109091601Y-133235151D01*
X109060858Y-133389714D01*
X109060858Y-133389718D01*
X109055000Y-133449208D01*
X109055000Y-133606791D01*
X109060858Y-133666281D01*
X109060858Y-133666285D01*
X109091601Y-133820848D01*
X109108960Y-133878072D01*
X109169266Y-134023661D01*
X109197449Y-134076387D01*
X109197455Y-134076397D01*
X109278371Y-134197495D01*
X109716329Y-133759538D01*
X109759901Y-133835007D01*
X109852993Y-133928099D01*
X109928460Y-133971670D01*
X109490502Y-134409628D01*
X109611602Y-134490544D01*
X109611612Y-134490550D01*
X109664338Y-134518733D01*
X109809927Y-134579039D01*
X109867151Y-134596398D01*
X110021716Y-134627141D01*
X110081209Y-134633000D01*
X110799768Y-134633000D01*
X110806826Y-134632918D01*
X110916499Y-134609784D01*
X110916500Y-134609783D01*
X110989989Y-134579343D01*
X110996448Y-134576579D01*
X110391539Y-133971670D01*
X110467007Y-133928099D01*
X110560099Y-133835007D01*
X110603670Y-133759538D01*
X111207706Y-134363574D01*
X111207708Y-134363574D01*
X111211330Y-134358016D01*
X111211337Y-134358003D01*
X111241762Y-134284549D01*
X111244403Y-134277961D01*
X111265000Y-134167779D01*
X111265000Y-132888232D01*
X111264918Y-132881173D01*
X111260620Y-132860794D01*
X111266044Y-132791135D01*
X111308266Y-132735467D01*
X111373883Y-132711463D01*
X111381950Y-132711200D01*
X126718763Y-132711200D01*
X126785802Y-132730885D01*
X126831557Y-132783689D01*
X126841501Y-132852847D01*
X126840652Y-132857985D01*
X126835000Y-132888220D01*
X126835000Y-134167767D01*
X126835081Y-134174826D01*
X126858215Y-134284497D01*
X126888651Y-134357976D01*
X126891419Y-134364447D01*
X127496329Y-133759538D01*
X127539901Y-133835007D01*
X127632993Y-133928099D01*
X127708460Y-133971670D01*
X127104423Y-134575706D01*
X127109989Y-134579334D01*
X127183525Y-134609792D01*
X127190038Y-134612403D01*
X127300220Y-134633000D01*
X128018791Y-134633000D01*
X128078281Y-134627141D01*
X128078285Y-134627141D01*
X128232848Y-134596398D01*
X128290072Y-134579039D01*
X128435661Y-134518733D01*
X128488387Y-134490550D01*
X128488397Y-134490544D01*
X128609496Y-134409628D01*
X128171538Y-133971670D01*
X128247007Y-133928099D01*
X128340099Y-133835007D01*
X128383670Y-133759538D01*
X128821628Y-134197496D01*
X128902544Y-134076397D01*
X128902550Y-134076387D01*
X128930733Y-134023661D01*
X128991039Y-133878072D01*
X129008398Y-133820848D01*
X129039141Y-133666285D01*
X129039141Y-133666281D01*
X129045000Y-133606791D01*
X129045000Y-133449208D01*
X129039141Y-133389718D01*
X129039141Y-133389714D01*
X129008398Y-133235151D01*
X128991039Y-133177927D01*
X128930733Y-133032338D01*
X128902550Y-132979612D01*
X128902544Y-132979602D01*
X128852089Y-132904091D01*
X128831211Y-132837414D01*
X128849695Y-132770033D01*
X128901674Y-132723343D01*
X128955191Y-132711200D01*
X137102735Y-132711200D01*
X137169774Y-132730885D01*
X137190416Y-132747519D01*
X142056984Y-137614087D01*
X142090469Y-137675410D01*
X142087235Y-137740084D01*
X142057828Y-137830592D01*
X142029500Y-138009448D01*
X142029500Y-138190551D01*
X142057829Y-138369410D01*
X142113787Y-138541636D01*
X142113788Y-138541639D01*
X142196003Y-138702993D01*
X142243462Y-138768315D01*
X142266941Y-138834122D01*
X142251115Y-138902176D01*
X142201009Y-138950870D01*
X142143143Y-138965200D01*
X129142828Y-138965200D01*
X129075789Y-138945515D01*
X129030034Y-138892711D01*
X129020090Y-138823553D01*
X129020355Y-138821802D01*
X129040500Y-138694610D01*
X129040500Y-138521389D01*
X129013402Y-138350299D01*
X128959873Y-138185555D01*
X128881232Y-138031212D01*
X128779414Y-137891072D01*
X128656928Y-137768586D01*
X128516788Y-137666768D01*
X128362445Y-137588127D01*
X128197701Y-137534598D01*
X128197699Y-137534597D01*
X128197698Y-137534597D01*
X128066271Y-137513781D01*
X128026611Y-137507500D01*
X127853389Y-137507500D01*
X127813728Y-137513781D01*
X127682302Y-137534597D01*
X127517552Y-137588128D01*
X127363211Y-137666768D01*
X127283256Y-137724859D01*
X127223072Y-137768586D01*
X127223070Y-137768588D01*
X127223069Y-137768588D01*
X127100588Y-137891069D01*
X127100588Y-137891070D01*
X127100586Y-137891072D01*
X127056859Y-137951256D01*
X126998768Y-138031211D01*
X126920128Y-138185552D01*
X126866597Y-138350302D01*
X126839500Y-138521389D01*
X126839500Y-138694610D01*
X126866597Y-138865697D01*
X126866597Y-138865699D01*
X126866598Y-138865701D01*
X126920127Y-139030445D01*
X126998768Y-139184788D01*
X127100586Y-139324928D01*
X127223072Y-139447414D01*
X127363212Y-139549232D01*
X127517555Y-139627873D01*
X127682299Y-139681402D01*
X127853389Y-139708500D01*
X127853390Y-139708500D01*
X128026610Y-139708500D01*
X128026611Y-139708500D01*
X128197701Y-139681402D01*
X128260231Y-139661083D01*
X128330070Y-139659087D01*
X128386230Y-139691333D01*
X128471086Y-139776189D01*
X128471087Y-139776190D01*
X128471089Y-139776191D01*
X128530393Y-139810429D01*
X128530396Y-139810432D01*
X128564637Y-139830200D01*
X128573814Y-139835499D01*
X128688391Y-139866200D01*
X128688394Y-139866200D01*
X148019608Y-139866200D01*
X148019609Y-139866200D01*
X148109973Y-139841986D01*
X148134187Y-139835499D01*
X148236914Y-139776189D01*
X150606586Y-137406515D01*
X150667907Y-137373032D01*
X150737599Y-137378016D01*
X150793532Y-137419888D01*
X150817949Y-137485352D01*
X150804750Y-137550493D01*
X150749789Y-137658360D01*
X150749787Y-137658363D01*
X150693829Y-137830589D01*
X150665500Y-138009448D01*
X150665500Y-138190551D01*
X150693829Y-138369410D01*
X150749787Y-138541636D01*
X150749788Y-138541639D01*
X150805664Y-138651300D01*
X150832003Y-138702993D01*
X150832006Y-138702997D01*
X150938441Y-138849494D01*
X150938445Y-138849499D01*
X151066500Y-138977554D01*
X151066505Y-138977558D01*
X151162103Y-139047013D01*
X151213006Y-139083996D01*
X151318484Y-139137740D01*
X151374360Y-139166211D01*
X151374363Y-139166212D01*
X151546590Y-139222171D01*
X151578701Y-139227256D01*
X151607362Y-139231796D01*
X151670497Y-139261725D01*
X151707429Y-139321036D01*
X151706431Y-139390898D01*
X151675646Y-139441950D01*
X147916416Y-143201181D01*
X147855093Y-143234666D01*
X147828735Y-143237500D01*
X129021565Y-143237500D01*
X128954526Y-143217815D01*
X128911081Y-143169795D01*
X128881232Y-143111212D01*
X128881231Y-143111211D01*
X128881229Y-143111207D01*
X128839104Y-143053228D01*
X128779414Y-142971072D01*
X128656928Y-142848586D01*
X128516788Y-142746768D01*
X128362445Y-142668127D01*
X128197701Y-142614598D01*
X128197699Y-142614597D01*
X128197698Y-142614597D01*
X128066271Y-142593781D01*
X128026611Y-142587500D01*
X127853389Y-142587500D01*
X127813728Y-142593781D01*
X127682302Y-142614597D01*
X127517552Y-142668128D01*
X127363211Y-142746768D01*
X127317604Y-142779904D01*
X127223072Y-142848586D01*
X127223070Y-142848588D01*
X127223069Y-142848588D01*
X127100588Y-142971069D01*
X127100588Y-142971070D01*
X127100586Y-142971072D01*
X127056859Y-143031256D01*
X126998768Y-143111211D01*
X126920128Y-143265552D01*
X126866597Y-143430302D01*
X126851998Y-143522478D01*
X126839500Y-143601389D01*
X126839500Y-143774611D01*
X126866598Y-143945701D01*
X126920127Y-144110445D01*
X126998768Y-144264788D01*
X127025928Y-144302171D01*
X127032063Y-144310614D01*
X127055543Y-144376420D01*
X127039718Y-144444474D01*
X126989612Y-144493169D01*
X126931745Y-144507500D01*
X116747965Y-144507500D01*
X116680926Y-144487815D01*
X116660284Y-144471181D01*
X113250492Y-141061389D01*
X126839500Y-141061389D01*
X126839500Y-141234611D01*
X126866598Y-141405701D01*
X126920127Y-141570445D01*
X126998768Y-141724788D01*
X127100586Y-141864928D01*
X127223072Y-141987414D01*
X127363212Y-142089232D01*
X127517555Y-142167873D01*
X127682299Y-142221402D01*
X127853389Y-142248500D01*
X127853390Y-142248500D01*
X128026610Y-142248500D01*
X128026611Y-142248500D01*
X128197701Y-142221402D01*
X128362445Y-142167873D01*
X128516788Y-142089232D01*
X128656928Y-141987414D01*
X128779414Y-141864928D01*
X128881232Y-141724788D01*
X128959873Y-141570445D01*
X129013402Y-141405701D01*
X129040500Y-141234611D01*
X129040500Y-141061389D01*
X129013402Y-140890299D01*
X128959873Y-140725555D01*
X128881232Y-140571212D01*
X128779414Y-140431072D01*
X128656928Y-140308586D01*
X128516788Y-140206768D01*
X128362445Y-140128127D01*
X128197701Y-140074598D01*
X128197699Y-140074597D01*
X128197698Y-140074597D01*
X128066271Y-140053781D01*
X128026611Y-140047500D01*
X127853389Y-140047500D01*
X127813728Y-140053781D01*
X127682302Y-140074597D01*
X127517552Y-140128128D01*
X127363211Y-140206768D01*
X127283256Y-140264859D01*
X127223072Y-140308586D01*
X127223070Y-140308588D01*
X127223069Y-140308588D01*
X127100588Y-140431069D01*
X127100588Y-140431070D01*
X127100586Y-140431072D01*
X127089512Y-140446314D01*
X126998768Y-140571211D01*
X126920128Y-140725552D01*
X126866597Y-140890302D01*
X126863571Y-140909409D01*
X126839500Y-141061389D01*
X113250492Y-141061389D01*
X111243333Y-139054230D01*
X111209848Y-138992907D01*
X111213083Y-138928231D01*
X111233402Y-138865701D01*
X111260500Y-138694611D01*
X111260500Y-138521389D01*
X111233402Y-138350299D01*
X111179873Y-138185555D01*
X111101232Y-138031212D01*
X110999414Y-137891072D01*
X110876928Y-137768586D01*
X110736788Y-137666768D01*
X110582445Y-137588127D01*
X110417701Y-137534598D01*
X110417699Y-137534597D01*
X110417698Y-137534597D01*
X110286271Y-137513781D01*
X110246611Y-137507500D01*
X110073389Y-137507500D01*
X110033728Y-137513781D01*
X109902302Y-137534597D01*
X109737552Y-137588128D01*
X109583211Y-137666768D01*
X109503256Y-137724859D01*
X109443072Y-137768586D01*
X109443070Y-137768588D01*
X109443069Y-137768588D01*
X109320588Y-137891069D01*
X109320588Y-137891070D01*
X109320586Y-137891072D01*
X109276859Y-137951256D01*
X109218768Y-138031211D01*
X109140128Y-138185552D01*
X109086597Y-138350302D01*
X109059500Y-138521389D01*
X109059500Y-138694610D01*
X109086597Y-138865697D01*
X109086597Y-138865699D01*
X109086598Y-138865701D01*
X109140127Y-139030445D01*
X109218768Y-139184788D01*
X109320586Y-139324928D01*
X109443072Y-139447414D01*
X109583212Y-139549232D01*
X109737555Y-139627873D01*
X109902299Y-139681402D01*
X110073389Y-139708500D01*
X110073390Y-139708500D01*
X110246610Y-139708500D01*
X110246611Y-139708500D01*
X110417701Y-139681402D01*
X110480231Y-139661083D01*
X110550070Y-139659087D01*
X110606230Y-139691333D01*
X116233386Y-145318489D01*
X116336113Y-145377799D01*
X116360321Y-145384284D01*
X116360324Y-145384286D01*
X116360325Y-145384286D01*
X116387438Y-145391551D01*
X116450691Y-145408500D01*
X116450693Y-145408500D01*
X126719268Y-145408500D01*
X126786307Y-145428185D01*
X126832062Y-145480989D01*
X126842006Y-145550147D01*
X126841156Y-145555286D01*
X126835000Y-145588213D01*
X126835000Y-146867767D01*
X126835081Y-146874826D01*
X126858215Y-146984497D01*
X126888651Y-147057976D01*
X126891419Y-147064447D01*
X127496329Y-146459538D01*
X127539901Y-146535007D01*
X127632993Y-146628099D01*
X127708460Y-146671670D01*
X127104423Y-147275706D01*
X127109989Y-147279334D01*
X127183525Y-147309792D01*
X127190038Y-147312403D01*
X127300220Y-147333000D01*
X128018791Y-147333000D01*
X128078281Y-147327141D01*
X128078285Y-147327141D01*
X128232848Y-147296398D01*
X128290072Y-147279039D01*
X128435661Y-147218733D01*
X128488387Y-147190550D01*
X128488397Y-147190544D01*
X128609496Y-147109628D01*
X128171538Y-146671670D01*
X128247007Y-146628099D01*
X128340099Y-146535007D01*
X128383670Y-146459538D01*
X128821628Y-146897496D01*
X128902544Y-146776397D01*
X128902550Y-146776387D01*
X128930733Y-146723661D01*
X128991039Y-146578072D01*
X129008398Y-146520848D01*
X129039141Y-146366285D01*
X129039141Y-146366281D01*
X129045000Y-146306791D01*
X129045000Y-146149208D01*
X129039141Y-146089718D01*
X129039141Y-146089714D01*
X129008398Y-145935151D01*
X128991039Y-145877927D01*
X128930733Y-145732338D01*
X128902550Y-145679612D01*
X128902544Y-145679602D01*
X128850285Y-145601391D01*
X128829407Y-145534714D01*
X128847891Y-145467333D01*
X128899870Y-145420643D01*
X128953387Y-145408500D01*
X162295808Y-145408500D01*
X162295809Y-145408500D01*
X162386173Y-145384286D01*
X162410387Y-145377799D01*
X162513114Y-145318489D01*
X164495885Y-143335719D01*
X164557208Y-143302234D01*
X164583566Y-143299400D01*
X165059882Y-143299400D01*
X165126921Y-143319085D01*
X165147558Y-143335714D01*
X165204855Y-143393011D01*
X165204859Y-143393015D01*
X165319582Y-143469671D01*
X165319595Y-143469678D01*
X165447067Y-143522478D01*
X165447072Y-143522480D01*
X165447076Y-143522480D01*
X165447077Y-143522481D01*
X165582404Y-143549400D01*
X165582407Y-143549400D01*
X165720395Y-143549400D01*
X165811441Y-143531289D01*
X165855728Y-143522480D01*
X165983211Y-143469675D01*
X166097942Y-143393014D01*
X166195514Y-143295442D01*
X166272175Y-143180711D01*
X166324980Y-143053228D01*
X166341322Y-142971072D01*
X166351900Y-142917895D01*
X166351900Y-142779904D01*
X166324981Y-142644577D01*
X166324980Y-142644576D01*
X166324980Y-142644572D01*
X166319148Y-142630493D01*
X166272178Y-142517095D01*
X166272171Y-142517082D01*
X166195514Y-142402358D01*
X166195511Y-142402354D01*
X166097945Y-142304788D01*
X166097941Y-142304785D01*
X165983217Y-142228128D01*
X165983204Y-142228121D01*
X165855732Y-142175321D01*
X165855722Y-142175318D01*
X165720395Y-142148400D01*
X165720393Y-142148400D01*
X165582407Y-142148400D01*
X165582405Y-142148400D01*
X165447077Y-142175318D01*
X165447067Y-142175321D01*
X165319595Y-142228121D01*
X165319582Y-142228128D01*
X165204859Y-142304784D01*
X165176211Y-142333432D01*
X165147561Y-142362082D01*
X165086241Y-142395566D01*
X165059882Y-142398400D01*
X164286291Y-142398400D01*
X164195925Y-142422613D01*
X164195924Y-142422612D01*
X164171715Y-142429100D01*
X164171706Y-142429104D01*
X164068992Y-142488405D01*
X164068984Y-142488411D01*
X162086216Y-144471181D01*
X162024893Y-144504666D01*
X161998535Y-144507500D01*
X128948255Y-144507500D01*
X128881216Y-144487815D01*
X128835461Y-144435011D01*
X128825517Y-144365853D01*
X128847937Y-144310614D01*
X128881232Y-144264788D01*
X128911081Y-144206204D01*
X128959053Y-144155410D01*
X129021565Y-144138500D01*
X148126008Y-144138500D01*
X148126009Y-144138500D01*
X148216373Y-144114286D01*
X148240587Y-144107799D01*
X148343314Y-144048489D01*
X152699689Y-139692114D01*
X152758274Y-139633529D01*
X152758274Y-139633528D01*
X152777915Y-139613887D01*
X152790088Y-139601716D01*
X152851412Y-139568233D01*
X152867259Y-139566529D01*
X152867250Y-139566461D01*
X152875303Y-139565400D01*
X152875309Y-139565400D01*
X152965673Y-139541186D01*
X152989887Y-139534699D01*
X153092614Y-139475389D01*
X153520990Y-139047014D01*
X153580299Y-138944286D01*
X153600274Y-138869737D01*
X153611000Y-138829709D01*
X153611000Y-137650500D01*
X153630685Y-137583461D01*
X153683489Y-137537706D01*
X153735000Y-137526500D01*
X170795482Y-137526500D01*
X170862521Y-137546185D01*
X170883158Y-137562814D01*
X170934431Y-137614087D01*
X170940459Y-137620115D01*
X171055182Y-137696771D01*
X171055195Y-137696778D01*
X171182667Y-137749578D01*
X171182672Y-137749580D01*
X171182676Y-137749580D01*
X171182677Y-137749581D01*
X171318004Y-137776500D01*
X171318007Y-137776500D01*
X171455995Y-137776500D01*
X171547041Y-137758389D01*
X171591328Y-137749580D01*
X171718811Y-137696775D01*
X171833542Y-137620114D01*
X171931114Y-137522542D01*
X172007775Y-137407811D01*
X172008311Y-137406517D01*
X172031342Y-137350916D01*
X172075183Y-137296512D01*
X172141477Y-137274447D01*
X172209176Y-137291726D01*
X172233584Y-137310687D01*
X172536984Y-137614087D01*
X172570469Y-137675410D01*
X172567235Y-137740084D01*
X172537828Y-137830592D01*
X172509500Y-138009448D01*
X172509500Y-138190551D01*
X172537829Y-138369410D01*
X172593787Y-138541636D01*
X172593788Y-138541639D01*
X172649664Y-138651300D01*
X172676003Y-138702993D01*
X172676006Y-138702997D01*
X172782441Y-138849494D01*
X172782445Y-138849499D01*
X172910500Y-138977554D01*
X172910505Y-138977558D01*
X173006103Y-139047013D01*
X173057006Y-139083996D01*
X173162484Y-139137740D01*
X173218360Y-139166211D01*
X173218363Y-139166212D01*
X173275536Y-139184788D01*
X173390591Y-139222171D01*
X173463639Y-139233740D01*
X173550678Y-139247527D01*
X173613813Y-139277456D01*
X173650744Y-139336768D01*
X173649746Y-139406631D01*
X173611136Y-139464863D01*
X173550678Y-139492473D01*
X173390589Y-139517829D01*
X173218363Y-139573787D01*
X173218360Y-139573788D01*
X173057002Y-139656006D01*
X172910505Y-139762441D01*
X172910500Y-139762445D01*
X172782445Y-139890500D01*
X172782441Y-139890505D01*
X172676006Y-140037002D01*
X172593788Y-140198360D01*
X172593787Y-140198363D01*
X172537829Y-140370589D01*
X172509500Y-140549448D01*
X172509500Y-140730551D01*
X172537829Y-140909409D01*
X172537830Y-140909416D01*
X172567234Y-140999913D01*
X172569229Y-141069754D01*
X172536984Y-141125911D01*
X162841716Y-150821181D01*
X162780393Y-150854666D01*
X162754035Y-150857500D01*
X129021565Y-150857500D01*
X128954526Y-150837815D01*
X128911081Y-150789795D01*
X128881232Y-150731212D01*
X128881231Y-150731211D01*
X128881229Y-150731207D01*
X128825040Y-150653871D01*
X128779414Y-150591072D01*
X128656928Y-150468586D01*
X128516788Y-150366768D01*
X128487125Y-150351654D01*
X128362447Y-150288128D01*
X128362446Y-150288127D01*
X128362445Y-150288127D01*
X128197701Y-150234598D01*
X128197699Y-150234597D01*
X128197698Y-150234597D01*
X128066271Y-150213781D01*
X128026611Y-150207500D01*
X127853389Y-150207500D01*
X127813728Y-150213781D01*
X127682302Y-150234597D01*
X127517552Y-150288128D01*
X127363211Y-150366768D01*
X127293269Y-150417585D01*
X127223072Y-150468586D01*
X127223070Y-150468588D01*
X127223069Y-150468588D01*
X127100588Y-150591069D01*
X127100588Y-150591070D01*
X127100586Y-150591072D01*
X127056859Y-150651256D01*
X126998768Y-150731211D01*
X126920128Y-150885552D01*
X126866597Y-151050302D01*
X126839500Y-151221389D01*
X126839500Y-151394610D01*
X126866597Y-151565697D01*
X126866597Y-151565699D01*
X126866598Y-151565701D01*
X126920127Y-151730445D01*
X126998768Y-151884788D01*
X127025928Y-151922171D01*
X127029520Y-151927114D01*
X127053000Y-151992920D01*
X127037175Y-152060974D01*
X126987069Y-152109669D01*
X126929202Y-152124000D01*
X111664465Y-152124000D01*
X111597426Y-152104315D01*
X111576784Y-152087681D01*
X111243333Y-151754230D01*
X111209848Y-151692907D01*
X111213083Y-151628231D01*
X111233402Y-151565701D01*
X111260500Y-151394611D01*
X111260500Y-151221389D01*
X111233402Y-151050299D01*
X111179873Y-150885555D01*
X111101232Y-150731212D01*
X110999414Y-150591072D01*
X110876928Y-150468586D01*
X110736788Y-150366768D01*
X110707125Y-150351654D01*
X110582447Y-150288128D01*
X110582446Y-150288127D01*
X110582445Y-150288127D01*
X110417701Y-150234598D01*
X110417699Y-150234597D01*
X110417698Y-150234597D01*
X110286271Y-150213781D01*
X110246611Y-150207500D01*
X110073389Y-150207500D01*
X110033728Y-150213781D01*
X109902302Y-150234597D01*
X109737552Y-150288128D01*
X109583208Y-150366770D01*
X109545585Y-150394105D01*
X109479779Y-150417585D01*
X109411725Y-150401760D01*
X109363030Y-150351654D01*
X109348700Y-150293787D01*
X109348700Y-150267764D01*
X109368385Y-150200725D01*
X109385015Y-150180087D01*
X109713770Y-149851331D01*
X109775091Y-149817848D01*
X109839764Y-149821082D01*
X109902299Y-149841402D01*
X110073389Y-149868500D01*
X110073390Y-149868500D01*
X110246610Y-149868500D01*
X110246611Y-149868500D01*
X110417701Y-149841402D01*
X110582445Y-149787873D01*
X110736788Y-149709232D01*
X110876928Y-149607414D01*
X110999414Y-149484928D01*
X111101232Y-149344788D01*
X111179873Y-149190445D01*
X111233402Y-149025701D01*
X111260500Y-148854611D01*
X111260500Y-148681389D01*
X126839500Y-148681389D01*
X126839500Y-148854611D01*
X126847677Y-148906239D01*
X126866597Y-149025697D01*
X126866597Y-149025699D01*
X126866598Y-149025701D01*
X126920127Y-149190445D01*
X126998768Y-149344788D01*
X127100586Y-149484928D01*
X127223072Y-149607414D01*
X127363212Y-149709232D01*
X127517555Y-149787873D01*
X127682299Y-149841402D01*
X127853389Y-149868500D01*
X127853390Y-149868500D01*
X128026610Y-149868500D01*
X128026611Y-149868500D01*
X128197701Y-149841402D01*
X128362445Y-149787873D01*
X128516788Y-149709232D01*
X128656928Y-149607414D01*
X128779414Y-149484928D01*
X128881232Y-149344788D01*
X128959873Y-149190445D01*
X129013402Y-149025701D01*
X129040500Y-148854611D01*
X129040500Y-148681389D01*
X129013402Y-148510299D01*
X128959873Y-148345555D01*
X128881232Y-148191212D01*
X128779414Y-148051072D01*
X128656928Y-147928586D01*
X128516788Y-147826768D01*
X128362445Y-147748127D01*
X128197701Y-147694598D01*
X128197699Y-147694597D01*
X128197698Y-147694597D01*
X128066271Y-147673781D01*
X128026611Y-147667500D01*
X127853389Y-147667500D01*
X127813728Y-147673781D01*
X127682302Y-147694597D01*
X127517552Y-147748128D01*
X127363211Y-147826768D01*
X127310223Y-147865267D01*
X127223072Y-147928586D01*
X127223070Y-147928588D01*
X127223069Y-147928588D01*
X127100588Y-148051069D01*
X127100588Y-148051070D01*
X127100586Y-148051072D01*
X127056859Y-148111256D01*
X126998768Y-148191211D01*
X126920128Y-148345552D01*
X126866597Y-148510302D01*
X126846448Y-148637521D01*
X126839500Y-148681389D01*
X111260500Y-148681389D01*
X111233402Y-148510299D01*
X111179873Y-148345555D01*
X111101232Y-148191212D01*
X110999414Y-148051072D01*
X110876928Y-147928586D01*
X110736788Y-147826768D01*
X110582445Y-147748127D01*
X110417701Y-147694598D01*
X110417699Y-147694597D01*
X110417698Y-147694597D01*
X110286271Y-147673781D01*
X110246611Y-147667500D01*
X110073389Y-147667500D01*
X110033728Y-147673781D01*
X109902302Y-147694597D01*
X109737552Y-147748128D01*
X109583211Y-147826768D01*
X109530223Y-147865267D01*
X109443072Y-147928586D01*
X109443070Y-147928588D01*
X109443069Y-147928588D01*
X109320588Y-148051069D01*
X109320588Y-148051070D01*
X109320586Y-148051072D01*
X109276859Y-148111256D01*
X109218768Y-148191211D01*
X109140128Y-148345552D01*
X109086597Y-148510302D01*
X109059500Y-148681389D01*
X109059500Y-148854610D01*
X109086597Y-149025698D01*
X109086598Y-149025702D01*
X109106915Y-149088232D01*
X109108910Y-149158073D01*
X109076665Y-149214230D01*
X108537713Y-149753183D01*
X108537711Y-149753186D01*
X108478399Y-149855914D01*
X108472195Y-149879073D01*
X108472195Y-149879074D01*
X108457643Y-149933384D01*
X108447700Y-149970491D01*
X108447700Y-152617509D01*
X108478401Y-152732086D01*
X108537711Y-152834813D01*
X108621587Y-152918689D01*
X108724314Y-152977999D01*
X108838891Y-153008700D01*
X108957509Y-153008700D01*
X109999335Y-153008700D01*
X110066374Y-153028385D01*
X110087016Y-153045019D01*
X110620987Y-153578990D01*
X110620989Y-153578991D01*
X110620993Y-153578994D01*
X110673676Y-153609410D01*
X110723714Y-153638299D01*
X110838291Y-153669000D01*
X110838294Y-153669000D01*
X164825608Y-153669000D01*
X164825609Y-153669000D01*
X164915973Y-153644786D01*
X164940187Y-153638299D01*
X165042914Y-153578989D01*
X167851984Y-150769919D01*
X167913307Y-150736434D01*
X167939665Y-150733600D01*
X168020695Y-150733600D01*
X168142112Y-150709448D01*
X168156028Y-150706680D01*
X168283511Y-150653875D01*
X168398242Y-150577214D01*
X168495814Y-150479642D01*
X168572475Y-150364911D01*
X168625280Y-150237428D01*
X168652200Y-150102093D01*
X168652200Y-150021065D01*
X168671885Y-149954026D01*
X168688519Y-149933384D01*
X172415084Y-146206819D01*
X172476407Y-146173334D01*
X172502765Y-146170500D01*
X172522317Y-146170500D01*
X172589356Y-146190185D01*
X172632801Y-146238204D01*
X172661142Y-146293826D01*
X172676006Y-146322998D01*
X172782441Y-146469494D01*
X172782445Y-146469499D01*
X172910500Y-146597554D01*
X172910505Y-146597558D01*
X172952542Y-146628099D01*
X173057006Y-146703996D01*
X173162484Y-146757740D01*
X173218360Y-146786211D01*
X173218363Y-146786212D01*
X173304476Y-146814191D01*
X173390591Y-146842171D01*
X173463639Y-146853740D01*
X173550678Y-146867527D01*
X173613813Y-146897456D01*
X173650744Y-146956768D01*
X173649746Y-147026631D01*
X173611136Y-147084863D01*
X173550678Y-147112473D01*
X173390589Y-147137829D01*
X173218363Y-147193787D01*
X173218360Y-147193788D01*
X173057002Y-147276006D01*
X172910505Y-147382441D01*
X172910500Y-147382445D01*
X172782445Y-147510500D01*
X172782441Y-147510505D01*
X172676006Y-147657001D01*
X172632802Y-147741795D01*
X172584827Y-147792591D01*
X172522317Y-147809500D01*
X171741791Y-147809500D01*
X171673044Y-147827920D01*
X171627212Y-147840201D01*
X171627207Y-147840204D01*
X171583795Y-147865267D01*
X171583796Y-147865268D01*
X171524489Y-147899508D01*
X171524483Y-147899513D01*
X170902516Y-148521481D01*
X170841193Y-148554966D01*
X170814835Y-148557800D01*
X170733805Y-148557800D01*
X170598477Y-148584718D01*
X170598467Y-148584721D01*
X170470995Y-148637521D01*
X170470982Y-148637528D01*
X170356258Y-148714185D01*
X170356254Y-148714188D01*
X170258688Y-148811754D01*
X170258685Y-148811758D01*
X170182028Y-148926482D01*
X170182021Y-148926495D01*
X170129221Y-149053967D01*
X170129218Y-149053977D01*
X170102300Y-149189304D01*
X170102300Y-149189307D01*
X170102300Y-149327293D01*
X170102300Y-149327295D01*
X170102299Y-149327295D01*
X170129218Y-149462622D01*
X170129221Y-149462632D01*
X170182021Y-149590104D01*
X170182028Y-149590117D01*
X170258685Y-149704841D01*
X170258688Y-149704845D01*
X170356254Y-149802411D01*
X170356258Y-149802414D01*
X170470982Y-149879071D01*
X170470995Y-149879078D01*
X170598467Y-149931878D01*
X170598472Y-149931880D01*
X170598476Y-149931880D01*
X170598477Y-149931881D01*
X170733804Y-149958800D01*
X170733807Y-149958800D01*
X170871795Y-149958800D01*
X170962841Y-149940689D01*
X171007128Y-149931880D01*
X171134611Y-149879075D01*
X171249342Y-149802414D01*
X171346914Y-149704842D01*
X171423575Y-149590111D01*
X171476380Y-149462628D01*
X171503300Y-149327293D01*
X171503300Y-149246265D01*
X171522985Y-149179226D01*
X171539619Y-149158584D01*
X171951384Y-148746819D01*
X172012707Y-148713334D01*
X172039065Y-148710500D01*
X172522317Y-148710500D01*
X172589356Y-148730185D01*
X172632802Y-148778205D01*
X172676006Y-148862998D01*
X172782441Y-149009494D01*
X172782445Y-149009499D01*
X172910500Y-149137554D01*
X172910505Y-149137558D01*
X172989435Y-149194903D01*
X173057006Y-149243996D01*
X173162484Y-149297740D01*
X173218360Y-149326211D01*
X173218363Y-149326212D01*
X173275536Y-149344788D01*
X173390591Y-149382171D01*
X173463639Y-149393740D01*
X173550678Y-149407527D01*
X173613813Y-149437456D01*
X173650744Y-149496768D01*
X173649746Y-149566631D01*
X173611136Y-149624863D01*
X173550678Y-149652473D01*
X173390589Y-149677829D01*
X173218363Y-149733787D01*
X173218360Y-149733788D01*
X173057002Y-149816006D01*
X172910505Y-149922441D01*
X172910500Y-149922445D01*
X172782445Y-150050500D01*
X172782441Y-150050505D01*
X172676006Y-150197002D01*
X172593788Y-150358360D01*
X172593787Y-150358363D01*
X172537829Y-150530589D01*
X172509500Y-150709448D01*
X172509500Y-150890551D01*
X172537829Y-151069410D01*
X172593787Y-151241636D01*
X172593788Y-151241639D01*
X172649664Y-151351300D01*
X172671732Y-151394610D01*
X172676006Y-151402997D01*
X172782441Y-151549494D01*
X172782445Y-151549499D01*
X172910500Y-151677554D01*
X172910505Y-151677558D01*
X173038287Y-151770396D01*
X173057006Y-151783996D01*
X173162484Y-151837740D01*
X173218360Y-151866211D01*
X173218363Y-151866212D01*
X173275536Y-151884788D01*
X173390591Y-151922171D01*
X173463639Y-151933740D01*
X173550678Y-151947527D01*
X173613813Y-151977456D01*
X173650744Y-152036768D01*
X173649746Y-152106631D01*
X173611136Y-152164863D01*
X173550678Y-152192473D01*
X173390589Y-152217829D01*
X173218363Y-152273787D01*
X173218360Y-152273788D01*
X173057002Y-152356006D01*
X172910505Y-152462441D01*
X172910500Y-152462445D01*
X172782445Y-152590500D01*
X172782441Y-152590505D01*
X172676006Y-152737002D01*
X172593788Y-152898360D01*
X172593787Y-152898363D01*
X172537829Y-153070589D01*
X172509500Y-153249448D01*
X172509500Y-153430551D01*
X172537829Y-153609410D01*
X172593787Y-153781636D01*
X172593788Y-153781639D01*
X172676006Y-153942997D01*
X172782441Y-154089494D01*
X172782445Y-154089499D01*
X172910500Y-154217554D01*
X172910505Y-154217558D01*
X173038287Y-154310396D01*
X173057006Y-154323996D01*
X173162484Y-154377740D01*
X173218360Y-154406211D01*
X173218363Y-154406212D01*
X173304476Y-154434191D01*
X173390591Y-154462171D01*
X173494716Y-154478662D01*
X173522270Y-154483027D01*
X173585405Y-154512956D01*
X173622336Y-154572268D01*
X173621338Y-154642130D01*
X173582728Y-154700363D01*
X173518765Y-154728477D01*
X173502872Y-154729500D01*
X172765143Y-154729500D01*
X172765117Y-154729502D01*
X172740012Y-154732413D01*
X172740008Y-154732415D01*
X172637235Y-154777793D01*
X172557794Y-154857234D01*
X172512415Y-154960006D01*
X172512415Y-154960008D01*
X172509500Y-154985131D01*
X172509500Y-156774856D01*
X172509502Y-156774882D01*
X172512413Y-156799987D01*
X172512415Y-156799991D01*
X172557793Y-156902764D01*
X172557794Y-156902765D01*
X172637235Y-156982206D01*
X172740009Y-157027585D01*
X172765135Y-157030500D01*
X174554864Y-157030499D01*
X174554879Y-157030497D01*
X174554882Y-157030497D01*
X174579987Y-157027586D01*
X174579988Y-157027585D01*
X174579991Y-157027585D01*
X174682765Y-156982206D01*
X174762206Y-156902765D01*
X174807585Y-156799991D01*
X174810500Y-156774865D01*
X174810499Y-154985136D01*
X174810497Y-154985117D01*
X174807586Y-154960012D01*
X174807585Y-154960010D01*
X174807585Y-154960009D01*
X174762206Y-154857235D01*
X174682765Y-154777794D01*
X174682763Y-154777793D01*
X174579992Y-154732415D01*
X174554868Y-154729500D01*
X173817128Y-154729500D01*
X173750089Y-154709815D01*
X173704334Y-154657011D01*
X173694390Y-154587853D01*
X173723415Y-154524297D01*
X173782193Y-154486523D01*
X173797730Y-154483027D01*
X173821014Y-154479338D01*
X173929409Y-154462171D01*
X174101639Y-154406211D01*
X174262994Y-154323996D01*
X174409501Y-154217553D01*
X174537553Y-154089501D01*
X174643996Y-153942994D01*
X174726211Y-153781639D01*
X174782171Y-153609409D01*
X174796765Y-153517259D01*
X174810500Y-153430551D01*
X174810500Y-153249448D01*
X174794019Y-153145397D01*
X174782171Y-153070591D01*
X174726211Y-152898361D01*
X174726211Y-152898360D01*
X174693831Y-152834812D01*
X174643996Y-152737006D01*
X174557175Y-152617506D01*
X174537558Y-152590505D01*
X174537554Y-152590500D01*
X174409499Y-152462445D01*
X174409494Y-152462441D01*
X174262997Y-152356006D01*
X174262996Y-152356005D01*
X174262994Y-152356004D01*
X174211300Y-152329664D01*
X174101639Y-152273788D01*
X174101636Y-152273787D01*
X173929410Y-152217829D01*
X173769321Y-152192473D01*
X173706186Y-152162544D01*
X173669255Y-152103232D01*
X173670253Y-152033370D01*
X173708863Y-151975137D01*
X173769321Y-151947527D01*
X173839425Y-151936422D01*
X173929409Y-151922171D01*
X174101639Y-151866211D01*
X174262994Y-151783996D01*
X174409501Y-151677553D01*
X174537553Y-151549501D01*
X174643996Y-151402994D01*
X174726211Y-151241639D01*
X174782171Y-151069409D01*
X174796765Y-150977259D01*
X174810500Y-150890551D01*
X174810500Y-150709448D01*
X174787297Y-150562958D01*
X174782171Y-150530591D01*
X174737825Y-150394105D01*
X174726212Y-150358363D01*
X174726211Y-150358360D01*
X174663150Y-150234598D01*
X174643996Y-150197006D01*
X174630396Y-150178287D01*
X174537558Y-150050505D01*
X174537554Y-150050500D01*
X174409499Y-149922445D01*
X174409494Y-149922441D01*
X174262997Y-149816006D01*
X174262996Y-149816005D01*
X174262994Y-149816004D01*
X174207780Y-149787871D01*
X174101639Y-149733788D01*
X174101636Y-149733787D01*
X173929410Y-149677829D01*
X173769321Y-149652473D01*
X173706186Y-149622544D01*
X173669255Y-149563232D01*
X173670253Y-149493370D01*
X173708863Y-149435137D01*
X173769321Y-149407527D01*
X173839425Y-149396422D01*
X173929409Y-149382171D01*
X174101639Y-149326211D01*
X174262994Y-149243996D01*
X174409501Y-149137553D01*
X174537553Y-149009501D01*
X174643996Y-148862994D01*
X174726211Y-148701639D01*
X174782171Y-148529409D01*
X174796765Y-148437259D01*
X174810500Y-148350551D01*
X174810500Y-148169448D01*
X174791750Y-148051069D01*
X174782171Y-147990591D01*
X174741452Y-147865268D01*
X174726212Y-147818363D01*
X174726211Y-147818360D01*
X174663150Y-147694598D01*
X174643996Y-147657006D01*
X174630396Y-147638287D01*
X174537558Y-147510505D01*
X174537554Y-147510500D01*
X174409499Y-147382445D01*
X174409494Y-147382441D01*
X174262997Y-147276006D01*
X174262996Y-147276005D01*
X174262994Y-147276004D01*
X174211300Y-147249664D01*
X174101639Y-147193788D01*
X174101636Y-147193787D01*
X173929410Y-147137829D01*
X173769321Y-147112473D01*
X173706186Y-147082544D01*
X173669255Y-147023232D01*
X173670253Y-146953370D01*
X173708863Y-146895137D01*
X173769321Y-146867527D01*
X173839425Y-146856422D01*
X173929409Y-146842171D01*
X174101639Y-146786211D01*
X174262994Y-146703996D01*
X174409501Y-146597553D01*
X174537553Y-146469501D01*
X174643996Y-146322994D01*
X174726211Y-146161639D01*
X174782171Y-145989409D01*
X174799828Y-145877927D01*
X174810500Y-145810551D01*
X174810500Y-145629448D01*
X174794019Y-145525397D01*
X174782171Y-145450591D01*
X174748308Y-145346370D01*
X174726212Y-145278363D01*
X174726211Y-145278360D01*
X174697740Y-145222484D01*
X174643996Y-145117006D01*
X174630396Y-145098287D01*
X174537558Y-144970505D01*
X174537554Y-144970500D01*
X174409499Y-144842445D01*
X174409494Y-144842441D01*
X174262997Y-144736006D01*
X174262996Y-144736005D01*
X174262994Y-144736004D01*
X174185764Y-144696653D01*
X174101639Y-144653788D01*
X174101636Y-144653787D01*
X173929410Y-144597829D01*
X173769321Y-144572473D01*
X173706186Y-144542544D01*
X173669255Y-144483232D01*
X173670253Y-144413370D01*
X173708863Y-144355137D01*
X173769321Y-144327527D01*
X173839425Y-144316422D01*
X173929409Y-144302171D01*
X174101639Y-144246211D01*
X174262994Y-144163996D01*
X174409501Y-144057553D01*
X174537553Y-143929501D01*
X174643996Y-143782994D01*
X174726211Y-143621639D01*
X174782171Y-143449409D01*
X174800178Y-143335719D01*
X174810500Y-143270551D01*
X174810500Y-143089448D01*
X174791750Y-142971069D01*
X174782171Y-142910591D01*
X174726211Y-142738361D01*
X174726211Y-142738360D01*
X174678425Y-142644577D01*
X174643996Y-142577006D01*
X174630396Y-142558287D01*
X174537558Y-142430505D01*
X174537554Y-142430500D01*
X174409499Y-142302445D01*
X174409494Y-142302441D01*
X174262997Y-142196006D01*
X174262996Y-142196005D01*
X174262994Y-142196004D01*
X174183244Y-142155369D01*
X174101639Y-142113788D01*
X174101636Y-142113787D01*
X173929410Y-142057829D01*
X173769321Y-142032473D01*
X173706186Y-142002544D01*
X173669255Y-141943232D01*
X173670253Y-141873370D01*
X173708863Y-141815137D01*
X173769321Y-141787527D01*
X173839425Y-141776422D01*
X173929409Y-141762171D01*
X174101639Y-141706211D01*
X174262994Y-141623996D01*
X174409501Y-141517553D01*
X174537553Y-141389501D01*
X174643996Y-141242994D01*
X174726211Y-141081639D01*
X174782171Y-140909409D01*
X174796765Y-140817259D01*
X174810500Y-140730551D01*
X174810500Y-140549448D01*
X174791750Y-140431069D01*
X174782171Y-140370591D01*
X174726211Y-140198361D01*
X174726211Y-140198360D01*
X174663150Y-140074598D01*
X174643996Y-140037006D01*
X174630396Y-140018287D01*
X174537558Y-139890505D01*
X174537554Y-139890500D01*
X174409499Y-139762445D01*
X174409494Y-139762441D01*
X174262997Y-139656006D01*
X174262996Y-139656005D01*
X174262994Y-139656004D01*
X174207780Y-139627871D01*
X174101639Y-139573788D01*
X174101636Y-139573787D01*
X173929410Y-139517829D01*
X173769321Y-139492473D01*
X173706186Y-139462544D01*
X173669255Y-139403232D01*
X173670253Y-139333370D01*
X173708863Y-139275137D01*
X173769321Y-139247527D01*
X173839425Y-139236422D01*
X173929409Y-139222171D01*
X174101639Y-139166211D01*
X174262994Y-139083996D01*
X174409501Y-138977553D01*
X174537553Y-138849501D01*
X174643996Y-138702994D01*
X174726211Y-138541639D01*
X174782171Y-138369409D01*
X174796765Y-138277259D01*
X174810500Y-138190551D01*
X174810500Y-138009448D01*
X174791750Y-137891069D01*
X174782171Y-137830591D01*
X174738691Y-137696771D01*
X174726212Y-137658363D01*
X174726211Y-137658360D01*
X174688047Y-137583461D01*
X174643996Y-137497006D01*
X174579197Y-137407817D01*
X174537558Y-137350505D01*
X174537554Y-137350500D01*
X174409499Y-137222445D01*
X174409494Y-137222441D01*
X174262997Y-137116006D01*
X174262996Y-137116005D01*
X174262994Y-137116004D01*
X174183244Y-137075369D01*
X174101639Y-137033788D01*
X174101636Y-137033787D01*
X173929410Y-136977829D01*
X173769321Y-136952473D01*
X173706186Y-136922544D01*
X173669255Y-136863232D01*
X173670253Y-136793370D01*
X173708863Y-136735137D01*
X173769321Y-136707527D01*
X173839425Y-136696422D01*
X173929409Y-136682171D01*
X174101639Y-136626211D01*
X174262994Y-136543996D01*
X174409501Y-136437553D01*
X174537553Y-136309501D01*
X174643996Y-136162994D01*
X174726211Y-136001639D01*
X174782171Y-135829409D01*
X174796765Y-135737259D01*
X174810500Y-135650551D01*
X174810500Y-135469448D01*
X174791750Y-135351069D01*
X174782171Y-135290591D01*
X174726211Y-135118361D01*
X174726211Y-135118360D01*
X174663150Y-134994598D01*
X174643996Y-134957006D01*
X174554000Y-134833136D01*
X174537558Y-134810505D01*
X174537554Y-134810500D01*
X174409499Y-134682445D01*
X174409494Y-134682441D01*
X174262997Y-134576006D01*
X174262996Y-134576005D01*
X174262994Y-134576004D01*
X174187487Y-134537531D01*
X174101639Y-134493788D01*
X174101636Y-134493787D01*
X173929410Y-134437829D01*
X173769321Y-134412473D01*
X173706186Y-134382544D01*
X173669255Y-134323232D01*
X173670253Y-134253370D01*
X173708863Y-134195137D01*
X173769321Y-134167527D01*
X173839425Y-134156422D01*
X173929409Y-134142171D01*
X174101639Y-134086211D01*
X174262994Y-134003996D01*
X174409501Y-133897553D01*
X174537553Y-133769501D01*
X174643996Y-133622994D01*
X174726211Y-133461639D01*
X174782171Y-133289409D01*
X174799828Y-133177927D01*
X174810500Y-133110551D01*
X174810500Y-132929448D01*
X174794019Y-132825397D01*
X174782171Y-132750591D01*
X174754191Y-132664476D01*
X174726212Y-132578363D01*
X174726211Y-132578360D01*
X174697740Y-132522484D01*
X174643996Y-132417006D01*
X174630396Y-132398287D01*
X174537558Y-132270505D01*
X174537554Y-132270500D01*
X174409499Y-132142445D01*
X174409494Y-132142441D01*
X174262997Y-132036006D01*
X174262996Y-132036005D01*
X174262994Y-132036004D01*
X174211300Y-132009664D01*
X174101639Y-131953788D01*
X174101636Y-131953787D01*
X173929410Y-131897829D01*
X173769321Y-131872473D01*
X173706186Y-131842544D01*
X173669255Y-131783232D01*
X173670253Y-131713370D01*
X173708863Y-131655137D01*
X173769321Y-131627527D01*
X173839425Y-131616422D01*
X173929409Y-131602171D01*
X174101639Y-131546211D01*
X174262994Y-131463996D01*
X174409501Y-131357553D01*
X174537553Y-131229501D01*
X174643996Y-131082994D01*
X174726211Y-130921639D01*
X174782171Y-130749409D01*
X174797961Y-130649712D01*
X174810500Y-130570551D01*
X174810500Y-130389448D01*
X174785249Y-130230026D01*
X174782171Y-130210591D01*
X174726211Y-130038361D01*
X174726211Y-130038360D01*
X174687198Y-129961795D01*
X174643996Y-129877006D01*
X174630396Y-129858287D01*
X174537558Y-129730505D01*
X174537554Y-129730500D01*
X174409499Y-129602445D01*
X174409494Y-129602441D01*
X174262997Y-129496006D01*
X174262996Y-129496005D01*
X174262994Y-129496004D01*
X174211300Y-129469664D01*
X174101639Y-129413788D01*
X174101636Y-129413787D01*
X173929410Y-129357829D01*
X173769321Y-129332473D01*
X173706186Y-129302544D01*
X173669255Y-129243232D01*
X173670253Y-129173370D01*
X173708863Y-129115137D01*
X173769321Y-129087527D01*
X173839425Y-129076422D01*
X173929409Y-129062171D01*
X174101639Y-129006211D01*
X174262994Y-128923996D01*
X174409501Y-128817553D01*
X174537553Y-128689501D01*
X174643996Y-128542994D01*
X174726211Y-128381639D01*
X174782171Y-128209409D01*
X174796765Y-128117259D01*
X174810500Y-128030551D01*
X174810500Y-127849448D01*
X174785249Y-127690026D01*
X174782171Y-127670591D01*
X174742566Y-127548697D01*
X174726212Y-127498363D01*
X174726211Y-127498360D01*
X174697740Y-127442484D01*
X174643996Y-127337006D01*
X174558408Y-127219203D01*
X174537558Y-127190505D01*
X174537554Y-127190500D01*
X174409499Y-127062445D01*
X174409494Y-127062441D01*
X174262997Y-126956006D01*
X174262996Y-126956005D01*
X174262994Y-126956004D01*
X174211300Y-126929664D01*
X174101639Y-126873788D01*
X174101636Y-126873787D01*
X173929410Y-126817829D01*
X173769321Y-126792473D01*
X173706186Y-126762544D01*
X173669255Y-126703232D01*
X173670253Y-126633370D01*
X173708863Y-126575137D01*
X173769321Y-126547527D01*
X173839425Y-126536422D01*
X173929409Y-126522171D01*
X174101639Y-126466211D01*
X174262994Y-126383996D01*
X174409501Y-126277553D01*
X174537553Y-126149501D01*
X174643996Y-126002994D01*
X174726211Y-125841639D01*
X174782171Y-125669409D01*
X174796765Y-125577259D01*
X174810500Y-125490551D01*
X174810500Y-125309448D01*
X174792641Y-125196695D01*
X174782171Y-125130591D01*
X174726211Y-124958361D01*
X174726211Y-124958360D01*
X174685467Y-124878397D01*
X174643996Y-124797006D01*
X174630396Y-124778287D01*
X174537558Y-124650505D01*
X174537554Y-124650500D01*
X174409499Y-124522445D01*
X174409494Y-124522441D01*
X174262997Y-124416006D01*
X174262996Y-124416005D01*
X174262994Y-124416004D01*
X174207780Y-124387871D01*
X174101639Y-124333788D01*
X174101636Y-124333787D01*
X173929410Y-124277829D01*
X173769321Y-124252473D01*
X173706186Y-124222544D01*
X173669255Y-124163232D01*
X173670253Y-124093370D01*
X173708863Y-124035137D01*
X173769321Y-124007527D01*
X173839425Y-123996422D01*
X173929409Y-123982171D01*
X174101639Y-123926211D01*
X174262994Y-123843996D01*
X174409501Y-123737553D01*
X174537553Y-123609501D01*
X174643996Y-123462994D01*
X174726211Y-123301639D01*
X174782171Y-123129409D01*
X174806818Y-122973796D01*
X174810500Y-122950551D01*
X174810500Y-122769448D01*
X174791750Y-122651072D01*
X174782171Y-122590591D01*
X174726211Y-122418361D01*
X174726211Y-122418360D01*
X174697740Y-122362484D01*
X174643996Y-122257006D01*
X174596782Y-122192021D01*
X174537558Y-122110505D01*
X174537554Y-122110500D01*
X174409499Y-121982445D01*
X174409494Y-121982441D01*
X174262997Y-121876006D01*
X174262996Y-121876005D01*
X174262994Y-121876004D01*
X174211300Y-121849664D01*
X174101639Y-121793788D01*
X174101636Y-121793787D01*
X173929410Y-121737829D01*
X173769321Y-121712473D01*
X173706186Y-121682544D01*
X173669255Y-121623232D01*
X173670253Y-121553370D01*
X173708863Y-121495137D01*
X173769321Y-121467527D01*
X173850878Y-121454609D01*
X173929409Y-121442171D01*
X174101639Y-121386211D01*
X174262994Y-121303996D01*
X174409501Y-121197553D01*
X174537553Y-121069501D01*
X174643996Y-120922994D01*
X174726211Y-120761639D01*
X174782171Y-120589409D01*
X174799859Y-120477733D01*
X174810500Y-120410551D01*
X174810500Y-120229448D01*
X174790314Y-120102003D01*
X174782171Y-120050591D01*
X174750327Y-119952585D01*
X174726212Y-119878363D01*
X174726211Y-119878360D01*
X174697740Y-119822484D01*
X174643996Y-119717006D01*
X174630396Y-119698287D01*
X174537558Y-119570505D01*
X174537554Y-119570500D01*
X174409499Y-119442445D01*
X174409494Y-119442441D01*
X174262997Y-119336006D01*
X174262996Y-119336005D01*
X174262994Y-119336004D01*
X174207780Y-119307871D01*
X174101639Y-119253788D01*
X174101636Y-119253787D01*
X173929410Y-119197829D01*
X173769321Y-119172473D01*
X173706186Y-119142544D01*
X173669255Y-119083232D01*
X173670253Y-119013370D01*
X173708863Y-118955137D01*
X173769321Y-118927527D01*
X173839425Y-118916422D01*
X173929409Y-118902171D01*
X174101639Y-118846211D01*
X174262994Y-118763996D01*
X174409501Y-118657553D01*
X174537553Y-118529501D01*
X174643996Y-118382994D01*
X174726211Y-118221639D01*
X174782171Y-118049409D01*
X174796765Y-117957259D01*
X174810500Y-117870551D01*
X174810500Y-117689448D01*
X174791750Y-117571072D01*
X174782171Y-117510591D01*
X174731751Y-117355411D01*
X174726212Y-117338363D01*
X174726211Y-117338360D01*
X174697740Y-117282484D01*
X174643996Y-117177006D01*
X174629940Y-117157659D01*
X174537558Y-117030505D01*
X174537554Y-117030500D01*
X174409499Y-116902445D01*
X174409494Y-116902441D01*
X174262997Y-116796006D01*
X174262996Y-116796005D01*
X174262994Y-116796004D01*
X174211300Y-116769664D01*
X174101639Y-116713788D01*
X174101636Y-116713787D01*
X173929410Y-116657829D01*
X173769321Y-116632473D01*
X173706186Y-116602544D01*
X173669255Y-116543232D01*
X173670253Y-116473370D01*
X173708863Y-116415137D01*
X173769321Y-116387527D01*
X173839425Y-116376422D01*
X173929409Y-116362171D01*
X174101639Y-116306211D01*
X174262994Y-116223996D01*
X174409501Y-116117553D01*
X174537553Y-115989501D01*
X174643996Y-115842994D01*
X174726211Y-115681639D01*
X174782171Y-115509409D01*
X174797805Y-115410697D01*
X174810500Y-115330551D01*
X174810500Y-115149448D01*
X174788031Y-115007589D01*
X174782171Y-114970591D01*
X174745683Y-114858290D01*
X174726212Y-114798363D01*
X174726211Y-114798360D01*
X174693577Y-114734314D01*
X174643996Y-114637006D01*
X174607362Y-114586583D01*
X174537558Y-114490505D01*
X174537554Y-114490500D01*
X174409499Y-114362445D01*
X174409494Y-114362441D01*
X174262997Y-114256006D01*
X174262996Y-114256005D01*
X174262994Y-114256004D01*
X174207780Y-114227871D01*
X174101639Y-114173788D01*
X174101636Y-114173787D01*
X173929410Y-114117829D01*
X173769321Y-114092473D01*
X173706186Y-114062544D01*
X173669255Y-114003232D01*
X173670253Y-113933370D01*
X173708863Y-113875137D01*
X173769321Y-113847527D01*
X173839425Y-113836422D01*
X173929409Y-113822171D01*
X174101639Y-113766211D01*
X174262994Y-113683996D01*
X174409501Y-113577553D01*
X174537553Y-113449501D01*
X174643996Y-113302994D01*
X174726211Y-113141639D01*
X174782171Y-112969409D01*
X174796765Y-112877259D01*
X174810500Y-112790551D01*
X174810500Y-112609448D01*
X174791750Y-112491072D01*
X174782171Y-112430591D01*
X174729284Y-112267819D01*
X174726212Y-112258363D01*
X174726211Y-112258360D01*
X174685467Y-112178397D01*
X174643996Y-112097006D01*
X174598994Y-112035066D01*
X174537558Y-111950505D01*
X174537554Y-111950500D01*
X174409499Y-111822445D01*
X174409494Y-111822441D01*
X174262997Y-111716006D01*
X174262996Y-111716005D01*
X174262994Y-111716004D01*
X174207780Y-111687871D01*
X174101639Y-111633788D01*
X174101636Y-111633787D01*
X173929410Y-111577829D01*
X173769321Y-111552473D01*
X173706186Y-111522544D01*
X173669255Y-111463232D01*
X173670253Y-111393370D01*
X173708863Y-111335137D01*
X173769321Y-111307527D01*
X173839425Y-111296422D01*
X173929409Y-111282171D01*
X174101639Y-111226211D01*
X174262994Y-111143996D01*
X174409501Y-111037553D01*
X174537553Y-110909501D01*
X174643996Y-110762994D01*
X174726211Y-110601639D01*
X174782171Y-110429409D01*
X174796765Y-110337259D01*
X174810500Y-110250551D01*
X174810500Y-110069448D01*
X174788977Y-109933563D01*
X174782171Y-109890591D01*
X174726211Y-109718361D01*
X174726211Y-109718360D01*
X174685467Y-109638397D01*
X174643996Y-109557006D01*
X174630396Y-109538287D01*
X174537558Y-109410505D01*
X174537554Y-109410500D01*
X174409499Y-109282445D01*
X174409494Y-109282441D01*
X174262997Y-109176006D01*
X174262996Y-109176005D01*
X174262994Y-109176004D01*
X174211300Y-109149664D01*
X174101639Y-109093788D01*
X174101636Y-109093787D01*
X173929410Y-109037829D01*
X173750551Y-109009500D01*
X173750546Y-109009500D01*
X173569454Y-109009500D01*
X173569449Y-109009500D01*
X173390592Y-109037828D01*
X173300084Y-109067235D01*
X173230243Y-109069229D01*
X173174087Y-109036984D01*
X173036616Y-108899513D01*
X173036614Y-108899511D01*
X172976606Y-108864865D01*
X172933888Y-108840201D01*
X172921780Y-108836957D01*
X172909673Y-108833713D01*
X172909670Y-108833712D01*
X172871478Y-108823478D01*
X172819309Y-108809500D01*
X129038282Y-108809500D01*
X128971243Y-108789815D01*
X128925488Y-108737011D01*
X128915544Y-108667853D01*
X128928928Y-108627040D01*
X128930730Y-108623668D01*
X128930732Y-108623663D01*
X128991039Y-108478072D01*
X129008398Y-108420848D01*
X129039141Y-108266285D01*
X129039141Y-108266281D01*
X129045000Y-108206791D01*
X129045000Y-108049208D01*
X129039141Y-107989718D01*
X129039141Y-107989714D01*
X129008398Y-107835151D01*
X128991039Y-107777927D01*
X128930733Y-107632338D01*
X128902550Y-107579612D01*
X128902544Y-107579602D01*
X128821628Y-107458502D01*
X128383670Y-107896460D01*
X128340099Y-107820993D01*
X128247007Y-107727901D01*
X128171538Y-107684329D01*
X128609495Y-107246371D01*
X128488397Y-107165455D01*
X128488387Y-107165449D01*
X128435661Y-107137266D01*
X128290072Y-107076960D01*
X128232848Y-107059601D01*
X128078283Y-107028858D01*
X128018791Y-107023000D01*
X127300232Y-107023000D01*
X127293173Y-107023081D01*
X127183500Y-107046215D01*
X127183499Y-107046216D01*
X127110044Y-107076641D01*
X127103550Y-107079419D01*
X127708461Y-107684329D01*
X127632993Y-107727901D01*
X127539901Y-107820993D01*
X127496329Y-107896461D01*
X126892293Y-107292424D01*
X126892292Y-107292424D01*
X126888663Y-107297993D01*
X126888662Y-107297995D01*
X126858219Y-107371494D01*
X126855596Y-107378038D01*
X126835000Y-107488220D01*
X126835000Y-108767767D01*
X126835081Y-108774826D01*
X126839380Y-108795206D01*
X126833956Y-108864865D01*
X126791734Y-108920533D01*
X126726117Y-108944537D01*
X126718050Y-108944800D01*
X111381237Y-108944800D01*
X111314198Y-108925115D01*
X111268443Y-108872311D01*
X111258499Y-108803153D01*
X111259348Y-108798015D01*
X111265000Y-108767779D01*
X111265000Y-107488232D01*
X111264918Y-107481173D01*
X111241785Y-107371504D01*
X111211309Y-107297927D01*
X111208580Y-107291551D01*
X111208579Y-107291551D01*
X110603670Y-107896460D01*
X110560099Y-107820993D01*
X110467007Y-107727901D01*
X110391539Y-107684329D01*
X110995575Y-107080293D01*
X110995574Y-107080291D01*
X110990010Y-107076664D01*
X110916506Y-107046219D01*
X110909961Y-107043596D01*
X110799780Y-107023000D01*
X110081209Y-107023000D01*
X110021718Y-107028858D01*
X110021714Y-107028858D01*
X109867151Y-107059601D01*
X109809927Y-107076960D01*
X109664338Y-107137266D01*
X109611612Y-107165449D01*
X109611607Y-107165452D01*
X109490503Y-107246370D01*
X109490503Y-107246371D01*
X109928461Y-107684329D01*
X109852993Y-107727901D01*
X109759901Y-107820993D01*
X109716329Y-107896461D01*
X109278371Y-107458503D01*
X109278370Y-107458503D01*
X109197452Y-107579607D01*
X109197449Y-107579612D01*
X109169266Y-107632338D01*
X109108960Y-107777927D01*
X109091601Y-107835151D01*
X109060858Y-107989714D01*
X109060858Y-107989718D01*
X109055000Y-108049208D01*
X109055000Y-108206791D01*
X109060858Y-108266281D01*
X109060858Y-108266285D01*
X109091601Y-108420848D01*
X109108960Y-108478072D01*
X109169266Y-108623661D01*
X109197449Y-108676387D01*
X109197455Y-108676397D01*
X109278371Y-108797495D01*
X109716329Y-108359538D01*
X109759901Y-108435007D01*
X109852993Y-108528099D01*
X109928460Y-108571670D01*
X109490502Y-109009628D01*
X109611602Y-109090544D01*
X109611612Y-109090550D01*
X109664338Y-109118733D01*
X109809927Y-109179039D01*
X109867151Y-109196398D01*
X110021716Y-109227141D01*
X110081209Y-109233000D01*
X110658534Y-109233000D01*
X110725573Y-109252685D01*
X110771328Y-109305489D01*
X110781272Y-109374647D01*
X110752247Y-109438203D01*
X110746228Y-109444667D01*
X110633894Y-109557002D01*
X110606230Y-109584666D01*
X110544907Y-109618150D01*
X110480232Y-109614915D01*
X110417702Y-109594598D01*
X110417698Y-109594597D01*
X110286271Y-109573781D01*
X110246611Y-109567500D01*
X110073389Y-109567500D01*
X110033728Y-109573781D01*
X109902302Y-109594597D01*
X109737552Y-109648128D01*
X109583211Y-109726768D01*
X109543268Y-109755789D01*
X109443072Y-109828586D01*
X109443070Y-109828588D01*
X109443069Y-109828588D01*
X109320588Y-109951069D01*
X109320588Y-109951070D01*
X109320586Y-109951072D01*
X109294158Y-109987447D01*
X109218768Y-110091211D01*
X109140128Y-110245552D01*
X109086597Y-110410302D01*
X109059500Y-110581389D01*
X109059500Y-110754610D01*
X109086597Y-110925698D01*
X109086598Y-110925702D01*
X109106915Y-110988232D01*
X109108910Y-111058073D01*
X109076665Y-111114230D01*
X106031213Y-114159683D01*
X106031209Y-114159689D01*
X105971901Y-114262412D01*
X105971900Y-114262417D01*
X105949741Y-114345117D01*
X105941200Y-114376991D01*
X100500500Y-114376991D01*
X100500500Y-107624000D01*
X100520185Y-107556961D01*
X100572989Y-107511206D01*
X100624500Y-107500000D01*
X107500000Y-107500000D01*
X107500000Y-105501389D01*
X109059500Y-105501389D01*
X109059500Y-105674611D01*
X109086598Y-105845701D01*
X109140127Y-106010445D01*
X109218768Y-106164788D01*
X109320586Y-106304928D01*
X109443072Y-106427414D01*
X109583212Y-106529232D01*
X109737555Y-106607873D01*
X109902299Y-106661402D01*
X110073389Y-106688500D01*
X110073390Y-106688500D01*
X110246610Y-106688500D01*
X110246611Y-106688500D01*
X110417701Y-106661402D01*
X110582445Y-106607873D01*
X110736788Y-106529232D01*
X110876928Y-106427414D01*
X110999414Y-106304928D01*
X111101232Y-106164788D01*
X111179873Y-106010445D01*
X111233402Y-105845701D01*
X111260500Y-105674611D01*
X111260500Y-105501389D01*
X126839500Y-105501389D01*
X126839500Y-105674611D01*
X126866598Y-105845701D01*
X126920127Y-106010445D01*
X126998768Y-106164788D01*
X127100586Y-106304928D01*
X127223072Y-106427414D01*
X127363212Y-106529232D01*
X127517555Y-106607873D01*
X127682299Y-106661402D01*
X127853389Y-106688500D01*
X127853390Y-106688500D01*
X128026610Y-106688500D01*
X128026611Y-106688500D01*
X128197701Y-106661402D01*
X128362445Y-106607873D01*
X128516788Y-106529232D01*
X128656928Y-106427414D01*
X128779414Y-106304928D01*
X128881232Y-106164788D01*
X128959873Y-106010445D01*
X129013402Y-105845701D01*
X129040500Y-105674611D01*
X129040500Y-105501389D01*
X129013402Y-105330299D01*
X128959873Y-105165555D01*
X128881232Y-105011212D01*
X128779414Y-104871072D01*
X128656928Y-104748586D01*
X128516788Y-104646768D01*
X128362445Y-104568127D01*
X128197701Y-104514598D01*
X128197699Y-104514597D01*
X128197698Y-104514597D01*
X128066271Y-104493781D01*
X128026611Y-104487500D01*
X127853389Y-104487500D01*
X127813728Y-104493781D01*
X127682302Y-104514597D01*
X127517552Y-104568128D01*
X127363211Y-104646768D01*
X127283256Y-104704859D01*
X127223072Y-104748586D01*
X127223070Y-104748588D01*
X127223069Y-104748588D01*
X127100588Y-104871069D01*
X127100588Y-104871070D01*
X127100586Y-104871072D01*
X127056859Y-104931256D01*
X126998768Y-105011211D01*
X126920128Y-105165552D01*
X126866597Y-105330302D01*
X126839500Y-105501389D01*
X111260500Y-105501389D01*
X111233402Y-105330299D01*
X111179873Y-105165555D01*
X111101232Y-105011212D01*
X110999414Y-104871072D01*
X110876928Y-104748586D01*
X110736788Y-104646768D01*
X110582445Y-104568127D01*
X110417701Y-104514598D01*
X110417699Y-104514597D01*
X110417698Y-104514597D01*
X110286271Y-104493781D01*
X110246611Y-104487500D01*
X110073389Y-104487500D01*
X110033728Y-104493781D01*
X109902302Y-104514597D01*
X109737552Y-104568128D01*
X109583211Y-104646768D01*
X109503256Y-104704859D01*
X109443072Y-104748586D01*
X109443070Y-104748588D01*
X109443069Y-104748588D01*
X109320588Y-104871069D01*
X109320588Y-104871070D01*
X109320586Y-104871072D01*
X109276859Y-104931256D01*
X109218768Y-105011211D01*
X109140128Y-105165552D01*
X109086597Y-105330302D01*
X109059500Y-105501389D01*
X107500000Y-105501389D01*
X107500000Y-102400135D01*
X109059500Y-102400135D01*
X109059500Y-103695870D01*
X109059501Y-103695876D01*
X109065908Y-103755483D01*
X109116202Y-103890328D01*
X109116206Y-103890335D01*
X109202452Y-104005544D01*
X109202455Y-104005547D01*
X109317664Y-104091793D01*
X109317671Y-104091797D01*
X109452517Y-104142091D01*
X109452516Y-104142091D01*
X109459444Y-104142835D01*
X109512127Y-104148500D01*
X110807872Y-104148499D01*
X110867483Y-104142091D01*
X111002331Y-104091796D01*
X111117546Y-104005546D01*
X111203796Y-103890331D01*
X111254091Y-103755483D01*
X111260500Y-103695873D01*
X111260499Y-102961389D01*
X126839500Y-102961389D01*
X126839500Y-103134611D01*
X126866598Y-103305701D01*
X126920127Y-103470445D01*
X126998768Y-103624788D01*
X127100586Y-103764928D01*
X127223072Y-103887414D01*
X127363212Y-103989232D01*
X127517555Y-104067873D01*
X127682299Y-104121402D01*
X127853389Y-104148500D01*
X127853390Y-104148500D01*
X128026610Y-104148500D01*
X128026611Y-104148500D01*
X128197701Y-104121402D01*
X128362445Y-104067873D01*
X128516788Y-103989232D01*
X128656928Y-103887414D01*
X128779414Y-103764928D01*
X128881232Y-103624788D01*
X128959873Y-103470445D01*
X129013402Y-103305701D01*
X129040500Y-103134611D01*
X129040500Y-102961389D01*
X129013402Y-102790299D01*
X128959873Y-102625555D01*
X128881232Y-102471212D01*
X128779414Y-102331072D01*
X128656928Y-102208586D01*
X128516788Y-102106768D01*
X128362445Y-102028127D01*
X128197701Y-101974598D01*
X128197699Y-101974597D01*
X128197698Y-101974597D01*
X128066271Y-101953781D01*
X128026611Y-101947500D01*
X127853389Y-101947500D01*
X127813728Y-101953781D01*
X127682302Y-101974597D01*
X127517552Y-102028128D01*
X127363211Y-102106768D01*
X127283256Y-102164859D01*
X127223072Y-102208586D01*
X127223070Y-102208588D01*
X127223069Y-102208588D01*
X127100588Y-102331069D01*
X127100588Y-102331070D01*
X127100586Y-102331072D01*
X127093725Y-102340516D01*
X126998768Y-102471211D01*
X126920128Y-102625552D01*
X126866597Y-102790302D01*
X126839500Y-102961389D01*
X111260499Y-102961389D01*
X111260499Y-102400128D01*
X111254091Y-102340517D01*
X111250568Y-102331072D01*
X111203797Y-102205671D01*
X111203793Y-102205664D01*
X111117547Y-102090455D01*
X111117544Y-102090452D01*
X111002335Y-102004206D01*
X111002328Y-102004202D01*
X110867482Y-101953908D01*
X110867483Y-101953908D01*
X110807883Y-101947501D01*
X110807881Y-101947500D01*
X110807873Y-101947500D01*
X110807864Y-101947500D01*
X109512129Y-101947500D01*
X109512123Y-101947501D01*
X109452516Y-101953908D01*
X109317671Y-102004202D01*
X109317664Y-102004206D01*
X109202455Y-102090452D01*
X109202452Y-102090455D01*
X109116206Y-102205664D01*
X109116202Y-102205671D01*
X109065908Y-102340517D01*
X109059501Y-102400116D01*
X109059501Y-102400123D01*
X109059500Y-102400135D01*
X107500000Y-102400135D01*
X107500000Y-100624500D01*
X107519685Y-100557461D01*
X107572489Y-100511706D01*
X107624000Y-100500500D01*
X172376000Y-100500500D01*
X172443039Y-100520185D01*
G37*
%TD.AperFunction*%
%TD*%
M02*
