M48
; DRILL file KiCad 10.0.6-1.fc44app2 date 2026-10-06T11:56:40
; FORMAT={-:-/ absolute / metric / decimal}
; #@! TF.CreationDate,2026-10-06T11:56:40+02:00
; #@! TF.GenerationSoftware,Kicad,Pcbnew,10.0.6-1.fc44app2
; #@! TF.FileFunction,Plated,1,2,PTH
FMAT,2
METRIC
; #@! TA.AperFunction,Plated,PTH,ViaDrill
T1C0.400
; #@! TA.AperFunction,Plated,PTH,ComponentDrill
T2C1.000
%
G90
G05
T1
X119.0Y-120.0
X134.003Y-115.513
X143.065Y-112.552
X143.617Y-113.626
X148.256Y-115.126
X149.165Y-111.778
X157.557Y-114.19
X161.631Y-117.144
X163.838Y-125.4
X165.651Y-142.849
X167.952Y-150.033
X170.803Y-149.258
X171.387Y-137.076
T2
X110.16Y-103.048
X110.16Y-105.588
X110.16Y-108.128
X110.16Y-110.668
X110.16Y-113.208
X110.16Y-115.748
X110.16Y-118.288
X110.16Y-120.828
X110.16Y-123.368
X110.16Y-125.908
X110.16Y-128.448
X110.16Y-130.988
X110.16Y-133.528
X110.16Y-136.068
X110.16Y-138.608
X110.16Y-141.148
X110.16Y-143.688
X110.16Y-146.228
X110.16Y-148.768
X110.16Y-151.308
X127.94Y-103.048
X127.94Y-105.588
X127.94Y-108.128
X127.94Y-110.668
X127.94Y-113.208
X127.94Y-115.748
X127.94Y-118.288
X127.94Y-120.828
X127.94Y-123.368
X127.94Y-125.908
X127.94Y-128.448
X127.94Y-130.988
X127.94Y-133.528
X127.94Y-136.068
X127.94Y-138.608
X127.94Y-141.148
X127.94Y-143.688
X127.94Y-146.228
X127.94Y-148.768
X127.94Y-151.308
X143.18Y-115.24
X143.18Y-117.78
X143.18Y-120.32
X143.18Y-122.86
X143.18Y-125.4
X143.18Y-127.94
X143.18Y-130.48
X143.18Y-133.02
X143.18Y-135.56
X143.18Y-138.1
X151.816Y-115.24
X151.816Y-117.78
X151.816Y-120.32
X151.816Y-122.86
X151.816Y-125.4
X151.816Y-127.94
X151.816Y-130.48
X151.816Y-133.02
X151.816Y-135.56
X151.816Y-138.1
X173.66Y-110.16
X173.66Y-112.7
X173.66Y-115.24
X173.66Y-117.78
X173.66Y-120.32
X173.66Y-122.86
X173.66Y-125.4
X173.66Y-127.94
X173.66Y-130.48
X173.66Y-133.02
X173.66Y-135.56
X173.66Y-138.1
X173.66Y-140.64
X173.66Y-143.18
X173.66Y-145.72
X173.66Y-148.26
X173.66Y-150.8
X173.66Y-153.34
X173.66Y-155.88
M30
