%TF.GenerationSoftware,KiCad,Pcbnew,10.0.6-1.fc44app2*%
%TF.CreationDate,2026-10-06T11:56:39+02:00*%
%TF.ProjectId,goodjohn-carrier,676f6f64-6a6f-4686-9e2d-636172726965,1.0-prototype*%
%TF.SameCoordinates,Original*%
%TF.FileFunction,Soldermask,Top*%
%TF.FilePolarity,Negative*%
%FSLAX46Y46*%
G04 Gerber Fmt 4.6, Leading zero omitted, Abs format (unit mm)*
G04 Created by KiCad (PCBNEW 10.0.6-1.fc44app2) date 2026-10-06 11:56:39*
%MOMM*%
%LPD*%
G01*
G04 APERTURE LIST*
G04 Aperture macros list*
%AMRoundRect*
0 Rectangle with rounded corners*
0 $1 Rounding radius*
0 $2 $3 $4 $5 $6 $7 $8 $9 X,Y pos of 4 corners*
0 Add a 4 corners polygon primitive as box body*
4,1,4,$2,$3,$4,$5,$6,$7,$8,$9,$2,$3,0*
0 Add four circle primitives for the rounded corners*
1,1,$1+$1,$2,$3*
1,1,$1+$1,$4,$5*
1,1,$1+$1,$6,$7*
1,1,$1+$1,$8,$9*
0 Add four rect primitives between the rounded corners*
20,1,$1+$1,$2,$3,$4,$5,0*
20,1,$1+$1,$4,$5,$6,$7,0*
20,1,$1+$1,$6,$7,$8,$9,0*
20,1,$1+$1,$8,$9,$2,$3,0*%
%AMFreePoly0*
4,1,37,0.603843,0.796157,0.639018,0.796157,0.711114,0.766294,0.766294,0.711114,0.796157,0.639018,0.796157,0.603843,0.800000,0.600000,0.800000,-0.600000,0.796157,-0.603843,0.796157,-0.639018,0.766294,-0.711114,0.711114,-0.766294,0.639018,-0.796157,0.603843,-0.796157,0.600000,-0.800000,0.000000,-0.800000,0.000000,-0.796148,-0.078414,-0.796148,-0.232228,-0.765552,-0.377117,-0.705537,
-0.507515,-0.618408,-0.618408,-0.507515,-0.705537,-0.377117,-0.765552,-0.232228,-0.796148,-0.078414,-0.796148,0.078414,-0.765552,0.232228,-0.705537,0.377117,-0.618408,0.507515,-0.507515,0.618408,-0.377117,0.705537,-0.232228,0.765552,-0.078414,0.796148,0.000000,0.796148,0.000000,0.800000,0.600000,0.800000,0.603843,0.796157,0.603843,0.796157,$1*%
%AMFreePoly1*
4,1,37,0.000000,0.796148,0.078414,0.796148,0.232228,0.765552,0.377117,0.705537,0.507515,0.618408,0.618408,0.507515,0.705537,0.377117,0.765552,0.232228,0.796148,0.078414,0.796148,-0.078414,0.765552,-0.232228,0.705537,-0.377117,0.618408,-0.507515,0.507515,-0.618408,0.377117,-0.705537,0.232228,-0.765552,0.078414,-0.796148,0.000000,-0.796148,0.000000,-0.800000,-0.600000,-0.800000,
-0.603843,-0.796157,-0.639018,-0.796157,-0.711114,-0.766294,-0.766294,-0.711114,-0.796157,-0.639018,-0.796157,-0.603843,-0.800000,-0.600000,-0.800000,0.600000,-0.796157,0.603843,-0.796157,0.639018,-0.766294,0.711114,-0.711114,0.766294,-0.639018,0.796157,-0.603843,0.796157,-0.600000,0.800000,0.000000,0.800000,0.000000,0.796148,0.000000,0.796148,$1*%
G04 Aperture macros list end*
%ADD10R,1.700000X1.700000*%
%ADD11C,1.700000*%
%ADD12C,3.200000*%
%ADD13RoundRect,0.200000X-0.600000X-0.600000X0.600000X-0.600000X0.600000X0.600000X-0.600000X0.600000X0*%
%ADD14C,1.600000*%
%ADD15FreePoly0,0.000000*%
%ADD16FreePoly1,0.000000*%
G04 APERTURE END LIST*
D10*
%TO.C,J1*%
X173660000Y-155880000D03*
D11*
X173660000Y-153340000D03*
X173660000Y-150800000D03*
X173660000Y-148260000D03*
X173660000Y-145720000D03*
X173660000Y-143180000D03*
X173660000Y-140640000D03*
X173660000Y-138100000D03*
X173660000Y-135560000D03*
X173660000Y-133020000D03*
X173660000Y-130480000D03*
X173660000Y-127940000D03*
X173660000Y-125400000D03*
X173660000Y-122860000D03*
X173660000Y-120320000D03*
X173660000Y-117780000D03*
X173660000Y-115240000D03*
X173660000Y-112700000D03*
X173660000Y-110160000D03*
%TD*%
D12*
%TO.C,H1*%
X104000000Y-104000000D03*
%TD*%
%TO.C,H3*%
X104000000Y-162000000D03*
%TD*%
D10*
%TO.C,J3*%
X143180000Y-115240000D03*
D11*
X143180000Y-117780000D03*
X143180000Y-120320000D03*
X143180000Y-122860000D03*
X143180000Y-125400000D03*
X143180000Y-127940000D03*
X143180000Y-130480000D03*
X143180000Y-133020000D03*
X143180000Y-135560000D03*
X143180000Y-138100000D03*
%TD*%
D12*
%TO.C,H2*%
X176000000Y-104000000D03*
%TD*%
D13*
%TO.C,U1*%
X110160000Y-103048000D03*
D14*
X110160000Y-105588000D03*
D15*
X110160000Y-108128000D03*
D14*
X110160000Y-110668000D03*
X110160000Y-113208000D03*
X110160000Y-115748000D03*
X110160000Y-118288000D03*
D15*
X110160000Y-120828000D03*
D14*
X110160000Y-123368000D03*
X110160000Y-125908000D03*
X110160000Y-128448000D03*
X110160000Y-130988000D03*
D15*
X110160000Y-133528000D03*
D14*
X110160000Y-136068000D03*
X110160000Y-138608000D03*
X110160000Y-141148000D03*
X110160000Y-143688000D03*
D15*
X110160000Y-146228000D03*
D14*
X110160000Y-148768000D03*
X110160000Y-151308000D03*
X127940000Y-151308000D03*
X127940000Y-148768000D03*
D16*
X127940000Y-146228000D03*
D14*
X127940000Y-143688000D03*
X127940000Y-141148000D03*
X127940000Y-138608000D03*
X127940000Y-136068000D03*
D16*
X127940000Y-133528000D03*
D14*
X127940000Y-130988000D03*
X127940000Y-128448000D03*
X127940000Y-125908000D03*
X127940000Y-123368000D03*
D16*
X127940000Y-120828000D03*
D14*
X127940000Y-118288000D03*
X127940000Y-115748000D03*
X127940000Y-113208000D03*
X127940000Y-110668000D03*
D16*
X127940000Y-108128000D03*
D14*
X127940000Y-105588000D03*
X127940000Y-103048000D03*
%TD*%
D10*
%TO.C,J2*%
X151816000Y-115240000D03*
D11*
X151816000Y-117780000D03*
X151816000Y-120320000D03*
X151816000Y-122860000D03*
X151816000Y-125400000D03*
X151816000Y-127940000D03*
X151816000Y-130480000D03*
X151816000Y-133020000D03*
X151816000Y-135560000D03*
X151816000Y-138100000D03*
%TD*%
D12*
%TO.C,H4*%
X176000000Y-162000000D03*
%TD*%
M02*
